<svg width="444" height="300" viewBox="0 0 444 300" fill="none" xmlns="http://www.w3.org/2000/svg">
<path d="M443.991 0H0V229.619H443.991V0Z" fill="white"/>
<path fill-rule="evenodd" clip-rule="evenodd" d="M206.916 295.586C199.368 295.61 192.033 295.868 184.464 295.893C153.695 295.996 122.643 295.848 91.7619 294.599C83.0339 294.247 80.8552 294.256 72.1648 293.709C67.0336 293.689 51.6206 293.265 52.3922 286.273C52.7328 273.254 55.9556 260.286 56.9707 247.301C58.9189 222.889 60.5778 197.714 70.3604 174.881C72.6247 169.428 77.4878 165.862 82.3019 162.655C87.1296 159.196 88.3144 155.355 92.7703 151.448C93.7123 150.621 99.0624 150.285 101.941 148.189C106.131 145.139 108.209 140.144 109.772 139.294C110.922 138.668 110.901 134.352 113.207 132.825C116.3 130.775 126.159 129.25 129.746 128.965C133.189 128.692 139.177 129.267 142.407 130.527C147.794 132.631 149.942 136.642 152.314 141.81C183.655 151.499 212.302 167.907 221.198 201.002C228.87 228.758 229.151 258.517 226.186 286.984C225.594 289.065 226.009 292.328 224.212 293.709C230.46 294.068 207.764 295.357 206.916 295.586Z" fill="white"/>
<path fill-rule="evenodd" clip-rule="evenodd" d="M64.3654 268.179C64.9585 267.883 65.5768 267.545 66.2542 267.52C67.4173 267.48 67.4189 265.67 66.2542 265.71C65.2382 265.746 64.3459 266.17 63.4521 266.616C62.4089 267.137 63.3265 268.697 64.3654 268.179ZM66.2542 217.224C65.4604 217.225 64.6603 217.325 64.0506 217.88C63.6882 218.211 63.7169 218.826 64.0506 219.16C64.4078 219.517 64.9693 219.489 65.3305 219.16C65.2126 219.267 65.3294 219.161 65.372 219.137C65.3823 219.132 65.3879 219.128 65.3906 219.126C65.3996 219.124 65.4088 219.122 65.4234 219.118C65.518 219.094 65.6115 219.071 65.707 219.054C65.7086 219.058 65.9091 219.04 65.9562 219.038C66.0557 219.035 66.1548 219.034 66.2542 219.034C66.745 219.034 67.159 218.62 67.159 218.129C67.159 217.64 66.7432 217.224 66.2542 217.224ZM74.7631 237.531C75.0223 238.667 76.7667 238.183 76.5081 237.048C76.1321 235.4 76.2007 233.71 76.5081 232.055C76.7198 230.915 74.9755 230.431 74.7631 231.575C74.3942 233.559 74.3117 235.551 74.7631 237.531ZM77.0488 172.471C78.3964 172.15 79.7295 172.112 81.1081 172.112C82.2744 172.111 82.2726 170.301 81.1081 170.302C79.5705 170.302 78.0695 170.368 76.5675 170.725C75.4333 170.994 75.9166 172.739 77.0488 172.471ZM81.5647 216.565C82.3464 216.174 83.1283 215.783 83.91 215.392C84.9531 214.87 84.0356 213.309 82.9967 213.828L80.6514 215.002C79.6084 215.523 80.526 217.084 81.5647 216.565ZM81.8903 252.214C82.8819 253.644 84.2759 254.532 85.949 254.976C87.0778 255.274 87.555 253.528 86.4302 253.229C85.2337 252.913 84.1708 252.335 83.453 251.301C82.7931 250.348 81.225 251.254 81.8903 252.214ZM88.1434 188.477C88.4118 187.976 88.8156 187.764 89.3168 187.753C90.4813 187.726 90.4815 185.916 89.3168 185.943C88.1745 185.968 87.1269 186.542 86.5811 187.564C86.0315 188.592 87.5944 189.505 88.1434 188.477ZM99.6219 200.782C99.9464 201.136 100.575 201.127 100.902 200.782C101.101 200.571 101.269 200.336 101.401 200.078C101.451 199.98 101.499 199.88 101.554 199.785C101.579 199.742 101.606 199.7 101.634 199.659C101.644 199.651 101.663 199.631 101.684 199.609C102.031 199.241 102.022 198.699 101.684 198.329C101.359 197.976 100.73 197.985 100.404 198.329C100.204 198.54 100.036 198.776 99.9042 199.034C99.854 199.132 99.8066 199.232 99.7513 199.327C99.7266 199.369 99.6992 199.411 99.6712 199.452C99.6618 199.46 99.6423 199.481 99.6219 199.502C99.2741 199.87 99.2828 200.413 99.6219 200.782ZM100.587 227.514C101.765 228.052 103.058 228.052 104.237 227.514C104.683 227.31 104.789 226.664 104.561 226.274C104.297 225.823 103.767 225.747 103.323 225.951C102.789 226.195 102.034 226.195 101.5 225.951C101.054 225.747 100.529 225.819 100.262 226.274C100.033 226.666 100.142 227.31 100.587 227.514ZM103.802 246.435C104.004 246.913 104.441 247.168 104.953 247.188C105.459 247.206 105.836 246.758 105.857 246.283C105.871 245.975 105.705 245.713 105.467 245.552C105.467 245.534 105.466 245.518 105.466 245.5C105.466 244.993 105.052 244.616 104.561 244.596C104.073 244.574 103.656 245.027 103.657 245.5C103.657 245.821 103.677 246.137 103.802 246.435ZM108.471 276.514C109.915 276.537 111.326 276.882 112.77 276.904C113.937 276.925 113.934 275.115 112.77 275.095C111.326 275.072 109.915 274.727 108.471 274.705C107.304 274.684 107.307 276.496 108.471 276.514ZM114.476 160.507C115.321 161.313 116.366 161.71 117.395 162.213C118.439 162.723 119.355 161.161 118.309 160.65C117.436 160.223 116.471 159.908 115.756 159.227C114.912 158.423 113.631 159.702 114.476 160.507ZM116.745 181.373C117.338 181.077 117.957 180.738 118.634 180.715C119.797 180.674 119.799 178.863 118.634 178.904C117.618 178.939 116.726 179.363 115.832 179.81C114.788 180.331 115.706 181.892 116.745 181.373ZM127.624 265.118C127.892 264.616 128.296 264.403 128.797 264.392C129.962 264.367 129.962 262.555 128.797 262.582C127.655 262.609 126.607 263.183 126.061 264.204C125.512 265.233 127.074 266.146 127.624 265.118ZM131.391 225.807C131.751 225.478 131.726 224.863 131.391 224.527C131 224.137 130.61 223.746 130.218 223.355C129.861 222.997 129.3 223.023 128.939 223.355C128.579 223.685 128.604 224.298 128.939 224.635C129.33 225.025 129.721 225.417 130.112 225.807C130.469 226.166 131.03 226.139 131.391 225.807ZM135.833 287.071C137.139 287.042 138.363 286.668 139.592 286.257C140.693 285.892 140.218 284.143 139.111 284.513C138.042 284.867 136.969 285.235 135.833 285.262C134.668 285.289 134.668 287.098 135.833 287.071ZM141.697 248.361C142.876 248.328 143.854 247.727 144.682 246.922C145.518 246.11 144.237 244.829 143.402 245.643C142.928 246.103 142.382 246.531 141.697 246.552C140.532 246.583 140.531 248.393 141.697 248.361ZM138.056 198.578C138.041 199.06 137.838 199.576 137.539 199.893C136.739 200.741 138.017 202.022 138.818 201.173C139.479 200.473 139.837 199.536 139.865 198.578C139.899 197.411 138.089 197.416 138.056 198.578ZM151.859 159.151C152.238 158.409 152.734 157.539 153.489 157.13C154.514 156.573 153.6 155.011 152.576 155.566C151.55 156.123 150.815 157.221 150.296 158.237C149.767 159.274 151.329 160.189 151.859 159.151ZM154.205 177.977C154.625 177.965 155.042 177.893 155.446 177.783C155.619 177.736 155.791 177.682 155.964 177.635C156.038 177.615 156.353 177.576 156.159 177.586C156.649 177.56 157.064 177.193 157.064 176.681C157.064 176.211 156.648 175.75 156.159 175.776C155.488 175.812 154.877 176.148 154.205 176.167C153.041 176.2 153.04 178.01 154.205 177.977ZM160.068 206.913H162.023C163.189 206.913 163.187 205.102 162.023 205.102H160.068C158.902 205.102 158.904 206.913 160.068 206.913ZM162.348 286.948C162.941 287.244 163.639 287.527 164.119 287.98C164.966 288.78 166.247 287.502 165.399 286.699C164.788 286.121 164.006 285.757 163.261 285.385C162.823 285.165 162.284 285.264 162.023 285.71C161.788 286.112 161.911 286.731 162.348 286.948ZM166.715 264.076C166.791 264.053 166.871 264.04 166.948 264.029C167.255 263.988 167.577 264.002 167.886 264.002C169.053 264.002 169.051 262.19 167.886 262.192C166.969 262.192 166.014 262.206 165.292 262.847C164.926 263.174 164.961 263.798 165.292 264.127C165.652 264.488 166.207 264.452 166.571 264.127C166.533 264.163 166.665 264.089 166.715 264.076ZM167.886 233.313C167.623 232.77 167.619 232.418 167.618 231.815C167.617 230.649 165.808 230.651 165.809 231.815C165.809 232.689 165.939 233.434 166.323 234.228C166.537 234.669 167.164 234.784 167.561 234.553C168.006 234.293 168.099 233.752 167.886 233.313ZM173.118 190.849C174.168 191.206 175.105 191.711 176.029 192.322C177.005 192.966 177.91 191.397 176.943 190.758C175.888 190.062 174.797 189.51 173.599 189.103C172.492 188.726 172.022 190.476 173.118 190.849ZM179.222 160.381C180.002 160.403 180.807 160.702 181.502 161.04C182.546 161.547 183.463 159.986 182.415 159.476C181.422 158.994 180.336 158.602 179.222 158.571C178.055 158.538 178.06 160.349 179.222 160.381ZM181.958 241.713C182.265 241.728 182.527 241.562 182.69 241.322C182.707 241.322 182.723 241.322 182.74 241.322C183.247 241.322 183.623 240.908 183.645 240.416C183.667 239.93 183.213 239.513 182.74 239.513C182.421 239.513 182.104 239.533 181.807 239.656C181.328 239.86 181.073 240.298 181.054 240.809C181.034 241.316 181.484 241.692 181.958 241.713ZM186.409 179.118C187.52 179.481 187.992 177.733 186.89 177.372C185.596 176.95 184.274 176.622 182.981 176.199C181.869 175.836 181.397 177.585 182.5 177.945C183.793 178.368 185.115 178.695 186.409 179.118ZM190.467 213.287C190.812 214.398 192.558 213.921 192.212 212.805C191.878 211.729 191.854 210.645 191.854 209.527C191.853 208.36 190.044 208.362 190.044 209.527C190.045 210.8 190.087 212.061 190.467 213.287ZM202.567 254.212C202.632 254.662 202.99 254.987 203.458 255.008C203.934 255.03 204.38 254.577 204.362 254.104C204.329 253.191 203.587 252.449 202.676 252.415C202.169 252.397 201.792 252.846 201.771 253.321C201.75 253.783 202.136 254.144 202.567 254.212ZM208.69 202.188C209.646 202.507 210.668 202.811 211.417 203.519C212.264 204.319 213.546 203.041 212.697 202.239C211.708 201.306 210.437 200.865 209.171 200.442C208.062 200.072 207.591 201.821 208.69 202.188ZM212.84 237.356C213.102 237.804 213.635 237.885 214.077 237.681C214.671 237.403 215.326 237.414 215.966 237.412C217.132 237.412 217.131 235.602 215.966 235.602C214.979 235.602 214.068 235.696 213.164 236.116C212.719 236.324 212.611 236.963 212.84 237.356ZM215.184 280.033C215.691 280.053 216.068 279.604 216.089 279.129C216.11 278.667 215.724 278.306 215.293 278.239C215.228 277.788 214.87 277.463 214.403 277.44C213.926 277.42 213.48 277.873 213.498 278.346C213.531 279.257 214.273 280.001 215.184 280.033ZM50.3154 286.879C50.6228 285.771 51.3264 284.878 51.8579 283.883C52.0362 283.546 52.0983 283.338 52.1949 283.093C52.3261 283.356 52.5808 283.553 52.9636 283.553C53.6984 283.553 54.5577 283.506 55.2434 283.82C55.6892 284.024 56.2146 283.952 56.4812 283.495C56.7104 283.102 56.601 282.461 56.1568 282.257C55.1461 281.795 54.0599 281.743 52.9636 281.741C52.693 281.741 52.488 281.842 52.3431 281.992C51.9243 276.254 51.9346 270.511 52.331 264.769C52.7537 258.631 53.7267 252.617 54.7447 246.558C55.2376 243.621 55.8778 240.654 55.7533 237.663C55.6289 234.692 54.3555 231.922 55.258 228.942C55.6199 227.747 56.2397 226.653 56.6425 225.471C57.0743 224.2 57.036 222.944 56.8391 221.627C56.4344 218.945 55.7625 216.295 56.8371 213.677C57.312 212.516 58.0814 211.48 58.4521 210.281C58.9135 208.79 58.8501 207.14 58.9272 205.594C59.0833 202.476 59.1239 199.337 59.382 196.226C59.4972 194.832 59.7481 193.511 60.3206 192.232C60.8705 191.001 61.6869 189.881 62.0511 188.575C62.413 187.29 62.4446 185.935 62.6392 184.62C62.8428 183.23 63.1617 181.861 63.5916 180.526C65.2521 175.358 68.2945 170.715 71.889 166.689C75.7098 162.41 80.2769 159.188 85.1247 156.185C87.6738 154.606 90.2227 153.027 92.7701 151.448C92.8246 151.744 93.0134 152.016 93.376 152.137C94.3326 152.457 95.354 152.761 96.1038 153.469C96.9508 154.268 98.2323 152.99 97.3835 152.189C96.4982 151.353 95.3853 150.912 94.2529 150.526C95.4136 149.794 96.5868 149.036 97.8966 148.613C99.0438 148.242 100.735 148.566 101.666 147.724C102.396 147.061 102.627 145.832 102.907 144.932C103.258 143.814 103.561 142.635 104.007 141.549C104.31 140.806 104.751 140.094 105.307 139.519C105.552 138.578 106 137.718 106.791 137.195C108.863 135.824 111.408 137.186 112.32 139.141C113.073 139.139 113.867 139.304 114.6 139.349C116.107 139.444 117.615 139.487 119.124 139.483C122.076 139.474 125.031 139.281 127.958 138.89C133.192 138.188 138.271 136.774 143.417 135.672C143.446 135.604 143.481 135.536 143.521 135.468C144.63 133.608 147.392 133.923 149.132 134.627C149.878 134.928 150.638 135.308 151.065 136.014C151.518 136.319 151.909 136.69 152.169 137.082C152.708 137.89 153.124 139.519 154.217 139.655C154.936 139.743 155.667 139.605 156.397 139.709C157.311 139.836 158.13 140.157 158.974 140.524C165.398 143.314 172.04 146.416 179.012 147.498C180.647 147.751 182.312 148.014 183.733 148.93C184.886 149.675 185.778 150.697 186.73 151.668C187.657 152.614 188.422 153.033 189.745 153.202C191.351 153.408 192.743 153.852 193.917 155.02C194.892 155.99 195.527 157.23 196.292 158.357C197.07 159.507 198.212 160.154 199.398 160.821C202.201 162.401 204.811 164.309 207.084 166.596C211.873 171.421 214.773 177.621 217.696 183.663C220.856 190.198 223.811 196.812 225.859 203.791C227.868 210.643 229.063 217.692 229.615 224.805C230.196 232.272 230.279 239.766 230.763 247.236C231.003 250.967 231.187 254.703 231.373 258.436C231.555 262.125 231.819 265.82 231.777 269.514C231.694 276.653 230.268 283.815 227.772 290.5C227.148 292.162 226.46 293.803 225.724 295.417C225.079 296.837 222.874 296.678 222.182 295.417C222.023 295.128 221.899 294.83 221.795 294.527C219.985 294.543 218.158 294.402 216.359 294.57C213.183 294.866 210 295.032 206.815 295.229C200.513 295.619 194.199 295.879 187.895 296.24C187.283 296.274 186.672 296.31 186.06 296.346C190.553 282.436 189.97 267.397 190.681 252.931C190.738 251.763 188.928 251.77 188.871 252.931C188.157 267.46 188.765 282.537 184.114 296.469C182.309 296.592 180.507 296.741 178.711 296.96C177.259 297.133 175.799 297.339 174.333 297.267C172.671 297.189 171.047 296.808 169.425 296.478C166.477 295.877 163.638 296.148 160.679 296.518C157.515 296.913 154.339 297.133 151.154 297.272C138.4 297.83 125.56 298.339 112.811 297.487C109.725 297.281 106.646 296.992 103.581 296.597C100.423 296.193 97.2994 295.512 94.144 295.124C91.0336 294.745 88.1741 295.787 85.0998 295.98C81.9647 296.175 78.7456 295.523 75.6396 295.146C74.6263 295.023 73.6121 294.904 72.5976 294.785C73.9036 285.831 74.6463 276.808 75.3676 267.789C75.4607 266.625 73.6502 266.637 73.5581 267.789C72.8425 276.738 72.1164 285.692 70.8123 294.577C65.4341 293.951 60.0506 293.319 54.7286 292.343C53.213 292.067 51.7065 291.617 50.7993 290.264C50.1277 289.262 49.9918 288.033 50.3154 286.879Z" fill="#333333"/>
<path fill-rule="evenodd" clip-rule="evenodd" d="M90.9567 96.9656C91.4437 92.6853 90.8136 83.7389 90.7712 83.1953C90.5044 79.7593 92.1137 66.1905 95.1564 67.4406C100.26 63.399 107.058 62.5065 113.415 62.0802C126.618 61.1945 140.664 63.2276 150.86 72.1162C155.902 76.7321 160.81 83.4458 160.415 90.4362C164.997 97.0624 171.455 106.152 165.747 113.898C163.807 116.373 160.723 117.295 158.286 119.169C153.384 123.124 150.308 128.801 145.359 132.733C132.248 144.519 109.985 146.98 97.1028 133.575C87.1415 123.867 88.7522 109.342 90.5044 96.9656C91.6823 88.6445 90.0068 105.316 90.9567 96.9656Z" fill="white"/>
<path fill-rule="evenodd" clip-rule="evenodd" d="M131.053 43.9293C127.521 43.2164 123.895 42.7729 120.289 42.9063L120.011 42.9173C117.298 43.0256 113.862 43.2656 111.495 44.844C111.359 44.7072 111.14 44.637 110.941 44.7318C108.129 46.0748 105.035 47.046 102.073 48.0107C99.1254 48.9708 96.0671 49.6048 92.9773 49.8602C91.8148 49.9564 90.8199 51.2121 91.5561 52.3382C91.7312 52.6066 91.9016 52.8777 92.0716 53.1495C91.7875 53.1199 91.5034 53.0892 91.2193 53.0605C90.2842 52.9663 89.3502 53.9646 89.4056 54.8752C89.4404 55.4479 89.502 56.0137 89.5935 56.5729C89.2374 56.5655 88.8834 56.6189 88.5414 56.7635C86.8094 57.495 86.93 59.5587 87.0597 61.1286C87.2393 63.3073 88.0539 65.6149 89.5662 67.2455C88.4369 68.4188 87.6375 69.82 87.1608 71.4841C86.8148 72.6992 86.6224 73.9935 86.7175 75.2585L86.7477 75.6372C86.8652 77.01 87.0987 78.5296 88.086 79.5172C88.5928 80.0264 89.217 80.2119 89.8122 80.1531C89.4523 83.3164 89.2215 86.4982 89.0045 89.6684L88.9024 91.1836C88.4181 98.5108 88.0541 105.886 88.1492 113.225C88.2378 120.083 89.5924 126.741 93.7978 132.31C97.6277 137.381 103.127 141.119 109.348 142.54C112.7 143.307 116.123 143.361 119.516 142.873C121.161 142.635 122.816 142.271 124.377 141.696C126.105 141.058 127.347 140.119 128.51 138.711C129.06 138.044 128.795 136.623 127.7 136.756C126.044 136.957 124.532 137.199 122.944 137.689L122.717 137.761C121.135 138.268 119.498 138.646 117.844 138.806C114.458 139.134 111.019 138.804 107.775 137.777C102.493 136.102 97.9441 132.371 95.0284 127.682C91.5673 122.125 91.176 115.816 91.226 109.425C91.2796 102.413 91.5076 95.3968 91.8796 88.3918L91.9431 87.2245C92.14 83.6198 92.3299 80.0127 92.497 76.4057C92.5492 75.2744 92.6284 74.1339 92.771 73.0046C94.0761 72.2398 95.2455 71.1854 96.0079 69.8842C97.5394 70.5178 99.1499 70.9748 100.632 71.3392C104.064 72.1837 107.628 72.3887 111.122 71.8599C112.064 72.2494 113.025 72.5918 114.001 72.8862C114.265 73.0033 114.529 73.1183 114.792 73.2309C117.145 74.2379 119.532 75.0909 122.015 75.7157L122.626 75.8677C123.933 76.1902 125.352 76.5075 126.743 76.6072C126.972 76.6954 127.218 76.77 127.488 76.8357C128.754 77.1434 130.069 77.2407 131.367 77.1322C132.632 77.0259 133.546 75.7473 132.849 74.5503C132.34 73.6767 131.826 72.8055 131.308 71.9366C133.111 72.6878 134.973 73.3125 136.85 73.8419C138.746 74.3761 140.669 74.8263 142.594 75.2403C143.623 75.4598 144.657 75.6545 145.684 75.874C146.419 76.0301 147.548 76.1117 148.148 76.5958C148.81 77.1277 148.998 78.3677 149.249 79.1326C149.58 80.126 149.889 81.1238 150.172 82.1331C150.735 84.147 151.197 86.1903 151.554 88.2542C151.912 90.3201 152.152 92.4064 152.285 94.4996C152.418 96.5904 152.36 98.6949 152.574 100.777C152.69 101.881 153.875 102.449 154.751 101.677C154.853 101.587 154.957 101.495 155.059 101.403L155.212 101.263C155.961 100.584 156.687 99.8647 157.286 99.0548C157.395 98.9054 157.499 98.7492 157.596 98.5908C157.612 98.5908 157.626 98.5864 157.641 98.5749L157.808 98.4498C159.637 97.0878 162.694 95.3118 164.478 97.5748C165.046 98.2957 165.337 99.2138 165.579 100.099L166.003 101.684C166.277 102.719 166.535 103.76 166.686 104.818C167.027 107.19 166.855 109.923 165.224 111.824C164.573 112.584 163.675 113.127 162.673 113.27C162.114 113.347 161.562 113.252 161.007 113.182C160.444 113.112 159.901 113.225 159.338 113.17C158.442 113.082 158.051 114.155 158.386 114.829C158.567 115.191 158.78 115.503 159.021 115.768C158.827 115.936 158.641 116.117 158.463 116.307C157.933 116.477 157.458 116.841 157.103 117.323C156.816 117.712 156.667 118.135 156.642 118.581C156.61 118.692 156.583 118.805 156.558 118.92L156.073 119.708C155.966 119.881 155.86 120.052 155.753 120.219C154.518 122.165 153.147 123.813 151.443 125.365C149.803 126.858 148.023 128.196 146.482 129.798L146.301 129.988C144.865 131.502 143.351 133.335 143.913 135.536C144.058 136.102 144.847 136.509 145.363 136.127C147.021 134.896 147.856 132.945 149.263 131.452C150.711 129.913 152.314 128.531 153.767 126.996C155.14 125.548 156.223 123.908 157.04 122.102C157.366 122.462 157.841 122.717 158.499 122.817C159.63 122.987 160.684 122.324 161.177 121.344C161.494 121.484 161.817 121.611 162.143 121.71C163.858 122.235 164.937 120.328 164.29 118.918C163.944 118.162 163.512 117.506 162.976 116.954C164.652 116.723 166.358 115.856 167.459 114.775C170.223 112.057 170.603 107.972 169.981 104.341C169.651 102.415 169.081 100.467 168.341 98.6588C168.213 98.3442 168.074 98.0273 167.923 97.715C168.007 97.7127 168.093 97.6766 168.147 97.6064C168.647 96.9232 169.255 96.3642 169.626 95.5993C169.968 94.8979 170.348 94.1873 170.617 93.4565C171.171 91.9606 171.443 90.2725 171.624 88.6907C171.997 85.4528 171.852 82.2349 171.357 79.0171C170.513 73.5365 168.475 68.2916 165.473 63.6894C165.637 63.6035 165.794 63.4999 165.94 63.3772L166.012 63.3142L166.129 63.2084C166.985 62.433 166.911 60.9794 166.129 60.1939L165.881 59.9462C165.568 59.6351 165.299 59.3885 164.793 59.0499C164.718 58.9999 164.642 58.9528 164.565 58.9088C164.83 58.4198 164.921 57.8475 164.737 57.2165C164.095 55.0179 160.932 55.0957 158.928 56.0545C156.71 54.0747 154.251 52.3562 151.586 50.9645C145.238 47.6516 138.061 45.3413 131.053 43.9293ZM163.864 101.836C162.679 101.449 161.105 102.261 160.039 102.75C158.689 103.37 157.54 104.286 156.427 105.255C155.872 105.739 155.773 106.531 155.911 107.208C155.925 107.276 155.938 107.346 155.954 107.416C156.101 108.138 156.907 108.706 157.619 108.685C159.11 108.645 159.82 107.357 160.664 106.267C160.763 106.443 160.888 106.606 161.042 106.728L161.146 106.809C161.496 107.076 161.882 107.289 162.345 107.269C162.673 107.253 162.987 107.169 163.276 107.018C164.001 106.635 164.319 105.699 164.123 104.936C164.001 104.456 163.72 104.08 163.353 103.82L163.49 103.727C163.782 103.523 164.049 103.309 164.257 102.992L164.303 102.917H164.286C164.512 102.528 164.364 101.999 163.864 101.836Z" fill="#333333"/>
<path fill-rule="evenodd" clip-rule="evenodd" d="M108.033 124.608C109.699 125.091 111.488 125.134 113.187 124.635C114.727 124.183 116.309 123.188 117.443 121.87C118.45 120.7 119.103 119.279 119.077 117.761C119.074 117.587 119.012 117.443 118.917 117.33C118.814 117.21 118.671 117.127 118.517 117.09C118.36 117.053 118.193 117.066 118.051 117.131C117.922 117.19 117.812 117.289 117.743 117.434C117.569 117.663 117.395 117.889 117.221 118.108C115.819 119.839 114.463 121.132 112.356 121.596C111.212 121.848 110.071 121.736 109.023 121.352C107.902 120.941 106.888 120.218 106.094 119.293C105.735 118.875 105.311 118.704 104.897 118.701C104.427 118.698 103.963 118.916 103.613 119.265C103.27 119.608 103.039 120.074 103.018 120.562C103 120.99 103.14 121.436 103.511 121.835C104.734 123.149 106.318 124.111 108.033 124.608ZM108.084 102.931C106.376 103.97 103.773 106.392 105.611 108.967C107.774 111.237 110.888 108.634 112.423 107.457C113.846 106.545 115.445 108.891 114.125 109.957C103.035 118.17 98.5345 103.203 107.22 101.71C108.177 101.546 108.532 102.61 108.084 102.931ZM124.064 98.3613C124.613 98.0099 125.259 97.8895 125.975 98.215C126.534 98.4696 127.515 99.3179 128.198 100.433C128.665 101.196 128.996 102.091 128.927 103.023C128.911 103.239 128.991 103.399 129.117 103.517C129.217 103.61 129.361 103.679 129.53 103.7C129.673 103.718 129.834 103.702 129.964 103.661C130.213 103.584 130.344 103.422 130.394 103.291C130.872 102.021 130.666 100.604 130.13 99.325C129.407 97.5995 128.094 96.1543 127.234 95.6883C125.761 94.8907 124.025 94.854 122.551 95.6666C121.296 96.3581 120.511 97.4748 119.731 98.6131C119.565 98.855 119.4 99.0952 119.23 99.3311C118.889 99.804 118.855 100.273 118.987 100.675C119.133 101.12 119.506 101.496 119.973 101.693C120.404 101.875 120.905 101.901 121.347 101.714C121.721 101.556 122.065 101.248 122.282 100.726C122.648 99.8471 123.257 98.877 124.064 98.3613ZM96.1796 100.317C96.5556 100.513 96.8498 100.572 97.2669 100.447C97.4977 100.378 97.7255 100.245 97.904 100.067C98.0809 99.8897 98.2085 99.6697 98.2581 99.4255C98.38 98.8232 98.7097 98.2592 99.1792 97.8915C99.5806 97.5773 100.087 97.4107 100.649 97.5047C101.255 97.606 101.833 97.9951 102.231 98.4536C102.364 98.607 102.468 98.7812 102.573 98.9546C102.769 99.2782 102.96 99.5791 103.23 99.817C103.332 99.9074 103.487 99.9699 103.636 99.9699C103.697 99.9699 103.759 99.9601 103.818 99.9417C104.421 99.3358 104.537 98.8761 104.518 98.4202C104.497 97.9422 104.309 97.458 104.004 97.0064C103.29 95.9471 101.934 95.0784 101.019 94.8815C99.7656 94.6122 98.5209 94.9356 97.5228 95.6359C96.496 96.3563 95.7352 97.4751 95.4979 98.7357C95.441 99.0393 95.4652 99.367 95.5807 99.6511C95.6937 99.9289 95.8906 100.167 96.1796 100.317ZM121.3 87.0655C122.052 87.7985 122.942 87.9122 123.843 88.0131C124.343 88.0699 124.743 88.1154 125.136 88.2042C126.216 88.4482 127.284 88.8157 128.258 89.3449C129.277 89.8981 130.387 90.5652 131.186 91.42C131.376 91.6234 131.554 91.8366 131.734 92.0505C131.897 92.2456 132.054 92.4333 132.22 92.6145C132.411 92.8224 132.592 93.0403 132.772 93.2576C132.883 93.441 132.905 93.4861 132.928 93.5332C132.962 93.6038 133.001 93.6828 133.046 93.7675C133.107 93.8835 133.179 94.0104 133.254 94.1256C133.379 94.3362 133.447 94.394 133.505 94.4201C133.601 94.4629 133.692 94.4842 133.781 94.4725C133.864 94.462 133.943 94.4218 134.02 94.3566C134.406 94.0301 134.52 93.4946 134.508 92.926C134.491 92.0633 134.172 91.1081 133.879 90.5208C133.197 89.1563 132.252 87.738 131.114 86.7195C129.817 85.5573 128.397 84.6771 126.767 84.0708C125.754 83.6939 124.58 83.3479 123.477 83.3916C122.682 83.423 121.923 83.6593 121.297 84.2493C120.912 84.6114 120.728 85.1267 120.728 85.6416C120.728 86.1668 120.919 86.6948 121.3 87.0655ZM94.6498 93.7783C94.6978 93.8568 94.764 93.9108 94.8375 93.9433C94.9149 93.9772 95.001 93.987 95.0837 93.9731C95.1663 93.9592 95.2445 93.9218 95.3066 93.8648C95.3661 93.8101 95.4114 93.7375 95.4318 93.6487C95.9311 91.4547 96.9007 89.8223 98.9702 88.7697C99.9883 88.2519 101.159 87.923 102.267 87.6606C102.589 87.5844 102.93 87.5348 103.272 87.4848C104.346 87.3281 105.428 87.1482 106.128 86.28C106.55 85.7568 106.727 85.0877 106.627 84.476C106.533 83.8999 106.196 83.3716 105.585 83.0552C104.062 82.2675 102.169 83.0404 100.631 83.6988C100.517 83.7477 100.405 83.7957 100.295 83.8419C98.7913 84.4769 97.4196 85.3151 96.2922 86.5139C95.3975 87.4651 94.5684 88.8711 94.2346 90.3174C93.9569 91.5207 94.0222 92.749 94.6498 93.7783Z" fill="#333333"/>
<path fill-rule="evenodd" clip-rule="evenodd" d="M103.293 128.263C105.4 126.385 107.761 122.611 110.788 125.597C111.536 126.441 111.839 128.333 112.984 128.704C114.504 129.197 116.011 127.588 116.529 126.353C118.648 119.488 109.886 117.605 104.895 118.714C102.456 119.716 100.66 123.748 100.552 125.853C100.481 127.267 101.678 129.346 103.293 128.263ZM87.3995 117.682C87.4202 117.59 87.4489 117.508 87.4834 117.433C88.4151 117.081 89.1524 117.44 89.6081 118.111C89.593 118.278 89.5433 118.447 89.5119 118.612C89.8635 119.353 90.1805 120.27 90.657 120.91C90.751 120.917 90.8485 120.907 90.9423 120.88C98.8399 121.705 94.9842 113.439 102.995 111.386C109.187 110.364 120.378 111.535 123.299 117.982C125.603 128.28 137.317 121.104 141.163 115.749C145.267 110.875 147.92 104.919 150.479 99.1396C151.019 97.9166 152.707 98.7911 152.523 99.9645C154.888 104.71 154.809 110.41 155.395 115.609C156.391 125.981 157.362 140.526 147.728 146.859C135.176 161.051 103.833 166.059 89.3558 153.019C84.3443 142.241 84.9621 129.092 87.3995 117.682Z" fill="#333333"/>
<path fill-rule="evenodd" clip-rule="evenodd" d="M95.6439 86.1033C90.3342 86.1033 87.3043 87.2453 86.1939 87.3343L86.1605 87.3368C85.6988 87.3664 85.2844 87.405 84.8498 87.5731C83.2514 88.1889 82.9911 89.8658 83.9237 90.9226C83.9892 93.1094 83.7017 95.6643 84.195 97.8583C84.8036 107.107 89.1516 108.667 91.6231 109.237C92.8638 109.523 94.3346 109.637 95.6524 109.335C97.9011 109.251 100.124 108.547 102.026 107.321C104.675 105.612 106.642 102.985 107.28 99.8681C107.583 98.3823 107.724 96.8357 107.56 95.3253L107.535 95.1172C108.396 94.7053 109.394 94.6274 110.422 94.5909C110.914 94.5734 111.398 94.5577 111.868 94.5788C112.328 94.6301 112.782 94.6985 113.238 94.7916C113.736 94.9418 114.206 95.1896 114.64 95.5823L114.67 96.1554C114.751 97.5869 114.939 99.0227 115.229 100.427C115.657 102.499 116.345 104.478 117.81 105.948C118.305 106.689 118.919 107.35 119.664 107.923C122.369 110.007 126.045 110.772 129.419 110.484C136.268 109.899 140.227 104.46 141.139 102.136L141.194 101.995C141.853 100.267 142.378 98.0242 144.46 97.6529L144.903 97.5733C145.854 97.3948 146.731 97.1463 147.288 96.2189C147.532 95.8139 147.658 95.3609 147.689 94.8992C148.014 94.9243 148.338 94.9481 148.662 94.9714C151.243 95.5172 166.722 95.9803 167.957 95.9803C167.957 95.9803 170.332 96.9801 171.335 96.2054C172.03 95.6666 172.259 94.9486 171.876 94.1352C171.299 92.9114 168.635 92.1752 167.453 91.942C167.453 91.942 148.369 92.1005 146.995 91.8399C146.145 90.9634 144.625 91.0834 143.355 90.9448C142.303 90.1947 140.832 89.6924 139.67 89.3561C139.433 89.2664 139.199 89.1796 138.97 89.0977C136.84 88.3389 134.626 87.9369 132.378 87.7209C130.06 87.5007 127.735 87.6003 125.43 87.9162C124.459 88.0481 123.497 88.2185 122.541 88.4414C120.831 88.667 119.13 89.0385 117.419 89.4792L117.076 89.5684C115.274 90.0409 113.422 90.4497 111.557 90.1292C110.038 89.8702 108.578 89.2854 107.177 88.6533L106.995 88.5706C103.916 87.1644 99.108 86.1033 95.6439 86.1033ZM122.726 91.245C123.862 90.995 124.347 92.7472 123.208 92.9977C122.401 93.1753 121.717 93.5823 121.255 94.272L121.206 94.3469C120.586 95.334 119.018 94.4229 119.643 93.4293C120.345 92.3115 121.437 91.5285 122.726 91.245ZM89.4538 90.1586C89.8543 89.8765 90.4602 90.086 90.6928 90.4847C90.9486 90.9237 90.7811 91.4128 90.406 91.7L90.3678 91.7281C90.0236 91.9707 89.6886 92.4055 89.6465 92.8508L89.6429 92.9066C89.5978 94.0725 87.7864 94.0783 87.8317 92.9066C87.8759 91.7603 88.5394 90.8026 89.4538 90.1586Z" fill="#333333"/>
<path fill-rule="evenodd" clip-rule="evenodd" d="M371.035 183.695C369.064 176.047 367.25 172.804 363.747 170.145C360.471 167.659 355.688 165.57 348.712 164.045C341.442 162.774 341.236 158.996 339.415 152.924C338.884 151.098 336.249 150.613 335.112 151.928C334.951 151.755 334.785 151.597 334.612 151.454C334.767 150.583 333.498 148.088 333.54 147.255C333.982 138.563 331.141 134.198 324.044 132.575C322.501 132.222 312.02 132.014 310.515 132.43C303.939 134.249 297.465 140.024 298.456 146.98C296.391 149.678 294.37 151.325 291.184 152.195C284.096 153.095 277.008 153.896 269.917 154.581C256.037 156.758 243.024 164.106 234.131 174.821C233.31 175.811 233.073 177.153 233.797 178.208C233.23 180.637 230.037 186.531 232.55 188.196C228.418 198.077 218.914 217.176 218.896 222.632C218.821 245.554 221.297 275.389 243.912 288.074C244.818 288.964 244.948 289.951 245.341 291.274C246.334 295.447 249.944 298.429 253.898 298.187C273.368 298.62 292.227 296.243 311.697 296.128C320.283 296.077 330.609 297.359 338.068 298.214C345.528 299.068 353.056 298.312 360.216 296.128C360.819 297.079 362.039 297.633 363.276 297.359C370.696 295.886 376.697 291.312 381.924 286.314C383.523 283.407 389.759 275.129 387.279 272.245C389.528 262.744 389.411 252.534 385.418 243.484C385.983 241.827 384.951 240.004 385.418 238.291C385.754 237.051 386.617 236.539 387.052 235.311C387.662 233.584 386.998 231.268 386.31 229.505C386.028 228.626 386.828 227.68 387.052 226.785C388.108 222.557 385.689 222.929 383.947 220.103C383.971 220.094 384.424 218.077 384.422 218.087C384.689 216.646 384.021 214.801 383.438 213.598C383.043 212.786 382.2 212.277 381.359 212.37C382.204 209.501 383.274 207.113 384.422 204.348C386.456 199.475 389.028 194.809 391.947 190.398C393.143 188.591 391.537 186.499 389.604 186.376C383.341 185.978 377.15 185.076 371.035 183.695Z" fill="white"/>
<path fill-rule="evenodd" clip-rule="evenodd" d="M352.762 220.548C350.259 219.565 347.562 219.023 344.853 218.812C346.311 218.556 347.775 218.31 349.25 218.183C350.28 218.095 351.233 218.104 352.006 218.885C352.522 219.405 352.764 220.075 353.105 220.69C352.993 220.64 352.878 220.593 352.762 220.548ZM379.641 211.365C375.54 211.573 371.434 212.549 367.725 214.316C366.207 215.04 364.83 216.085 364.429 217.805C364.225 218.683 364.274 219.591 364.382 220.478C364.465 221.15 364.485 222.007 365.068 222.462C365.169 222.539 365.274 222.598 365.384 222.641C364.016 223.258 362.714 224.001 361.554 224.765C360.496 225.464 359.408 226.543 358.919 227.756C358.879 227.619 358.839 227.489 358.798 227.368C357.966 224.906 356.684 222.89 354.663 221.534C355.02 221.374 355.267 220.993 355.152 220.469C354.672 218.276 352.647 216.37 350.36 216.506C347.855 216.653 345.167 217.565 342.902 218.717C342.077 218.699 341.252 218.71 340.438 218.746C340.299 218.751 340.305 218.941 340.438 218.957C341.099 219.041 341.761 219.133 342.42 219.242C343.99 219.493 345.555 219.812 347.086 220.208C348.923 220.684 350.824 221.161 352.54 221.991C355.87 223.605 357.93 227.823 357.509 231.494C357.439 232.095 357.206 233.914 356.37 233.727C355.666 233.568 355.385 232.095 355.139 231.55C354.477 230.102 353.287 229.155 351.86 228.516C350.183 227.76 348.389 227.251 346.651 226.659C345.669 226.323 344.685 225.985 343.698 225.65C342.689 225.305 341.729 224.827 340.655 225.07C340.007 225.215 339.931 225.989 340.296 226.433C340.85 227.11 341.673 227.31 342.472 227.588C343.525 227.953 344.577 228.321 345.631 228.687C347.257 229.254 348.961 229.729 350.546 230.422L350.497 230.537C350.367 230.501 350.214 230.628 350.241 230.788C350.477 232.252 350.809 233.943 350.441 235.409C350.152 236.573 349.131 237.86 347.806 237.519C348.015 237.329 348.091 237.001 347.952 236.699C347.425 235.575 340.55 231.144 339.935 232.79C339.915 232.848 339.978 232.891 340.03 232.882C340.552 232.774 341.427 233.665 341.846 233.947C342.449 234.355 343.061 234.754 343.66 235.172C344.313 235.629 344.952 236.109 345.573 236.604C346.062 236.995 346.432 237.398 346.992 237.596C346.698 237.737 346.465 237.997 346.364 238.329C346.111 239.197 345.624 239.932 344.774 240.313C343.887 240.712 342.884 240.461 341.947 240.558C340.671 240.688 339.559 241.293 338.628 242.161C336.677 243.984 335.697 247.197 332.966 248.058C331.336 248.574 329.526 248.249 327.874 248.016C326.03 247.756 324.234 247.549 322.378 247.821C320.599 248.083 318.92 248.698 317.294 249.449C315.772 250.153 314.09 250.949 312.74 251.998C312.462 251.142 312.179 250.292 311.966 249.417C311.466 247.348 311.195 245.238 311.128 243.11C311.067 241.085 311.181 239.051 311.354 237.035C311.442 236.028 311.576 235.026 311.661 234.019C311.684 233.766 311.731 233.494 311.764 233.223C314.175 231.799 316.709 230.707 319.263 229.586C319.27 229.584 319.276 229.579 319.283 229.577C319.362 229.541 319.44 229.507 319.519 229.471C319.516 229.467 319.514 229.462 319.51 229.458C319.801 229.281 320.005 229.043 320.126 228.776C323.808 226.334 326.885 223.001 329.179 219.113C330.138 217.484 331.065 215.793 332.323 214.366C333.661 212.843 335.251 211.937 337.22 211.467C339.521 210.915 341.891 210.584 344.248 210.396C345.535 210.295 346.974 210.136 348.376 210.143C349.353 210.15 350.311 210.233 351.188 210.476C352.488 210.833 353.248 211.822 354.065 212.822C354.845 213.782 355.621 214.743 356.35 215.744C357.04 216.692 357.693 217.672 358.258 218.699C358.597 219.314 358.91 219.948 359.175 220.602C359.269 220.833 359.39 221.095 359.446 221.335C359.505 221.577 359.399 221.833 359.671 221.833C358.552 221.849 358.563 223.639 359.675 223.573C364.032 223.32 357.791 214.811 356.879 213.625C355.587 211.947 354.255 209.756 352.188 208.975C352.159 208.964 352.127 208.953 352.098 208.944C352.699 208.373 353.174 207.69 353.63 206.995C354.098 206.28 354.657 205.461 354.809 204.613C354.908 204.072 354.235 203.764 353.917 204.237C353.452 204.927 353.228 205.801 352.883 206.559C352.529 207.328 352.1 208.054 351.759 208.831C350.943 208.579 350.062 208.464 349.163 208.426C350.297 206.892 352.233 203.931 352.466 203.551C353.538 201.791 354.558 199.976 355.533 198.159C356.587 196.19 357.491 194.14 358.5 192.149C359.072 191.02 359.648 189.881 360.285 188.786C360.503 188.411 360.738 188.035 361.005 187.693C361.059 187.626 361.124 187.569 361.184 187.505C361.254 187.467 361.328 187.424 361.368 187.402C361.734 187.191 361.864 186.702 362.122 186.392C362.532 185.892 363.016 185.833 363.637 185.826C364.958 185.813 366.283 185.865 367.602 185.901C369.542 185.955 371.477 186.032 373.414 186.134C373.999 186.166 374.582 186.197 375.17 186.234C377.984 186.401 380.798 186.62 383.606 186.89C386.09 187.127 388.575 187.515 391.059 187.7C387.694 195.699 383.962 203.554 379.735 211.134C379.693 211.211 379.661 211.288 379.641 211.365ZM360.964 231.972C360.422 232.223 359.895 232.532 359.404 232.884C359.487 232.335 359.507 231.756 359.484 231.173C359.888 231.608 360.406 231.857 360.964 231.972ZM384.139 218.212C384.101 218.217 384.065 218.237 384.047 218.276C383.296 219.826 383.61 221.557 384.837 222.772C385.48 223.406 386.88 224.121 386.835 225.162C386.797 226.002 385.88 226.709 385.489 227.404C385.124 228.052 384.989 228.763 385.281 229.462C385.653 230.362 386.696 230.718 387.055 231.602C387.507 232.723 386.772 234.073 386.256 235.048C385.776 235.952 385.155 236.853 384.745 237.809C381.987 239.237 379.518 241.428 377.397 243.652C375.073 246.085 373.08 248.946 369.391 248.875C369.024 248.868 368.743 249.063 368.575 249.332C367.548 249.379 366.519 249.399 365.492 249.404C363.687 249.413 361.882 249.395 360.079 249.339C359.951 248.902 360.045 248.31 360.038 247.94C360.016 246.751 360.005 245.565 359.953 244.379C359.94 244.047 359.926 243.715 359.913 243.385C360.563 244.558 361.83 245.092 363.272 245.011C365.593 244.877 367.927 244.495 370.225 244.155C371.436 243.975 372.645 243.771 373.849 243.554C374.84 243.379 376.24 243.424 376.93 242.627C377.094 242.444 377.103 242.103 376.847 241.979C376.161 241.643 375.73 241.829 374.977 241.975C374.058 242.154 373.138 242.322 372.214 242.482C370.443 242.789 368.667 243.074 366.887 243.325C365.873 243.468 364.857 243.607 363.841 243.719C362.956 243.814 361.956 243.944 361.24 243.276C359.801 241.928 360.608 239.668 361.518 238.304C361.536 238.277 361.536 238.253 361.53 238.23C362.391 238.028 363.247 237.793 364.102 237.627C365.747 237.311 367.402 237.044 369.062 236.806C372.468 236.32 375.896 235.999 379.323 235.676C380.17 235.593 380.179 234.259 379.323 234.337C374.401 234.788 369.456 235.216 364.602 236.163C363.386 236.398 362.178 236.665 360.976 236.968C360.408 237.107 359.801 237.326 359.204 237.333C359.168 237.333 359.132 237.333 359.097 237.331C357.931 237.295 357.762 236.297 358.401 235.468C358.482 235.364 358.563 235.263 358.646 235.165C359.778 233.817 361.186 232.916 362.639 231.985C364.265 231.763 365.886 231.27 367.481 230.907C371.412 230.012 375.343 229.115 379.278 228.22C380.047 228.045 379.72 226.859 378.948 227.034C375.964 227.709 372.977 228.386 369.99 229.063L365.62 230.054C364.747 230.252 363.658 230.646 362.631 230.79C362.124 230.859 361.633 230.868 361.189 230.765C359.758 230.424 359.684 228.635 360.303 227.572C360.994 226.377 362.301 225.63 363.462 224.953C365.474 223.779 367.613 222.935 369.703 221.962C370.075 221.881 370.445 221.799 370.817 221.718C372.975 221.242 375.441 221.009 377.471 220.138C378.081 219.88 377.746 218.921 377.145 218.934C375.569 218.968 373.921 219.529 372.38 219.862C370.712 220.224 369.044 220.584 367.375 220.944C367.209 220.98 366.218 221.297 366.068 221.226C365.974 221.181 365.94 220.851 365.907 220.634C365.806 219.918 365.732 219.167 365.842 218.45C366.086 216.841 367.427 216.085 368.786 215.468C371.806 214.094 375.121 213.234 378.419 212.89C379.179 212.811 379.939 212.761 380.704 212.736C381.601 212.709 382.341 212.551 382.796 213.436C383.512 214.829 383.906 216.622 384.139 218.212ZM379.944 268.751C379.285 266.473 379.464 264.042 379.013 261.717C378.78 260.519 378.462 259.329 378.114 258.158C377.836 257.214 377.367 256.207 377.316 255.221C377.311 255.156 377.39 255.117 377.444 255.149C378.372 255.68 379.085 256.831 379.614 257.734C380.249 258.815 380.733 259.945 381.126 261.136C381.904 263.504 382.543 266.363 381.538 268.751C381.24 269.462 380.191 269.605 379.944 268.751ZM359.592 238.575C360.148 238.522 360.704 238.414 361.26 238.291C360.639 238.898 360.065 239.627 359.745 240.439C359.695 239.816 359.632 239.197 359.55 238.578C359.563 238.578 359.579 238.578 359.592 238.575ZM354.244 286C353.262 285.313 352.547 284.356 351.715 283.51C350.896 282.681 352.177 281.4 352.995 282.23C353.706 282.952 354.32 283.851 355.157 284.437C355.56 284.717 355.746 285.224 355.482 285.674C355.249 286.071 354.645 286.278 354.244 286ZM348.77 259.672C350.562 258.896 352.325 258.053 354.199 257.494C355.32 257.16 355.794 258.907 354.681 259.239C352.955 259.755 351.333 260.522 349.685 261.235C348.625 261.692 347.705 260.131 348.77 259.672ZM329.854 259.129C329.414 258.048 331.168 257.582 331.598 258.647C332.096 259.874 332.666 261.071 333.161 262.298C333.598 263.378 331.849 263.845 331.417 262.777C330.919 261.551 330.349 260.356 329.854 259.129ZM311.181 280.721C310.888 281.109 310.403 281.322 309.944 281.046C309.558 280.815 309.322 280.201 309.618 279.808C310.48 278.658 311.354 277.521 312.365 276.496C313.184 275.664 314.464 276.945 313.646 277.777C312.742 278.692 311.951 279.694 311.181 280.721ZM308.511 159.57C309.34 160.137 310.069 160.826 310.778 161.536C311.603 162.361 310.323 163.641 309.5 162.816C308.901 162.218 308.298 161.611 307.598 161.133C307.192 160.856 307.011 160.342 307.273 159.894C307.506 159.493 308.107 159.294 308.511 159.57ZM335.677 188.701C335.206 189.641 334.785 190.564 334.758 191.633C334.729 192.798 332.919 192.798 332.948 191.633C332.982 190.234 333.498 189.02 334.114 187.787C334.634 186.743 336.195 187.661 335.677 188.701ZM345.645 165.304C346.618 164.656 347.521 166.225 346.557 166.868C345.777 167.389 344.994 167.91 344.212 168.432C343.238 169.08 342.335 167.512 343.299 166.869C344.079 166.347 344.862 165.826 345.645 165.304ZM302.411 206.211C302.246 207.361 300.501 206.869 300.667 205.73C300.92 203.969 301.232 202.231 301.71 200.516C302.021 199.394 303.766 199.873 303.454 200.997C302.977 202.712 302.665 204.45 302.411 206.211ZM296.066 226.947C294.902 226.922 294.902 225.112 296.066 225.137C297.122 225.159 298.158 225.437 299.174 225.691C300.306 225.973 299.822 227.72 298.694 227.438C297.833 227.222 296.958 226.967 296.066 226.947ZM293.725 268.72C293.323 268.915 292.913 269.09 292.509 269.276C291.7 269.646 290.89 270.016 290.081 270.388C288.394 271.162 286.708 271.94 285.024 272.72C281.654 274.281 278.259 275.785 274.88 277.328C271.433 278.905 267.998 280.499 264.565 282.102C262.948 282.858 261.32 283.584 259.692 284.32C258.302 284.95 256.584 286.049 255.057 286.152C254.978 286.156 254.954 286.058 254.999 286.006C255.575 285.351 256.494 284.97 257.252 284.542C258.026 284.107 258.815 283.697 259.6 283.282C261.237 282.414 262.874 281.553 264.527 280.716C267.832 279.044 271.144 277.384 274.456 275.725C277.833 274.032 281.205 272.33 284.614 270.698C286.217 269.928 287.825 269.164 289.43 268.399C290.3 267.986 291.173 267.572 292.043 267.161C292.419 266.982 292.792 266.789 293.175 266.63C293.686 266.419 294.077 266.462 294.604 266.332C295.462 266.121 295.835 267.213 295.175 267.691C294.63 268.081 294.346 268.417 293.725 268.72ZM281.643 287.282C281.456 286.831 281.847 286.282 282.275 286.17C282.788 286.033 283.201 286.345 283.387 286.8C283.885 288.009 284.591 289.116 285.499 290.051C286.313 290.888 285.035 292.168 284.221 291.332C283.08 290.159 282.261 288.789 281.643 287.282ZM272.756 258.225C271.931 257.4 273.209 256.12 274.034 256.945L276.38 259.291C277.205 260.116 275.925 261.396 275.099 260.571L272.756 258.225ZM248.693 254.4C247.007 254.896 245.04 255.348 243.89 256.788C243.834 256.86 243.74 256.768 243.773 256.698C245.244 253.647 249.467 252.575 252.389 251.507C254.456 250.749 256.575 250.124 258.714 249.563C258.501 247.121 259.091 244.507 259.295 242.078C259.515 239.486 259.692 236.885 259.784 234.284C259.876 231.631 259.898 228.96 259.813 226.307C259.726 223.662 259.383 221.05 259.232 218.415C259.217 218.16 259.571 218.148 259.649 218.359C260.537 220.804 260.916 223.513 261.206 226.092C261.504 228.747 261.602 231.398 261.564 234.068C261.524 236.815 261.365 239.555 261.145 242.293C261.042 243.592 260.921 244.888 260.806 246.186C260.721 247.175 260.681 248.157 260.479 249.115C261.768 248.798 263.06 248.5 264.349 248.209C268.46 247.28 272.586 246.419 276.678 245.417C278.687 244.924 280.667 244.334 282.665 243.811C284.549 243.318 286.538 242.719 288.471 242.5C289.159 242.421 289.246 243.365 288.791 243.686C287.219 244.789 285.132 245.558 283.318 246.175C281.497 246.796 279.602 247.242 277.736 247.7C273.844 248.659 269.913 249.442 265.989 250.258C262.069 251.072 258.142 251.882 254.268 252.886C252.402 253.371 250.543 253.857 248.693 254.4ZM239.452 205.97C238.445 206.561 237.535 204.996 238.54 204.406C239.854 203.635 241.253 203.056 242.666 202.49C243.749 202.057 244.213 203.808 243.145 204.236C241.876 204.744 240.634 205.277 239.452 205.97ZM235.804 273.225C234.795 273.812 233.884 272.247 234.891 271.662C236.306 270.841 237.856 270.294 239.322 269.576C240.365 269.065 241.28 270.628 240.235 271.139C238.768 271.857 237.219 272.404 235.804 273.225ZM234.162 235.048C235.14 235.977 236.443 236.414 237.674 236.9C238.746 237.324 238.275 239.076 237.192 238.647C235.66 238.04 234.1 237.483 232.884 236.329C232.037 235.524 233.319 234.245 234.162 235.048ZM244.971 183.2C246.043 183.621 245.574 185.371 244.489 184.946C243.287 184.474 242.042 184.114 240.84 183.642C239.766 183.221 240.237 181.471 241.322 181.897C242.524 182.369 243.767 182.728 244.971 183.2ZM264.033 162.606C265.175 162.414 265.661 164.159 264.515 164.352C263.094 164.592 261.692 164.873 260.344 165.395C259.257 165.816 258.788 164.065 259.865 163.649C261.212 163.127 262.612 162.846 264.033 162.606ZM270.332 212.747C269.287 212.233 270.204 210.672 271.245 211.184C272.343 211.724 273.48 212.141 274.678 212.396C275.819 212.639 275.333 214.384 274.196 214.142C272.848 213.855 271.565 213.354 270.332 212.747ZM276.281 184.503C277.409 184.195 277.884 185.941 276.763 186.249C274.79 186.79 272.756 187.071 270.769 187.553C269.635 187.827 269.157 186.081 270.287 185.807C272.276 185.326 274.308 185.045 276.281 184.503ZM301.519 175.64C302.665 175.852 302.176 177.597 301.037 177.386C299.826 177.162 298.597 177.158 297.368 177.158C296.202 177.157 296.205 175.347 297.368 175.347C298.765 175.348 300.142 175.386 301.519 175.64ZM383.828 185.098C380.872 184.815 377.91 184.589 374.946 184.419C374.807 184.412 374.672 184.403 374.533 184.396C374.517 184.365 374.497 184.335 374.477 184.303C373.508 182.882 372.795 181.461 372.179 179.855C371.589 178.325 371.015 176.748 370.107 175.368C369.068 173.795 367.669 172.564 366.133 171.498C365.203 172.124 364.339 172.857 363.55 173.634C362.718 174.452 361.438 173.172 362.27 172.354C362.971 171.664 363.72 171.026 364.514 170.449C363.599 169.893 362.664 169.37 361.754 168.85C358.341 166.902 354.845 165.101 351.28 163.454C349.62 162.686 347.943 162.005 346.252 161.315C345.342 160.944 344.445 160.467 343.534 160.037C343.602 159.394 343.409 158.674 342.916 158.251C342.552 157.941 342.27 157.826 341.835 157.607C341.736 157.572 341.678 157.552 341.651 157.541C341.671 157.545 341.729 157.563 341.828 157.595C342.059 157.701 342.077 157.67 341.882 157.502C341.871 157.136 341.149 156.362 340.985 155.984C340.409 154.687 340.231 153.316 339.382 152.135C338.213 150.508 336.249 149.892 334.419 150.444C334.229 148.487 334.179 146.444 333.442 144.697C333.421 144.649 333.356 144.629 333.327 144.681C332.558 145.991 332.491 147.451 332.432 148.962C332.376 150.381 332.43 151.831 332.616 153.241C332.497 153.332 332.379 153.418 332.255 153.501C331.67 153.886 331.042 154.182 330.381 154.402C329.123 154.818 327.804 154.999 326.486 155.063C323.082 155.226 319.572 154.882 316.225 154.298C312.839 153.707 307.647 152.82 304.634 151.125C302.645 150.008 300.81 148.643 298.951 147.321C299.626 145.149 299.797 142.814 299.12 140.979C299.037 140.759 298.694 140.719 298.629 140.979C298.203 142.73 298.079 144.491 297.512 146.222C297.503 146.247 297.494 146.274 297.485 146.299C297.31 146.179 297.133 146.061 296.956 145.944C296.55 145.674 295.994 145.876 295.749 146.26C291.843 152.417 285.656 152.77 279.16 153.871C272.05 155.074 264.903 156.373 258.068 158.729C251.53 160.983 245.282 164.264 240.334 169.165C239.212 170.275 238.165 171.457 237.176 172.692C238.134 172.812 239.082 173 240.02 173.294C241.127 173.643 240.652 175.39 239.537 175.04C238.333 174.662 237.116 174.474 235.887 174.381C232.523 178.983 229.902 184.202 227.633 189.338C223.284 199.187 220.453 209.674 219.15 220.352C219.866 219.923 220.594 219.515 221.34 219.135C222.377 218.607 223.292 220.17 222.254 220.698C221.101 221.285 219.981 221.931 218.896 222.632C218.422 227.305 218.239 232.01 218.35 236.708C218.615 247.904 220.126 259.427 223.544 270.11C225.22 275.355 227.442 280.555 230.752 284.986C232.248 286.993 233.949 288.803 235.954 290.312C236.925 291.045 237.952 291.7 239.035 292.251C240.43 292.967 242.248 293.202 243.453 294.213C243.85 294.545 244.155 294.985 244.385 295.48C244.251 296.422 244.235 297.364 244.493 298.306C244.574 298.599 244.796 298.839 245.069 298.956C245.074 299.037 245.074 299.115 245.074 299.194C245.074 299.23 245.128 299.239 245.137 299.203C245.148 299.133 245.159 299.061 245.17 298.99C245.258 299.019 245.35 299.032 245.446 299.032C248.881 299.046 252.321 298.963 255.763 298.846C255.496 298.03 255.209 297.223 254.931 296.406C254.557 295.299 256.304 294.828 256.676 295.924C257.001 296.877 257.34 297.824 257.64 298.779C261.327 298.642 265.013 298.478 268.691 298.355C276.517 298.095 284.338 298.01 292.164 297.844C304.32 297.586 316.563 297.059 328.735 297.575C329.156 296.682 329.627 295.808 330.076 294.926C330.603 293.886 332.163 294.803 331.636 295.841C331.327 296.453 331.004 297.059 330.699 297.669C333.166 297.797 335.628 297.967 338.085 298.198C342.279 298.59 346.434 299.29 350.623 299.725C354.881 300.169 359.049 300.088 363.274 299.387C364.034 299.259 364.483 298.799 364.669 298.229C364.676 298.227 364.68 298.223 364.685 298.216C364.9 297.963 365.104 297.752 365.315 297.568C365.566 297.407 365.837 297.267 366.156 297.146C366.752 296.92 367.371 296.781 368.001 296.689C368.692 296.584 369.394 296.575 370.086 296.489C370.669 296.415 371.239 296.303 371.809 296.169C372.833 295.924 373.807 295.604 374.775 295.182C375.618 294.812 376.381 294.283 377.101 293.707C378.59 292.617 379.879 291.229 381.005 289.785C381.662 288.939 382.278 288.065 382.839 287.152C383.817 285.573 384.648 283.932 385.492 282.279C385.797 281.788 386.075 281.286 386.33 280.775C384.684 280.288 383.025 279.894 381.28 279.867C380.117 279.846 380.117 278.037 381.28 278.055C383.281 278.088 385.173 278.555 387.052 279.111C387.142 278.869 387.232 278.622 387.312 278.375C387.537 277.857 387.72 277.326 387.875 276.786C387.965 276.541 388.057 276.297 388.147 276.052C388.351 275.207 388.555 274.359 388.759 273.509C389.169 272.153 389.492 270.774 389.73 269.377C389.929 268.46 390.084 267.534 390.187 266.596C390.503 264.327 390.761 262.062 390.779 259.768C390.752 258.353 390.662 256.941 390.508 255.537C390.443 254.582 390.333 253.631 390.183 252.687C389.988 251.283 389.795 249.895 389.472 248.509C389.23 247.574 388.987 246.637 388.745 245.7C388.142 243.746 387.429 241.831 386.608 239.961C386.563 239.842 386.335 239.585 386.196 239.582C386.093 239.58 385.947 239.676 385.996 239.802C386.001 239.813 386.005 239.827 386.01 239.838C385.962 239.733 385.915 239.623 385.868 239.517C385.828 239.419 385.669 239.219 385.548 239.221C385.541 239.221 385.534 239.221 385.525 239.224C385.557 239.201 385.586 239.172 385.615 239.136C386.427 238.176 386.954 236.909 387.537 235.797C388.019 234.878 388.472 233.909 388.604 232.871C388.718 231.96 388.564 231.061 387.99 230.324C387.339 229.483 386.113 229.09 386.794 227.877C387.568 226.496 388.705 225.301 387.573 223.731C386.996 222.933 386.081 222.494 385.402 221.799C384.622 220.996 384.252 219.921 384.272 218.823C384.319 218.85 384.382 218.837 384.404 218.769C385.061 216.787 384.586 214.61 383.915 212.68C383.547 211.632 382.772 211.344 381.87 211.293C385.779 203.656 389.436 195.896 392.696 187.958C392.804 187.698 392.912 187.438 393.017 187.177C393.176 186.788 392.84 186.27 392.454 186.184C389.635 185.566 386.698 185.369 383.828 185.098Z" fill="#333333"/>
<path fill-rule="evenodd" clip-rule="evenodd" d="M351.219 90.5084C350.681 83.5514 351.513 76.2594 348.831 69.6471C344.156 58.6756 331.047 55.0174 320.882 50.8405C316.81 49.6368 303.109 49.4686 298.342 47.8759C287.551 44.2706 284.973 39.9751 276.4 46.8394C274.951 48.012 274.045 49.2865 273.386 51.0277L273.413 51.0351C273.225 51.7612 273.427 52.4855 273.853 53.0387C270.135 56.84 268.579 62.5388 270.487 67.5987C276.712 80.7659 276.418 87.8857 274.413 102.041C271.794 115.256 277.779 120.084 287.69 127.274C287.287 128.057 287.201 129.097 287.728 129.788C299.189 145.899 320.801 153.591 339.317 145.414C346.833 142.068 350.188 134.061 352.103 126.836C354.334 118.747 355.02 110.222 353.204 101.982C352.47 98.171 351.517 94.3875 351.219 90.5084Z" fill="white"/>
<path fill-rule="evenodd" clip-rule="evenodd" d="M285.107 13.431C286.497 13.2221 287.547 14.0855 288.047 15.3025L288.074 15.368C288.235 15.7821 288.412 16.1849 288.605 16.5809C292.088 14.8725 297.054 15.3115 299.259 18.7714C300.831 21.2424 299.871 24.1751 299.279 26.7955L298.889 28.5219C299.642 29.0009 300.207 29.8581 300.183 30.7459L300.178 30.8143L300.021 33.2219C300.523 32.7129 300.981 32.1584 301.391 31.5677C301.674 31.0495 301.979 30.5405 302.306 30.0472C304.237 27.144 308.569 29.6671 306.977 32.7761C306.67 33.3758 306.327 33.9437 305.959 34.4913C305.542 35.2993 305.201 36.1296 304.939 36.9828C305.692 37.3109 306.271 38.0397 306.331 39.1393C306.475 41.7078 305.125 43.8506 302.981 45.1969C302.351 45.5929 301.698 45.67 301.109 45.5229C301.003 45.6631 300.9 45.8035 300.801 45.9461C301.656 46.6408 302.427 47.4328 303.089 48.3107C305.084 48.012 307.091 47.8716 309.098 47.8671C311.549 46.6657 314.487 46.6905 317.121 47.1408C318.819 47.4305 320.447 47.9938 322.118 48.399C323.876 48.8244 325.663 48.8401 327.443 49.1298C329.688 49.4942 331.657 50.5306 332.892 52.1846C334.253 52.2254 335.682 52.7822 336.868 53.5379C339.628 55.2984 342.371 57.0837 345.124 58.8557C346.18 59.5358 346.575 60.6218 346.382 61.8329L346.369 61.9105L346.277 62.4128L346.494 62.722C347.335 63.9122 348.252 65.1588 348.797 66.4724C349.806 67.9274 350.719 69.4525 351.526 71.0253C352.614 73.1387 353.513 75.3791 354.121 77.678C354.273 78.2596 354.423 78.8456 354.524 79.4385C354.666 80.2758 354.446 80.9251 354.327 81.7286C354.177 82.7468 354.123 83.7788 353.964 84.7993C353.858 85.4758 353.284 85.8084 352.681 85.8265C352.908 87.5487 353.071 89.282 353.228 91.0017C353.446 93.4591 353.596 95.9235 353.726 98.3877C354.39 99.3539 355.749 100.119 356.731 100.384C358.092 100.748 359.516 100.352 360.801 99.888C361.608 99.5961 362.272 100.612 361.877 101.291C360.639 103.422 357.993 103.413 355.989 102.47C355.141 102.072 354.397 101.495 353.845 100.743C353.879 101.458 353.914 102.173 353.95 102.891L353.984 103.54C354.392 111.128 355.273 118.977 353.847 126.49C351.378 139.504 340.613 149.413 327.461 150.182C320.561 150.586 314.814 148.547 311.955 147.409C309.098 146.272 310.208 143.953 312.193 144.616C315.61 145.758 321.889 147.459 327.508 146.725C340.749 144.993 351.979 138.372 350.824 109.856C350.661 105.812 350.158 101.766 350.049 97.7223C349.945 93.7693 349.984 89.8137 349.809 85.8629L349.75 84.5147C349.683 82.9397 349.611 81.3573 349.492 79.7802C349.351 79.1691 349.232 78.5491 349.057 77.9495C348.587 76.318 347.968 74.7317 347.201 73.2179C347.03 73.347 346.842 73.4396 346.636 73.476C345.073 73.7565 343.606 73.6773 342.142 73.0257C341.46 72.7245 340.857 72.3241 340.296 71.8285C340.03 71.5955 339.852 71.3693 339.711 71.1338C339.003 71.1452 338.294 70.9324 337.852 70.4234C337.346 69.8431 337.263 69.2437 337.46 68.6887L337.48 68.6333L337.431 68.6154C336.834 70.1608 335.644 71.5208 334.338 72.4395C332.275 73.8969 329.695 74.3178 327.219 74.3561C324.488 74.3969 321.606 73.976 318.909 73.5462C318.196 73.4329 317.489 73.304 316.794 73.1297C316.767 73.1569 316.74 73.1885 316.709 73.2156C314.395 75.4311 311.141 76.0013 308.204 74.7364C306.508 74.0054 305.084 72.8288 303.826 71.48C303.809 72.1862 303.773 72.8921 303.712 73.5912L303.687 73.8691C303.562 75.1712 303.32 76.5527 302.338 77.4925C300.745 79.0153 298.438 78.4045 296.604 77.4134C296.606 77.4609 296.606 77.5107 296.606 77.5605C297.102 79.2438 297.599 80.9298 298.097 82.6157L298.205 82.9747C298.566 84.1717 298.963 85.3702 299.073 86.623C299.281 89.0172 297.687 91.3818 295.027 90.5786C293.633 90.1588 292.514 88.9851 291.442 88.0449L290.767 87.4603C292.514 93.1786 293.727 99.1005 293.839 105.068C293.848 105.391 293.568 105.636 293.26 105.647C292.541 105.676 291.767 105.534 291.045 105.246C291.002 105.244 290.962 105.242 290.919 105.235C289.684 105.056 288.538 104.61 287.527 103.952C287.76 104.692 287.863 105.486 287.802 106.317C287.787 106.518 287.473 106.588 287.428 106.366C286.843 103.495 283.484 101.325 280.589 101.875C277.481 102.465 275.191 105.14 274.631 108.183C274.027 111.453 275.18 115.235 277.313 117.758C278.295 118.921 279.586 119.892 281.12 120.136C281.822 120.247 282.551 120.208 283.23 120.009C283.519 119.923 283.791 119.803 284.067 119.69C284.47 119.527 284.941 119.502 285.32 119.33C286.183 118.944 287.049 119.738 286.612 120.622C286.233 121.394 285.892 121.915 285.26 122.313C285.771 122.937 286.235 123.806 286.408 124.039C287.284 125.225 288.175 126.345 289.175 127.429C290.193 128.529 291.305 129.534 292.478 130.464L292.971 130.854C294.103 131.751 295.088 132.582 295.884 133.869C296.514 134.885 295.7 136.263 294.521 136.248C290.834 136.195 288.152 132.955 286.244 130.124C285.973 129.719 285.717 129.291 285.479 128.853C285.394 128.991 285.298 129.119 285.192 129.237L285.403 129.803C286.026 131.468 283.338 132.557 282.557 131.002C281.988 129.875 281.331 128.803 280.598 127.789C280.165 127.728 279.743 127.465 279.508 127.126C278.911 126.264 278.245 125.393 277.683 124.474C277.369 124.177 277.048 123.892 276.721 123.614C276.626 123.698 276.528 123.781 276.436 123.87C276.023 124.809 275.514 125.666 274.884 126.474L274.747 126.647C273.539 128.171 271.964 129.731 270.016 130.104C269.419 130.217 268.848 129.477 269.375 129.004C270.74 127.778 272.352 126.943 273.61 125.574C274.229 124.899 274.799 124.156 275.288 123.378L275.4 123.198C275.481 123.064 275.564 122.931 275.651 122.795C275.084 122.408 274.514 122.019 273.947 121.629C272.384 122.965 270.348 123.576 268.619 124.683L268.448 124.795C266.886 125.841 265.237 123.528 266.491 122.258C267.872 120.864 269.025 119.202 270.249 117.652C269.675 116.592 269.401 115.338 269.301 114.071C269.26 113.712 269.229 113.353 269.197 112.995C268.318 113.008 267.437 112.707 266.69 112.189L266.408 111.987C265.5 112.277 264.549 112.417 263.636 112.392C261.493 112.329 260.614 109.879 261.955 108.328C263.325 106.744 265.719 106.398 267.617 107.167C267.679 107.136 267.742 107.102 267.803 107.068C267.713 106.652 267.733 106.274 267.836 105.942L267.805 105.74C267.388 105.099 267.114 104.368 267.009 103.595C266.928 102.983 266.944 102.376 267.085 101.772C267.132 101.571 267.231 101.362 267.305 101.153C267.152 100.763 267.06 100.36 267.033 99.9551C266.989 99.9037 266.946 99.851 266.906 99.7941C265.964 98.4713 266.154 96.8776 267.051 95.8074C267.054 95.7392 267.06 95.671 267.069 95.6035C267.018 95.4854 266.971 95.3661 266.926 95.2454C266.049 94.3619 265.408 93.2986 265.527 91.981C265.598 91.2056 265.917 90.5077 266.399 89.9861C266.311 89.7332 266.305 89.4401 266.408 89.1955C265.639 87.1486 265.735 84.6831 266.289 82.3939C266.168 82.0454 266.105 81.6674 266.119 81.2669C266.181 79.5676 267.652 78.0062 269.392 78.0264C269.603 78.0282 269.798 78.0558 269.989 78.0957L269.991 78.0554C270.056 77.5452 270.197 77.0739 270.402 76.651C270.301 76.6144 270.209 76.5621 270.126 76.4926C269.011 77.0884 267.83 77.5436 266.592 77.8538C265.681 78.082 264.749 77.0467 265.314 76.1917C265.576 75.795 265.867 75.4389 266.179 75.1136C265.735 75.116 265.284 75.1461 264.829 75.2046C264.009 75.3111 263.096 74.7521 262.564 73.9964C261.903 74.6391 261.241 75.2793 260.578 75.9197C258.9 77.5468 256.364 76.3498 256.1 74.2045C255.6 74.0711 255.133 73.8448 254.723 73.5213C252.077 74.6707 249.229 75.3019 246.318 75.4219C244.226 75.508 243.006 73.073 243.982 71.3533C244.639 70.1992 245.453 69.163 246.392 68.2622C244.935 68.708 243.43 69.0293 241.894 69.2354C241.065 69.3462 239.892 68.6582 239.558 67.8958C238.286 64.963 238.396 61.906 239.858 59.0525C239.916 58.9393 239.979 58.8308 240.04 58.722C240.192 58.3442 240.356 57.9708 240.535 57.6042C238.735 55.726 238.578 52.9338 239.549 50.5961C239.161 49.9649 239.011 49.2045 239.275 48.5165C240.029 46.5365 241.114 44.7083 242.486 43.1377C242.354 42.8843 242.24 42.615 242.141 42.3255C241.369 39.9834 242.264 37.1571 244.067 35.5255C245.199 34.4983 246.502 33.8828 247.895 33.489C248.48 32.4526 249.234 31.5179 250.11 30.7306C250.144 30.656 250.18 30.5813 250.218 30.5066C251.584 27.9315 254.073 26.5511 256.739 26.232C256.844 25.2249 257.521 24.2634 258.508 23.951C258.779 23.0799 259.185 22.2471 259.741 21.4913C260.616 20.3011 262.071 19.7399 263.441 20.5205C264.192 20.9482 264.912 21.4393 265.587 21.9823C265.89 21.8403 266.233 21.7484 266.619 21.7191L266.717 21.7131L268.948 21.5999C269.881 21.1858 270.814 20.7513 271.749 20.3282C272.31 19.8643 272.935 19.4774 273.619 19.19C274.393 18.8664 275.185 18.6831 275.978 18.622C276.624 18.4116 277.272 18.226 277.934 18.0812C279.485 17.7418 281.109 17.5517 282.719 17.5675C282.753 17.1505 282.768 16.7285 282.766 16.3015L282.762 16.0876C282.726 14.7186 283.82 13.6256 285.107 13.431ZM283.542 122.965C283.322 123.012 283.098 123.05 282.874 123.078C282.941 123.245 283.008 123.413 283.075 123.58C283.255 123.682 283.439 123.779 283.623 123.87C283.569 123.562 283.535 123.252 283.542 122.965ZM271.922 119.51L271.769 119.787C271.747 119.832 271.722 119.877 271.698 119.921C272.018 119.896 272.339 119.903 272.655 119.939V119.906C272.615 119.892 272.572 119.879 272.534 119.86C272.317 119.755 272.112 119.637 271.922 119.51ZM278.203 106.871C280.203 106.988 281.898 107.295 283.719 108.17L283.876 108.247C285.484 109.046 288.143 110.521 287.919 112.637C287.856 113.239 287.421 113.872 286.733 113.825C284.849 113.696 283.771 111.795 282.495 110.609C281.208 109.415 279.627 108.186 278.068 107.364C277.848 107.249 277.936 106.883 278.174 106.871L278.203 106.871ZM269.126 78.9949C268.646 79.0108 268.807 79.477 269.054 79.0877C269.074 79.0561 269.099 79.0245 269.126 78.9949ZM295.014 47.8759C290.471 47.9952 285.901 50.6779 282.497 53.3894C279.537 55.7484 276.983 58.5545 274.718 61.5788C274.137 63.0848 273.637 64.6224 273.214 66.1714C272.935 67.1942 272.761 68.2284 272.53 69.2603L272.456 69.5765C272.274 69.9187 272.137 70.2869 272.038 70.6672C272.451 71.0809 272.985 71.3771 273.575 71.5177C273.765 71.5628 273.922 71.6608 274.048 71.7908C274.521 70.9993 274.936 70.1638 275.176 69.278L275.185 69.2372C276.097 67.7438 277.086 66.297 278.147 64.8998C281.075 61.0415 284.298 57.525 288.172 54.5992C291.112 52.3815 294.397 50.6436 297.889 49.5146C297.034 48.8246 296.063 48.2788 295.014 47.8759Z" fill="#333333"/>
<path fill-rule="evenodd" clip-rule="evenodd" d="M335.957 131.783C334.291 132.266 332.502 132.309 330.804 131.811C329.264 131.358 327.681 130.363 326.548 129.046C325.539 127.876 324.887 126.454 324.914 124.936C324.916 124.763 324.979 124.618 325.073 124.506C325.176 124.385 325.32 124.302 325.472 124.266C325.631 124.229 325.797 124.242 325.941 124.307C326.069 124.365 326.178 124.464 326.248 124.61C326.423 124.839 326.596 125.064 326.77 125.284C328.172 127.014 329.529 128.308 331.634 128.772C332.778 129.023 333.919 128.912 334.966 128.528C336.09 128.116 337.103 127.393 337.897 126.468C338.256 126.05 338.68 125.88 339.095 125.877C339.563 125.874 340.027 126.092 340.377 126.441C340.72 126.784 340.951 127.25 340.971 127.737C340.992 128.165 340.85 128.612 340.48 129.011C339.256 130.324 337.673 131.286 335.957 131.783ZM335.906 110.107C337.615 111.146 340.218 113.568 338.379 116.143C336.218 118.413 333.103 115.81 331.567 114.633C330.145 113.72 328.546 116.067 329.865 117.132C340.956 125.345 345.456 110.379 336.771 108.886C335.814 108.721 335.46 109.786 335.906 110.107ZM319.927 105.537C319.377 105.185 318.732 105.065 318.016 105.391C317.458 105.645 316.476 106.493 315.794 107.608C315.325 108.371 314.996 109.266 315.063 110.198C315.081 110.415 315 110.575 314.875 110.692C314.774 110.786 314.63 110.854 314.462 110.876C314.319 110.894 314.157 110.877 314.027 110.837C313.778 110.759 313.646 110.598 313.596 110.466C313.119 109.196 313.325 107.779 313.861 106.501C314.583 104.775 315.897 103.33 316.756 102.864C318.229 102.066 319.965 102.029 321.44 102.842C322.696 103.534 323.479 104.65 324.259 105.789C324.425 106.031 324.591 106.271 324.761 106.507C325.102 106.98 325.136 107.448 325.003 107.85C324.858 108.296 324.483 108.672 324.017 108.869C323.586 109.051 323.086 109.076 322.642 108.889C322.27 108.732 321.927 108.424 321.709 107.902C321.344 107.023 320.734 106.053 319.927 105.537ZM347.811 107.493C347.436 107.689 347.14 107.748 346.723 107.623C346.492 107.554 346.266 107.421 346.086 107.242C345.909 107.065 345.781 106.845 345.732 106.601C345.611 105.999 345.281 105.435 344.813 105.067C344.411 104.753 343.904 104.586 343.342 104.68C342.736 104.782 342.158 105.171 341.761 105.629C341.626 105.783 341.523 105.957 341.418 106.13C341.223 106.454 341.032 106.755 340.761 106.993C340.657 107.083 340.503 107.145 340.355 107.145C340.294 107.145 340.231 107.136 340.173 107.117C339.57 106.511 339.453 106.052 339.474 105.596C339.494 105.118 339.682 104.634 339.987 104.182C340.7 103.123 342.057 102.254 342.972 102.057C344.225 101.788 345.47 102.111 346.467 102.811C347.494 103.532 348.255 104.651 348.492 105.911C348.551 106.215 348.526 106.542 348.409 106.827C348.297 107.104 348.1 107.342 347.811 107.493ZM322.692 94.241C321.938 94.9741 321.048 95.0878 320.149 95.1887C319.649 95.2454 319.247 95.2909 318.855 95.3797C317.774 95.6237 316.707 95.9912 315.731 96.5204C314.713 97.0736 313.603 97.7407 312.805 98.5955C312.614 98.7989 312.437 99.0121 312.258 99.2261C312.094 99.4212 311.937 99.6088 311.771 99.79C311.581 99.9979 311.399 100.216 311.22 100.433C311.107 100.617 311.085 100.662 311.063 100.709C311.029 100.779 310.991 100.858 310.946 100.943C310.883 101.059 310.811 101.186 310.737 101.301C310.612 101.512 310.545 101.57 310.486 101.596C310.39 101.638 310.298 101.66 310.21 101.648C310.128 101.638 310.049 101.597 309.971 101.532C309.585 101.206 309.471 100.67 309.482 100.101C309.5 99.2388 309.818 98.2836 310.112 97.6963C310.794 96.3318 311.74 94.9135 312.877 93.895C314.173 92.7328 315.594 91.8527 317.225 91.2463C318.238 90.8694 319.411 90.5234 320.514 90.5671C321.308 90.5985 322.068 90.8349 322.694 91.4248C323.079 91.787 323.263 92.3023 323.263 92.8171C323.263 93.3423 323.071 93.8704 322.692 94.241ZM349.34 100.954C349.293 101.032 349.228 101.086 349.154 101.119C349.075 101.153 348.99 101.163 348.907 101.149C348.824 101.135 348.746 101.097 348.685 101.04C348.625 100.986 348.58 100.913 348.56 100.824C348.06 98.6303 347.091 96.9978 345.021 95.9452C344.003 95.4275 342.833 95.0985 341.723 94.8362C341.402 94.7599 341.061 94.7104 340.718 94.6604C339.644 94.5036 338.563 94.324 337.863 93.4555C337.44 92.9324 337.263 92.2633 337.363 91.6515C337.458 91.0755 337.794 90.5472 338.406 90.2308C339.929 89.443 341.821 90.216 343.36 90.8743C343.474 90.9232 343.586 90.9712 343.696 91.0174C345.198 91.6524 346.571 92.4906 347.699 93.6894C348.593 94.6406 349.423 96.0466 349.757 97.4929C350.033 98.6962 349.968 99.9246 349.34 100.954Z" fill="#333333"/>
</svg>
