<svg width="138" height="200" viewBox="0 0 138 200" fill="none" xmlns="http://www.w3.org/2000/svg">
<path fill-rule="evenodd" clip-rule="evenodd" d="M3.14893 179.712C2.60912 184.662 1.38648 190.115 3.71716 194.785C2.24927 194.851 3.44008 195.276 4.23222 195.421C4.68448 195.772 5.29239 195.91 5.86411 195.862C8.83222 196.489 11.8962 196.717 14.9099 197.072C52.5375 200.198 90.4175 199.368 128.115 198.021C129.341 197.968 130.164 197.077 130.257 195.877C131.639 178.217 132.327 160.502 132.292 142.788C131.678 136.563 136.381 138.991 133.872 130.788C131.856 122.137 128.87 113.714 125.063 105.69C122.432 100.467 119.953 94.9727 115.942 90.6421C114.675 90.4672 113.595 89.2077 112.525 88.5046C111.44 88.2929 110.636 87.3722 109.536 87.0889C107.441 86.5436 102.753 85.384 100.969 86.7783C100.898 86.7587 100.827 86.7425 100.756 86.7228C100.407 87.1102 99.9278 86.8193 99.6667 86.4711C98.7758 85.7791 94.8787 85.7082 94.4366 84.645C92.131 82.5535 91.514 78.1504 91.514 75.5742C90.6522 74.6057 90.5924 74.7849 89.4225 74.2729C88.2748 72.8256 86.889 71.5644 85.342 70.5703C76.6364 64.8522 64.0029 70.8775 61.9652 80.817C58.7431 83.3693 55.4271 85.9617 51.4807 87.2911C49.5549 86.3004 47.3611 85.9839 45.3173 85.9822C43.7937 85.9267 41.6884 85.0452 40.6983 86.6494C24.0411 92.1039 13.988 107.97 6.83954 123.003C5.83757 125.143 4.63891 127.384 4.9456 129.822C5.15628 132.742 8.32449 134.481 7.7258 137.576C6.85559 146.089 5.86573 154.594 4.95976 163.105C4.35604 168.641 3.75249 174.176 3.14893 179.712Z" fill="white"/>
<path fill-rule="evenodd" clip-rule="evenodd" d="M125.009 139.099C123.932 139.489 122.422 139.869 121.652 140.75C121.563 139.929 121.473 139.107 121.383 138.286C123.64 138.233 125.901 138.213 128.16 138.15C127.094 138.411 126.04 138.725 125.009 139.099ZM120.051 190.76C119.274 190.767 118.494 190.82 117.719 190.851C116.224 190.909 114.729 190.966 113.234 191.022C110.184 191.136 107.134 191.247 104.084 191.353C98.0436 191.563 92.003 191.756 85.9623 191.935C73.8793 192.291 61.7911 192.506 49.71 192.912C46.3584 193.025 43.007 193.112 39.6584 193.295C37.9233 193.39 36.18 193.471 34.4531 193.672C32.9962 193.841 31.5602 194.128 30.1114 194.341C30.2086 192.452 30.2996 190.564 30.3943 188.675C30.4839 186.889 30.5675 185.102 30.6506 183.315C36.3058 183.611 41.9677 183.731 47.6304 183.781C53.6206 183.834 59.6083 183.984 65.5986 183.995C77.4581 184.019 89.3176 183.869 101.176 183.75C104.531 183.716 107.885 183.682 111.239 183.649C112.915 183.632 114.593 183.615 116.27 183.598C117.107 183.59 117.949 183.608 118.785 183.573C119.678 183.536 120.221 183.282 120.868 182.681C121.214 182.361 121.228 181.708 120.868 181.39C120.349 180.93 119.866 180.578 119.145 180.527C118.437 180.476 117.698 180.546 116.988 180.555C115.431 180.575 113.874 180.596 112.317 180.616C109.322 180.656 106.328 180.696 103.333 180.735C97.343 180.813 91.3536 180.894 85.3641 180.985C79.4941 181.075 73.6241 181.142 67.755 181.289C61.763 181.44 55.7778 181.713 49.7866 181.905C43.4097 182.111 37.0361 182.355 30.6737 182.833C30.8266 179.522 30.9674 176.209 31.0999 172.895C43.733 173.583 56.3751 174.073 69.029 174.094C82.212 174.117 95.3949 173.891 108.574 173.547C110.43 173.499 112.288 173.449 114.144 173.391C115.102 173.361 116.062 173.333 117.02 173.299C117.724 173.274 118.448 173.243 119.085 172.906C120.342 172.241 120.559 170.299 119.068 169.767C118.252 169.477 117.388 169.761 117.189 170.496C117.128 170.502 117.07 170.507 117.02 170.509C116.3 170.536 115.582 170.556 114.863 170.579C113.306 170.628 111.749 170.679 110.192 170.728C107.316 170.818 104.44 170.9 101.564 170.977C95.6936 171.133 89.8219 171.26 83.9502 171.357C72.3237 171.551 60.698 171.73 49.0736 171.996C43.0872 172.133 37.1027 172.311 31.117 172.463C31.26 168.861 31.395 165.26 31.5167 161.658C31.531 161.236 31.5464 160.813 31.5618 160.391C32.4195 160.58 33.2979 160.684 34.1717 160.808C35.688 161.022 37.209 161.182 38.7318 161.342C41.6012 161.645 44.4799 161.83 47.3598 161.99C53.2314 162.313 59.1049 162.542 64.9817 162.721C76.609 163.075 88.2501 163.153 99.8817 163.113C106.197 163.092 112.552 163.174 118.865 162.9C119.254 163.005 119.655 162.994 120.043 162.868C120.361 168.498 120.698 174.128 121.028 179.757C121.251 183.556 121.448 187.367 121.722 191.167C121.187 190.903 120.694 190.754 120.051 190.76ZM10.5973 133.557C9.48969 133.015 8.26816 132.52 7.29025 131.752C6.22138 130.912 5.9589 129.926 6.28743 128.608C6.31192 128.51 6.34076 128.412 6.36636 128.314C14.2429 128.333 22.0995 127.986 29.9726 127.799C37.9717 127.61 45.9677 127.45 53.9687 127.405C69.9258 127.315 85.8804 127.675 101.83 128.123C107.574 128.285 113.317 128.443 119.061 128.6C118.93 130.002 118.981 131.437 118.951 132.828C118.924 134.05 118.931 135.273 118.95 136.497C115.945 136.489 112.941 136.425 109.936 136.39C102.495 136.307 95.0596 136.52 87.6212 136.691C72.7452 137.031 57.8658 137.299 42.993 137.747C38.9534 137.868 34.8879 137.932 30.8299 138.106C30.6904 137.446 30.5355 136.789 30.3608 136.136C30.0831 135.099 29.7698 134.034 28.9397 133.314C28.8998 133.279 28.8446 133.295 28.8268 133.344C28.5115 134.218 28.5912 135.108 28.6834 136.024C28.7565 136.747 28.8059 137.473 28.8425 138.199C26.3191 138.333 23.801 138.519 21.296 138.798C20.5797 138.444 19.8632 138.091 19.1454 137.739C16.2965 136.344 13.4466 134.951 10.5973 133.557ZM102.041 159.586C96.1638 159.633 90.2861 159.638 84.4093 159.601C72.7768 159.526 61.1477 159.24 49.5172 159.009C46.2803 158.945 43.0477 158.881 39.8102 158.881C38.1342 158.881 36.4526 158.892 34.7783 158.964C33.7246 159.01 32.6563 159.017 31.6074 159.143C31.734 155.754 31.8657 152.361 31.8616 148.969C42.957 150.65 54.1718 151.113 65.3768 151.443C76.7285 151.778 88.0837 151.952 99.4405 151.969C102.668 151.974 105.895 151.966 109.123 151.947C110.676 151.938 112.231 151.926 113.784 151.911C114.619 151.904 115.46 151.921 116.294 151.885C117.177 151.848 117.71 151.639 118.326 151.011C118.642 150.69 118.658 150.136 118.326 149.816C117.226 148.753 115.932 148.985 114.502 149.002C113.067 149.02 111.633 149.035 110.198 149.048C107.329 149.074 104.461 149.09 101.592 149.098C95.9743 149.113 90.3561 149.09 84.7378 149.033C73.3835 148.917 62.0326 148.665 50.6811 148.399C44.4056 148.252 38.1313 148.293 31.8609 148.596C31.8586 148.034 31.8533 147.471 31.8423 146.908C31.8011 144.775 31.5934 142.643 31.2685 140.533C34.3415 140.523 37.4144 140.457 40.4735 140.418C47.9124 140.323 55.3494 140.172 62.7878 140.023C70.1656 139.875 77.5434 139.728 84.9221 139.579C92.2957 139.432 99.6914 139.421 107.056 139.023C111.03 138.808 115.006 138.515 118.984 138.362C118.992 138.727 118.999 139.093 119.007 139.457C119.103 143.938 119.278 148.415 119.504 152.891C119.612 155.041 119.727 157.193 119.844 159.342C119.787 159.337 119.729 159.334 119.669 159.333C113.797 159.294 107.914 159.538 102.041 159.586ZM9.04622 120.671C9.71898 118.94 10.4498 117.22 11.2398 115.523C14.5937 116.47 18.1714 116.959 21.6327 117.284C25.3177 117.63 29.0098 117.825 32.7098 117.901C40.0043 118.049 47.2987 117.704 54.5857 117.402C69.5734 116.783 84.5594 116.331 99.5608 116.302C103.751 116.294 107.94 116.313 112.129 116.36C114.223 116.383 116.318 116.412 118.412 116.448C119.489 116.467 120.566 116.487 121.644 116.509C122.121 116.519 122.603 116.554 123.079 116.54C123.717 116.521 124.183 116.329 124.774 116.098C125.453 115.834 125.853 114.698 125.006 114.321C124.16 113.945 123.48 113.724 122.541 113.704C121.524 113.683 120.506 113.662 119.489 113.643C117.634 113.61 115.779 113.581 113.924 113.558C110.154 113.511 106.384 113.492 102.613 113.492C95.1918 113.492 87.7713 113.58 80.3517 113.755C65.457 114.106 50.5961 115.144 35.7068 115.59C31.6029 115.713 27.4913 115.737 23.3872 115.614C19.4121 115.494 15.4454 115.16 11.4751 115.019C12.8465 112.127 14.3982 109.31 16.149 106.633C22.7676 106.865 29.372 106.693 35.992 106.491C39.4658 106.385 42.9395 106.278 46.413 106.159C48.1498 106.099 49.8866 106.039 51.6235 105.981C52.4619 105.952 53.3004 105.923 54.1385 105.894C55.0422 105.863 55.9928 105.922 56.87 105.684C57.0287 105.641 57.155 105.549 57.2497 105.432C59.5853 106.633 62.0548 107.581 64.5943 108.284C70.1067 109.809 76.0356 110.38 81.7375 109.911C86.3122 109.535 90.8723 108.401 94.8949 106.184C103.98 107.02 113.192 106.627 122.296 106.568C123.166 106.562 123.528 105.765 123.382 105.107C126.304 111.406 128.239 118.235 130.051 124.877C131.177 129.006 132.178 133.159 133.131 137.328C133.091 137.332 133.052 137.335 133.013 137.338C133.123 136.882 132.874 136.343 132.25 136.33C128.565 136.244 124.869 136.457 121.183 136.491C121.079 135.569 120.976 134.646 120.867 133.724C120.717 132.468 120.539 131.215 120.387 129.959C120.332 129.504 120.281 129.065 120.218 128.632C123.136 128.711 126.055 128.792 128.973 128.868C130.867 128.919 130.864 125.984 128.973 125.926C112.937 125.435 96.8985 124.939 80.856 124.667C64.8042 124.394 48.697 124.225 32.6572 125.049C23.9164 125.498 15.1971 126.097 6.56502 127.576C7.23547 125.236 8.1708 122.925 9.04622 120.671ZM22.6962 98.3758C22.9866 98.5934 23.0797 98.7308 23.5138 98.8076C23.9845 98.8895 24.4686 98.9159 24.9438 98.962C25.9605 99.0619 26.9798 99.0994 28 99.1472C30.0372 99.2445 32.0741 99.3469 34.1127 99.4092C38.1595 99.532 42.2929 99.7053 46.3378 99.5261C47.3274 99.4817 47.7775 98.6651 47.6876 97.9218C48.4462 98.8613 49.2756 99.7437 50.159 100.548C51.5793 101.841 53.1123 102.987 54.7282 103.998C53.6803 104.037 52.6125 104.168 51.6229 104.211C49.9459 104.282 48.269 104.355 46.592 104.427C43.0582 104.579 39.5247 104.742 35.9915 104.907C29.4521 105.213 22.9352 105.593 16.4209 106.217C18.2814 103.42 20.3654 100.782 22.6962 98.3758ZM129.128 111.962C126.365 104.375 122.803 96.4942 116.393 91.283C113.098 88.6044 109.427 86.751 105.27 85.8738C105.142 85.8465 105.091 86.0282 105.216 86.0692C112.405 88.4286 117.725 94.6724 121.324 101.071C121.976 102.23 122.58 103.417 123.152 104.622C122.966 104.395 122.681 104.245 122.296 104.251C113.794 104.394 105.194 104.25 96.7116 105.08C96.9275 104.936 97.1442 104.792 97.3567 104.641C99.6735 102.989 101.759 100.967 103.482 98.6779C104.52 98.9415 105.613 99.0055 106.672 99.1062C108.086 99.2402 109.509 99.3016 110.927 99.3784C112.343 99.4544 113.764 99.4612 115.182 99.4953C116.156 99.5192 118.061 99.6814 118.062 98.1906C118.063 96.6982 116.156 96.856 115.182 96.8757C113.764 96.903 112.344 96.9072 110.927 96.9738C109.569 97.0378 108.203 97.089 106.849 97.2102C106.024 97.2844 105.174 97.333 104.344 97.4644C105.695 95.448 106.771 93.2507 107.488 90.934C107.561 90.701 107.585 90.4826 107.573 90.2812C107.877 89.9595 108.072 89.5192 108.072 89.1155C108.072 88.1556 107.324 87.5932 106.451 87.4925C102.992 87.0974 99.1811 86.5334 96.3942 84.2593C95.1364 83.2328 94.1252 82.0193 93.1729 80.7129C92.1028 79.2452 91.7017 77.396 91.6975 75.5989C91.6975 75.4982 91.5302 75.4675 91.5149 75.5742C90.9909 79.217 91.7461 83.3761 94.3598 86.105C96.9258 88.7853 100.412 89.7888 103.949 90.375C102.49 94.5427 100.083 98.2026 96.7031 101.082C92.9374 104.289 88.1698 106.004 83.3102 106.652C78.0665 107.35 72.5703 107.011 67.4137 105.871C62.4465 104.772 57.5868 102.807 53.5446 99.672C51.5046 98.0899 49.6282 96.2254 47.9933 94.2295C46.6439 92.5826 45.6092 90.7454 44.4509 88.9807C48.7724 90.166 53.9969 88.5472 57.6175 86.2595C59.7491 84.9129 61.617 83.231 63.1513 81.2309C63.9082 80.2444 64.5815 79.2025 65.137 78.0889C65.4263 77.5095 65.6857 76.9139 65.9246 76.3123C66.0722 75.9411 66.2164 75.5588 66.2164 75.1509C66.2156 74.8497 66.1405 74.5698 65.9895 74.3096C65.6797 73.981 65.6183 73.8855 65.8043 74.0237C65.5005 73.4008 64.6207 73.2429 64.0584 73.5655C63.8493 73.6866 63.3561 73.9196 63.1138 74.3096C62.9499 74.5732 62.8612 74.889 62.7562 75.1783C62.5907 75.6348 62.4243 76.0862 62.2161 76.5256C61.7331 77.5471 61.1537 78.5224 60.4924 79.4389C59.2841 81.114 57.7319 82.6286 56.0406 83.8105C54.2648 85.052 52.351 86.0658 50.2755 86.6998C48.0833 87.3688 45.9134 87.5685 43.6516 87.8134C43.6275 87.7801 43.604 87.746 43.5799 87.7127C43.5363 87.653 43.442 87.6726 43.4381 87.7511C43.4363 87.7895 43.4373 87.827 43.4362 87.8646C43.1137 88.0165 43.087 88.4704 43.4462 88.6454C43.5795 90.7386 44.4824 92.7993 45.4661 94.6109C45.8759 95.3653 46.3388 96.0957 46.8404 96.8023C46.692 96.7459 46.5253 96.7101 46.3382 96.7024C42.2918 96.5471 38.1594 96.7468 34.113 96.8953C32.1341 96.9678 30.1574 97.0787 28.1801 97.1846C27.161 97.2392 26.1393 97.2742 25.1238 97.3791C24.6159 97.432 24.105 97.4738 23.5999 97.5498C23.5633 97.5557 23.5292 97.5617 23.4971 97.5668C24.7468 96.3355 26.0641 95.1699 27.4548 94.081C32.0169 90.5107 37.2566 87.6026 42.847 86.0205C42.9 86.0052 42.8923 85.9147 42.8337 85.9207C31.7144 87.0582 22.4522 94.0674 15.973 102.869C12.3778 107.753 9.65114 113.159 7.30485 118.733C6.12223 121.543 5.00318 124.404 4.06606 127.306C3.58982 128.781 3.37513 130.345 4.05727 131.793C4.58045 132.903 5.54581 133.728 6.55776 134.383C6.625 134.427 6.69421 134.468 6.76222 134.511C5.72774 138.116 5.03475 141.815 4.36985 145.503C3.64768 149.509 3.01759 153.533 2.47641 157.568C1.39474 165.634 0.566165 173.716 0.204357 181.848C0.104262 184.097 0.0374469 186.347 0.00817794 188.599C-0.00641386 189.725 7.39103e-05 190.851 0.0154337 191.977C0.0329268 193.237 -0.137654 194.659 0.503617 195.784C1.36044 197.286 3.02467 196.769 3.75656 195.741C3.76723 195.755 3.77824 195.77 3.78899 195.784C3.85538 195.653 3.91084 195.523 3.95829 195.392C4.03705 195.219 4.08842 195.038 4.10719 194.853C4.24509 194.155 4.19321 193.447 4.18758 192.688C4.17947 191.622 4.18561 190.554 4.18869 189.487C4.19466 187.473 4.21753 185.46 4.27487 183.446C4.38973 179.419 4.61398 175.396 4.92066 171.379C5.52994 163.401 6.42882 155.459 7.19809 147.496C7.58968 143.441 8.062 139.376 8.14349 135.301C9.09298 135.801 10.0728 136.254 11.0205 136.736C12.779 137.632 14.5373 138.527 16.2955 139.422C18.0008 140.291 19.7086 141.154 21.4171 142.016C23.1398 142.886 24.851 144.035 26.7892 144.249C27.8253 144.363 28.2003 142.967 27.5898 142.315C26.7927 141.463 25.734 140.934 24.6699 140.439C26.0838 140.491 27.4995 140.519 28.916 140.529C28.9354 142.312 28.8725 144.099 28.7831 145.878C28.5631 150.242 28.2574 154.597 27.9679 158.956C27.3661 168.017 26.7836 177.084 26.3291 186.154C26.2179 188.375 26.1065 190.596 25.9951 192.818C25.941 193.897 25.8659 194.979 25.8351 196.06C25.8009 197.272 25.8307 198.792 26.9526 199.541C27.7451 200.07 28.5979 199.821 29.1929 199.093C29.9884 198.121 29.9871 196.713 30.0511 195.52C30.066 195.244 30.0791 194.968 30.0934 194.692C31.3084 194.85 32.5147 195.067 33.735 195.187C35.2255 195.332 36.7255 195.417 38.2226 195.456C41.2752 195.534 44.323 195.562 47.3766 195.562C53.4195 195.563 59.4616 195.459 65.5039 195.362C77.5887 195.166 89.6717 194.828 101.752 194.453C105.101 194.349 108.45 194.24 111.798 194.126C113.533 194.067 115.267 194.007 117.001 193.945C118.643 193.886 120.436 194.099 121.88 193.246C121.922 193.765 121.965 194.285 122.011 194.803C122.097 195.785 122.787 196.629 123.836 196.629C124.821 196.629 125.667 195.794 125.661 194.803C125.294 185.842 124.497 176.881 123.866 167.936C123.287 159.72 122.744 151.492 121.915 143.295C122.151 143.447 122.438 143.541 122.776 143.543C123.858 143.547 124.939 142.877 125.952 142.519C126.973 142.159 128.011 141.847 129.064 141.592C129.687 141.44 130.313 141.314 130.94 141.206C130.864 142.488 130.884 143.782 130.86 145.06C130.823 147.024 130.763 148.988 130.715 150.951C130.621 154.821 130.588 158.69 130.513 162.56C130.365 170.361 130.119 178.158 129.703 185.949C129.588 188.09 129.46 190.23 129.316 192.369C129.241 193.498 129.162 194.627 129.078 195.755C128.996 196.864 128.805 198.043 129.223 199.106C129.236 199.098 129.25 199.091 129.262 199.083C129.553 199.999 130.833 200.438 131.438 199.396C132.38 197.772 132.163 195.445 132.271 193.617C132.387 191.657 132.491 189.695 132.584 187.733C132.769 183.808 132.897 179.882 132.971 175.954C133.119 168.096 133.095 160.227 132.614 152.38C132.483 150.235 132.299 148.094 132.11 145.953C131.968 144.348 131.891 142.699 131.64 141.094C132.864 140.913 134.097 140.808 135.342 140.777C136.547 140.747 137.325 139.66 137.069 138.509C135.068 129.495 132.286 120.633 129.128 111.962Z" fill="black"/>
<path fill-rule="evenodd" clip-rule="evenodd" d="M78.7885 3.65396C89.0249 3.65396 99.6129 11.5916 103.365 16.6567C106.52 20.9153 108.219 40.1722 108.219 53.1864C108.219 55.9077 109.72 61.0387 109.282 63.6422C107.676 73.1823 100.681 81.1839 86.8361 81.1839C72.991 81.1839 63.0635 75.6936 52.7731 60.9534C47.78 60.9534 45.36 57.1228 45.325 51.0779C45.2898 45.033 50.1446 42.8333 50.1446 42.8333C50.1446 42.8333 48.4136 18.9767 52.7731 12.7656C57.1329 6.55448 68.5529 3.65396 78.7885 3.65396Z" fill="white"/>
<path fill-rule="evenodd" clip-rule="evenodd" d="M74.4817 0.280693C80.9448 -0.373975 87.2781 0.176077 93.6473 1.31424C94.1337 1.40247 94.4102 1.72187 94.5126 2.10578C97.5128 2.2429 100.516 2.46306 103.512 2.62724C104.599 2.68672 105.216 3.76139 104.72 4.73187C104.621 4.92464 104.518 5.1122 104.414 5.29984L104.545 5.2565C105.446 4.96722 106.42 4.82463 107.298 5.28372C108.416 5.86807 108.853 7.15744 108.607 8.34407C108.544 8.64708 108.437 8.93747 108.317 9.22077C108.562 9.20456 108.809 9.20993 109.054 9.24245C110.359 9.41558 111.329 10.4165 111.397 11.7493C111.499 13.7618 110.203 15.8035 108.675 17.2444C108.897 17.7008 108.981 18.2382 108.889 18.7829C108.706 19.8596 107.913 20.5043 106.994 20.9249C107.377 22.1424 107.558 23.4154 107.451 24.7162C107.416 25.1506 107.036 25.5092 106.636 25.5973C108.129 29.7117 108.885 34.1292 109.429 38.4336C109.817 41.4962 110.008 44.5764 110.031 47.662C110.042 49.0555 110.019 50.4498 109.961 51.8433L109.937 52.3655C109.866 53.8717 109.861 55.4529 109.591 56.9428C110.514 58.5137 110.885 60.4636 111.042 62.224C111.237 64.4025 110.929 66.6493 110.242 68.722C107.649 76.5521 99.8253 81.4937 91.9671 82.7779C84.6925 83.9666 76.2754 82.3666 72.025 75.7568C71.9576 75.6527 72.1001 75.5656 72.1829 75.6348C75.225 78.1085 78.7526 79.2127 82.5857 79.7503C89.2126 80.677 96.6612 79.1044 101.98 74.935C104.532 72.9332 106.373 70.0182 107.183 66.8823C107.596 65.2789 107.738 63.6072 107.575 61.9569C107.41 60.2835 106.669 58.8551 106.202 57.273C106.045 56.7388 106.211 56.243 106.538 55.8898C106.629 54.6055 106.846 53.311 106.928 52.0302C107.021 50.5744 107.076 49.1195 107.096 47.662C107.134 44.6396 107.008 41.6114 106.753 38.6016C106.288 33.0899 105.054 27.7121 104.329 22.2472C104.06 22.488 103.676 22.5869 103.273 22.3765L103.231 22.3536L103.011 22.2276C102.998 22.2276 102.984 22.2294 102.972 22.231C101.466 22.3773 99.9047 22.1681 98.4626 21.7189C96.9531 21.2501 95.5528 20.5287 94.3018 19.5675C94.0637 20.7738 93.9647 21.9929 93.963 23.2229C93.9613 23.9913 93.1481 24.39 92.5021 24.0617C89.6418 22.6079 86.9086 20.9327 84.3145 19.0498C84.0116 20.6026 83.7087 22.1553 83.404 23.7099C83.2863 24.3089 82.5243 24.5505 82.0353 24.2656C80.0923 23.1346 78.4138 21.6541 77.0468 19.8937C76.7746 20.4157 76.5007 20.9375 76.225 21.4582L75.8103 22.2383C75.4016 23.0047 74.8529 23.8526 73.9569 24.0977C73.0089 24.3573 72.217 23.7425 71.8987 22.8839C71.8014 22.6171 71.711 22.3429 71.6282 22.0669C70.8201 23.9121 69.9079 25.7156 68.8771 27.4361C67.33 30.0167 65.4732 32.3162 63.6215 34.6752C63.0592 35.3914 62.0966 34.7076 62.0189 34.0116C61.9737 33.6023 61.9362 33.1911 61.9038 32.7815C60.8252 34.9594 59.6988 37.117 58.4725 39.2119L58.6483 39.9002C59.1543 41.9342 59.5742 43.9825 60.0316 46.0271C60.1792 46.6876 59.8285 47.6305 59.0579 47.7431C58.1372 47.8771 57.2668 48.3473 56.3239 48.0238C55.2956 47.6706 55.0925 46.7814 54.607 45.9392C54.5097 45.7711 54.3971 45.6166 54.2759 45.4707L54.2452 45.5108C54.1701 45.6098 53.9892 45.5014 54.0344 45.3879L54.0873 45.2565C53.6701 44.8137 53.1714 44.445 52.7125 44.0474C51.6223 43.8639 50.3958 44.0653 49.6446 44.5082C47.9338 45.5176 47.1479 47.5989 47.1316 49.5129C47.1119 51.7529 47.8058 54.2702 48.9776 56.1859C49.4933 57.0281 50.2 57.7884 51.1337 58.1622C52.0605 58.5334 53.0646 58.4182 54.0071 58.768C54.6309 59.001 55.0149 59.6939 54.6386 60.3211C54.613 60.3646 54.5848 60.4038 54.5575 60.4456L54.8374 60.8177C55.0302 61.0754 55.2316 61.3519 55.4194 61.6394C55.8989 62.1915 56.4032 62.7232 56.8922 63.2659C57.795 64.2668 58.6714 65.2951 59.5597 66.3105C60.3985 67.268 61.2851 68.1682 62.199 69.0531C63.0626 69.8919 64.1412 70.5976 64.9339 71.4919C65.7053 72.3648 65.9152 73.8889 64.6455 74.394C63.2418 74.9538 61.9985 73.6414 61.053 72.7659L61.0129 72.7292C59.2806 71.1335 57.7156 69.3108 56.4732 67.3038C55.2419 68.1417 53.4618 68.222 52.2357 67.384C51.5907 66.9428 51.0958 66.2022 50.8554 65.3958C50.6286 65.447 50.4019 65.476 50.1809 65.4726C50.0672 65.5391 49.9531 65.6031 49.8376 65.6629C48.9235 66.139 47.8005 65.9265 47.3823 64.9145C47.0014 63.9955 47.3939 62.9527 47.7369 62.067L47.8077 61.8843C48.0024 61.38 48.217 60.8296 48.4837 60.3117C47.741 59.7528 47.1062 59.0581 46.5692 58.2688C44.7646 55.6082 43.8632 51.7179 44.2616 48.5444C44.5014 46.6287 45.4008 44.6447 46.8737 43.3536L46.8198 43.2128C46.4069 42.1653 46.0318 41.1137 45.7886 40.0065C45.5038 38.7116 45.3648 37.3698 45.2387 36.0514C44.9719 33.2669 45.044 30.4191 45.3991 27.6453C46.0662 22.4242 47.7572 17.2987 50.7589 12.9541C49.9078 11.9348 49.2337 10.7356 49.5851 9.35602C49.7457 8.72286 50.1115 8.12246 50.6634 7.7598C50.9678 7.55978 51.3303 7.52915 51.6351 7.36318L51.7266 7.31274C51.8605 7.23458 51.7581 7.24285 51.6783 6.87985C51.3628 5.42963 51.6242 4.02848 53.2197 3.54695C54.7213 3.09435 56.1421 4.05553 57.0304 5.20077C59.3566 3.55045 62.4209 2.68672 65.1165 1.95269C68.1808 1.12113 71.3253 0.601884 74.4817 0.280693ZM49.3615 48.9207C49.3505 47.7397 50.47 47.011 51.5717 47.2047C52.3115 47.3335 52.9286 47.7747 53.5079 48.2312L53.7904 48.4548C54.4961 49.0094 55.3067 49.6068 55.7266 50.391C56.3435 51.5489 55.0405 53.1071 53.8237 52.2956C52.9887 51.7358 52.4536 50.839 51.9061 50.0061L51.8493 49.9199C51.6006 49.547 51.3825 49.1502 51.0416 48.8507L50.9679 48.7859C50.8559 48.6903 50.7356 48.6033 50.5908 48.5623C50.3117 48.4821 49.7947 48.5947 49.6716 48.9267L49.6606 48.9608C49.6155 49.1289 49.3633 49.0922 49.3615 48.9207Z" fill="black"/>
<path fill-rule="evenodd" clip-rule="evenodd" d="M90.2451 67.0768C89.0333 66.5827 87.9522 65.7576 87.1611 64.7037C86.8864 64.3368 86.8156 63.9502 86.8727 63.5961C86.9376 63.1985 87.1731 62.8375 87.4939 62.596C87.8156 62.3537 88.2184 62.2334 88.6075 62.2948C88.9463 62.3477 89.2825 62.5329 89.5496 62.9169L89.6051 62.9937C90.0752 63.6302 90.6871 64.1516 91.3851 64.4887C92.0575 64.8129 92.8101 64.964 93.5884 64.8761C95.0714 64.7088 96.0929 63.9067 97.1791 62.817C97.314 62.6796 97.4488 62.538 97.5836 62.3938C97.669 62.2632 97.7884 62.1787 97.9198 62.1352C98.0657 62.0857 98.2313 62.0891 98.3832 62.142C98.5291 62.1924 98.6597 62.2897 98.7475 62.4185C98.8303 62.5406 98.8781 62.6916 98.8628 62.8657C98.7629 63.9938 98.1733 65.0015 97.3353 65.7926C96.4043 66.6715 95.1704 67.279 94.0091 67.4924C92.7299 67.727 91.426 67.5589 90.2451 67.0768ZM94.6132 49.6622C95.9743 50.4899 98.0487 52.4202 96.5844 54.4724C94.8598 56.2823 92.3784 54.2079 91.1555 53.2692C90.0215 52.5422 88.7466 54.4127 89.7988 55.2617C98.6366 61.8075 102.224 49.879 95.3018 48.6894C94.539 48.558 94.2565 49.4062 94.6132 49.6622ZM78.7756 42.048C78.9257 40.1802 81.769 39.756 82.0523 41.6043C82.3049 43.2598 82.0071 44.7804 81.2613 46.2711C80.5496 47.6953 78.7594 47.0314 78.6237 45.7344C78.4419 43.9962 78.6817 43.2094 78.7756 42.048ZM100.42 41.221C100.817 40.7017 101.389 40.347 102.075 40.5475C104.217 41.1738 103.586 44.2172 102.833 45.6977C102.425 46.5024 101.103 46.7063 100.505 45.9981C99.5317 44.8435 99.0658 42.5367 100.303 41.3991C100.337 41.3403 100.375 41.2809 100.42 41.221ZM81.2314 33.8753L81.5702 33.816C82.6172 33.6348 83.9185 33.4607 84.6592 34.3029C85.0526 34.7494 85.1874 35.5794 84.6592 36.0068C83.7308 36.7588 82.7034 36.4674 81.5907 36.5311C80.6733 36.5837 79.7919 36.7356 78.9087 36.9883C76.9699 37.5425 75.3904 38.5542 73.735 39.6652C73.5183 39.8109 73.2964 39.533 73.3996 39.3297C74.3554 37.4572 76.2071 35.919 78.0622 34.9813C79.0529 34.4809 80.1358 34.0656 81.2314 33.8753ZM98.4668 33.0364L98.7262 33.0894C101.546 33.6789 105.208 34.8565 106.543 37.6266C106.594 38.0182 106.54 38.1022 106.497 38.1571L106.482 38.1753C106.445 38.2222 106.417 38.2867 106.247 38.34C106.2 38.3288 106.153 38.3169 106.105 38.3043C105.492 38.1438 105.008 37.9228 104.54 37.6935L104.031 37.4431C103.442 37.1539 102.847 36.8752 102.216 36.6695C100.871 36.2304 99.4874 35.9213 98.0828 35.7562C97.7782 35.7204 97.4846 35.6176 97.2534 35.4413C97.0341 35.274 96.866 35.0424 96.7892 34.7346C96.6902 34.3362 96.7192 34.0346 96.9325 33.6752C97.093 33.4053 97.3234 33.2181 97.587 33.1107C97.8558 33.0012 98.1622 32.9754 98.4668 33.0364Z" fill="black"/>
<path fill-rule="evenodd" clip-rule="evenodd" d="M104.093 22.7939C105.135 22.4367 105.966 23.5207 105.765 24.4656C105.53 25.5783 104.368 26.4714 103.599 27.2558C102.791 28.0818 101.967 28.8915 101.112 29.6707C99.4806 31.1605 97.7902 32.5634 96.0067 33.871L95.4614 34.2706C93.8273 35.4669 92.1975 36.6354 90.4473 37.671C89.4993 38.23 88.5419 38.7711 87.5716 39.2923C87.226 39.4781 86.8036 39.7646 86.3693 39.9776C87.9573 41.204 89.1802 43.0763 89.4447 44.8196C90.1009 49.1519 87.3105 53.1668 83.3733 54.7625C81.4098 55.5578 79.2244 55.7891 77.1261 55.5493C74.992 55.3052 72.8288 54.6738 71.4422 52.9253C70.2108 51.3723 69.7671 49.39 69.6792 47.4444C69.6374 46.5211 69.6468 45.6115 69.8413 44.7949C68.9923 44.8017 68.1432 44.7983 67.301 44.8077C65.2206 44.8273 63.1368 44.8367 61.0547 44.7787C58.9077 44.7172 56.771 44.6216 54.6309 44.4305C53.6922 44.346 52.7581 44.2069 51.824 44.073C50.9174 43.945 49.9169 43.8963 49.0695 43.5251C49.0118 43.5021 49.0357 43.4185 49.0857 43.4023C49.989 43.1104 51.0148 43.1625 51.9558 43.1053L52.873 43.049C53.6368 43.0037 54.4005 42.9619 55.1668 42.937C56.9365 42.8787 58.7046 42.8645 60.4744 42.8341L61.233 42.8199C63.3151 42.7785 65.3972 42.755 67.4793 42.6883C68.3429 42.6612 69.2082 42.6107 70.076 42.5639C70.1767 42.3347 70.3243 42.1254 70.4668 41.9218C70.8926 41.3122 71.4328 40.7748 71.9943 40.2878C73.142 39.2849 74.4348 38.5403 75.8769 38.0407C77.3062 37.5473 79.3968 37.3025 80.9089 37.3344C82.421 37.3663 84.5756 37.5796 85.2677 38.8162C85.3402 38.9442 86.6577 38.6971 87.0486 38.3976C87.9633 37.6998 88.861 36.982 89.7425 36.2462C91.3792 34.8773 93.0628 33.5301 94.6132 32.0657C96.2124 30.5544 97.7987 29.0178 99.3202 27.4307C100.085 26.6353 100.848 25.8383 101.588 25.0231C102.346 24.1916 102.996 23.1673 104.093 22.7939Z" fill="black"/>
</svg>
