<svg width="50" height="137" viewBox="0 0 50 137" fill="none" xmlns="http://www.w3.org/2000/svg">
<path fill-rule="evenodd" clip-rule="evenodd" d="M8.73581 45.9287C7.45584 47.4255 7.569 47.8415 8.25095 49.3528C9.75761 52.8591 11.9179 56.4234 14.3703 59.6746C14.2084 52.3802 14.0692 45.0461 13.8297 37.6851C12.3716 40.5293 10.8187 43.0984 8.73581 45.9287ZM8.49431 136.083C7.68864 136.005 2.01834 136.214 3.53584 134.561C3.06742 133.544 4.37606 132.687 5.18245 131.913C5.93694 131.194 6.6805 130.394 7.45526 129.469C8.17673 128.611 8.99005 127.597 9.51587 126.414C9.63226 126.229 9.75047 126.099 9.86754 126.028L9.93505 125.987L9.9771 125.92C10.4209 125.212 10.7874 124.481 11.1906 123.759C10.2043 123.403 9.30829 123.045 8.19126 122.551C9.76743 113.271 12.1298 104.23 13.6571 94.9227C14.5868 86.8235 15.0858 78.6483 17.2133 70.6719L17.4853 70.6928L17.6371 70.1701C17.4137 70.1642 16.961 70.1491 16.7369 70.1405L16.7894 70.4079C15.7751 70.2904 14.7814 70.0015 13.7955 69.7564C13.2923 69.6876 12.7879 69.3278 12.969 68.7283C13.0271 67.8585 13.2072 67.0098 13.2919 66.1402C12.971 65.9211 12.64 65.6712 12.3229 65.4149C11.4845 65.8102 10.4713 67.0865 9.55452 66.7617C7.41206 63.8868 5.61403 60.4305 3.98691 57.6694C0.0569878 51.2841 -1.19034 47.2929 2.86286 40.6349C6.36715 35.0572 10.1472 26.1921 17.1721 24.7923C17.9608 24.645 18.7873 24.6388 19.5452 24.2797C19.5843 23.7644 19.8416 23.4684 20.0301 23.4642C20.4879 23.3638 20.9905 23.2022 21.4375 23.198C21.5951 23.1322 21.7874 23.1863 21.9389 23.2161C22.3894 22.3119 22.3492 21.1576 22.8427 20.3102C22.8606 19.6681 23.0564 18.9585 25.036 18.8295C26.3835 18.7171 28.2919 18.6086 29.3689 19.1973C30.1226 19.8039 30.1303 21.1629 30.0359 22.1204C29.9321 22.8238 29.9783 23.6417 30.5292 24.4676C32.0992 23.9829 33.1939 25.0072 34.1766 26.918C38.2908 27.478 39.1779 27.7959 40.774 31.8702C41.5351 33.6371 42.3279 35.5246 42.9212 37.459C43.7158 39.8235 43.7856 42.2987 44.5582 44.6799C46.6565 49.9282 48.7903 53.3152 49.4623 59.4251C49.7902 62.1228 49.6017 63.4606 49.2901 63.8658C48.4032 63.6095 47.2593 63.4131 46.328 63.3039L47.3245 64.0618C46.4801 67.8899 48.9122 78.8066 42.3178 77.968C42.2593 77.8256 42.3669 77.0417 42.3951 76.7166C42.2148 76.7292 41.8814 76.7411 41.704 76.7188C41.3895 77.626 40.9173 78.4413 40.6193 79.364C40.472 79.9263 40.2857 80.4923 40.1036 81.0392C35.9508 95.0227 35.1283 108.484 36.9816 122.523L36.8979 122.553L36.8639 122.614L36.813 122.633C36.6822 122.807 36.4969 122.815 36.2011 122.815C34.3847 122.879 32.7885 122.961 31.3085 123.002C31.4656 123.788 31.365 124.615 31.2958 125.415C32.1572 125.354 32.9475 125.704 33.7348 126.124C35.2394 126.862 36.7377 127.638 38.1946 128.486C39.6408 129.411 41.9796 130.202 40.8185 131.865L41.1543 131.997C41.1655 132.001 41.1728 132.005 41.177 132.008C41.2166 132.149 40.7617 132.734 40.6271 132.728C37.4465 132.876 34.7341 132.134 30.6658 131.356C29.7345 131.018 25.0433 130.443 25.0236 129.556C25.0384 129.28 25.3242 129.299 25.5235 129.264C24.926 126.246 26.9462 126.003 27.2356 123.265C26.8356 123.341 26.403 123.406 25.9933 123.294C25.6338 117.451 26.2115 111.469 25.5726 105.569L24.9234 105.497C22.7407 111.917 20.4776 118.487 18.7394 125.156C18.7064 125.301 18.5439 125.202 18.4696 125.149C17.3336 125.122 16.1973 125 15.0834 124.809C15.0566 125.465 15.0285 126.133 15.0007 126.789L15.1725 126.881C15.2832 127.035 15.2365 127.756 15.2166 128.067C15.1963 128.384 15.1796 128.614 15.2078 128.829C15.5659 129.535 14.341 131.066 13.6929 131.917C12.2813 133.743 11.1119 136.449 8.49431 136.083Z" fill="white"/>
<path fill-rule="evenodd" clip-rule="evenodd" d="M22.5092 20.3834C22.8937 20.1231 22.346 22.3817 22.3452 22.599L22.3356 22.6463C22.2396 23.1063 22.0708 23.6415 21.6825 23.9366C21.8615 25.4006 22.0845 26.8601 22.3591 28.3089L22.5205 28.3301C24.9154 28.6472 27.326 29.083 29.7611 28.8558C31.0729 28.8663 31.9415 27.9697 32.4705 26.8579C32.4347 26.7267 32.3986 26.5961 32.362 26.4649C30.6959 25.446 29.4341 23.3783 30.1848 21.4264C30.217 21.3429 30.3162 21.3371 30.3675 21.3806C30.3758 21.3814 30.3834 21.388 30.3828 21.3973L30.3581 21.7781C30.3057 22.6091 30.2824 23.4702 30.7331 24.2183C32.5457 23.8056 33.6731 25.3151 34.431 26.7434L34.9754 26.8239C37.0585 27.1329 39.0675 27.4987 40.0962 29.6298L40.237 29.9292C41.6744 32.9915 43.0138 36.1405 43.7979 39.4382C44.1927 41.1925 44.3355 43.0002 44.9146 44.7113C46.1168 47.8886 47.8109 50.8745 48.7296 54.1637C49.2996 55.3506 50.9037 64.2845 49.3211 64.3525C48.7521 64.1823 48.1724 64.0445 47.5865 63.9467C47.6769 64.0153 47.7099 64.1322 47.6928 64.2513C47.4881 65.6835 47.4729 67.1342 47.4739 68.5782C47.5819 72.0753 47.4849 79.5992 42.211 78.3916C41.8259 78.2499 42.076 77.6334 42.0605 77.2027C42.0304 77.2041 41.9998 77.2035 41.9692 77.2017C41.6666 78.0175 41.2418 78.7706 40.9759 79.5998C40.7503 80.3122 40.5926 81.0786 40.2783 81.7609C36.9482 93.5871 35.5736 106.026 36.8756 118.266C36.9486 118.999 37.0309 119.731 37.1227 120.461C37.1112 120.918 37.6532 122.83 37.1665 122.959C37.1476 122.996 37.082 123.038 37.0428 123.052C36.7472 123.37 36.2561 123.252 35.8659 123.294C34.4873 123.355 33.1091 123.412 31.7299 123.458C31.8123 124.042 31.7458 124.635 31.6969 125.219C32.7027 125.227 33.627 125.839 34.5165 126.254C35.8378 126.905 37.1373 127.6 38.4124 128.338C39.5896 129.161 42.2195 129.955 41.3147 131.821C41.9893 132.094 41.0517 133.238 40.5391 133.251C37.2021 133.234 33.8865 132.478 30.6255 131.814C28.7726 131.325 26.7509 131.139 25.0369 130.296C24.5502 130.076 24.6522 129.2 25.1874 129.119C24.7898 126.197 26.4033 126.238 26.8568 123.805C26.5928 123.848 26.301 123.823 26.0365 123.77C25.4234 124.336 25.6485 119.879 25.5652 119.443C25.5487 114.873 25.7656 110.293 25.2781 105.738L24.4496 108.175C22.5181 113.861 20.6153 119.561 19.1011 125.374C19.0103 125.725 18.6415 125.767 18.4059 125.614C17.4116 125.585 16.421 125.491 15.44 125.333C15.4209 125.798 15.4014 126.263 15.3816 126.728C15.8048 126.955 15.5183 128.39 15.5724 128.875C16.0305 129.929 14.174 131.957 13.5636 132.827C12.4751 134.345 11.3948 136.47 9.28991 136.541L9.22583 136.542C7.65485 136.58 6.06964 136.489 4.51391 136.265L4.34601 136.237C3.89679 136.163 3.39391 136.058 3.13442 135.657C2.91557 135.319 2.94233 134.883 3.20802 134.626C2.85718 133.354 4.22278 132.584 4.98555 131.81C6.41044 130.437 7.70551 128.926 8.8254 127.296L8.88972 127.143C9.09732 126.654 9.34534 126.111 9.73185 125.877C10.1003 125.292 10.4151 124.677 10.7482 124.073C9.83935 123.74 8.94437 123.367 8.05942 122.975C7.88329 122.897 7.8273 122.668 7.85804 122.498L7.86027 122.486C9.58797 113.524 11.6594 104.626 13.2704 95.6432C14.2994 87.3647 14.7213 78.9807 16.8844 70.8841C15.835 70.7753 14.7905 70.4739 13.7606 70.2166C12.9348 70.0409 12.5171 69.622 12.6801 68.7482C12.736 67.9718 12.8918 67.2078 12.9759 66.4346C12.756 66.2809 12.5415 66.1193 12.3326 65.9533C11.9455 66.2418 11.5461 66.5136 11.1357 66.7674C10.153 67.4744 9.39435 67.5844 8.78717 66.4255C7.02879 63.6503 5.33302 60.8349 3.73261 57.9658C2.24819 55.2136 0.408441 52.467 0.0316115 49.2981C-0.515777 43.5954 6.18236 34.4691 9.53779 29.8344C11.3882 27.6019 13.6419 25.3044 16.5726 24.6551C17.4739 24.5217 18.4244 24.5036 19.2837 24.1769C19.3536 23.7596 19.5497 23.3753 19.9928 23.2731C20.459 23.1702 20.9587 23.0111 21.4281 22.9994C21.5344 22.9697 21.6595 22.9507 21.7718 22.9713C22.0931 22.1377 22.1404 21.1983 22.5092 20.3834ZM4.5556 135.285C4.63586 135.324 4.71902 135.359 4.80407 135.389C4.90871 135.403 5.01287 135.417 5.11706 135.429C4.92831 135.386 4.74099 135.338 4.5556 135.285ZM14.9837 127.18C13.4443 127.738 13.0211 125.117 9.99359 126.178C8.81039 128.373 7.2786 130.366 5.52773 132.138C4.90541 132.911 3.06341 133.789 4.05606 134.922L4.20809 134.95C5.93194 135.263 7.68173 135.512 9.43836 135.37C10.7657 135.005 11.7612 133.942 12.5658 132.87C13.1479 131.839 13.8288 130.869 14.5239 129.912C14.906 129.437 14.9448 128.831 14.943 128.246C14.9559 127.89 14.9692 127.535 14.9837 127.18ZM32.2759 125.893C31.6224 125.654 30.952 125.879 30.3575 126.173C29.342 126.627 27.1425 127.171 26.2029 126.447C25.7421 127.208 25.5876 128.054 25.7139 128.933L25.7153 128.987C25.726 129.342 25.7757 129.627 26.2071 129.652L27.4316 129.96C31.5631 130.996 35.7352 131.998 39.9878 132.287C41.1227 131.579 41.1545 130.648 39.9481 129.999L39.6395 129.81C37.2709 128.363 34.8471 126.94 32.2759 125.893ZM41.2638 131.915C41.2523 131.935 41.2414 131.954 41.23 131.973C41.2477 131.982 41.2638 131.994 41.2791 132.007C41.2791 131.976 41.2742 131.944 41.2638 131.915ZM10.9775 124.156C10.9932 124.478 10.8351 124.841 10.7238 125.13C10.6582 125.301 10.591 125.544 10.4868 125.74C13.0755 124.977 13.8628 127.213 14.7961 126.748L14.8245 126.733V126.732C14.634 126.298 14.8418 125.685 14.9698 125.252C13.6105 125.006 12.2759 124.624 10.9775 124.156ZM31.4311 123.468L30.6848 123.491C29.5241 123.526 28.3632 123.557 27.2014 123.555C27.3229 124.389 27.0851 125.765 26.5449 126.413C26.5439 126.414 26.5429 126.414 26.5425 126.414C28.0716 126.646 29.5197 125.946 30.8816 125.357C30.9391 124.718 31.1902 124.065 31.4311 123.468ZM26.4377 126.009L26.2982 126.269C26.3183 126.292 26.3413 126.312 26.3656 126.33C26.3513 126.222 26.39 126.115 26.4377 126.009ZM10.8108 124.096C10.785 124.208 10.755 124.32 10.7228 124.432C10.7717 124.322 10.827 124.217 10.8945 124.126L10.8108 124.096ZM27.1211 123.556L27.0394 123.556L27.039 123.603C27.0582 123.635 27.0614 123.674 27.0376 123.706C27.0346 123.85 27.0286 123.994 27.0175 124.139L27.0447 123.972C27.0678 123.833 27.0922 123.694 27.1211 123.556ZM26.0827 123.508L26.087 123.58C26.1916 123.577 26.2972 123.581 26.4014 123.576C26.4564 123.573 26.5127 123.563 26.5696 123.553C26.4057 123.548 26.2423 123.535 26.0827 123.508ZM44.6796 63.7417C44.6279 63.8023 44.5715 63.8389 44.5142 63.8576C44.5148 65.2342 44.2365 66.5881 43.4746 67.7802C43.1575 68.2003 42.9784 68.6786 42.8251 69.1769C42.0193 71.4582 41.8696 73.9084 42.1634 76.2971C42.9553 75.1361 43.27 73.7509 43.4913 72.3849C43.5032 72.3163 43.6168 72.3171 43.6293 72.3849C43.8969 73.8468 43.437 75.283 42.8867 76.6343C42.5432 76.8797 42.6251 77.5226 42.5839 77.9008C48.4225 78.7511 46.392 67.5492 47.1399 64.0992C47.1537 64.0045 47.2346 63.9352 47.3264 63.9063C46.4505 63.7727 45.563 63.7628 44.6796 63.7417ZM17.184 70.6232C17.1912 70.66 17.1975 70.6966 17.2021 70.7334L17.2337 70.6252C17.2174 70.6246 17.2007 70.6242 17.184 70.6232ZM21.13 23.2413L21.0278 23.268C19.9489 23.5461 19.5998 23.5079 19.5387 24.8096C19.2735 26.5762 18.2944 28.1172 17.8544 29.8254C17.6784 30.4286 17.8647 31.5404 18.6993 31.377C18.9697 31.2942 19.1803 31.6585 18.9759 31.8517C18.3715 32.4229 17.7846 33.0118 17.1945 33.5969C19.5642 41.5892 22.6424 49.3739 26.3924 56.8218C26.5409 57.1173 26.095 57.3773 25.9475 57.0817C22.2197 49.6099 19.1192 41.8278 16.7128 33.8335L16.6402 33.5913C16.5339 33.2969 17.8928 32.2422 18.1401 31.898C15.6589 30.7032 19.123 26.5192 19.2171 24.5046C18.5071 24.8165 17.7019 24.7046 16.9518 24.8302C15.5126 25.0825 14.2493 25.9132 13.1266 26.81C8.56567 30.8344 5.65108 36.4059 2.73556 41.6574C0.750021 45.0839 -0.207175 49.2725 1.78532 52.9173C4.09727 57.5904 6.77916 62.0947 9.61465 66.4674C9.92601 66.8722 10.4052 66.4068 10.7333 66.237C12.6191 65.1046 14.2543 63.564 15.512 61.7627C12.463 58.0244 9.80722 53.9388 7.92896 49.4876L7.90305 49.4359C7.48163 48.5896 7.14842 47.5655 7.8514 46.7686C10.3477 43.5735 12.5678 40.1816 14.6571 36.7105C14.6786 36.6755 14.7269 36.7061 14.7112 36.7423C14.4968 37.2278 14.2706 37.7095 14.035 38.1867C14.5108 45.2444 14.4306 52.44 14.6362 59.5424C15.1909 60.2762 15.7619 60.9977 16.3464 61.7077C18.2421 60.4024 20.472 59.5511 22.7623 59.2871L22.9102 59.2724C23.883 59.1724 25.4898 58.9839 25.6174 60.2458C25.4596 61.7983 22.2486 60.9255 21.2221 61.8059C22.905 62.4838 24.8333 62.6747 26.3783 63.6964C26.8741 63.9853 27.8455 64.9058 26.8964 65.2581C26.4823 65.2936 26.0546 65.1328 25.6407 65.0974C26.1065 65.2541 26.5348 65.5197 26.8075 65.9362C27.0038 66.2217 27.1473 66.8146 26.6781 66.9368C25.6083 66.967 24.5429 66.6183 23.4895 66.445L23.583 66.4831C24.3512 66.7971 25.5451 67.3615 24.5106 68.1939C23.475 68.7295 22.2211 67.8182 21.1897 67.575C18.4111 66.9289 16.3559 68.6995 13.5075 66.7826C13.4268 67.4233 13.3052 68.0593 13.2568 68.7033L13.2505 68.7399C13.1517 69.3278 13.2362 69.5401 13.8708 69.6524C14.6356 69.8834 15.4368 69.9556 16.2317 69.9987C20.057 70.2007 23.9075 70.0572 27.7068 69.5677C28.2535 69.421 29.5378 69.5592 29.7663 68.958C29.338 53.4853 22.8861 38.9261 21.1094 23.6543C21.0803 23.5075 21.0783 23.3576 21.13 23.2413ZM31.9142 24.5636C31.6091 24.5762 31.325 24.6422 31.0216 24.6728C31.1896 25.0302 32.0767 25.5356 31.9958 25.7128C32.06 25.7625 32.125 25.8102 32.1908 25.8565C32.0991 25.5342 32.0065 25.2122 31.9136 24.8897C35.2843 33.0979 35.7472 42.8095 36.1951 51.7638C36.3428 56.2785 36.4229 60.8076 36.2046 65.3195C36.0832 66.5181 35.7621 67.7291 35.8497 68.9395C37.8279 69.2242 39.8346 69.2486 41.8211 69.0377C41.8799 68.8836 41.9463 68.7321 42.0215 68.5832C44.9951 64.959 43.4182 60.417 41.9865 56.4914C41.1207 56.528 40.2497 56.4731 39.3832 56.4838C39.6509 57.3121 39.72 58.1887 39.8624 59.0455C39.9596 59.6559 40.0833 60.2617 40.2256 60.8629L40.2686 61.0434C40.3216 61.2593 40.3863 61.4909 40.3107 61.7039C40.2342 61.921 39.9705 62.0088 39.7954 61.8399C39.4803 61.4806 39.5141 60.945 39.4123 60.4995L39.3936 60.3593C39.22 59.0799 38.9914 57.7525 39.3087 56.4832C38.9972 56.4164 38.1462 56.6618 38.1015 56.2433C38.1148 55.5522 37.6132 54.0549 38.1713 53.5997C38.5035 53.3464 39.0745 53.4265 39.464 53.4108C39.9141 53.3927 40.3636 53.376 40.8133 53.3788C37.1999 44.6483 38.2047 41.9606 38.5715 33.2718L38.5824 33.0066C38.5814 32.9494 38.6735 32.9352 38.6838 32.9927C39.2361 36.5519 38.4997 40.1553 38.8486 43.7256C39.4683 50.5093 43.7677 56.3335 44.4864 63.0846C46.0367 62.9047 47.605 63.1252 49.1076 63.5141C49.139 63.2399 49.1635 62.9649 49.1806 62.6896C49.466 57.6505 47.6974 52.7567 45.6339 48.2371C44.3973 45.8382 43.6329 43.2779 43.313 40.6007C42.6917 37.1139 41.2978 33.8291 39.9083 30.5899C39.0298 28.1681 37.1311 27.5969 34.7764 27.3156C35.5706 28.6319 36.3599 29.9507 37.148 31.2708C37.3237 31.67 36.7848 31.9549 36.5496 32.2006C39.4423 33.7778 37.7532 38.6481 37.8132 41.377C37.5983 43.8847 37.5174 46.4066 37.1387 48.8969C37.1112 49.0695 36.8464 49.0188 36.844 48.8572C36.8788 45.1259 37.3239 41.4098 37.5192 37.6845L37.543 37.4131C37.6951 35.6494 37.8442 33.105 35.7231 32.6209C35.4368 32.574 35.4149 32.1487 35.6446 32.0209C35.9505 31.8507 36.2185 31.6426 36.4583 31.3954C35.648 30.0356 34.839 28.6751 34.0372 27.31L33.9996 27.2464C33.43 26.2804 32.901 25.1563 31.9142 24.5636ZM25.0311 60.1513C24.7971 59.4621 22.5261 59.911 21.9199 59.9859C19.6845 60.408 17.4349 61.3969 15.7323 62.92C15.6273 63.0139 15.503 63.0125 15.4052 62.9616C14.6426 63.9355 13.762 64.8181 12.7962 65.5938C12.9729 65.733 13.1545 65.868 13.3413 65.9972C13.4308 66.0068 13.5115 66.0531 13.5477 66.136C16.205 68.0611 18.1598 66.5595 20.9203 66.9062C21.9509 67.114 22.8999 67.7693 23.9621 67.7969C24.7415 67.6199 24.0552 67.2941 23.6913 67.168C22.8669 66.7746 22.0265 66.4159 21.1845 66.0624L20.5107 65.7799C20.1797 65.641 20.2934 65.1409 20.6632 65.2282C21.3106 65.3807 21.9599 65.5255 22.6098 65.6684C23.8595 65.9231 25.1391 66.2501 26.4018 66.374C26.1212 65.594 23.1428 64.7513 22.2768 64.4413C21.9497 64.2869 21.0169 64.3163 21.1233 63.8093C21.2094 63.3377 22.202 63.8779 22.5329 63.9161C23.8838 64.259 25.2628 64.4664 26.6395 64.6755C25.1608 63.1922 22.8687 63.0643 20.9805 62.3697L20.9286 62.358C20.5928 62.2798 20.1328 62.1325 20.4056 61.7508C21.3758 60.3209 25.1934 61.0444 25.0311 60.1513ZM22.2372 52.1881C22.9259 51.6231 23.2947 52.7837 23.251 53.3231C23.2836 53.771 23.3184 54.2186 23.3476 54.6665C23.3048 55.0166 23.678 56.293 23.179 56.3045C20.997 56.1936 18.8188 56.2218 16.6359 56.0904C16.6331 56.5304 16.6116 56.9701 16.6341 57.4109C16.6223 57.9618 16.8138 58.5123 16.7019 59.0569C16.6337 59.3074 16.2929 59.3412 16.1599 59.1275C15.7613 58.1897 16.0353 56.9801 16.3176 56.0317C15.2491 55.8343 15.1016 54.8297 15.3831 53.9335L15.3802 53.885C15.3645 53.6084 15.3657 53.312 15.4891 53.0885C15.8193 52.7 16.5037 52.9523 16.9585 52.9231C18.3524 52.7794 19.7717 52.7396 21.1491 52.4839C21.5056 52.3915 21.8694 52.2056 22.2372 52.1881ZM13.573 39.0947C12.488 41.1655 11.2395 43.1361 9.9105 45.0545C9.62572 45.4642 9.33329 45.8686 9.03616 46.2702L8.99954 46.3171C8.40026 47.0814 7.76495 47.7094 8.33179 48.7202C9.80179 52.2899 11.7701 55.6421 14.0505 58.7531C13.906 52.2002 13.7785 45.6454 13.573 39.0947ZM40.8535 53.4836C38.1273 54.0549 38.0761 52.9853 38.5313 56.0125C39.6246 56.02 40.7173 55.9954 41.811 56.0129C41.4986 55.1675 41.1744 54.3259 40.8535 53.4836ZM22.5533 52.6287C21.1296 53.1233 19.6177 53.0529 18.1307 53.1136C18.1337 53.4333 16.6122 53.1366 16.32 53.1804L16.2186 53.1718C15.9754 53.1517 15.6629 53.1438 15.6601 53.4442C15.7376 53.9621 15.446 54.5291 15.6267 55.0379C15.8704 55.7232 16.913 55.6526 17.4884 55.6659C18.4369 55.6874 19.3853 55.7101 20.3338 55.7351C21.1859 55.7574 22.0406 55.7999 22.8931 55.8061C22.8166 55.1995 22.7957 54.5776 22.7494 53.9716C22.6909 53.5358 22.7752 53.0193 22.5533 52.6287ZM28.5406 54.8323C28.5422 54.8399 28.5436 54.8476 28.5454 54.8556C28.5565 54.8528 28.568 54.8502 28.5796 54.8478L28.5971 54.8442V54.8438C28.5784 54.8403 28.5593 54.8367 28.5406 54.8323ZM32.6703 27.5937C32.0544 28.649 31.0337 29.3266 29.8042 29.3367C27.6463 29.4608 25.4598 29.3182 23.3569 28.8073C23.0476 28.73 22.6782 28.6628 22.3939 28.494C24.0176 37.2885 26.6421 45.8557 28.4929 54.5995C29.8333 54.7176 31.1697 54.7053 32.5129 54.6422C33.5497 54.6265 34.597 54.7377 35.6265 54.5838L35.5945 53.4983C35.3346 44.8086 34.973 36.0141 32.6703 27.5937Z" fill="#333333"/>
<path fill-rule="evenodd" clip-rule="evenodd" d="M18.7298 4.83552C18.9775 4.57013 19.2946 4.37243 19.6411 4.30926C19.3244 4.46714 19.0147 4.6317 18.7298 4.83552ZM18.2443 7.12372C18.2005 6.92147 18.1711 6.71729 18.1618 6.51313C18.2172 6.59716 18.3057 6.65329 18.4051 6.68228C18.3409 6.82568 18.2864 6.9734 18.2443 7.12372ZM34.8261 10.2946C34.54 9.10636 33.2056 6.82087 32.8902 6.38099C32.5477 5.29176 34.4157 4.41827 33.3998 3.56652C32.9399 3.18223 32.332 3.04621 31.7616 2.90992C27.8135 1.96363 23.5713 2.44088 19.9095 4.18101C19.3523 4.06405 18.7721 4.29266 18.367 4.69417C16.4641 6.60297 19.0574 10.047 19.6246 12.1989C20.5974 14.5985 18.5932 15.0021 18.8081 17.0322C18.9751 18.081 20.0396 18.3581 20.9378 18.5166C21.0819 18.5502 21.2744 18.5553 21.3207 18.7072C21.4664 19.5939 21.9653 20.4387 22.6351 21.0121C22.5766 21.1852 22.6213 21.3954 22.8279 21.5475C24.6995 22.9356 27.0593 23.6302 29.3937 23.5054C32.1755 23.3565 33.6141 21.7654 33.9612 21.3556C35.8806 18.7688 35.6513 15.3556 35.2597 12.2728C34.9869 10.1251 35.3327 12.3995 34.8261 10.2946Z" fill="white"/>
<path fill-rule="evenodd" clip-rule="evenodd" d="M26.2484 0.407349C26.336 0.13458 26.5834 -0.0294591 26.8667 0.00440304C27.1176 0.0339595 27.3862 0.282403 27.3557 0.5566C27.3498 0.609536 27.3422 0.659132 27.3331 0.705871L27.3343 0.706294L27.3355 0.706334L27.3293 0.724462C27.3108 0.811723 27.2848 0.88993 27.2466 0.963852C27.1979 1.10548 27.151 1.24759 27.1048 1.39018C27.1718 1.38732 27.24 1.39112 27.3092 1.404C27.381 1.22089 27.453 1.03824 27.5249 0.85464C27.6017 0.658649 27.6556 0.406866 27.8075 0.25522C28.0021 0.0616242 28.3395 0.0215652 28.5765 0.159851C28.8268 0.305782 28.9162 0.565191 28.8618 0.843211C28.8341 0.985018 28.7391 1.08371 28.6216 1.14572L28.6089 1.15222L28.5186 1.36585C28.5464 1.35392 28.5751 1.34296 28.6061 1.3339C28.6548 1.3196 28.7027 1.31054 28.7494 1.30672C28.8785 1.07353 29.0204 0.847014 29.1671 0.624807C29.3357 0.369201 29.6654 0.260472 29.9421 0.422137C30.1896 0.56662 30.3226 0.946206 30.1451 1.19562C30.0105 1.38493 29.8829 1.57806 29.7572 1.7731C29.7787 1.77691 29.8003 1.78167 29.8208 1.78787C29.8302 1.77499 29.8403 1.76212 29.851 1.74926C29.988 1.57949 30.1475 1.45217 30.3115 1.311C30.4648 1.17843 30.5356 0.970048 30.7372 0.869427C30.991 0.743053 31.2968 0.803615 31.4477 1.05542C31.7718 1.59474 31.228 1.98863 30.8801 2.3153C31.1825 2.12694 31.4974 1.95479 31.8205 1.806C32.002 1.72254 32.1865 1.64196 32.3738 1.57232C32.6515 1.46933 32.876 1.50229 33.104 1.69393C33.2058 1.77976 33.2563 1.96722 33.2096 2.09213C33.1187 2.3315 32.9754 2.47695 32.7241 2.5461C32.5473 2.59473 32.3662 2.62765 32.1893 2.67867C31.8931 2.76356 31.6054 2.86704 31.3264 2.99627C31.3465 3.00866 31.3656 3.02202 31.3833 3.03727C31.5915 2.97003 31.8038 2.91186 32.0169 2.86227C32.3704 2.77955 32.7301 2.72368 33.0913 2.68871L33.2114 2.67756C33.6446 2.63608 34.1655 2.55952 34.4313 2.97337C34.5188 3.10976 34.5283 3.33483 34.4313 3.46979C34.246 3.7292 34.0615 3.78071 33.7547 3.78548C34.0567 3.81743 34.3583 3.85701 34.6583 3.90326C34.8651 3.93473 35.0719 3.9704 35.278 4.01L35.3808 4.0301C35.6317 4.08018 35.9117 4.10927 36.1272 4.25424C36.5974 4.57087 36.3765 5.18747 35.8558 5.25328C35.6039 5.28475 35.3244 5.1784 35.0774 5.12882C34.8375 5.08065 34.5967 5.0382 34.3548 5.00102C34.2297 4.98146 34.1046 4.9643 33.9788 4.94856C34.2345 4.98528 34.4882 5.03725 34.7353 5.11069L34.8039 5.13135C35.2814 5.27662 35.926 5.50796 36.0751 6.01722C36.1655 6.32669 35.9184 6.5966 35.6192 6.61473C35.3411 6.63141 35.1094 6.46594 34.8733 6.34387C34.7013 6.25517 34.5265 6.18889 34.341 6.13215C34.1494 6.07348 33.9541 6.02485 33.7571 5.98527C33.9235 6.07674 34.0854 6.17728 34.2412 6.28973L34.3126 6.34245C34.7259 6.64984 35.3564 7.12576 35.2108 7.70198C35.1649 7.88367 34.9617 8.05724 34.7667 8.03865C34.2593 7.99145 33.9794 7.45211 33.5965 7.16313C33.4967 7.08778 33.3873 7.01339 33.2726 6.9409C33.8526 7.6314 34.3142 8.42969 34.6655 9.25419C35.4373 11.0681 35.6741 12.748 35.6798 14.6982L35.68 14.7586C35.681 15.8344 35.6566 16.9299 35.5514 18.0009C35.454 18.9904 35.2751 19.9671 34.8257 20.863C34.072 22.3656 32.6036 23.536 30.9843 23.9812C29.1824 24.4772 27.1683 24.0895 25.6923 22.9451C25.3157 22.6531 25.8151 22.0195 26.1997 22.2889C27.7359 23.3642 29.7228 23.7048 31.4859 22.977C32.8847 22.4 34.0108 21.1588 34.4882 19.7295C34.7921 18.8202 34.8806 17.8508 34.9888 16.9034L34.9961 16.8402C35.1108 15.8493 35.1772 14.8517 35.1763 13.854C35.1749 12.0015 34.9081 10.4764 34.0917 8.79592C33.7074 8.00433 33.209 7.27238 32.6136 6.62998C32.433 6.6667 32.241 6.61521 32.0585 6.59566C31.9652 6.58564 31.872 6.5761 31.7789 6.56751C31.874 6.62894 31.9674 6.6928 32.0591 6.75815L32.1795 6.84477C32.5561 7.11393 33.034 7.42052 32.9372 7.94089C32.9108 8.08157 32.7704 8.2108 32.6342 8.24275C32.1406 8.36007 31.8014 7.8813 31.4678 7.59708C31.1779 7.35006 30.8745 7.1288 30.5652 6.90706C30.495 6.85698 30.4242 6.8069 30.3532 6.7573C30.4199 6.83513 30.4849 6.91418 30.5485 6.99396L30.6423 7.11267C30.9264 7.46722 31.3356 7.92809 31.0827 8.38772C31.0111 8.51743 30.8582 8.60375 30.7101 8.60089C30.2006 8.59039 29.998 8.01338 29.7592 7.64905C29.5536 7.3367 29.3304 7.04249 29.0997 6.74825C29.0361 6.66767 28.9721 6.58707 28.9071 6.50649C27.8373 6.5618 26.7712 6.70296 25.7239 6.9285C25.0042 7.08349 24.2966 7.28429 23.5942 7.50408L23.5358 7.52261C23.1556 7.64476 22.7638 7.8011 22.4898 8.06918C22.4508 8.25388 22.4807 8.44866 22.5182 8.63312L22.5473 8.77431C22.6675 9.36471 22.7493 9.94417 22.6882 10.5503C22.6246 11.1755 22.4359 11.7377 22.2055 12.3186C22.0967 12.5922 21.9838 12.5427 21.9451 12.8365C21.9156 13.0602 21.9339 13.2912 21.954 13.5168L21.9709 13.7081C22.0136 14.2091 22.0349 14.7554 21.7057 15.1688C21.6546 15.2322 21.5452 15.2069 21.5089 15.1435C21.4945 15.1183 21.4792 15.094 21.4625 15.0706C21.3039 14.8411 21.0607 14.7105 20.7826 14.66C20.7472 14.6538 20.7611 14.6065 20.7907 14.6026C21.0259 14.5751 21.2484 14.6338 21.4377 14.755C21.348 14.4451 20.6532 14.5958 20.4249 14.656L20.417 14.658C20.1323 14.7344 19.8627 14.8584 19.6253 15.0338C19.1474 15.3867 18.8712 15.937 18.8851 16.5298C18.899 17.1124 19.2006 17.6508 19.7185 17.9299C19.9683 18.0643 20.2526 18.1291 20.5355 18.1263C20.8309 18.1235 21.0937 17.9943 21.3894 18.0124C21.5605 18.0229 21.6914 18.206 21.5924 18.3657C21.5264 18.4726 21.4405 18.5565 21.3411 18.6208C21.5834 19.1784 21.8926 19.7099 22.249 20.2007C22.4463 20.4729 22.6701 20.7242 22.9161 20.9536C23.1081 21.133 23.5244 21.3405 23.501 21.6395C23.4928 21.7471 23.4369 21.8129 23.3385 21.8529C23.0324 21.9779 22.6604 21.5479 22.4556 21.3407L22.4393 21.3242C22.184 21.0705 21.9514 20.79 21.7488 20.4926C21.3894 19.9641 21.1663 19.3685 21.0739 18.743C20.5832 18.8902 19.9335 18.752 19.5329 18.5711C18.2744 18.0038 17.863 16.3123 18.6279 15.1859C18.7762 14.968 18.9615 14.7815 19.1728 14.6308C19.1263 14.6057 19.0829 14.5731 19.0442 14.5322C18.8301 14.3053 18.6786 14.0089 18.5285 13.7361L18.5104 13.7033C18.377 13.463 18.2513 13.219 18.1334 12.9711L18.0895 12.8779C17.8262 12.3128 17.5954 12.0659 17.4077 11.4716C17.227 10.8984 17.0845 10.3143 16.9924 9.72009L16.9678 9.56281C16.9145 9.21804 16.8642 8.84935 16.903 8.4993C16.635 8.58659 16.3654 8.64047 16.1002 8.50932C15.9254 8.42301 15.8288 8.17123 15.8886 7.99049C15.932 7.85745 16.0047 7.75301 16.097 7.671C16.0419 7.64333 15.9904 7.60804 15.9449 7.56895L15.9053 7.53464C15.7447 7.39535 15.7333 7.13069 15.8308 6.95617C15.8403 6.93947 15.85 6.92231 15.859 6.90561C15.9518 6.74014 16.1433 6.63189 16.3324 6.63475C16.363 6.63523 16.3936 6.63523 16.4248 6.63475C16.3363 6.61521 16.2499 6.58516 16.1677 6.53461C15.7968 6.30716 15.8437 5.69055 16.2924 5.58184C16.4807 5.53653 16.6886 5.55512 16.8958 5.60378C16.8882 5.59947 16.8805 5.59518 16.8729 5.59042C16.7161 5.49456 16.5847 5.30716 16.5996 5.11498C16.6159 4.90231 16.6847 4.75066 16.8729 4.63907C17.0364 4.54274 17.2676 4.53369 17.4302 4.63907C17.571 4.7311 17.7091 4.83267 17.842 4.94188C17.7087 4.77831 17.593 4.60044 17.5463 4.4116C17.4883 4.17651 17.5849 3.92042 17.797 3.79644C17.9662 3.69774 18.1449 3.7087 18.3046 3.785C18.296 3.6615 18.3259 3.53561 18.4082 3.424C18.5764 3.19515 18.8823 3.06351 19.1484 3.2304C19.1833 3.25234 19.2301 3.29002 19.2754 3.33628C19.1871 3.0554 19.267 2.76068 19.5684 2.63384C19.7525 2.55612 20.0013 2.59521 20.1609 2.72921C20.0597 2.18225 20.8685 1.78025 21.183 2.34534C21.2544 2.47334 21.3248 2.60815 21.388 2.74603L21.4114 2.79788L21.4138 2.79694L21.3977 2.75901L21.3814 2.7211C21.2939 2.51843 21.1826 2.30766 21.152 2.08782C21.1069 1.7626 21.2522 1.45408 21.6067 1.40639C21.7898 1.38159 21.9934 1.46456 22.1162 1.60959C22.0498 1.10501 22.6145 0.738284 23.0212 1.11501C23.2137 1.29336 23.3165 1.55422 23.4389 1.7831C23.5081 1.91234 23.5789 2.0411 23.6481 2.1708C23.6658 2.14981 23.6849 2.12885 23.7051 2.10833C23.6022 1.80123 23.5224 1.48649 23.4552 1.16986C23.391 0.871339 23.5407 0.561368 23.8493 0.477025C24.1298 0.399723 24.4809 0.572394 24.5437 0.870434C24.5875 1.08021 24.6396 1.28768 24.697 1.49414C24.7362 1.4846 24.7748 1.47792 24.8131 1.47315C24.8163 1.43436 24.8199 1.39537 24.8239 1.35658L24.839 1.21863C24.8724 0.903451 24.906 0.543663 25.071 0.275723C25.3525 -0.18205 26.074 0.007743 26.0816 0.548975C26.0861 0.828906 25.9718 1.10644 25.9322 1.3835C25.915 1.50414 25.905 1.62623 25.8992 1.7483C25.9762 1.34296 26.0816 0.942866 26.204 0.548975C26.2185 0.501773 26.2338 0.454551 26.2484 0.407349ZM20.0235 16.0382C20.6565 15.9404 21.2351 16.2927 21.6103 16.7863C21.6786 16.8764 21.6337 17.0038 21.5721 17.0796C21.5277 17.1354 21.4679 17.142 21.4005 17.1507C21.323 17.1607 21.2253 17.0981 21.1912 17.0309C20.95 16.5503 20.5194 16.2465 20.0235 16.0595C20.0144 16.0563 20.0114 16.04 20.0235 16.0382ZM20.9009 7.42567L20.92 7.40513C21.0482 7.27252 20.8456 7.06995 20.7172 7.20284C20.582 7.34276 20.4923 7.51271 20.4058 7.68496C20.3235 7.8492 20.5707 7.99425 20.6534 7.8294L20.6911 7.75448C20.7502 7.63796 20.8132 7.52285 20.9009 7.42567ZM19.1229 7.15349C19.3046 7.12299 19.2275 6.8472 19.0468 6.87762C18.8124 6.91702 18.5793 6.9618 18.3449 7.00124C18.1634 7.03176 18.2404 7.30753 18.4211 7.27715C18.6555 7.23771 18.8887 7.19292 19.1229 7.15349ZM29.9395 5.27079C29.764 5.21236 29.6888 5.48861 29.8632 5.54669C30.1045 5.62695 30.3435 5.70921 30.5723 5.82065C30.7374 5.90115 30.8829 5.65446 30.7169 5.5736C30.4658 5.45127 30.2041 5.35889 29.9395 5.27079ZM19.0817 4.89995C18.9102 4.83158 18.8358 5.10822 19.0054 5.17588L19.6247 5.42304C19.7959 5.49142 19.8704 5.21483 19.7009 5.14717L19.0817 4.89995ZM32.1018 4.22818L32.0793 4.21394C31.9239 4.11352 31.7801 4.3611 31.9346 4.46101C32.0251 4.51962 32.1354 4.55938 32.2185 4.62922L32.2358 4.64465C32.3698 4.77102 32.573 4.56912 32.4386 4.44232C32.3402 4.34965 32.2157 4.29804 32.1018 4.22818Z" fill="#333333"/>
<path fill-rule="evenodd" clip-rule="evenodd" d="M30.0836 20.3111C29.7625 20.1804 29.4758 19.9623 29.2663 19.6836C29.1935 19.5866 29.1746 19.4844 29.1899 19.3908C29.207 19.2856 29.2693 19.1902 29.3544 19.1263C29.4398 19.0621 29.5466 19.0305 29.6496 19.0466C29.7393 19.0607 29.8285 19.1096 29.8993 19.2112L29.914 19.2315C30.0385 19.3997 30.2009 19.5377 30.3858 19.6267C30.5641 19.7124 30.7635 19.7524 30.9699 19.7291C31.3628 19.6848 31.6337 19.4727 31.9216 19.1848C31.9572 19.1484 31.9928 19.1108 32.0288 19.0727C32.0513 19.0381 32.0829 19.016 32.1177 19.0043C32.1566 18.9915 32.2004 18.9921 32.2405 19.0062C32.2793 19.0196 32.3139 19.0452 32.3371 19.0792C32.3592 19.1116 32.3717 19.1516 32.3676 19.1975C32.3413 19.4959 32.1849 19.7623 31.9628 19.9715C31.7161 20.2037 31.3892 20.3645 31.0814 20.4208C30.7421 20.483 30.3967 20.4385 30.0836 20.3111ZM31.2413 15.7064C31.6021 15.9254 32.1519 16.4358 31.7638 16.9784C31.3069 17.4569 30.649 16.9082 30.3248 16.6601C30.0242 16.4678 29.6864 16.9623 29.9655 17.1869C32.3079 18.9178 33.2586 15.7638 31.4238 15.4491C31.2218 15.4145 31.1467 15.6388 31.2413 15.7064ZM27.0434 13.693C27.0835 13.1993 27.837 13.087 27.912 13.5757C27.9792 14.0135 27.9002 14.4157 27.7026 14.8099C27.5139 15.1863 27.0392 15.0107 27.0034 14.6678C26.9553 14.2083 27.0187 14.0003 27.0434 13.693ZM32.7805 13.4745C32.8857 13.3371 33.0374 13.2433 33.2191 13.2963C33.7871 13.4618 33.6197 14.2667 33.4201 14.6582C33.3119 14.8709 32.9616 14.9248 32.8032 14.7375C32.5451 14.4322 32.4216 13.8224 32.7497 13.5214C32.7586 13.5059 32.7684 13.4902 32.7805 13.4745ZM27.6945 11.5321L27.7843 11.5164C28.0617 11.4685 28.4068 11.4225 28.6032 11.6452C28.7072 11.7633 28.7432 11.9826 28.6032 12.0957C28.3569 12.2945 28.0849 12.2174 27.7897 12.2343C27.5466 12.2482 27.3131 12.2884 27.0789 12.3552C26.565 12.5017 26.1465 12.7693 25.7077 13.0631C25.6501 13.1015 25.5914 13.0281 25.6187 12.9743C25.8721 12.4792 26.363 12.0726 26.8547 11.8245C27.1171 11.6923 27.4042 11.5824 27.6945 11.5321ZM32.2628 11.3103L32.3316 11.3243C33.0787 11.4802 34.0495 11.7915 34.4034 12.524C34.4169 12.6277 34.4026 12.6498 34.3909 12.6643L34.3871 12.6691C34.3776 12.6814 34.37 12.6985 34.3249 12.7126C34.3124 12.7098 34.3 12.7065 34.2871 12.7031C34.1249 12.6609 33.9966 12.6023 33.8724 12.5418L33.7376 12.4756C33.5815 12.3991 33.4237 12.3253 33.2567 12.2709C32.9002 12.1548 32.5334 12.0732 32.161 12.0295C32.0801 12.02 32.0025 11.9929 31.9411 11.9462C31.8829 11.9019 31.8385 11.8408 31.8182 11.7593C31.792 11.6541 31.7994 11.5742 31.8562 11.4792C31.8986 11.4078 31.9596 11.3584 32.0296 11.33C32.1008 11.301 32.1821 11.2942 32.2628 11.3103Z" fill="#333333"/>
<path fill-rule="evenodd" clip-rule="evenodd" d="M35.2682 14.9942C35.1332 15.3612 34.9276 15.7433 34.6761 16.0521C33.6586 16.9121 32.6699 16.436 32.1679 15.2707C31.9772 14.4469 32.4836 13.5598 33.0202 12.954C33.7952 12.1788 35.0602 12.5856 35.4165 13.5071C35.4382 13.6266 35.4513 13.7457 35.4575 13.8645C35.4501 14.2504 35.4034 14.5801 35.2682 14.9465V14.9942ZM25.488 14.2542C26.8284 12.6629 29.3362 12.578 29.2722 15.0268C28.9843 18.1267 24.1355 17.3658 25.488 14.2542ZM35.6899 12.9269C35.6428 12.8474 35.5907 12.7705 35.534 12.6971C35.5129 12.6846 35.5008 12.5737 35.4235 12.5655C34.3902 11.4278 32.5747 12.0734 31.9186 13.2071C31.7989 13.3504 31.7011 13.5182 31.6291 13.6954C30.9828 13.5771 30.2293 13.6001 29.6281 13.8437C29.0322 12.2905 27.2276 12.1518 26.0385 12.8156C25.2989 13.1786 24.8192 13.9389 24.0999 14.3564C22.4088 14.4779 20.594 14.0999 18.9335 14.5232C17.6241 14.7948 18.7188 15.4566 18.9383 15.0149C20.5038 14.5534 22.3585 14.9435 23.984 14.8395C24.153 15.1248 24.4772 15.3582 24.8001 15.3483C25.149 18.4345 29.6589 17.9229 29.8144 15.1793C29.9911 14.9008 30.2104 14.6343 30.5247 14.4608C30.6448 14.4361 30.7611 14.4037 30.8671 14.3538C31.0486 14.3282 31.3283 14.4049 31.4953 14.5558C32.0671 17.9804 35.3622 17.5817 35.9509 14.5813C35.9625 14.5695 35.9953 14.5248 36.0205 14.453C36.2221 14.187 36.7154 14.0882 36.6366 13.6393C36.5664 13.1902 35.9982 13.1955 35.6899 12.9269Z" fill="#333333"/>
</svg>
