<svg width="142" height="206" viewBox="0 0 142 206" fill="none" xmlns="http://www.w3.org/2000/svg">
<path fill-rule="evenodd" clip-rule="evenodd" d="M19.3752 204.165C25.2571 204.184 30.9725 204.385 36.871 204.405C60.848 204.485 85.0459 204.368 109.11 203.396C115.911 203.121 117.609 203.128 124.381 202.701C128.379 202.687 140.39 202.356 139.79 196.908C139.523 186.76 137.012 176.656 136.221 166.536C134.703 147.512 133.411 127.892 125.787 110.098C124.023 105.848 120.233 103.069 116.482 100.57C112.72 97.875 111.796 94.8813 108.324 91.8366C107.59 91.1925 103.421 90.9305 101.178 89.2968C97.9129 86.9196 96.2934 83.0272 95.0751 82.3647C94.179 81.8774 94.1957 78.5132 92.3993 77.3234C89.9879 75.7255 82.3058 74.5374 79.5106 74.3154C76.8272 74.1018 72.1614 74.5499 69.644 75.5328C65.4463 77.1715 63.7725 80.298 61.9235 84.3255C37.5011 91.8767 15.1782 104.664 8.24551 130.454C2.26709 152.086 2.04798 175.276 4.35755 197.461C4.81955 199.083 4.49572 201.626 5.89715 202.701C1.02695 202.98 18.7145 203.986 19.3752 204.165Z" fill="white"/>
<path fill-rule="evenodd" clip-rule="evenodd" d="M130.46 182.807C129.997 182.576 129.516 182.312 128.988 182.294C128.082 182.262 128.08 180.851 128.988 180.883C129.78 180.91 130.475 181.241 131.171 181.588C131.984 181.994 131.27 183.211 130.46 182.807ZM128.988 143.096C129.606 143.097 130.23 143.175 130.705 143.607C130.987 143.865 130.965 144.345 130.705 144.605C130.426 144.883 129.989 144.861 129.708 144.605C129.8 144.689 129.709 144.606 129.675 144.588C129.667 144.584 129.663 144.58 129.66 144.579C129.654 144.576 129.647 144.575 129.635 144.572C129.562 144.554 129.488 144.535 129.414 144.522C129.412 144.525 129.256 144.512 129.22 144.51C129.142 144.508 129.065 144.507 128.988 144.507C128.606 144.507 128.283 144.185 128.283 143.802C128.283 143.421 128.606 143.096 128.988 143.096ZM122.357 158.921C122.155 159.807 120.796 159.43 120.998 158.546C121.291 157.261 121.237 155.945 120.998 154.655C120.833 153.766 122.192 153.388 122.357 154.28C122.645 155.827 122.709 157.379 122.357 158.921ZM120.576 108.22C119.526 107.97 118.487 107.94 117.413 107.94C116.504 107.939 116.505 106.529 117.413 106.529C118.611 106.529 119.78 106.581 120.951 106.859C121.835 107.069 121.458 108.429 120.576 108.22ZM117.057 142.582C116.448 142.277 115.838 141.973 115.23 141.668C114.416 141.262 115.131 140.045 115.941 140.45L117.769 141.365C118.581 141.771 117.866 142.987 117.057 142.582ZM116.803 170.364C116.031 171.478 114.944 172.171 113.641 172.517C112.762 172.75 112.389 171.389 113.266 171.156C114.198 170.909 115.027 170.459 115.586 169.652C116.1 168.911 117.322 169.617 116.803 170.364ZM111.931 120.694C111.721 120.303 111.407 120.138 111.016 120.129C110.108 120.108 110.108 118.698 111.016 118.719C111.906 118.739 112.722 119.186 113.148 119.982C113.576 120.783 112.359 121.495 111.931 120.694ZM102.986 130.283C102.733 130.559 102.243 130.552 101.989 130.283C101.833 130.119 101.703 129.935 101.599 129.734C101.56 129.657 101.523 129.58 101.481 129.506C101.462 129.472 101.44 129.44 101.418 129.408C101.411 129.401 101.396 129.385 101.38 129.369C101.109 129.083 101.115 128.659 101.38 128.372C101.633 128.095 102.122 128.103 102.377 128.372C102.532 128.536 102.663 128.72 102.766 128.921C102.805 128.997 102.842 129.074 102.885 129.149C102.904 129.182 102.926 129.214 102.948 129.246C102.955 129.253 102.97 129.269 102.986 129.285C103.257 129.572 103.25 129.995 102.986 130.283ZM102.233 151.114C101.316 151.535 100.308 151.535 99.3898 151.114C99.0418 150.956 98.9592 150.453 99.1369 150.15C99.3422 149.798 99.7552 149.738 100.101 149.896C100.518 150.087 101.106 150.087 101.522 149.896C101.87 149.738 102.278 149.794 102.487 150.15C102.666 150.455 102.58 150.956 102.233 151.114ZM99.7285 165.86C99.5708 166.233 99.2296 166.432 98.8316 166.447C98.4369 166.462 98.1432 166.112 98.1265 165.742C98.1157 165.502 98.245 165.298 98.4311 165.172C98.4311 165.159 98.4311 165.145 98.4311 165.133C98.4311 164.737 98.754 164.444 99.1361 164.427C99.5166 164.41 99.842 164.763 99.8412 165.133C99.8412 165.381 99.8261 165.628 99.7285 165.86ZM96.0898 189.302C94.965 189.32 93.8653 189.589 92.7397 189.607C91.8303 189.621 91.8328 188.211 92.7397 188.196C93.8653 188.178 94.9642 187.91 96.0898 187.891C96.9993 187.876 96.9968 189.287 96.0898 189.302ZM91.4106 98.8963C90.7522 99.5237 89.9379 99.8333 89.136 100.225C88.3225 100.623 87.6083 99.4061 88.4243 99.0072C89.1035 98.6752 89.8561 98.4299 90.4135 97.8992C91.071 97.2726 92.0697 98.2688 91.4106 98.8963ZM89.6425 115.158C89.1803 114.926 88.698 114.662 88.1707 114.644C87.2645 114.612 87.2629 113.202 88.1707 113.233C88.9625 113.261 89.6575 113.591 90.3542 113.939C91.1669 114.345 90.4519 115.561 89.6425 115.158ZM81.1652 180.42C80.9566 180.029 80.6412 179.864 80.2507 179.855C79.3429 179.835 79.3429 178.424 80.2507 178.445C81.141 178.465 81.9579 178.912 82.3826 179.708C82.8106 180.51 81.5932 181.221 81.1652 180.42ZM78.229 149.785C77.9487 149.528 77.9678 149.049 78.229 148.788C78.5336 148.484 78.8381 148.179 79.1427 147.874C79.4213 147.595 79.8586 147.616 80.1398 147.874C80.4209 148.131 80.4009 148.61 80.1398 148.872C79.8352 149.176 79.5306 149.481 79.2261 149.785C78.9474 150.065 78.5102 150.044 78.229 149.785ZM74.7672 197.529C73.7501 197.506 72.7964 197.214 71.8385 196.895C70.9807 196.609 71.3504 195.247 72.214 195.534C73.0458 195.811 73.8827 196.098 74.7672 196.118C75.675 196.14 75.6758 197.55 74.7672 197.529ZM70.1981 167.361C69.2794 167.336 68.5168 166.867 67.8727 166.241C67.2202 165.607 68.2181 164.61 68.8698 165.243C69.2386 165.602 69.6641 165.936 70.1981 165.95C71.1059 165.976 71.1067 167.386 70.1981 167.361ZM73.0358 128.565C73.0467 128.941 73.206 129.344 73.4388 129.591C74.0621 130.251 73.0659 131.249 72.4417 130.588C71.9261 130.042 71.6474 129.312 71.6257 128.565C71.5999 127.656 73.01 127.66 73.0358 128.565ZM62.2798 97.8391C61.9844 97.2609 61.5981 96.5834 61.0099 96.2638C60.2105 95.8308 60.9231 94.6126 61.7216 95.0456C62.521 95.4803 63.0933 96.3356 63.4972 97.1274C63.9102 97.9351 62.6928 98.6485 62.2798 97.8391ZM60.4517 112.511C60.1246 112.502 59.8 112.446 59.4838 112.36C59.3495 112.323 59.216 112.281 59.0808 112.245C59.0232 112.229 58.7779 112.198 58.9281 112.206C58.5468 112.185 58.2231 111.899 58.2231 111.5C58.2231 111.134 58.5476 110.775 58.9281 110.795C59.4521 110.824 59.9277 111.085 60.4517 111.1C61.3587 111.126 61.3595 112.537 60.4517 112.511ZM55.8821 135.061H54.3591C53.4502 135.061 53.4518 133.65 54.3591 133.65H55.8821C56.7913 133.65 56.7896 135.061 55.8821 135.061ZM54.1055 197.433C53.6436 197.664 53.0993 197.883 52.7251 198.237C52.0656 198.861 51.0671 197.865 51.728 197.24C52.2045 196.789 52.8137 196.506 53.3938 196.215C53.7356 196.044 54.1559 196.121 54.3585 196.468C54.5417 196.782 54.446 197.263 54.1055 197.433ZM50.7029 179.608C50.6439 179.592 50.5815 179.58 50.5217 179.572C50.282 179.539 50.0312 179.551 49.7904 179.551C48.8815 179.55 48.8829 178.139 49.7904 178.14C50.5055 178.14 51.2497 178.15 51.8121 178.651C52.0974 178.906 52.0698 179.391 51.8121 179.649C51.5318 179.929 51.099 179.902 50.8148 179.649C50.8449 179.676 50.7421 179.619 50.7029 179.608ZM49.7902 155.635C49.9951 155.212 49.9982 154.937 49.9986 154.467C49.9993 153.558 51.4095 153.559 51.4087 154.467C51.4084 155.149 51.307 155.729 51.0079 156.347C50.8409 156.691 50.3523 156.781 50.0434 156.6C49.6968 156.398 49.6243 155.977 49.7902 155.635ZM45.7128 122.542C44.8949 122.82 44.1647 123.213 43.4444 123.689C42.6841 124.191 41.9785 122.969 42.7326 122.471C43.5546 121.929 44.4048 121.499 45.3379 121.181C46.2005 120.888 46.5674 122.251 45.7128 122.542ZM40.9564 98.7978C40.3488 98.8153 39.7216 99.0481 39.1801 99.311C38.3662 99.7065 37.652 98.4899 38.4684 98.0928C39.242 97.7173 40.0883 97.4119 40.9564 97.3877C41.8658 97.3618 41.8619 98.7728 40.9564 98.7978ZM38.824 162.182C38.585 162.192 38.3807 162.062 38.2541 161.877C38.241 161.877 38.2279 161.876 38.2148 161.876C37.8196 161.876 37.527 161.553 37.5097 161.171C37.4926 160.791 37.846 160.465 38.2148 160.465C38.4637 160.466 38.7107 160.481 38.942 160.579C39.3155 160.736 39.514 161.077 39.5292 161.476C39.5441 161.871 39.1941 162.165 38.824 162.182ZM35.3565 113.399C34.4904 113.683 34.1227 112.321 34.9815 112.039C35.9897 111.71 37.0198 111.455 38.0278 111.125C38.8939 110.842 39.2616 112.205 38.4026 112.486C37.3948 112.815 36.3644 113.07 35.3565 113.399ZM32.1939 140.028C31.9253 140.894 30.5646 140.522 30.8339 139.652C31.0941 138.814 31.1128 137.97 31.1133 137.098C31.1138 136.188 32.5241 136.19 32.5235 137.098C32.523 138.09 32.4897 139.073 32.1939 140.028ZM22.7651 171.921C22.7138 172.273 22.4353 172.525 22.0707 172.542C21.6997 172.559 21.3522 172.206 21.3657 171.836C21.3915 171.126 21.9703 170.548 22.68 170.522C23.0748 170.507 23.3685 170.857 23.3851 171.227C23.4013 171.588 23.1006 171.869 22.7651 171.921ZM17.9935 131.379C17.2484 131.627 16.4522 131.864 15.8679 132.416C15.2078 133.039 14.2094 132.043 14.8708 131.419C15.6411 130.691 16.632 130.347 17.6187 130.018C18.4829 129.73 18.85 131.093 17.9935 131.379ZM14.7599 158.785C14.555 159.134 14.1403 159.198 13.7953 159.038C13.3328 158.822 12.822 158.83 12.3234 158.829C11.4147 158.828 11.4161 157.418 12.3234 157.418C13.0926 157.419 13.8023 157.492 14.5071 157.819C14.8538 157.981 14.9383 158.479 14.7599 158.785ZM12.9328 192.044C12.5379 192.059 12.2442 191.709 12.2276 191.339C12.2114 190.979 12.512 190.697 12.8478 190.645C12.899 190.294 13.1776 190.041 13.542 190.024C13.9132 190.007 14.2607 190.36 14.2471 190.73C14.2212 191.44 13.6428 192.018 12.9328 192.044ZM141.408 197.378C141.169 196.516 140.621 195.82 140.206 195.044C140.068 194.783 140.019 194.62 139.944 194.428C139.841 194.633 139.643 194.787 139.345 194.787C138.772 194.788 138.103 194.75 137.568 194.995C137.221 195.155 136.811 195.098 136.603 194.742C136.425 194.437 136.511 193.936 136.857 193.777C137.644 193.417 138.491 193.377 139.345 193.376C139.555 193.376 139.715 193.454 139.828 193.571C140.154 189.099 140.147 184.623 139.838 180.147C139.508 175.366 138.75 170.678 137.957 165.957C137.573 163.668 137.074 161.356 137.171 159.025C137.267 156.71 138.26 154.551 137.557 152.228C137.275 151.297 136.792 150.444 136.478 149.523C136.141 148.532 136.171 147.553 136.324 146.527C136.64 144.438 137.164 142.373 136.326 140.332C135.957 139.427 135.357 138.619 135.068 137.685C134.708 136.524 134.758 135.238 134.697 134.033C134.576 131.603 134.544 129.157 134.343 126.732C134.254 125.646 134.057 124.616 133.612 123.62C133.183 122.66 132.547 121.788 132.264 120.77C131.982 119.768 131.956 118.712 131.805 117.687C131.646 116.604 131.397 115.538 131.063 114.498C129.769 110.47 127.398 106.851 124.597 103.714C121.619 100.379 118.061 97.8683 114.283 95.5279C112.296 94.2972 110.31 93.0664 108.325 91.8357C108.283 92.0669 108.136 92.2788 107.853 92.3739C107.108 92.6226 106.312 92.8595 105.727 93.411C105.067 94.0343 104.069 93.0381 104.73 92.414C105.42 91.7623 106.287 91.4186 107.17 91.1173C106.265 90.5475 105.351 89.9567 104.33 89.6271C103.437 89.3384 102.118 89.5904 101.393 88.9346C100.824 88.4173 100.644 87.4602 100.426 86.7577C100.152 85.8866 99.9163 84.9679 99.5692 84.1219C99.333 83.5437 98.9893 82.988 98.5554 82.5399C98.3651 81.8065 98.0155 81.1365 97.3989 80.7285C95.7844 79.6604 93.8011 80.7218 93.091 82.2454C92.5036 82.2437 91.8853 82.3722 91.3138 82.4072C90.1398 82.4815 88.9642 82.5149 87.7885 82.5115C85.4881 82.5049 83.1861 82.3547 80.9049 82.0493C76.8256 81.5028 72.8681 80.4005 68.8581 79.542C68.8347 79.4894 68.8089 79.436 68.7771 79.3834C67.9127 77.9333 65.7608 78.1786 64.405 78.7276C63.8234 78.9621 63.231 79.2583 62.8981 79.8081C62.5451 80.0459 62.2406 80.3355 62.0378 80.6408C61.6182 81.27 61.2936 82.5399 60.4425 82.6459C59.8818 82.7143 59.3128 82.6067 58.7429 82.6876C58.0311 82.7869 57.3928 83.0372 56.7354 83.3226C51.7289 85.497 46.5534 87.915 41.1203 88.7577C39.8461 88.9555 38.5487 89.1599 37.4416 89.8741C36.5426 90.454 35.8479 91.2517 35.1059 92.0076C34.3832 92.7452 33.7874 93.0715 32.7561 93.2033C31.5046 93.3643 30.4205 93.7098 29.5056 94.6192C28.7459 95.376 28.2505 96.3422 27.6547 97.2208C27.0481 98.117 26.1581 98.6209 25.2344 99.1407C23.0503 100.372 21.0161 101.858 19.2444 103.641C15.5127 107.401 13.2528 112.233 10.9753 116.941C8.5127 122.035 6.21047 127.189 4.61339 132.628C3.04809 137.967 2.11733 143.461 1.68721 149.005C1.23414 154.822 1.17073 160.663 0.793506 166.484C0.604853 169.392 0.462091 172.304 0.317492 175.214C0.176482 178.088 -0.0297785 180.968 0.00359673 183.845C0.0671766 189.409 1.17932 194.991 3.12385 200.2C3.60863 201.496 4.14613 202.775 4.71902 204.034C5.22157 205.14 6.94031 205.016 7.47965 204.034C7.60306 203.808 7.70001 203.575 7.78112 203.339C9.1913 203.352 10.6157 203.242 12.0171 203.372C14.492 203.604 16.9721 203.732 19.454 203.886C24.3654 204.191 29.2852 204.394 34.1981 204.674C34.6747 204.702 35.1514 204.728 35.6279 204.757C32.1269 193.916 32.5809 182.197 32.0269 170.923C31.9823 170.013 33.3929 170.019 33.4371 170.923C33.9935 182.245 33.5198 193.995 37.1446 204.853C38.5509 204.948 39.9554 205.065 41.3549 205.235C42.4865 205.371 43.6236 205.531 44.766 205.475C46.0616 205.413 47.3273 205.116 48.5912 204.859C50.8881 204.392 53.1004 204.603 55.4061 204.891C57.8726 205.2 60.3474 205.371 62.8288 205.478C72.768 205.914 82.773 206.31 92.708 205.646C95.1127 205.485 97.5116 205.26 99.9004 204.953C102.361 204.637 104.796 204.106 107.255 203.805C109.679 203.508 111.906 204.321 114.302 204.471C116.745 204.625 119.254 204.115 121.674 203.822C122.464 203.726 123.254 203.634 124.045 203.541C123.027 196.562 122.448 189.531 121.886 182.502C121.814 181.595 123.225 181.603 123.296 182.502C123.854 189.476 124.42 196.455 125.436 203.379C129.627 202.891 133.822 202.397 137.969 201.638C139.151 201.423 140.325 201.071 141.031 200.017C141.554 199.236 141.66 198.278 141.408 197.378Z" fill="#333333"/>
<path fill-rule="evenodd" clip-rule="evenodd" d="M109.35 31.9862C112.545 29.9359 116.906 24.7046 114.428 20.7377C113.421 19.1864 112.049 18.6032 110.543 18.5565C110.183 18.1057 109.587 17.9737 109.03 17.9705L109.033 17.9466C106.998 17.9841 104.997 18.6974 103.36 19.8884C102.304 18.9607 100.993 18.433 99.7234 17.8625C100.256 15.183 101.068 12.5691 101.991 10.0005C102.489 8.52146 100.912 6.96342 99.4247 7.41031C99.7902 5.80697 98.9491 3.94471 97.1176 3.9654C96.1389 3.9654 95.0308 4.49056 94.0838 4.72719C93.3821 4.90249 92.6912 5.08239 92.0146 5.31109C92.0112 5.29274 92.0096 5.27421 92.0079 5.25552C93.7818 4.01296 93.7201 1.15229 91.1126 1.42972C90.0004 1.52792 88.8698 2.28513 87.8418 2.74754C86.1464 2.84959 84.5185 3.38851 82.8706 3.77525C78.3616 4.89415 73.5372 6.01856 69.8225 8.8578C63.3886 11.3382 55.3865 15.1729 54.5893 22.7528C43.2573 18.3667 34.6967 32.3725 44.9734 37.8839C46.99 38.8243 49.3211 39.3112 51.5272 38.8589C51.006 40.7875 50.5078 42.7225 50.0415 44.6654C46.1171 53.6853 42.944 63.2182 44.0855 73.1189C44.1022 74.9153 46.408 75.9508 47.6824 74.6091C48.7367 73.3367 50.016 74.8244 49.6722 76.0526C49.3465 77.4177 50.307 78.6709 51.7042 78.721C53.3762 78.8086 54.7042 77.6872 55.8874 76.6509C55.8647 76.6734 55.9186 76.6392 55.9972 76.5866C58.9172 83.4753 61.6523 78.1185 65.251 81.2183C66.0912 81.9951 66.6811 82.9154 67.7583 83.421C70.2848 84.7018 72.2798 82.4189 74.6928 82.1561C76.9239 81.9917 79.1301 82.7644 81.2686 83.2842C83.7667 83.8908 86.2857 84.2087 88.8514 83.9242C92.1322 83.5595 98.6788 82.076 100.616 80.8553C102.99 82.449 105.432 80.5583 106.737 78.3822C107.65 79.2608 109.376 79.396 110.11 78.0401C110.839 76.529 112.202 74.2186 113.77 74.5607C113.91 74.6033 113.992 74.6308 114.078 74.6926C115.543 75.9391 117.435 74.9929 117.649 73.1815C119.038 61.4459 116.205 49.6736 112.438 38.6297C111.615 36.3202 110.932 33.9196 109.35 31.9862Z" fill="white"/>
<path fill-rule="evenodd" clip-rule="evenodd" d="M108.056 31.6617C107.996 31.499 108.245 31.4056 108.327 31.547C111.02 36.1775 113.172 41.0962 115.013 46.1207C116.642 50.5681 118.087 55.1013 119.117 59.7279L119.187 60.0458C120.155 64.5106 120.633 69.2332 119.362 73.6871L119.301 73.899C119.009 74.8903 118.622 75.8957 117.719 76.484C116.96 76.9788 116.102 77.0405 115.228 76.9028C114.492 76.7868 113.791 76.4664 113.054 76.3772C112.497 76.3104 112.352 76.5774 112.19 77.0272L112.055 77.4076C111.477 79.0205 110.771 80.5224 108.885 80.862C107.87 81.0447 106.767 80.8553 105.886 80.3213C105.876 80.3555 105.866 80.3889 105.858 80.4222L105.816 80.5808C105.632 81.2708 105.395 81.9717 104.908 82.5082C104.227 83.2558 103.25 83.5211 102.265 83.3226C101.818 83.2324 101.397 83.0288 100.973 82.8595C100.869 83.4853 100.151 83.9951 99.4932 83.8407C99.1378 83.7581 98.8641 83.5962 98.6597 83.3876C97.6443 84.1711 96.275 84.5716 95.0894 84.8753C93.3714 85.3151 91.5441 85.4953 89.7727 85.4427C87.9754 85.3893 86.1465 85.0431 84.4552 84.434L84.1915 84.3372C82.7322 83.799 81.1969 83.1173 80.0155 82.111C79.7802 81.9959 79.9178 81.5687 80.1973 81.6596C81.8027 82.1786 83.3004 82.7886 84.985 83.038C86.5745 83.2742 88.1707 83.3125 89.7727 83.2158C91.3972 83.1173 92.9734 82.786 94.5228 82.2963C95.872 81.8691 97.2004 81.0989 98.633 80.998C98.7081 80.8945 98.789 80.7952 98.8825 80.7034C100.122 79.4994 101.376 80.1018 102.772 80.5407C102.817 80.5549 102.83 80.5791 102.83 80.6033L102.847 80.5791L102.858 80.5641L102.85 80.5741C102.792 80.64 102.908 80.3964 102.928 80.3471L102.931 80.3413C103.091 79.9041 103.153 79.4335 103.289 78.9888C103.612 77.9258 104.216 76.9537 105.374 76.7001C105.946 76.5741 106.724 76.7651 106.989 77.3567C107.207 77.844 107.563 78.0901 108.112 78.0776C108.686 78.0643 108.897 77.7297 109.097 77.2257C109.422 76.4055 109.597 75.5528 110.131 74.8294C110.732 74.015 111.628 73.5403 112.641 73.501C113.423 73.4718 114.188 73.6996 114.931 73.9099L114.999 73.9308C115.338 74.0376 115.945 74.277 116.209 74.1001C116.606 73.8356 116.812 72.2895 116.927 71.7113L116.934 71.6746C117.139 70.69 117.257 69.6971 117.306 68.6917C117.508 64.4881 116.641 60.307 115.683 56.2385C113.707 47.848 111.002 39.754 108.056 31.6617ZM51.7507 41.9202C51.8041 41.8401 51.9208 41.9095 51.879 41.9953C51.6853 42.3941 51.6146 42.8129 51.4838 43.2282C51.3391 43.6879 51.0932 44.1337 50.9107 44.5799C50.6153 45.3024 50.3292 46.0291 50.0406 46.7544C49.4605 48.2126 48.9211 49.6928 48.4099 51.1772C47.3834 54.1593 46.5445 57.2239 45.9309 60.317C45.3279 63.3558 44.823 66.534 44.8422 69.6404C44.8509 71.053 45.0051 72.5073 45.5654 73.819C45.6533 74.025 45.7564 74.227 45.8658 74.423L45.9321 74.5399C45.9415 74.5565 45.9513 74.5724 45.9613 74.5891L46.0218 74.6859C46.1988 74.4264 46.7088 74.0826 46.9193 73.9007L46.9485 73.874L47.9361 72.9604C48.366 72.5624 48.9863 72.4664 49.5061 72.7576C51.0864 73.6421 51.0351 75.285 51.3733 76.8361L51.3882 76.9028C51.5354 77.5545 51.79 78.096 52.5702 77.9683C53.3843 77.8348 53.8545 77.0071 54.1203 76.2954L54.1546 76.2011C54.6244 74.8761 56.314 74.9287 56.7996 76.2011L56.9824 76.6825C57.3595 77.6705 57.8735 78.862 58.8464 79.2533C59.6649 79.582 60.6027 79.0906 61.3478 78.7852C61.7567 78.6175 62.2348 78.9671 62.3433 79.3509C62.3733 79.4552 62.3933 79.5553 62.4083 79.6538C63.1868 79.5779 63.9319 79.7639 64.697 80.1177C65.6991 80.5799 66.9591 81.5779 67.1468 82.7351C67.3704 84.1027 65.7867 84.7485 64.9691 83.6538C64.4551 82.9638 64.2682 82.1269 63.6532 81.4711C63.292 81.0864 62.8422 80.7518 62.3708 80.4681C61.9494 81.9583 59.584 82.388 58.1739 81.9467C56.8197 81.5236 55.9225 80.5257 55.2523 79.3576C53.9993 80.5833 52.2607 81.1765 50.5183 80.1077C49.5095 79.4886 49.0392 78.4055 48.8569 77.2816C48.8021 76.9429 48.7989 76.3872 48.702 75.8991L48.608 75.995C47.757 76.8561 46.7676 77.6655 45.6524 77.4794C44.1905 77.2357 43.4965 75.6079 43.0407 74.3688C42.0927 71.7922 42.2673 68.927 42.5885 66.2511C42.9403 63.3224 43.5291 60.4213 44.3083 57.5769C45.0682 54.8017 46.052 52.1092 47.2094 49.4759C47.7994 48.1342 48.4798 46.8253 49.2113 45.5549C49.5786 44.9172 49.9786 44.297 50.3805 43.6807C50.7953 43.0445 51.3345 42.5433 51.7507 41.9202ZM42.9929 23.7889C45.1396 21.796 48.0098 20.8875 50.9042 21.2973C52.2704 21.4904 53.5713 21.9845 54.7247 22.7469C55.8947 23.5201 56.6528 24.4773 57.3528 25.6746C57.4012 25.758 57.2911 25.8372 57.2227 25.7745C55.3567 24.0541 52.5303 23.1359 50.0186 23.2328C45.5424 23.4056 41.8313 27.3674 42.1095 31.8827C42.2465 34.1064 43.4959 36.3524 45.4279 37.4967C47.4754 38.7094 49.806 38.3069 52.0001 37.7728C52.7925 37.5801 53.1916 38.4708 52.7398 39.0439C50.5145 41.8683 45.9387 41.1298 43.3696 39.1871C38.4053 35.4336 38.575 27.8902 42.9929 23.7889ZM50.2014 28.236L50.3918 28.2032C51.9933 27.9387 55.403 27.6335 55.9045 29.5886C56.1605 30.5842 55.1716 31.1202 54.3064 31.0762C53.593 31.0399 52.9016 30.8164 52.1974 30.6647C51.9952 31.364 51.9265 32.0942 51.828 32.8141C51.7419 33.4443 50.7285 33.2733 50.7404 32.667C50.7574 31.8239 51.1489 31.1071 51.7651 30.5838C51.6213 30.5616 51.4768 30.5429 51.3308 30.5331C49.5801 30.4154 47.8502 30.7406 46.2148 31.3413L46.3876 31.4384C46.4702 31.467 46.4349 31.5772 46.3524 31.5659L45.5389 31.6069C45.1985 31.6865 44.9976 31.2975 45.2121 31.045C46.4724 29.5599 48.2908 28.5768 50.2014 28.236ZM108.596 17.7701C111.04 17.477 113.47 18.3786 114.782 20.5307C116 22.5271 116.106 25.0547 115.242 27.2001C114.751 28.419 114.01 29.5122 113.092 30.4521C112.638 30.9168 112.118 31.3963 111.543 31.7036C110.873 32.0617 110.375 32.0304 109.669 31.899C109.213 31.8144 108.899 31.2301 109.045 30.8008L109.153 30.4752C109.271 30.1256 109.382 29.8664 109.705 29.5367C109.988 29.2491 110.326 29.0161 110.636 28.7597C111.304 28.2079 111.924 27.5921 112.388 26.8562C113.236 25.5105 113.53 23.9638 113.051 22.4291C112.538 20.7809 111.177 19.7135 109.472 19.5146C108.505 19.4019 107.522 19.5038 106.567 19.6728L105.986 19.778C105.174 19.9283 104.511 20.1031 103.951 20.8481C103.904 20.9107 103.812 20.9051 103.784 20.8264C103.504 20.0171 104.362 19.2951 104.968 18.9123C106.024 18.2484 107.37 17.9171 108.596 17.7701ZM97.938 16.7848C97.8186 16.6322 97.9213 16.3229 98.1549 16.4118C100.878 17.4464 103.173 19.9656 104.743 22.3456C105.218 23.0655 105.644 23.8132 106.029 24.5819C106.579 23.9144 107.399 23.4313 108.167 23.103L108.252 23.0671C109.137 22.6992 111.051 22.0697 111.593 23.2484C111.768 23.6277 111.698 24.0169 111.392 24.3109C110.92 24.7652 110.165 24.593 109.575 24.5878C108.384 24.5775 107.437 24.9542 106.383 25.32C106.575 25.7387 106.757 26.1623 106.925 26.592C107.156 27.1762 107.326 27.7918 107.605 28.3553C107.87 28.8908 108.287 29.3692 108.643 29.8441C109.123 30.485 108.481 31.5681 107.699 31.4912C106.078 31.3318 105.432 29.9922 104.986 28.5725L104.743 27.796C104.379 26.6361 104.003 25.4993 103.456 24.3959C102.752 22.9773 101.911 21.5916 100.945 20.3359C99.998 19.1046 98.8925 18.0054 97.938 16.7848ZM93.7202 0.0667394C94.7273 -0.308565 95.5733 0.983893 95.0719 1.82562C94.6313 2.56479 94.3693 3.32825 94.2667 4.12918L98.7048 3.07143C99.5867 2.86125 100.422 3.64123 100.177 4.54536L99.4932 7.08564C100.378 6.7896 101.303 6.61413 102.255 6.55222C103.07 6.49932 103.52 7.34121 103.386 8.03808C103.107 9.49007 102.717 10.9154 102.2 12.3L101.821 13.2966C101.376 14.4569 100.856 15.6279 99.7828 16.2816C99.2638 16.5974 98.5913 16.189 98.5888 15.5967C98.5829 14.1624 99.4682 12.937 99.9597 11.6146C100.258 10.8118 100.511 9.99521 100.726 9.16809C99.8937 9.4038 99.1094 9.77744 98.3693 10.2702L98.2592 10.3451C97.3839 10.9452 96.2842 9.96993 96.502 9.03384L96.5103 9.00046L97.3464 5.8636L93.3689 6.82381C92.5495 7.02181 91.9196 6.44867 91.842 5.6601C91.7594 4.82171 91.8128 3.98741 91.9871 3.1794C89.358 4.00752 86.6746 4.65192 83.9838 5.25392L83.5799 5.34387C77.6733 6.65593 71.6391 7.8143 66.2206 10.6225C63.8276 11.8624 61.6332 13.3302 59.6374 15.1458C58.6511 16.0428 57.7492 17.03 56.9598 18.1045C56.5894 18.6086 56.2431 19.1303 55.9254 19.6693L55.6712 20.1081C55.5491 20.3198 55.4304 20.538 55.3577 20.7661L55.3218 20.8803C55.263 21.0732 55.1994 21.3268 55.253 21.496C55.33 21.7397 55.7711 22.1404 56.0827 22.0307C56.1254 22.0157 56.1463 22.071 56.1229 22.0998C55.8481 22.4307 55.4614 22.4902 55.0679 22.3239C54.4457 22.0607 54.2906 21.4597 54.3592 20.8326C54.5297 19.2805 55.6092 17.5691 56.4625 16.3022C59.9778 11.0847 65.7609 7.96266 71.5957 6.00662C78.849 3.57439 86.5386 2.74402 93.7202 0.0667394Z" fill="#333333"/>
<path fill-rule="evenodd" clip-rule="evenodd" d="M92.1198 71.0546C90.935 70.5715 89.877 69.7647 89.1044 68.7342C88.8357 68.3754 88.7656 67.9974 88.8224 67.6512C88.8858 67.2623 89.1161 66.9094 89.4298 66.6733C89.7444 66.4363 90.1382 66.3187 90.5187 66.3787C90.8491 66.4305 91.1787 66.6115 91.439 66.987L91.4932 67.0621C91.953 67.6845 92.5521 68.1943 93.2346 68.5239C93.8921 68.841 94.6272 68.9887 95.389 68.9027C96.8383 68.7392 97.8379 67.9549 98.9 66.8894C99.031 66.755 99.1629 66.6165 99.2955 66.4755C99.379 66.3479 99.4949 66.2653 99.6234 66.2227C99.7669 66.1743 99.9288 66.1777 100.077 66.2294C100.22 66.2786 100.348 66.3737 100.433 66.4997C100.515 66.619 100.56 66.7667 100.545 66.9369C100.449 68.04 99.8712 69.0254 99.0519 69.7989C98.1424 70.6583 96.9359 71.2524 95.8003 71.461C94.5487 71.6904 93.2738 71.526 92.1198 71.0546ZM96.3902 54.0266C97.7219 54.8359 99.7494 56.7233 98.3176 58.73C96.6322 60.4997 94.205 58.4713 93.0093 57.5535C91.9004 56.8426 90.6547 58.6716 91.6835 59.5018C100.325 65.9023 103.832 54.2385 97.0635 53.0754C96.3184 52.9469 96.0414 53.7762 96.3902 54.0266ZM80.9041 46.5813C81.0509 44.755 83.8319 44.3402 84.1081 46.1475C84.3559 47.7662 84.0639 49.2531 83.3355 50.7107C82.6388 52.1033 80.8882 51.4542 80.7556 50.1859C80.5787 48.4863 80.8123 47.717 80.9041 46.5813ZM102.069 45.7727C102.456 45.2649 103.016 44.9181 103.687 45.1141C105.782 45.7266 105.165 48.7024 104.429 50.15C104.029 50.9368 102.737 51.1363 102.152 50.4437C101.2 49.3148 100.745 47.0591 101.955 45.9468C101.987 45.8893 102.024 45.8313 102.069 45.7727ZM83.3063 38.59L83.6367 38.532C84.6605 38.3549 85.9337 38.1847 86.658 39.0081C87.0418 39.4447 87.1745 40.2563 86.658 40.6742C85.7493 41.4095 84.7456 41.1246 83.6575 41.1868C82.7606 41.2383 81.8987 41.3868 81.0343 41.6339C79.1394 42.1758 77.5949 43.1651 75.9762 44.2514C75.7635 44.3939 75.5465 44.1221 75.6483 43.9234C76.5828 42.0924 78.3934 40.5883 80.2074 39.6715C81.1753 39.1822 82.2349 38.7762 83.3063 38.59ZM100.159 37.7697L100.412 37.8216C103.169 38.398 106.75 39.5495 108.056 42.258C108.105 42.641 108.052 42.7231 108.01 42.7768L107.996 42.7946C107.961 42.8404 107.932 42.9035 107.766 42.9557C107.72 42.9446 107.674 42.933 107.627 42.9207C107.029 42.7638 106.555 42.5477 106.097 42.3235L105.6 42.0786C105.024 41.7959 104.442 41.5234 103.825 41.3222C102.51 40.8929 101.157 40.5906 99.7828 40.4291C99.4849 40.3942 99.1987 40.2936 98.9718 40.1213C98.7573 39.9577 98.5938 39.7313 98.5187 39.4302C98.4219 39.0407 98.4495 38.7458 98.6581 38.3943C98.8158 38.1304 99.0402 37.9474 99.2989 37.8424C99.5617 37.7353 99.8612 37.7101 100.159 37.7697Z" fill="#333333"/>
<path fill-rule="evenodd" clip-rule="evenodd" d="M105.525 62.1911C104.363 61.9724 103.161 62.0342 102.006 61.7797C100.88 61.5311 99.9856 60.7926 98.8967 60.4497C97.9388 60.1468 96.8166 60.3512 96.0707 60.9378C95.3781 60.6174 94.5905 60.5482 93.802 60.6541C92.6063 60.8143 91.4916 61.3208 90.4261 61.8681C90.3026 61.9316 90.1791 61.9925 90.0556 62.0534C88.0881 62.0041 86.0714 62.0083 84.1407 62.4297C82.431 62.8035 80.814 63.6729 79.7952 65.1264C78.6538 66.7518 78.4477 68.8227 78.2716 70.7443C78.1598 71.9642 79.8528 72.2111 80.4268 71.3284C81.0218 70.4122 81.6409 69.4952 82.4335 68.7359C83.3347 67.874 84.4294 67.5353 85.6568 67.4568C88.366 67.2833 91.0927 67.4285 93.8045 67.3083C95.3765 67.2391 97.127 66.6341 97.7603 65.2666C98.4361 66.3271 99.9689 66.957 101.229 67.053C102.56 67.1539 103.913 66.912 105.231 67.1898C106.491 67.4543 107.988 68.393 107.709 69.8941C107.543 70.776 108.658 71.2958 109.17 70.5115C111.265 67.305 109.201 62.8828 105.525 62.1911Z" fill="#333333"/>
</svg>
