<svg width="137" height="196" viewBox="0 0 137 196" fill="none" xmlns="http://www.w3.org/2000/svg">
<path fill-rule="evenodd" clip-rule="evenodd" d="M119.524 104.514C117.989 98.561 116.578 96.0369 113.852 93.9677C111.302 92.0319 107.58 90.4069 102.149 89.2194C96.4921 88.2302 96.3321 85.2894 94.9137 80.5635C94.4996 79.1427 92.4496 78.7644 91.5646 79.7885C91.4396 79.6544 91.3096 79.531 91.1754 79.4194C91.2954 78.7419 90.3096 76.7994 90.3421 76.151C90.6862 69.386 88.4737 65.9885 82.9512 64.7252C81.7504 64.451 73.5937 64.2894 72.4229 64.6127C67.3037 66.0285 62.2646 70.5227 63.0354 75.9369C61.4287 78.0377 59.8562 79.3194 57.3771 79.996C51.86 80.6969 46.3436 81.3194 40.8251 81.8527C30.023 83.5477 19.8951 89.2669 12.9729 97.6069C12.3344 98.3769 12.15 99.4219 12.7135 100.243C12.2721 102.134 9.78732 106.721 11.7424 108.017C8.52748 115.708 1.13031 130.573 1.11648 134.819C1.05815 152.66 2.98498 175.883 20.5865 185.755C21.2912 186.449 21.3921 187.215 21.6972 188.246C22.4711 191.494 25.2815 193.815 28.3575 193.626C43.5107 193.963 58.1879 192.114 73.3412 192.024C80.0237 191.984 88.0604 192.983 93.8654 193.647C99.6712 194.312 105.531 193.724 111.102 192.024C111.572 192.764 112.521 193.195 113.485 192.983C119.26 191.835 123.93 188.275 127.999 184.384C129.241 182.123 134.096 175.679 132.166 173.435C133.915 166.039 133.825 158.093 130.716 151.05C131.157 149.759 130.354 148.34 130.716 147.007C130.979 146.043 131.65 145.644 131.989 144.689C132.465 143.344 131.947 141.54 131.411 140.169C131.191 139.485 131.815 138.749 131.989 138.051C132.81 134.761 130.928 135.051 129.571 132.851C129.591 132.844 129.945 131.274 129.943 131.282C130.15 130.16 129.63 128.724 129.176 127.789C128.869 127.156 128.212 126.76 127.559 126.833C128.216 124.599 129.048 122.74 129.943 120.589C131.525 116.796 133.527 113.164 135.799 109.73C136.73 108.324 135.48 106.696 133.975 106.6C129.101 106.29 124.282 105.589 119.524 104.514Z" fill="white"/>
<path fill-rule="evenodd" clip-rule="evenodd" d="M105.302 133.198C103.354 132.433 101.255 132.01 99.1454 131.846C100.281 131.648 101.42 131.455 102.568 131.357C103.37 131.288 104.112 131.295 104.714 131.903C105.115 132.308 105.304 132.829 105.568 133.308C105.482 133.269 105.392 133.233 105.302 133.198ZM126.221 126.05C123.03 126.213 119.834 126.972 116.946 128.347C115.765 128.91 114.695 129.724 114.381 131.063C114.223 131.746 114.261 132.453 114.346 133.143C114.41 133.666 114.425 134.333 114.88 134.688C114.957 134.747 115.04 134.793 115.126 134.827C114.061 135.308 113.047 135.885 112.145 136.48C111.321 137.024 110.475 137.863 110.095 138.808C110.063 138.701 110.031 138.601 110 138.506C109.351 136.589 108.353 135.02 106.781 133.965C107.06 133.84 107.251 133.544 107.161 133.136C106.788 131.429 105.212 129.946 103.432 130.052C101.484 130.166 99.3904 130.876 97.6279 131.773C96.9854 131.758 96.3445 131.767 95.7104 131.795C95.6012 131.798 95.607 131.947 95.7104 131.959C96.2245 132.024 96.7387 132.097 97.2529 132.181C98.4745 132.377 99.6929 132.625 100.885 132.933C102.315 133.303 103.793 133.674 105.13 134.321C107.721 135.577 109.325 138.86 108.995 141.717C108.941 142.185 108.76 143.601 108.11 143.455C107.561 143.332 107.343 142.185 107.15 141.76C106.636 140.633 105.71 139.897 104.6 139.398C103.295 138.812 101.899 138.416 100.547 137.954C99.7812 137.692 99.0154 137.429 98.2479 137.169C97.462 136.899 96.7162 136.528 95.8795 136.716C95.3745 136.831 95.3162 137.433 95.5995 137.778C96.0312 138.305 96.672 138.46 97.2937 138.677C98.1137 138.962 98.932 139.248 99.7512 139.533C101.017 139.973 102.343 140.344 103.576 140.883L103.538 140.972C103.438 140.943 103.32 141.043 103.339 141.167C103.524 142.307 103.781 143.624 103.495 144.765C103.27 145.67 102.476 146.673 101.445 146.407C101.607 146.258 101.666 146.003 101.557 145.768C101.149 144.893 95.797 141.445 95.3195 142.726C95.3037 142.772 95.3529 142.805 95.392 142.798C95.7987 142.713 96.4795 143.408 96.8054 143.628C97.2754 143.944 97.7529 144.254 98.2179 144.58C98.7262 144.936 99.2229 145.309 99.707 145.695C100.087 145.998 100.375 146.313 100.81 146.467C100.582 146.576 100.4 146.778 100.323 147.038C100.126 147.712 99.7454 148.284 99.0854 148.582C98.3937 148.892 97.6137 148.696 96.8845 148.773C95.892 148.873 95.0254 149.344 94.302 150.019C92.7829 151.438 92.0204 153.94 89.8954 154.611C88.6262 155.011 87.2179 154.758 85.932 154.577C84.4979 154.374 83.0995 154.214 81.6545 154.426C80.2704 154.628 78.962 155.108 77.6979 155.692C76.5137 156.24 75.2037 156.86 74.152 157.677C73.9362 157.009 73.7179 156.349 73.552 155.668C73.1612 154.056 72.9504 152.414 72.8987 150.758C72.8512 149.183 72.9395 147.599 73.0745 146.03C73.142 145.246 73.2479 144.466 73.3145 143.682C73.332 143.485 73.367 143.273 73.3937 143.063C75.2704 141.954 77.242 141.105 79.2295 140.232C79.2354 140.23 79.2404 140.227 79.2454 140.225C79.307 140.197 79.367 140.17 79.4287 140.143C79.427 140.14 79.4254 140.137 79.422 140.133C79.6487 139.994 79.807 139.809 79.902 139.601C82.767 137.701 85.1612 135.107 86.9462 132.081C87.6945 130.813 88.4145 129.497 89.3937 128.386C90.4362 127.2 91.6737 126.496 93.2054 126.129C94.9954 125.7 96.8412 125.443 98.6754 125.296C99.677 125.218 100.797 125.093 101.889 125.099C102.649 125.104 103.394 125.169 104.077 125.358C105.089 125.636 105.68 126.406 106.316 127.184C106.924 127.931 107.527 128.68 108.095 129.458C108.631 130.196 109.139 130.958 109.579 131.758C109.843 132.238 110.087 132.731 110.293 133.239C110.365 133.419 110.46 133.623 110.505 133.81C110.549 133.998 110.468 134.198 110.679 134.198C109.807 134.21 109.816 135.603 110.682 135.552C114.073 135.355 109.216 128.733 108.506 127.809C107.501 126.503 106.464 124.798 104.855 124.19C104.832 124.182 104.807 124.173 104.785 124.166C105.253 123.722 105.623 123.19 105.976 122.649C106.341 122.093 106.775 121.455 106.895 120.794C106.971 120.373 106.448 120.134 106.2 120.502C105.839 121.039 105.665 121.719 105.395 122.309C105.12 122.908 104.786 123.473 104.522 124.078C103.886 123.882 103.2 123.793 102.501 123.763C103.383 122.568 104.89 120.264 105.071 119.968C105.906 118.598 106.7 117.186 107.459 115.772C108.279 114.239 108.982 112.643 109.767 111.093C110.212 110.215 110.661 109.328 111.156 108.476C111.327 108.184 111.51 107.892 111.718 107.626C111.758 107.573 111.81 107.529 111.857 107.479C111.911 107.449 111.968 107.416 112 107.398C112.285 107.235 112.385 106.854 112.585 106.613C112.906 106.224 113.283 106.178 113.765 106.173C114.793 106.162 115.825 106.203 116.851 106.231C118.36 106.273 119.867 106.333 121.375 106.412C121.83 106.437 122.285 106.462 122.74 106.489C124.932 106.62 127.123 106.791 129.307 107.001C131.24 107.185 133.174 107.487 135.109 107.631C132.489 113.857 129.584 119.97 126.295 125.871C126.261 125.93 126.237 125.99 126.221 126.05ZM111.686 142.09C111.264 142.283 110.853 142.525 110.471 142.799C110.535 142.372 110.55 141.921 110.533 141.468C110.848 141.806 111.251 142 111.686 142.09ZM129.723 131.38C129.693 131.383 129.665 131.399 129.651 131.429C129.066 132.635 129.311 133.983 130.265 134.928C130.765 135.422 131.855 135.978 131.82 136.788C131.79 137.443 131.077 137.993 130.772 138.533C130.489 139.038 130.384 139.591 130.61 140.137C130.901 140.836 131.713 141.114 131.99 141.801C132.343 142.673 131.77 143.724 131.37 144.483C130.996 145.186 130.514 145.888 130.193 146.632C128.047 147.743 126.126 149.448 124.475 151.18C122.667 153.073 121.115 155.301 118.245 155.245C117.957 155.239 117.739 155.391 117.609 155.6C116.81 155.638 116.009 155.653 115.209 155.657C113.804 155.663 112.4 155.649 110.996 155.606C110.897 155.266 110.97 154.804 110.965 154.517C110.947 153.593 110.938 152.669 110.9 151.745C110.889 151.488 110.878 151.229 110.868 150.972C111.373 151.886 112.359 152.302 113.482 152.238C115.288 152.133 117.105 151.837 118.894 151.571C119.835 151.432 120.776 151.273 121.715 151.103C122.485 150.967 123.574 151.002 124.112 150.383C124.239 150.239 124.246 149.975 124.047 149.878C123.514 149.616 123.177 149.762 122.591 149.874C121.876 150.013 121.16 150.146 120.441 150.269C119.063 150.508 117.681 150.73 116.295 150.926C115.506 151.037 114.716 151.146 113.925 151.233C113.235 151.307 112.457 151.407 111.901 150.888C110.78 149.838 111.408 148.078 112.118 147.018C112.131 146.997 112.131 146.978 112.126 146.959C112.795 146.803 113.463 146.62 114.128 146.491C115.408 146.244 116.697 146.037 117.987 145.852C120.639 145.473 123.308 145.223 125.973 144.971C126.633 144.908 126.64 143.868 125.973 143.93C122.144 144.281 118.295 144.613 114.517 145.352C113.57 145.535 112.63 145.743 111.695 145.977C111.253 146.086 110.78 146.257 110.316 146.263C110.288 146.263 110.26 146.263 110.232 146.26C109.325 146.233 109.193 145.456 109.691 144.809C109.753 144.73 109.816 144.651 109.881 144.575C110.762 143.525 111.859 142.824 112.989 142.098C114.255 141.926 115.517 141.542 116.756 141.26C119.816 140.563 122.876 139.865 125.938 139.169C126.538 139.033 126.283 138.109 125.683 138.245C123.359 138.772 121.035 139.298 118.71 139.825L115.31 140.597C114.63 140.749 113.781 141.058 112.982 141.168C112.588 141.223 112.205 141.23 111.86 141.149C110.746 140.885 110.69 139.492 111.17 138.664C111.709 137.734 112.727 137.153 113.63 136.627C115.195 135.713 116.86 135.055 118.487 134.298C118.776 134.234 119.065 134.171 119.354 134.108C121.033 133.738 122.952 133.557 124.533 132.878C125.006 132.678 124.748 131.931 124.28 131.942C123.052 131.968 121.769 132.404 120.57 132.663C119.272 132.945 117.973 133.225 116.675 133.505C116.545 133.533 115.775 133.78 115.658 133.726C115.584 133.69 115.558 133.433 115.533 133.264C115.454 132.708 115.395 132.123 115.482 131.564C115.672 130.313 116.716 129.724 117.772 129.243C120.125 128.174 122.704 127.505 125.27 127.237C125.862 127.175 126.454 127.137 127.049 127.118C127.748 127.096 128.324 126.973 128.677 127.662C129.234 128.747 129.54 130.142 129.723 131.38ZM126.456 170.716C125.944 168.943 126.083 167.05 125.732 165.241C125.551 164.308 125.304 163.383 125.034 162.471C124.815 161.735 124.452 160.953 124.411 160.185C124.409 160.133 124.469 160.104 124.51 160.128C125.234 160.542 125.789 161.438 126.201 162.14C126.695 162.981 127.072 163.862 127.375 164.788C127.982 166.633 128.48 168.858 127.698 170.716C127.465 171.27 126.648 171.38 126.456 170.716ZM110.618 147.229C111.05 147.187 111.484 147.104 111.917 147.008C111.433 147.479 110.985 148.048 110.737 148.678C110.699 148.194 110.649 147.712 110.584 147.231C110.595 147.231 110.607 147.231 110.618 147.229ZM106.455 184.14C105.691 183.607 105.135 182.862 104.487 182.204C103.85 181.557 104.846 180.56 105.483 181.208C106.035 181.769 106.515 182.469 107.166 182.923C107.479 183.142 107.624 183.536 107.419 183.887C107.237 184.197 106.767 184.358 106.455 184.14ZM102.196 163.648C103.59 163.045 104.961 162.388 106.42 161.954C107.292 161.694 107.661 163.054 106.795 163.313C105.451 163.713 104.19 164.309 102.907 164.865C102.083 165.221 101.366 164.007 102.196 163.648ZM87.472 163.226C87.1312 162.385 88.4945 162.022 88.8304 162.852C89.217 163.807 89.6604 164.738 90.047 165.692C90.3879 166.533 89.0254 166.897 88.6887 166.067C88.302 165.112 87.8587 164.182 87.472 163.226ZM72.9395 180.032C72.7129 180.335 72.3337 180.499 71.9762 180.285C71.6762 180.105 71.4937 179.628 71.7237 179.321C72.3945 178.426 73.0745 177.542 73.862 176.743C74.4995 176.097 75.4954 177.093 74.8579 177.74C74.1554 178.453 73.5395 179.233 72.9395 180.032ZM70.862 85.736C71.5079 86.1776 72.0745 86.7143 72.627 87.2668C73.2687 87.9085 72.2729 88.9043 71.6304 88.2626C71.1654 87.7976 70.6962 87.3252 70.1512 86.9527C69.8362 86.7377 69.6945 86.3368 69.8979 85.9885C70.0804 85.6768 70.5479 85.5218 70.862 85.736ZM92.0045 108.41C91.6387 109.142 91.3104 109.859 91.2895 110.692C91.267 111.598 89.8587 111.599 89.8812 110.692C89.9079 109.603 90.3095 108.658 90.7887 107.698C91.1937 106.886 92.4079 107.601 92.0045 108.41ZM99.762 90.2002C100.52 89.6952 101.224 90.916 100.473 91.4168C99.8645 91.8218 99.2562 92.2285 98.6479 92.6335C97.8904 93.1385 97.1862 91.9177 97.937 91.4168C98.5454 91.0118 99.1537 90.606 99.762 90.2002ZM66.1154 122.038C65.9854 122.933 64.6287 122.551 64.757 121.664C64.9545 120.293 65.1962 118.941 65.5679 117.606C65.8112 116.733 67.1695 117.106 66.9262 117.98C66.5545 119.315 66.3129 120.668 66.1154 122.038ZM61.177 138.178C60.2704 138.159 60.2704 136.75 61.177 136.769C61.997 136.787 62.8037 137.003 63.5954 137.201C64.4754 137.421 64.1004 138.779 63.2204 138.559C62.552 138.392 61.8704 138.193 61.177 138.178ZM59.3537 170.692C59.0429 170.843 58.7229 170.979 58.4079 171.123C57.7779 171.412 57.1479 171.701 56.5179 171.99C55.2054 172.593 53.8937 173.198 52.5837 173.804C49.9601 175.018 47.3166 176.191 44.687 177.393C42.0055 178.618 39.331 179.859 36.6599 181.108C35.4014 181.695 34.1335 182.262 32.868 182.833C31.7859 183.323 30.4484 184.178 29.2606 184.259C29.1995 184.263 29.1791 184.186 29.2139 184.146C29.6627 183.636 30.3785 183.338 30.9684 183.007C31.5708 182.668 32.1845 182.348 32.7954 182.025C34.069 181.35 35.3442 180.68 36.6301 180.029C39.2024 178.727 41.7794 177.434 44.3571 176.144C46.9859 174.826 49.6115 173.501 52.2637 172.231C53.512 171.633 54.762 171.036 56.012 170.442C56.6895 170.12 57.3679 169.798 58.0454 169.478C58.3379 169.339 58.6279 169.189 58.927 169.065C59.3254 168.901 59.627 168.934 60.0379 168.833C60.7062 168.668 60.9962 169.518 60.4829 169.889C60.0595 170.194 59.837 170.456 59.3537 170.692ZM49.9511 185.139C49.8066 184.788 50.1092 184.36 50.443 184.273C50.8429 184.167 51.1634 184.41 51.3094 184.764C51.6955 185.704 52.2454 186.566 52.9537 187.294C53.5862 187.945 52.5904 188.942 51.9574 188.291C51.0703 187.378 50.433 186.311 49.9511 185.139ZM43.0338 162.523C42.3917 161.88 43.3878 160.884 44.0297 161.527L45.855 163.353C46.4971 163.994 45.5008 164.991 44.8591 164.348L43.0338 162.523ZM24.3066 159.546C22.9943 159.931 21.4636 160.284 20.5689 161.404C20.5253 161.459 20.4519 161.389 20.478 161.334C21.6234 158.959 24.9084 158.126 27.1826 157.293C28.7913 156.704 30.4418 156.217 32.1062 155.78C31.9399 153.881 32.3987 151.845 32.5582 149.955C32.7284 147.937 32.8669 145.913 32.9381 143.889C33.0108 141.824 33.0284 139.745 32.9604 137.679C32.8929 135.622 32.6258 133.588 32.5089 131.538C32.4976 131.339 32.7737 131.329 32.8332 131.493C33.5244 133.397 33.8196 135.505 34.0446 137.513C34.2763 139.58 34.3532 141.642 34.3237 143.721C34.293 145.859 34.1687 147.992 33.9981 150.123C33.9173 151.133 33.8234 152.143 33.7349 153.152C33.6673 153.923 33.6359 154.687 33.4789 155.433C34.4828 155.186 35.4889 154.953 36.4919 154.726C39.6902 154.004 42.9019 153.334 46.0867 152.553C47.65 152.17 49.1911 151.712 50.7474 151.304C52.2129 150.92 53.7595 150.455 55.2645 150.283C55.8012 150.223 55.8695 150.957 55.5145 151.207C54.2912 152.066 52.667 152.663 51.2546 153.144C49.837 153.627 48.3634 153.974 46.9104 154.332C43.8804 155.077 40.8215 155.687 37.7673 156.322C34.7173 156.956 31.6615 157.585 28.6459 158.368C27.1935 158.744 25.7462 159.123 24.3066 159.546ZM17.1153 121.851C16.3311 122.311 15.6232 121.093 16.4045 120.634C17.4269 120.033 18.5165 119.583 19.6149 119.143C20.4579 118.805 20.8206 120.168 19.9894 120.502C19.0023 120.897 18.0339 121.312 17.1153 121.851ZM14.2757 174.198C13.4894 174.654 12.7809 173.436 13.5649 172.981C14.666 172.343 15.8718 171.917 17.0129 171.358C17.8246 170.96 18.5377 172.176 17.7236 172.575C16.5827 173.133 15.3768 173.559 14.2757 174.198ZM12.9986 144.483C13.7589 145.206 14.7734 145.546 15.7302 145.925C16.5644 146.256 16.1984 147.618 15.3557 147.283C14.1638 146.811 12.9497 146.379 12.0027 145.479C11.3439 144.853 12.3416 143.858 12.9986 144.483ZM21.409 104.128C22.2448 104.457 21.8788 105.818 21.0346 105.488C20.0983 105.12 19.1314 104.84 18.1951 104.473C17.3596 104.145 17.7254 102.783 18.5696 103.114C19.5059 103.482 20.4728 103.761 21.409 104.128ZM36.2458 88.0993C37.1338 87.9501 37.5119 89.3077 36.6203 89.4585C35.5139 89.6452 34.4244 89.8643 33.3752 90.2702C32.5278 90.5977 32.1643 89.2352 33.0007 88.9118C34.0502 88.5052 35.1396 88.2868 36.2458 88.0993ZM41.1481 127.126C40.3339 126.725 41.0483 125.511 41.8589 125.909C42.7131 126.329 43.5981 126.654 44.5302 126.853C45.4177 127.042 45.0397 128.4 44.1557 128.212C43.1068 127.988 42.1087 127.598 41.1481 127.126ZM45.7784 105.143C46.6551 104.903 47.0259 106.263 46.1529 106.502C44.6168 106.923 43.0353 107.142 41.4879 107.516C40.606 107.73 40.2329 106.371 41.1134 106.158C42.6608 105.783 44.2424 105.564 45.7784 105.143ZM65.4204 98.2443C66.312 98.4093 65.932 99.7677 65.0462 99.6035C64.1029 99.4285 63.147 99.426 62.1904 99.4252C61.2829 99.4252 61.2845 98.016 62.1904 98.016C63.277 98.0168 64.3495 98.046 65.4204 98.2443ZM129.48 105.606C127.179 105.385 124.875 105.209 122.566 105.078C122.459 105.072 122.353 105.065 122.245 105.059C122.234 105.035 122.218 105.012 122.202 104.988C121.449 103.881 120.894 102.775 120.413 101.524C119.954 100.334 119.508 99.1068 118.8 98.0327C117.993 96.8085 116.904 95.8502 115.709 95.0202C114.985 95.5077 114.312 96.0785 113.697 96.6835C113.05 97.3193 112.054 96.3235 112.701 95.6868C113.248 95.1493 113.831 94.6527 114.448 94.2043C113.736 93.771 113.01 93.3643 112.3 92.9593C109.644 91.4435 106.924 90.041 104.147 88.7593C102.857 88.1618 101.55 87.6318 100.235 87.0943C99.527 86.806 98.8287 86.4343 98.1212 86.1002C98.172 85.5993 98.022 85.0393 97.6387 84.7101C97.3554 84.4685 97.1354 84.3785 96.797 84.2085C96.7212 84.1818 96.6754 84.166 96.6545 84.1568C96.6704 84.1602 96.7162 84.1743 96.7912 84.1993C96.9712 84.2818 96.9854 84.2576 96.8337 84.1268C96.8254 83.8418 96.2637 83.2393 96.1354 82.9451C95.6879 81.936 95.5487 80.8685 94.8887 79.9493C93.9779 78.6826 92.4504 78.2043 91.0254 78.6335C90.8779 77.1102 90.8395 75.5202 90.2654 74.1602C90.2495 74.1235 90.1987 74.1077 90.1754 74.1477C89.577 75.1677 89.5262 76.3035 89.4804 77.4802C89.4362 78.5843 89.4779 79.7135 89.6229 80.811C89.5312 80.881 89.4379 80.9485 89.3412 81.0135C88.887 81.3127 88.397 81.5435 87.8829 81.7143C86.9045 82.0385 85.8779 82.1793 84.8512 82.2285C82.202 82.3551 79.4712 82.0877 76.8654 81.6335C74.2304 81.1735 70.1895 80.4827 67.8445 79.1635C66.297 78.2943 64.8695 77.2318 63.422 76.2035C63.9462 74.5127 64.0804 72.6943 63.552 71.266C63.4887 71.0951 63.2212 71.0635 63.1704 71.266C62.8395 72.6293 62.742 74.0002 62.302 75.3468C62.2954 75.3668 62.2879 75.3877 62.2812 75.4068C62.1437 75.3135 62.0062 75.2218 61.8695 75.1302C61.552 74.921 61.1212 75.0776 60.9304 75.3768C57.8904 80.1693 53.0754 80.4443 48.0188 81.3002C42.4851 82.2368 36.9237 83.2485 31.6033 85.0818C26.5153 86.836 21.6525 89.3902 17.8004 93.2043C16.9284 94.0685 16.1129 94.9885 15.3432 95.9493C16.0879 96.0435 16.8265 96.1893 17.5555 96.4185C18.4188 96.6901 18.0478 98.0493 17.1811 97.7777C16.2441 97.4827 15.2968 97.3368 14.3397 97.2643C11.7223 100.847 9.68144 104.908 7.91661 108.906C4.53161 116.571 2.32827 124.734 1.31435 133.045C1.87102 132.711 2.43777 132.393 3.01861 132.098C3.82561 131.687 4.53744 132.903 3.72952 133.314C2.83236 133.771 1.96085 134.274 1.11644 134.819C0.747605 138.458 0.604688 142.118 0.691271 145.774C0.897271 154.489 2.07335 163.459 4.73352 171.774C6.03811 175.855 7.76702 179.903 10.3427 183.351C11.5082 184.913 12.8321 186.322 14.392 187.497C15.1473 188.068 15.9466 188.577 16.7899 189.006C17.8762 189.563 19.2916 189.746 20.2283 190.533C20.5364 190.792 20.774 191.133 20.9536 191.519C20.8498 192.252 20.8374 192.987 21.0381 193.719C21.1015 193.949 21.274 194.135 21.4871 194.224C21.4906 194.288 21.4906 194.349 21.4906 194.409C21.4906 194.438 21.5329 194.445 21.5381 194.417C21.5469 194.362 21.5557 194.308 21.5645 194.251C21.6332 194.274 21.7054 194.284 21.7794 194.284C24.4536 194.295 27.1313 194.229 29.8091 194.138C29.602 193.504 29.3778 192.875 29.1624 192.24C28.87 191.378 30.2307 191.012 30.5205 191.866C30.7724 192.608 31.0359 193.343 31.2702 194.088C34.1394 193.981 37.0077 193.853 39.8709 193.758C45.9607 193.555 52.0487 193.489 58.1404 193.36C67.5995 193.159 77.1279 192.748 86.6029 193.15C86.9304 192.455 87.297 191.775 87.6445 191.089C88.0545 190.279 89.2695 190.993 88.8612 191.8C88.6187 192.277 88.3687 192.748 88.1312 193.224C90.0495 193.324 91.967 193.455 93.8795 193.635C97.1437 193.941 100.376 194.485 103.637 194.823C106.952 195.168 110.195 195.107 113.484 194.559C114.075 194.461 114.424 194.103 114.568 193.659C114.573 193.658 114.577 193.654 114.58 193.648C114.75 193.452 114.908 193.288 115.071 193.145C115.267 193.018 115.478 192.911 115.726 192.816C116.19 192.639 116.672 192.532 117.161 192.46C117.7 192.379 118.246 192.372 118.785 192.305C119.239 192.247 119.683 192.16 120.126 192.055C120.924 191.865 121.68 191.616 122.435 191.287C123.091 191 123.684 190.588 124.244 190.138C125.403 189.291 126.406 188.21 127.283 187.086C127.794 186.429 128.274 185.748 128.71 185.038C129.471 183.808 130.119 182.532 130.774 181.244C131.012 180.863 131.229 180.472 131.427 180.074C130.147 179.696 128.855 179.388 127.498 179.367C126.59 179.352 126.591 177.943 127.498 177.958C129.054 177.983 130.526 178.346 131.989 178.779C132.06 178.59 132.128 178.399 132.191 178.206C132.365 177.803 132.51 177.388 132.63 176.969C132.7 176.779 132.77 176.589 132.841 176.399C133 175.74 133.158 175.08 133.318 174.419C133.637 173.363 133.889 172.29 134.074 171.203C134.228 170.488 134.348 169.768 134.429 169.038C134.675 167.272 134.876 165.509 134.89 163.723C134.869 162.623 134.799 161.523 134.679 160.429C134.628 159.687 134.542 158.947 134.425 158.213C134.274 157.12 134.125 156.039 133.873 154.961C133.685 154.232 133.496 153.503 133.308 152.773C132.837 151.253 132.283 149.763 131.644 148.307C131.609 148.216 131.43 148.014 131.324 148.013C131.242 148.011 131.13 148.085 131.166 148.184C131.17 148.193 131.174 148.203 131.177 148.212C131.14 148.129 131.105 148.044 131.068 147.962C131.036 147.884 130.913 147.729 130.818 147.731C130.813 147.731 130.807 147.731 130.8 147.733C130.825 147.715 130.848 147.693 130.871 147.666C131.503 146.918 131.913 145.933 132.365 145.066C132.74 144.351 133.095 143.598 133.196 142.789C133.286 142.079 133.165 141.38 132.72 140.806C132.212 140.153 131.258 139.846 131.788 138.902C132.39 137.828 133.276 136.896 132.394 135.675C131.945 135.053 131.234 134.712 130.705 134.171C130.098 133.546 129.809 132.709 129.825 131.855C129.862 131.876 129.911 131.866 129.929 131.813C130.44 130.27 130.07 128.576 129.547 127.073C129.262 126.258 128.658 126.034 127.955 125.994C130.998 120.049 133.845 114.01 136.381 107.832C136.466 107.629 136.549 107.427 136.631 107.224C136.755 106.921 136.494 106.518 136.193 106.451C134 105.97 131.715 105.817 129.48 105.606Z" fill="#333333"/>
<path fill-rule="evenodd" clip-rule="evenodd" d="M104.904 28.5427C103.31 21.8229 99.827 15.5694 94.2495 10.5154C77.4662 -6.08367 46.6456 2.92599 46.7852 27.9397C46.1833 30.8612 45.9389 33.8652 46.1382 36.8447C46.2206 38.116 46.7706 39.8902 46.0317 41.0343C44.3649 43.1743 43.3963 44.7527 43.9635 47.5993C44.4375 50.086 46.1287 51.8468 48.4111 52.7835C49.7799 53.176 51.0787 54.0318 51.5858 55.3368C54.6328 60.9168 56.8895 65.5585 61.6928 69.3618C62.9328 70.341 75.6445 76.2135 79.8337 76.2135C92.0962 76.2135 107.551 71.7693 107.808 58.0668C107.852 55.0577 107.325 52.0127 106.993 49.0268C106.187 42.2127 106.471 35.1523 104.904 28.5427Z" fill="white"/>
<path fill-rule="evenodd" clip-rule="evenodd" d="M104.628 25.1816C104.632 25.0986 104.751 25.0799 104.774 25.1619C105.229 26.7796 105.488 28.4276 105.844 30.0706C106.188 31.6531 106.512 33.2401 106.781 34.8365C107.29 37.8494 107.719 40.8701 108.119 43.8985L108.218 44.656C108.911 49.9851 110.056 55.5368 109.054 60.8968C108.2 65.471 105.335 69.1568 101.644 71.8593C98.1487 74.4185 93.9103 76.061 89.702 76.9943C85.1853 77.9968 79.832 78.296 76.157 74.9826C74.6862 73.656 76.6912 71.0235 78.287 72.221C82.0345 75.0318 86.802 74.2026 91.0312 73.0843L91.1587 73.0501C94.8703 72.0618 98.6062 70.5626 101.553 68.0335C104.81 65.2376 106.421 61.3576 106.607 57.101C106.712 54.7101 106.489 52.3218 106.249 49.9451L106.222 49.681C105.946 46.9626 105.656 44.2451 105.389 41.526C105.145 39.0464 104.935 36.5522 104.824 34.0614L104.772 32.8051C104.664 30.2722 104.519 27.7024 104.628 25.1816ZM60.677 4.13606C66.7753 0.959974 73.7837 -0.176694 80.5703 0.889222C87.0945 1.91389 93.082 5.28181 97.5578 10.111C99.7428 12.4687 101.682 15.1961 102.921 18.1756C103.537 19.6557 104.019 21.1998 104.276 22.7856C104.408 23.6009 104.538 24.4456 104.563 25.2721C104.585 26.0374 104.36 26.7551 104.387 27.5331C104.391 27.6548 104.205 27.6782 104.177 27.5616C103.964 26.6942 103.454 26.0383 103.134 25.2144C102.894 24.5992 102.622 23.9986 102.345 23.3998L102.108 22.8867C101.419 21.3955 100.594 19.9655 99.7778 18.5406C98.1353 15.6709 96.0287 13.0628 93.5603 10.8621C89.2278 6.99831 83.6695 4.50414 77.8687 4.05506C71.847 3.58864 65.7403 5.02447 60.5978 8.20489C55.4561 11.3852 51.5678 16.3291 49.5491 22.0212C48.5306 24.8936 47.9681 27.8866 47.8373 30.9296C47.7711 32.4701 47.8329 34.0233 47.9408 35.5607L47.9945 36.2938C48.0572 37.173 48.1003 38.0488 47.969 38.9067C48.8965 38.6173 49.8687 38.4974 50.8444 38.6406C52.2945 38.8534 53.1603 39.448 53.8111 40.7435C53.8445 40.8118 53.777 40.8793 53.7095 40.8451C52.8661 40.4246 51.5019 40.6461 50.609 40.8668C49.6797 41.0968 48.8428 41.496 48.0531 42.036C46.5924 43.0343 45.4473 44.5818 45.1664 46.3568C44.8947 48.0718 45.5984 49.8076 46.7805 51.0368C47.3889 51.6701 48.1162 52.2168 48.9305 52.5576C49.9187 52.9718 50.8968 52.9593 51.7712 53.6426C52.312 54.0651 52.1812 54.7885 51.8144 55.2576C53.6587 57.281 55.2945 59.4943 57.1395 61.526C57.9937 62.4668 58.842 63.4101 59.6612 64.3818L59.967 64.7476C60.7853 65.7351 62.0861 66.7785 62.4603 68.0201C62.6928 68.7926 61.8653 69.8035 61.0295 69.4518C59.747 68.911 58.8312 67.506 57.9653 66.4276L57.9086 66.3576C56.9995 65.241 56.1928 64.061 55.4553 62.8251L55.2128 62.4185C53.8786 60.1743 52.5562 57.8468 51.7057 55.381C51.6495 55.4385 51.59 55.491 51.5273 55.536C50.3019 56.4076 48.5206 55.7376 47.2968 55.171C46.1416 54.6368 45.0824 53.8335 44.2569 52.8643C42.4615 50.7576 41.6338 48.0293 42.2335 45.2951C42.7414 42.9785 44.3462 40.726 46.45 39.554C45.4789 38.4356 45.0767 36.928 44.8091 35.454C44.4676 33.5724 44.3995 31.6442 44.4922 29.7362C44.6773 25.936 45.6549 22.19 47.1662 18.7101C49.8701 12.4836 54.6503 7.27514 60.677 4.13606ZM47.842 45.686C49.1219 45.446 50.3147 45.3885 51.5492 45.9301C52.8886 46.5176 53.8303 47.4885 54.707 48.626C55.7037 49.9201 53.1486 51.3335 52.5045 49.616L52.4862 49.5626C52.3137 49.0543 52.0045 48.5626 51.6129 48.1101C51.4955 48.2901 51.3385 48.4485 51.154 48.5393C50.9306 48.6493 50.5893 48.5735 50.5357 48.2876C50.4762 47.971 50.542 47.5868 50.7247 47.3185L50.7497 47.2818C49.8617 46.5676 48.7936 46.0451 47.842 45.8768C47.7469 45.8601 47.748 45.7035 47.842 45.686Z" fill="#333333"/>
<path fill-rule="evenodd" clip-rule="evenodd" d="M78.7179 55.1152C78.7545 55.081 78.8129 55.0685 78.8579 55.0968C79.6195 55.5785 79.7095 57.1993 79.7187 58.1352C80.0337 58.2168 80.3445 58.3102 80.6395 58.3752C81.2645 58.5143 81.8929 58.6343 82.5204 58.7618L82.9904 58.8585C84.562 59.1902 86.1629 59.4352 87.7637 59.5585C89.3179 59.6768 90.9179 59.721 92.467 59.5202C93.1329 59.4343 93.7945 59.2902 94.4379 59.0985C95.1979 58.8718 95.8029 58.496 96.5104 58.1668C98.2804 57.3418 99.7637 59.7585 98.0604 60.8193C96.5979 61.7293 94.6029 62.0577 92.9145 62.1985C91.1895 62.3427 89.4712 62.1843 87.7662 61.911C85.9237 61.616 84.1187 61.1627 82.3712 60.5052C81.632 60.2268 80.917 59.8893 80.2187 59.521L80.0287 59.4202C79.912 59.3577 79.7912 59.2943 79.6695 59.2302C79.5387 60.3977 79.162 61.5243 78.7062 62.6085L78.6962 62.5893C78.447 63.4443 77.547 63.9735 76.6512 63.5952C75.6004 63.1527 75.5204 61.9902 76.132 61.1643L76.1612 61.126C76.8804 60.201 77.3304 59.0527 77.722 57.9585C77.9229 57.3977 78.1087 56.8227 78.2704 56.2493C78.387 55.8343 78.3912 55.4168 78.7179 55.1152ZM105.801 45.8202C105.178 47.7035 103.82 49.1543 101.927 49.7918C100.051 50.4235 97.9645 50.1935 96.0479 49.8518C95.6279 49.7768 95.2029 49.6943 94.7787 49.5977C95.1262 49.8135 95.4329 50.116 95.7262 50.4368C96.1604 50.9102 96.5537 51.4093 96.6737 52.0018C96.792 52.5902 96.6054 53.0377 96.2645 53.3752C95.7412 53.8943 94.8962 54.1743 94.1804 54.3293C92.5779 54.6752 90.9729 54.6218 89.3787 54.266C88.9712 54.176 88.6954 53.9577 88.5404 53.6727C88.352 53.326 88.337 52.896 88.4445 52.5043C88.5529 52.1127 88.7862 51.751 89.1245 51.5518C89.4029 51.3868 89.752 51.3418 90.147 51.4735C90.9412 51.7377 91.7295 51.9127 92.5687 51.9335C92.9237 51.941 93.2812 51.931 93.6354 51.8985C93.8354 51.8802 94.0354 51.8543 94.2345 51.8227C94.1179 51.6668 94.0037 51.5077 93.8929 51.3468C93.7612 51.1568 93.6329 50.9652 93.5112 50.7693C93.1579 50.2035 92.8637 49.6218 92.6054 49.0077C92.522 48.811 92.4454 48.6135 92.372 48.4152C92.3612 48.3868 92.3504 48.3585 92.3404 48.3293C92.317 48.311 92.2945 48.2918 92.272 48.2718C91.767 47.8343 91.3428 47.296 91.0429 46.6285C90.2312 44.8202 90.3637 42.576 90.8562 40.6985C91.2512 39.1934 92.122 37.8016 93.2729 36.8559C93.4737 36.5252 93.6062 36.3246 93.7687 36.1556C94.4304 35.4672 95.3537 35.0028 96.2545 34.7204C98.2662 34.0893 100.457 34.5421 102.162 35.7437C103.737 36.8531 104.97 38.5169 105.635 40.3675C106.266 42.1202 106.39 44.0427 105.801 45.8202ZM78.3995 34.3743C80.792 34.3539 83.2262 35.0605 85.1679 36.4747C87.0254 37.8278 88.4829 39.8256 88.4812 42.2052C88.4795 44.5218 87.242 46.8002 85.8687 48.5943C84.327 50.6077 82.3137 51.5785 79.7812 51.601C78.4645 51.6127 77.1387 51.496 75.832 51.336L75.1304 51.2477C74.1654 51.1235 73.1895 50.976 72.2745 50.6435C67.9179 49.0627 67.7829 43.3585 69.3962 39.7123C70.642 36.8972 73.7954 34.1517 76.9395 34.4812C77.4129 34.4148 77.8995 34.3787 78.3995 34.3743ZM82.4404 37.0569C79.4445 35.7117 75.8045 36.1145 72.8979 37.5501C71.747 38.8066 70.9054 40.3901 70.5645 41.8435C70.2012 43.396 70.2545 45.0677 70.8012 46.571C71.4687 48.4077 73.112 48.8618 74.8854 49.1443L75.5729 49.2527L75.862 49.296C77.6037 49.556 79.5087 49.7585 81.1829 49.4327C83.0487 49.0702 84.2337 47.5627 85.1662 46.016L85.2095 45.9435C86.1778 44.3243 86.9887 42.3543 86.1762 40.4981C85.4854 38.9205 83.977 37.747 82.4404 37.0569ZM100.124 37.5257C99.0954 36.9557 97.9229 36.8522 96.8129 37.2337C96.3354 37.3977 95.922 37.6637 95.522 37.9619L95.3629 38.0827C94.8704 38.4607 94.4104 38.6521 94.0412 39.1625L93.9937 39.2309C93.8078 39.5092 93.482 39.6205 93.1845 39.5835C92.8387 40.5376 92.6962 41.5693 92.6929 42.5852L92.6937 42.7193L92.6954 42.8568C92.7179 44.0577 92.927 45.526 93.8712 46.331C94.732 47.0643 96.0362 47.241 97.2012 47.3427L98.0979 47.4177L98.337 47.436C99.5637 47.521 100.909 47.4918 101.937 46.7652C102.833 46.1327 103.255 45.0577 103.365 43.9968C103.624 41.491 102.356 38.7629 100.124 37.5257ZM77.7437 37.7572C79.3928 36.9146 81.3754 37.1257 82.7729 38.1818C82.6487 38.2062 82.5262 38.2372 82.4045 38.2982C82.087 38.4572 81.8904 38.7757 81.8154 39.1146C81.7312 39.4977 81.9295 39.8603 82.307 39.9811C82.6362 40.0861 83.0262 40.1342 83.332 39.9342C83.492 39.8297 83.6037 39.6917 83.677 39.5181L83.687 39.4926L83.7004 39.4738L83.7054 39.465C83.7062 39.4617 83.7004 39.4681 83.6912 39.4823C83.7004 39.4607 83.7095 39.439 83.7179 39.417C83.7312 39.3907 83.7429 39.3643 83.7529 39.337C83.7712 39.3217 83.787 39.3046 83.8037 39.2875C84.057 39.6783 84.257 40.1197 84.3837 40.6107C85.1954 43.7627 81.8645 47.0335 78.8887 47.361C77.7645 47.4843 76.7387 47.216 75.8879 46.6885C75.8954 46.6777 75.9037 46.6685 75.9112 46.6577C76.2529 46.7193 76.6612 46.566 76.7854 46.1843C77.102 45.2118 76.777 44.0735 75.717 43.7552C75.0354 43.551 74.337 43.7768 73.8495 44.2435C73.4812 43.3402 73.3495 42.3243 73.5237 41.3068C73.7695 39.8705 74.6354 38.5765 75.9829 37.9791C76.6395 37.688 77.2045 37.6268 77.7437 37.7572ZM95.1179 39.7017L95.1687 39.6226C95.6779 38.8377 96.6528 37.875 97.6628 38.1397C97.8045 38.1768 97.9437 38.2367 98.0687 38.3144C98.6237 38.239 99.2054 38.3652 99.682 38.6587L99.6695 38.6917C99.667 38.6972 99.6653 38.7027 99.6637 38.7086C99.6203 38.8995 99.6454 39.076 99.7345 39.2514C99.8312 39.4414 99.9695 39.6216 100.156 39.7307C100.284 39.8053 100.435 39.8446 100.582 39.8416C100.799 39.8377 100.989 39.7424 101.145 39.5969C101.23 39.5181 101.29 39.4023 101.322 39.2832C101.4 39.3572 101.475 39.4397 101.545 39.5332C102.716 41.0735 102.555 43.5485 101.181 44.9218C101.125 44.9768 101.066 45.0268 101.008 45.0785C100.45 45.846 99.5904 46.3677 98.5579 46.4735C97.602 46.571 96.6462 46.2885 95.9129 45.7085C95.972 45.6768 96.027 45.636 96.0745 45.5827C96.1995 45.441 96.3028 45.301 96.3787 45.1277C96.3978 45.0843 96.4162 45.0402 96.4337 44.996L96.4595 44.9293C96.4637 44.9168 96.5029 44.8043 96.4929 44.8243L96.4904 44.8285L96.5037 44.796C96.6354 44.4685 96.582 44.0943 96.2704 43.8885L96.2362 43.8668C96.1345 43.8077 96.0087 43.7793 95.8812 43.7793C95.5628 43.3902 95.0895 43.301 94.6454 43.4143L94.6295 43.2885C94.6279 43.2677 94.6254 43.2468 94.6237 43.226C94.2795 42.0843 94.4462 40.7868 95.1179 39.7017ZM79.837 28.2096L79.9512 28.1917C80.8154 28.0668 81.4029 28.2107 81.9654 28.9495C82.2329 29.3016 82.1504 29.8332 81.9654 30.1931C81.367 31.3557 79.7212 31.1152 78.6128 31.3462C77.5303 31.5714 76.4512 31.8781 75.4378 32.3244C74.4045 32.7798 73.4354 33.3186 72.4895 33.9338C71.6337 34.4906 70.8579 35.3273 69.8804 35.6512C69.8362 35.6658 69.7837 35.6264 69.7862 35.5797C69.8562 34.4678 70.7845 33.4472 71.5037 32.6553C72.3354 31.7397 73.3462 30.9267 74.3995 30.2802C75.487 29.6135 76.662 29.0645 77.8787 28.6816C78.5187 28.4799 79.1745 28.3197 79.837 28.2096ZM93.0012 29.7192C94.0895 28.1277 96.7945 28.4328 98.3904 28.8582C100.391 29.3912 102.56 30.4692 103.963 32.0297C105.22 33.4276 103.34 35.2438 101.926 34.0675L101.549 33.7546L101.307 33.5562C100.222 32.6697 99.1479 31.8673 97.8254 31.2762C96.2754 30.5835 94.7045 30.2461 93.0654 29.8769C93.0012 29.8625 92.9637 29.7751 93.0012 29.7192Z" fill="#333333"/>
<path fill-rule="evenodd" clip-rule="evenodd" d="M76.4986 65.3477C77.9245 62.0077 81.0353 59.5527 84.617 58.6543C87.2478 57.9968 90.0078 58.0185 92.6895 58.2793C94.0936 58.4151 95.6011 58.526 96.9245 59.0477C98.0553 59.4935 98.977 60.3368 99.6695 61.326C100.494 62.4985 101.054 63.8401 101.449 65.2151C101.504 65.411 101.557 65.6076 101.606 65.806C101.435 66.8435 101.071 67.7268 100.11 68.3785C99.1728 69.016 98.0545 69.2768 96.9395 69.3693C96.8303 69.3168 96.7245 69.2627 96.6278 69.2068C94.8903 68.2118 93.667 65.8602 91.4736 66.1785C89.5161 66.4627 88.2278 68.9268 87.0636 70.371C83.3278 70.8068 79.5945 69.6835 76.5545 67.546C76.4003 66.8151 76.3911 66.0768 76.4986 65.3477ZM104.145 62.8135C103.846 61.9751 103.47 61.1618 103.024 60.3968C101.549 57.8651 99.2845 55.8477 96.5961 54.6943C90.2361 51.971 82.0078 53.891 76.872 58.3585C75.1178 59.886 73.3436 62.1302 72.807 64.5443C72.647 64.576 72.4961 64.6593 72.3711 64.7768C68.6611 62.4393 64.8395 60.191 61.8495 56.9518C59.6786 54.5977 58.1678 51.8118 57.2428 48.751C57.1678 48.4993 56.7611 48.536 56.7736 48.8152C56.777 48.8802 56.7803 48.9451 56.7845 49.0101C56.7453 48.8901 56.5628 48.9518 56.5486 49.0685C56.0511 52.7868 55.4286 56.7293 56.002 60.4668C56.3445 62.6976 57.3578 64.3301 58.7111 66.0935C60.162 67.9835 61.8036 69.741 63.4828 71.4268C64.5486 72.4968 65.6611 73.731 66.9661 74.516C68.4836 75.4277 70.2045 76.1202 71.8245 76.8235C73.4711 77.541 75.1436 78.2043 76.847 78.7793C80.2528 79.9318 83.7728 80.7293 87.3545 81.0785C90.222 81.3568 93.4995 81.6602 96.2478 80.581C98.3536 79.7543 100.054 78.2593 101.403 76.4601C102.871 74.5018 104.031 72.2702 104.673 69.9177C105.339 67.4735 104.286 63.2076 104.145 62.8135Z" fill="#333333"/>
</svg>
