<svg width="132" height="200" viewBox="0 0 132 200" fill="none" xmlns="http://www.w3.org/2000/svg">
<path fill-rule="evenodd" clip-rule="evenodd" d="M64.6879 63.3572C67.0537 62.7022 69.7737 62.7781 72.2012 62.9456C74.6662 63.1164 77.3112 63.4081 79.6245 64.3289C81.6354 65.1297 83.3312 66.4756 84.3645 68.4048C85.2145 69.9898 85.6129 71.7289 85.862 73.4956C85.9645 74.2181 86.0495 74.9431 86.1312 75.6681L86.2987 77.1772C86.3637 77.7539 86.4212 78.1864 86.5354 78.8306C86.8529 80.6106 87.2954 82.0981 88.282 83.3939C90.672 86.5298 94.5754 87.5797 98.1245 88.9181C100.395 89.7747 102.194 91.3156 102.693 93.7914C103.175 96.1797 121.478 116.217 123.275 117.906L123.324 117.952C124.718 119.208 124.554 121.567 124.749 123.291C124.958 125.138 125.156 126.987 125.345 128.836C125.729 132.593 126.07 136.355 126.37 140.119C127.543 154.842 128.075 169.616 127.961 184.386L127.955 185.221C127.937 187.096 127.951 188.978 127.867 190.851C127.786 192.651 127.242 194.451 125.575 195.391C124.03 196.263 122.078 196.186 120.352 196.273L120.249 196.278C118.396 196.38 116.544 196.463 114.69 196.531C107.158 196.811 99.6179 196.841 92.0812 196.806C77.1287 196.737 62.1612 196.408 47.2226 197.246C43.4147 197.459 31.2749 196.162 27.4789 196.531C23.8508 196.885 26.9639 198.665 24.7224 198.547C17.3513 198.161 10.3594 196.516 3.29711 194.535C2.41486 194.287 1.74019 193.431 1.75136 192.505C1.88252 182.336 2.16944 172.169 2.61786 162.009C3.01736 152.959 3.54378 143.914 4.19678 134.878C4.48069 130.951 4.78844 127.025 5.12002 123.101L5.26361 121.42C5.45094 119.251 5.55869 117.043 5.98494 114.905C6.40661 112.79 7.36311 110.956 8.75011 109.317C9.99461 107.847 24.0853 96.3381 27.4789 94.1597C30.7272 92.0739 34.1381 90.3148 37.4728 88.3814C38.8601 87.5773 40.1925 87.8664 41.3778 86.8797C42.0026 86.3589 51.0687 82.8531 53.5154 81.6956L53.587 81.6614C55.4595 80.7631 57.182 79.7889 58.4762 78.2347C58.9095 77.7139 59.7604 74.4322 59.7612 73.3839C59.7645 71.5114 59.6229 69.5381 60.187 67.7239C60.8629 65.5548 62.4904 63.9656 64.6879 63.3572ZM68.6987 111.65L54.212 139.873H63.632L56.8795 155.556H71.7087L66.4487 177.521L96.5312 139.873H85.242L96.5312 125.051H88.7012L96.5312 112.498L68.6987 111.65Z" fill="white"/>
<path fill-rule="evenodd" clip-rule="evenodd" d="M117.364 127.521C117.33 127.554 117.295 127.587 117.262 127.622C117.3 127.568 117.334 127.511 117.364 127.456V127.521ZM89.2087 119.299C87.9079 120.961 86.5312 124.345 85.2671 126.037C85.0862 126.281 84.9079 126.523 84.7321 126.768C84.2071 127.502 84.9079 128.626 85.7704 128.579C87.4946 128.487 89.2162 128.359 90.9379 128.228C87.4012 132.171 84.4646 137.07 81.2162 141.247C80.9962 141.527 80.7796 141.81 80.5629 142.091C79.7404 143.164 80.5646 143.65 81.6879 143.361C81.9204 143.301 82.1529 143.241 82.3854 143.183C84.0187 142.764 85.6512 142.345 87.2846 141.927C88.1879 141.695 89.0962 141.408 90.0121 141.23C90.3887 141.158 90.7496 141.217 91.1054 141.237C90.9346 141.497 90.6954 141.968 90.6471 142.04C90.1137 142.871 89.5771 143.699 89.0362 144.523C87.9837 146.126 86.9254 147.727 85.8287 149.3C81.5504 155.432 76.9362 161.287 72.3621 167.196C71.2112 168.682 70.0437 170.153 68.8571 171.61C68.8621 171.601 68.8654 171.592 68.8712 171.583C69.9396 169.501 71.0087 167.421 72.0771 165.34C74.1087 161.384 76.1212 157.417 78.1737 153.472C78.2796 153.266 78.3871 153.062 78.4946 152.856C78.9204 152.039 78.2212 151.19 77.3462 151.362C73.0779 152.204 68.8504 153.237 64.6754 154.461C64.4879 154.662 64.2112 154.721 63.9646 154.672C63.7971 154.722 63.6287 154.771 63.4612 154.821C63.5121 154.716 63.5646 154.611 63.6154 154.506C63.4454 154.358 63.3604 154.129 63.4712 153.842C65.8737 147.641 69.1671 141.655 73.0696 136.172C72.9121 136.176 72.7554 136.177 72.5979 136.182C68.3146 136.298 64.1121 136.913 59.9837 138.081C59.9646 137.698 60.1954 137.107 60.3204 136.825C60.8204 135.7 61.3937 134.601 61.9312 133.492C63.0296 131.217 64.1279 128.943 65.2271 126.668C66.3004 124.445 67.3654 122.216 68.3762 119.961C68.9062 118.779 69.4362 117.596 69.9646 116.412C70.3954 115.449 70.7354 114.478 71.0929 113.492C72.1421 113.801 85.6154 113.867 88.8904 114.095C89.6929 114.151 90.4979 114.201 91.3021 114.246C91.9429 114.283 92.8462 114.424 93.2879 113.844L93.4554 113.985C92.0012 115.725 90.6071 117.513 89.2087 119.299ZM36.6051 86.9689C36.6719 86.9389 36.7371 86.9097 36.8022 86.8797C36.8357 86.9272 36.8761 86.9714 36.9184 87.0147C37.0241 87.1222 37.1279 87.2389 37.2371 87.3447C37.0258 87.2206 36.8146 87.0956 36.6051 86.9689ZM130.767 185.95C130.645 183.384 130.51 180.817 130.365 178.251C130.08 173.236 129.786 168.22 129.394 163.211C128.596 153.061 127.853 142.914 126.658 132.801C126.156 128.561 125.455 124.354 124.753 120.144C124.843 120.063 124.935 119.982 125.024 119.903C124.927 121.055 126.49 121.784 127.265 120.636C127.323 120.549 127.38 120.463 127.436 120.373C128.107 119.288 129.652 113.966 129.545 113.515C129.351 112.703 128.813 111.981 128.392 111.266C128.024 110.641 127.652 110.015 127.275 109.396C126.524 108.153 125.75 106.924 124.938 105.721C123.256 103.231 121.418 100.839 119.253 98.7489C117.011 96.5822 114.44 94.8014 111.783 93.1864C110.506 92.4114 109.19 91.7089 107.848 91.0531C106.524 90.4089 105.075 89.6956 103.649 89.3289C103.568 89.3081 103.485 89.4206 103.56 89.4806C103.938 89.7806 104.334 90.0622 104.737 90.3331C103.645 89.9547 102.52 89.6814 101.386 89.5847C99.1912 88.8131 96.9696 88.1072 94.7846 87.3022C92.6362 86.5097 90.5204 85.6181 89.0929 83.7406C87.8729 82.1364 87.1012 80.1722 86.5079 78.2597C85.8571 76.1514 85.5979 73.9606 84.9954 71.8489C84.9479 71.6781 84.6687 71.6589 84.6312 71.8489C84.2021 74.0647 84.2212 76.5547 84.4662 78.7914C84.7229 81.1372 85.3829 83.4397 86.8196 85.3472C88.4887 87.5647 90.7529 88.7989 93.3004 89.7839C95.3546 90.5797 97.4362 91.3897 99.5396 92.1014C99.2654 92.2814 98.9871 92.4606 98.7004 92.6314C97.5596 93.3097 96.3729 93.9122 95.1596 94.4531C92.9446 95.4406 90.6121 96.1806 88.2654 96.7814C83.8971 97.8939 79.4187 98.4597 74.9146 98.5339C65.9046 98.6831 56.7937 96.7956 48.5522 93.1497C46.2317 92.1231 43.9658 90.9939 41.7229 89.8081C41.0222 89.4381 40.318 89.0647 39.6172 88.6814C39.6754 88.6781 39.7352 88.6722 39.7933 88.6672C41.3585 88.5189 42.9042 88.2181 44.4183 87.7914C47.5187 86.9164 50.4904 85.5514 53.4096 84.2072C55.8846 83.0681 58.4346 81.7697 59.9462 79.3956C60.7546 78.1264 61.1262 76.6364 61.4271 75.1781C61.7637 73.5539 62.1596 71.9231 62.4046 70.2831C62.4904 69.7089 62.3621 68.9322 61.7454 68.6614C61.4996 68.5531 61.2971 68.4656 61.0204 68.4656C60.4096 68.4656 59.7829 68.9097 59.6362 69.5189C59.2754 71.0389 59.0571 72.6006 58.7737 74.1364C58.5296 75.4647 58.3054 76.8506 57.5887 78.0181C56.3371 80.0631 53.8829 81.1097 51.8096 82.1047C49.1806 83.3656 46.5504 84.5947 43.8197 85.6181C42.6172 86.0689 41.3936 86.4781 40.1525 86.8122C40.2017 86.5081 40.1595 86.1872 39.9799 85.9456C39.6806 85.5481 39.3408 85.2839 38.9553 84.9789C38.5362 84.6481 37.9729 84.4756 37.4781 84.6214C37.4781 84.6231 37.4764 84.6214 37.4764 84.6214C37.2757 84.5772 37.0539 84.5947 36.825 84.6989C36.1172 85.0231 35.4113 85.3506 34.7053 85.6839C24.5486 90.4639 14.6806 96.0781 7.20707 104.629C6.12957 105.862 5.12082 107.159 4.1754 108.495C3.25632 109.793 2.11898 111.202 1.86548 112.812C1.8444 112.946 2.03981 113.007 2.07323 112.87C2.13306 112.621 2.21407 112.379 2.31448 112.143C2.1049 112.876 2.11723 113.654 2.41307 114.42C2.7634 115.321 3.40598 115.919 4.21765 116.156C3.40248 119.731 2.8549 123.351 2.41481 127.013C1.78273 132.288 1.33382 137.576 0.995818 142.876C0.319734 153.456 0.0186488 164.089 0.236982 174.688C0.298566 177.684 0.400733 180.681 0.555649 183.675C0.633066 185.171 0.71765 186.666 0.814483 188.164C0.909483 189.636 0.832066 191.258 2.11548 192.035C2.13132 192.093 2.14898 192.15 2.16482 192.207C2.4764 193.294 3.86548 192.946 3.99582 191.959C3.99757 191.949 3.99931 191.936 4.00106 191.926C5.0504 191.125 4.8919 189.79 4.81448 188.509C4.73173 187.126 4.64365 185.746 4.56973 184.365C4.4289 181.716 4.30915 179.067 4.20173 176.416C3.99223 171.175 3.87432 165.926 3.83557 160.681C3.75807 150.189 4.36373 139.713 5.08207 129.251C5.38307 124.875 5.73523 120.517 5.84265 116.142C6.40423 115.85 6.57673 115.019 6.29506 114.459C12.9465 118.999 19.119 124.427 24.075 130.736C24.9025 131.79 25.693 132.875 26.45 133.979C26.6965 134.338 26.9306 134.711 27.1666 135.085C26.9376 136.126 26.7599 137.184 26.5275 138.183C26.0486 140.246 25.8461 142.385 25.5715 144.481C25.0134 148.738 24.6208 153.034 24.2881 157.314C23.6331 165.766 23.1472 174.216 22.994 182.693C22.9095 187.487 22.7968 192.311 23.0081 197.104C22.8514 198.041 23.6947 198.956 24.5767 199.075C25.3496 199.179 26.0715 198.777 26.4095 198.131C28.818 198.43 31.2898 198.567 33.6824 198.585C36.906 198.608 40.1296 198.605 43.3531 198.536C49.8022 198.395 56.2496 198.23 62.6962 198.037C75.5912 197.657 88.4854 197.275 101.381 196.892C104.957 196.786 108.533 196.681 112.109 196.576C113.721 196.528 115.732 196.993 117.003 195.748C117.221 195.533 117.39 195.281 117.51 195.011C117.89 195.106 118.357 195.013 118.607 194.719C119.073 194.168 119.416 193.657 119.399 192.893C119.383 192.177 119.186 191.424 119.084 190.716C118.89 189.386 118.704 188.056 118.525 186.725C118.175 184.093 117.848 181.459 117.547 178.822C116.93 173.431 116.37 168.027 115.935 162.618C115.068 151.922 114.823 141.17 114.853 130.441C114.857 129.481 114.862 128.521 114.867 127.561C114.908 127.612 114.952 127.659 115 127.7C115.038 127.733 115.077 127.766 115.115 127.802C115.566 128.198 116.316 128.403 116.857 128.027C117.52 127.598 117.978 126.953 118.495 126.371C119.04 125.759 119.6 125.164 120.165 124.572C121.26 123.427 122.392 122.33 123.547 121.245C123.64 121.159 123.734 121.071 123.827 120.986C123.834 124.401 123.83 127.815 123.922 131.228C124.06 136.298 124.334 141.364 124.585 146.427C125.085 156.454 125.603 166.477 126.101 176.502C126.24 179.301 126.373 182.101 126.511 184.9C126.582 186.301 126.65 187.701 126.718 189.101C126.753 189.858 126.788 190.617 126.823 191.375C126.862 192.188 126.811 193.058 127.085 193.831C127.71 195.6 130.411 195.85 130.93 193.831C131.256 192.566 131.006 191.1 130.948 189.8C130.889 188.518 130.829 187.234 130.767 185.95Z" fill="#333333"/>
<path fill-rule="evenodd" clip-rule="evenodd" d="M82.8094 81.4055C78.9019 81.428 75.5802 80.3189 73.0461 78.4839C69.8836 77.3555 66.0694 75.6155 63.7527 73.7897C62.8486 74.0197 61.7677 73.0597 61.0761 72.553C56.7761 69.3405 53.4002 64.638 52.4002 59.928C50.8561 61.878 48.6592 61.9589 46.5544 60.9897C42.1424 58.4872 42.3074 53.2164 43.8957 49.2789C40.5565 41.7833 38.2422 21.9964 43.3396 14.0106C44.3821 12.8158 45.9123 12.1011 47.0139 10.8758C47.9942 9.80563 48.9266 8.71104 50.0669 7.86421C53.5469 5.21463 59.5402 3.80388 63.2936 3.14038C78.9594 -0.247874 90.9961 5.84213 105.186 10.9792C104.369 13.0222 103.24 14.8855 101.945 16.6228C105.468 17.9382 103.85 20.896 101.117 22.3953L99.4894 21.6041C102.026 30.6827 107.864 53.2589 105.345 60.5089C103.336 71.8197 94.5219 81.4872 82.8094 81.4055Z" fill="white"/>
<path fill-rule="evenodd" clip-rule="evenodd" d="M85.0728 82.3788C79.9995 82.9005 73.9711 81.7005 70.5886 77.5772C70.4878 77.453 70.4436 77.3138 70.4411 77.1788C70.4378 77.0288 70.4878 76.8838 70.5753 76.7713C70.667 76.6522 70.797 76.5697 70.9461 76.543C71.072 76.5205 71.2145 76.5347 71.3628 76.618L71.6736 76.7913C73.9836 78.0672 76.3828 79.1563 79.0011 79.6222C81.6961 80.1013 84.4411 80.048 87.1128 79.4388C91.9786 78.3297 95.917 75.4997 98.8161 71.7688C102.051 67.6055 103.994 62.3205 104.489 57.0347C105.089 50.6297 103.697 44.263 102.257 38.0609C100.744 31.5441 99.0895 25.0605 97.1686 18.6522C97.1111 18.4593 97.0953 18.2788 97.112 18.1124C96.5453 17.8903 95.942 17.952 95.342 18.1548C94.2453 18.5252 93.1528 19.3606 92.2411 20.0501C91.9111 20.2998 91.6045 20.532 91.3286 20.7208C90.1986 21.4943 88.9628 22.0508 87.582 22.1384C86.1453 22.2292 84.737 21.7826 83.4328 21.2237C82.7703 20.9397 82.1178 20.6452 81.4686 20.3518C79.6186 19.5164 77.7911 18.6893 75.7936 18.1517C73.1178 17.4312 70.3545 17.0763 67.5828 17.1018C62.637 17.147 57.6753 18.4207 54.6436 22.6058C53.4153 24.3011 52.6153 26.2496 53.2395 28.3418C53.5795 29.48 54.2203 30.5133 54.9195 31.4636L55.1595 31.7873C55.5436 32.3089 55.877 32.8284 55.9778 33.3816C56.062 33.845 55.9961 34.3352 55.6653 34.8725C55.457 35.2108 55.192 35.5141 54.9253 35.8163C54.7336 36.0344 54.5411 36.2521 54.3753 36.4864C54.0411 36.9589 53.7453 37.4678 53.5128 37.9986C53.0586 39.0375 52.8661 40.1551 52.8253 41.2823C52.777 42.6422 52.9678 43.9722 53.1578 45.3047C53.292 46.2488 53.4261 47.1947 53.4803 48.1513C53.4895 48.3188 53.4386 48.443 53.367 48.5355C53.2795 48.648 53.152 48.7188 53.007 48.7388C52.9628 48.7447 52.917 48.7455 52.8711 48.7413C52.8936 48.8338 52.9136 48.9263 52.9303 49.0188C52.8386 48.9005 52.7411 48.7863 52.6378 48.6755C52.6311 48.6722 52.6253 48.6688 52.6186 48.6647C52.512 48.6063 52.422 48.5172 52.3653 48.403C52.2195 48.2672 52.0645 48.1388 51.9028 48.0172C51.0586 47.3872 50.0728 47.0138 49.0843 47.0013C48.1312 46.9897 47.1757 47.3147 46.4411 47.9997C44.9811 49.363 44.5533 51.5872 44.5381 53.4972C44.5226 55.4472 44.9736 57.7872 46.673 58.9972C47.3546 59.483 48.1871 59.7747 49.0258 59.783C49.7211 59.7905 50.3861 59.5438 51.0411 59.3097C51.2436 59.2372 51.4445 59.1655 51.6445 59.1005C51.8728 59.0263 52.0803 59.0305 52.2611 59.0847C52.4653 59.1463 52.6386 59.2722 52.7678 59.4405C52.897 59.6088 52.9811 59.818 53.007 60.038C53.0328 60.2513 53.0036 60.4722 52.9136 60.6713C52.8903 60.7213 52.867 60.7705 52.842 60.818L53.2161 61.433C54.647 63.7805 56.1028 66.0855 58.0128 68.1038C59.1086 69.2622 60.2703 70.3555 61.5445 71.3122L61.7286 71.4488C61.8386 71.5297 61.9603 71.6288 62.0903 71.7355C62.462 72.0397 62.9078 72.448 63.3236 72.4638C63.447 72.4688 63.5545 72.453 63.6528 72.4405C63.8895 72.4088 64.0878 72.4005 64.2836 72.4797C64.4403 72.5438 64.6036 72.6638 64.7703 72.9105C64.8836 73.078 64.942 73.288 64.942 73.5005C64.942 73.7147 64.8828 73.9288 64.7786 74.0972C64.562 74.4472 64.3003 74.6647 64.0161 74.7872C63.6995 74.9247 63.3486 74.9455 62.9853 74.878C62.0886 74.7105 61.0961 73.9672 60.4645 73.483L60.342 73.3888C58.9428 72.3213 57.617 71.1397 56.4503 69.818C54.4653 67.568 52.682 64.9163 51.7661 62.0188C51.1203 62.443 50.3228 62.6447 49.4887 62.6763C48.2737 62.7222 46.9878 62.4097 46.0402 61.9605C43.9519 60.9697 42.6835 59.0955 42.089 56.9405C41.3986 54.438 41.6231 51.5613 42.497 49.3138C42.5223 49.248 42.5487 49.183 42.5759 49.1172C39.8855 42.2978 39.0581 34.7258 39.2886 27.4485C39.3964 24.0422 39.6283 20.4684 40.4316 17.1463C40.7916 15.6573 41.4172 14.2393 42.4161 13.067C42.9856 12.3985 43.6843 11.8782 44.3862 11.3592C44.9942 10.9097 45.6045 10.4612 46.118 9.89992L46.3608 9.63342C46.4135 9.57551 46.466 9.51759 46.5184 9.45976C47.4051 8.48201 48.2686 7.53317 49.3447 6.73126C50.5928 5.80151 51.9703 5.07376 53.4011 4.46942C56.4836 3.16784 59.802 2.38734 63.0845 1.78359C70.1861 0.477589 77.4753 0.413175 84.4903 2.24892C87.7511 3.10234 90.9161 4.27051 94.0761 5.43726C94.3695 5.54559 94.6628 5.65392 94.9561 5.76192C97.4111 6.66634 99.8678 7.56692 102.324 8.46751C103.466 8.88609 104.608 9.30459 105.749 9.72359C105.998 9.8145 106.24 10.0103 106.378 10.2538C106.513 10.4912 106.553 10.7681 106.444 11.0438C105.744 12.8193 104.86 14.4851 103.784 16.0408C104.158 16.2951 104.476 16.6334 104.717 17.0294C105.021 17.5303 105.201 18.1232 105.214 18.7523C105.254 20.8588 103.339 22.2869 101.749 23.3198C101.6 23.4162 101.454 23.4731 101.312 23.4992C102.852 29.3918 104.327 35.3044 105.58 41.2639L105.666 41.677C106.957 47.9138 107.79 54.2788 106.569 60.5988C105.518 66.0405 103.076 71.293 99.2603 75.3472C95.5203 79.3205 90.5028 81.8213 85.0728 82.3788ZM51.6628 46.5005C50.9986 44.3913 50.6461 42.0963 50.9003 39.9583C51.0603 38.6143 51.4645 37.3205 52.122 36.1359C52.4986 35.4575 52.9578 34.8294 53.4586 34.2378L53.632 34.0392C53.7195 33.9377 53.8061 33.8444 53.8328 33.7275C53.8486 33.6596 53.8328 33.5853 53.792 33.4965C53.7003 33.2998 53.5303 33.1103 53.3711 32.9254C53.2703 32.8078 53.1711 32.6924 53.0878 32.5802C51.632 30.6083 50.5461 28.2608 50.8995 25.7603C51.2436 23.3207 52.842 21.0466 54.5436 19.3328C58.2895 15.5591 64.0986 14.6919 69.187 14.9001C72.1486 15.0212 75.1061 15.5434 77.927 16.4557C79.3178 16.9057 80.6778 17.4537 81.9995 18.0817L82.2928 18.2223C82.4503 18.2988 82.6078 18.3762 82.7661 18.4537C83.7995 18.9604 84.8361 19.4723 85.9578 19.7478C88.1478 20.2858 89.6336 19.1527 91.1953 18.0099C91.7303 17.6183 92.2736 17.2212 92.8511 16.8728L92.9703 16.8024C94.012 16.1983 95.2578 15.7917 96.4553 15.8098C97.4953 15.8258 98.4978 16.1578 99.3153 16.9428C99.4828 17.1041 99.5795 17.28 99.6245 17.4551C99.7145 17.5818 99.7878 17.733 99.8353 17.9115C100.128 19.0098 100.419 20.1089 100.709 21.2083L100.947 21.0553C101.65 20.5983 102.414 20.0763 102.759 19.3118C102.893 19.0177 102.874 18.5275 102.706 18.1671C102.648 18.0412 102.57 17.9293 102.464 17.8594C102.385 17.8085 102.292 17.7847 102.183 17.7935C101.918 17.8276 101.674 17.7888 101.468 17.7016C101.23 17.601 101.04 17.4354 100.917 17.236C100.791 17.0318 100.734 16.7916 100.764 16.5425C100.791 16.3284 100.884 16.1048 101.065 15.8946C102.265 14.5114 103.275 12.9856 104.043 11.3293L98.9645 9.44967C97.1536 8.77976 95.3428 8.11076 93.5303 7.44434L92.5386 7.07967C89.2436 5.87067 85.9303 4.68926 82.5037 3.91092C75.6945 2.36417 68.5936 2.72767 61.8028 4.18359L61.3928 4.27234C58.5428 4.89392 55.6553 5.64601 53.0395 6.95326C51.7561 7.59484 50.5353 8.37509 49.4876 9.36084C49.0248 9.79617 48.6064 10.2728 48.1878 10.7488C47.6012 11.4158 47.014 12.0811 46.3165 12.643L45.6691 13.1616C44.7061 13.9379 43.8373 14.6943 43.2939 15.8983C42.7257 17.157 42.4545 18.5476 42.2331 19.9024C41.6751 23.3155 41.4548 26.7832 41.4758 30.2403C41.5114 36.045 42.3929 41.7316 43.5066 47.398C44.4001 46.1188 45.6553 45.1272 47.2663 44.9155C48.3166 44.778 49.3579 44.9738 50.2611 45.438C50.7828 45.7063 51.2586 46.0647 51.6628 46.5005ZM49.9751 53.393C48.7986 52.9372 47.5635 52.788 46.3189 53.0063C46.1885 53.0288 46.0641 53.0013 45.9596 52.9405C45.8536 52.8788 45.7701 52.7813 45.7247 52.6738C45.6724 52.5497 45.6696 52.4155 45.716 52.2955C45.7561 52.1922 45.8326 52.0913 45.9731 52.0238C47.3209 51.3805 48.8188 51.0963 50.3053 51.2988L50.4528 51.3197C51.2128 51.4322 52.282 51.6697 53.0828 52.1372C53.7128 52.5038 54.1736 53.0097 54.2886 53.6705C54.3486 54.0155 54.2628 54.3747 54.0645 54.6355C53.8728 54.8872 53.5795 55.0555 53.1995 55.0447C52.5295 55.0255 52.1336 54.7422 51.6561 54.3755C51.5986 54.3313 51.5386 54.2855 51.477 54.2397C51.0161 53.8947 50.5128 53.6013 49.9751 53.393Z" fill="#333333"/>
<path fill-rule="evenodd" clip-rule="evenodd" d="M78.012 61.5389C79.2887 61.2922 80.8771 61.8297 82.1512 62.0647L82.2454 62.0814C83.7895 62.3514 85.3304 62.678 86.8921 62.8372C88.3829 62.9897 89.9046 63.0164 91.3954 62.8455C92.1112 62.763 92.8212 62.6222 93.5162 62.4347C93.8137 62.3539 94.1087 62.2639 94.4004 62.1647L94.4337 62.1522C94.6479 62.063 95.2271 61.7297 95.2204 61.9155C95.3829 61.728 95.607 61.5947 95.8537 61.5297C96.2012 61.438 96.6471 61.5239 96.9379 61.7697C97.3162 61.4705 97.8837 61.6855 98.1379 62.0439C98.5729 62.6597 98.4312 63.3814 98.3746 64.0955L98.3704 64.158C98.3221 64.8314 98.2495 65.5005 98.1595 66.168L98.1196 66.4547C97.9796 67.443 97.9404 69.0731 96.7437 69.3964C95.7971 69.653 94.9304 68.6789 94.3204 67.9055L93.9862 67.4772C93.5904 66.9747 93.2312 66.458 92.942 65.8872C92.8104 65.6272 92.6829 65.3614 92.572 65.0914C92.5587 65.0572 92.5479 65.0272 92.5379 64.9964C90.782 65.2322 88.9846 65.1989 87.2246 64.9664C86.1104 64.8197 85.0121 64.6072 83.9312 64.3222L83.4429 65.2039C82.8721 66.233 82.2929 67.258 81.6846 68.2639L81.6371 68.3405C81.0679 69.2472 80.1137 70.1555 78.9854 69.4764C77.9762 68.868 77.9329 67.4855 77.827 66.4539C77.7562 65.7639 77.6987 65.0705 77.6704 64.3772L77.6604 64.0797C77.6429 63.408 77.5329 62.6289 77.7912 62.0005C77.8287 61.9089 77.9604 61.838 78.0396 61.9347C78.5796 62.5905 78.7429 63.608 78.9754 64.4139C79.2354 65.3097 79.6112 66.2881 79.7462 67.2181L79.7837 67.1522C79.9162 66.8997 80.0521 66.6489 80.1879 66.398L80.5962 65.6455C80.9629 64.9664 81.3362 64.2914 81.7129 63.618C81.2829 63.4572 80.8571 63.283 80.4329 63.1072L79.4704 62.7047C78.9204 62.4722 78.3596 62.2097 77.9462 61.7872C77.8729 61.7122 77.8987 61.5605 78.012 61.5389ZM96.272 64.0197C95.3237 64.4055 94.3429 64.6839 93.3446 64.8689C93.4087 64.9347 93.4729 65.0005 93.5329 65.0697C93.7679 65.3422 94.0171 65.6039 94.2679 65.8622L94.4187 66.0164C94.8029 66.4114 95.3796 67.0605 95.9687 67.438L96.0004 67.2672C96.0054 67.238 96.0096 67.213 96.0121 67.193L96.0746 66.633C96.0846 66.5389 96.0946 66.4455 96.1037 66.3522C96.1546 65.8472 96.1954 65.3405 96.2371 64.8347C96.2596 64.568 96.2645 64.2939 96.272 64.0197ZM85.0487 31.4602C87.3079 30.495 89.9887 30.9507 91.9337 32.4086C93.9246 33.9005 94.7954 36.3262 94.9104 38.7461C96.4854 37.4012 98.7529 38.4192 100.079 39.6795C101.609 41.1337 102.383 43.328 102.026 45.4114C101.67 47.4872 100.17 49.318 98.1379 49.9355C97.1654 50.2314 96.082 50.238 95.1045 49.963C94.7729 49.8697 94.3654 49.7247 93.9896 49.523C94.0112 49.6097 94.0329 49.6955 94.0537 49.7822C94.5412 51.848 94.8179 54.1697 94.0862 56.213C92.9095 59.4955 88.7304 61.333 86.1212 58.4197C85.0962 57.2755 84.3004 55.4839 84.3621 53.9239C84.3946 53.1047 84.8587 52.1564 85.8171 52.2122C86.5596 52.2547 86.9121 52.8772 86.7221 53.5355L86.7104 53.573C86.3079 54.8314 86.9954 56.6497 87.9921 57.508C89.5196 58.8247 91.6162 57.6789 92.4512 56.1355C93.4254 54.3372 93.3071 52.0305 92.9954 50.0739C92.6896 48.1522 92.0079 46.3947 91.2845 44.6164C91.2079 44.6305 91.1304 44.6439 91.0504 44.6539C89.6121 44.8497 86.6845 44.923 85.0954 43.8805C85.2654 45.4897 84.9304 47.1464 84.0171 48.5089C82.9987 50.028 81.4645 50.8314 79.6787 51.0772C77.9445 51.3172 75.9346 51.3655 74.2221 50.9547C70.5762 50.0789 69.2904 45.5764 70.3937 42.3255C71.0454 40.4028 72.8654 38.6734 74.8887 38.2366C75.9312 37.5508 77.3304 37.3477 78.5337 37.4412C80.3296 37.5812 82.0996 38.3578 83.3021 39.7215C83.7621 40.2425 84.1404 40.8324 84.4312 41.4635C84.5296 41.3865 84.6437 41.3285 84.7721 41.2982C84.9737 41.251 85.1496 41.2405 85.3462 41.3098C85.4446 41.3445 85.5862 41.4671 85.6712 41.5467L85.8654 41.775C86.1037 42.0526 86.3296 42.2855 86.7537 42.4581C87.9362 42.9395 89.5387 43.044 90.7946 42.9455C93.9987 42.6947 93.5954 38.4489 92.8062 36.2675C91.8712 33.6835 89.1921 32.076 86.4654 32.5349C85.2946 32.732 84.1771 33.3556 83.3196 34.1705C82.3629 35.0805 81.9529 36.1795 81.3787 37.3311C81.3446 37.3993 81.2271 37.3845 81.2129 37.3093C80.7412 34.8809 82.9779 32.345 85.0487 31.4602ZM67.9821 51.0389C67.8854 50.9247 68.0129 50.7239 68.1521 50.818C69.1737 51.5122 70.3096 52.013 71.5437 52.1489C72.1237 52.2122 72.7087 52.2164 73.2862 52.1272C73.7779 52.0514 74.222 51.9014 74.7129 52.0372C74.9745 52.1089 75.022 52.413 74.862 52.603C74.1204 53.4864 72.2929 53.2505 71.2971 53.0139C70.0087 52.7072 68.8412 52.048 67.9821 51.0389ZM102.35 49.4255C102.852 49.1147 103.449 49.7297 103.152 50.2272C102.391 51.503 100.185 51.6072 98.9046 51.3014C98.8046 51.278 98.8271 51.1205 98.9287 51.123C99.6646 51.1414 100.33 51.0005 100.963 50.6164C101.505 50.288 101.828 49.7497 102.35 49.4255ZM77.8854 39.2279L77.7854 39.2287C76.6146 39.2475 75.5429 39.694 74.4154 39.93C74.3212 39.9498 74.2279 39.9397 74.1429 39.9087C72.7696 40.8255 71.8229 42.2669 71.6937 44.1639C71.6054 45.4772 71.9254 46.9089 72.7054 47.9864C73.5929 49.2139 75.0229 49.403 76.4304 49.4397L76.5737 49.443C79.2354 49.4947 82.1637 49.3372 83.1121 46.3605C83.8146 44.1572 83.0646 41.483 81.1087 40.1632C80.1587 39.5223 79.0246 39.2268 77.8854 39.2279ZM99.3287 40.8079L99.2512 40.7167C98.2071 39.5185 96.552 38.4271 94.9195 39.0305L94.9246 39.2324C94.9254 39.266 94.9254 39.2997 94.9254 39.3334C94.9204 41.6473 94.0246 43.8064 91.8212 44.4855C92.4121 45.3289 92.887 46.2647 93.267 47.2364C93.4012 47.1489 93.5646 47.093 93.7546 47.0739C94.5296 46.9955 94.9746 47.7239 95.647 47.9955C96.2762 48.2505 96.9904 48.3164 97.6546 48.1847C99.1087 47.8972 100.129 46.643 100.486 45.2514C100.89 43.678 100.356 42.0282 99.3287 40.8079ZM77.1971 42.7553C77.682 41.936 78.8779 42.0546 79.3579 42.7769L79.3804 42.813L79.3862 42.8062C80.1845 43.8414 79.7987 45.4764 78.6387 46.0589C77.7087 46.5255 76.5262 46.403 75.9079 45.4947C75.7687 45.2914 75.6804 45.0514 75.6479 44.8089C75.6254 44.6439 75.6379 44.4789 75.6754 44.3147L75.6654 44.3539C75.6837 44.2705 75.7129 44.1414 75.7204 44.1097C75.802 43.7764 75.9987 43.418 76.2437 43.1761C76.4962 42.927 76.847 42.7755 77.1971 42.7553ZM97.1212 41.9042C97.5504 41.9042 97.9312 42.0839 98.242 42.3687C98.6829 42.774 98.7446 43.3572 98.6496 43.9105C98.6196 44.0797 98.5796 44.243 98.5379 44.4089L98.5012 44.5597C98.4954 44.5847 98.4887 44.6097 98.4804 44.6339C98.4546 44.7372 98.4121 44.8314 98.3621 44.9222C98.1787 45.6055 97.4354 45.9455 96.7796 45.7964C96.4712 45.7264 96.1637 45.4697 96.0062 45.2014C95.9545 45.113 95.9187 45.0247 95.8929 44.9364L95.7654 44.6339C95.7412 44.5614 95.7262 44.483 95.7071 44.4089C95.6646 44.243 95.6229 44.0797 95.5937 43.9105C95.4921 43.3389 95.5729 42.7966 96.0004 42.3687C96.2879 42.081 96.7154 41.9042 97.1212 41.9042ZM87.6637 35.9717C88.4087 35.8717 89.1679 36.219 89.5529 36.8775C89.8879 37.45 89.8862 38.2201 89.5529 38.7925L89.5246 38.841C88.9104 39.8953 87.4779 40.0305 86.6162 39.216L86.5746 39.1765C86.0204 38.6529 85.8954 37.7845 86.182 37.1042C86.4445 36.4821 86.9945 36.0617 87.6637 35.9717Z" fill="#333333"/>
<path fill-rule="evenodd" clip-rule="evenodd" d="M106.031 50.933C103.894 53.143 100.326 53.7772 97.482 52.5922C90.1795 49.5397 93.7536 40.0203 99.3853 37.4638C100.089 37.2884 101.029 36.8722 101.885 36.7779C101.963 36.7398 102.131 36.8499 102.336 36.7458C108.545 37.4394 109.959 47.0822 106.031 50.933ZM82.4786 51.4989C80.082 54.6797 75.6245 55.6614 71.9828 54.1822C64.7886 51.348 67.3403 42.9066 72.2628 39.5972C82.6603 35.6888 86.9536 45.6339 82.4786 51.4989ZM66.8836 44.4505C66.877 44.4472 66.8703 44.4463 66.8636 44.443C66.9011 44.4263 66.9395 44.4097 66.977 44.3922C66.9653 44.4247 66.9511 44.4563 66.9395 44.4888C66.9211 44.4755 66.9045 44.4605 66.8836 44.4505ZM110.98 41.0122C110.394 41.0134 109.545 41.1099 109.059 41.5173C107.861 37.4747 103.439 33.7333 99.592 36.4614C96.5628 37.4359 94.3153 39.5972 93.0378 42.4704C90.7345 41.0999 87.1128 41.6851 85.1153 43.498C83.807 39.1736 80.5878 37.6594 76.7561 37.4359C72.5736 36.7506 68.4053 40.814 67.1045 44.0738C66.0228 43.9505 64.407 43.6064 63.3895 44.2739C56.7861 42.5416 45.2411 41.5865 43.8986 42.549C42.942 42.9163 42.417 45.1755 43.7532 45.2972C44.9176 45.1313 43.6173 43.6422 44.7911 43.4797C51.0453 43.0915 57.1161 44.3513 63.3045 44.8805C63.857 45.6238 65.642 45.8722 66.5945 45.5739C65.0945 51.103 68.332 54.8655 73.1828 55.9922C80.6953 57.718 87.2303 50.9963 85.2661 44.0038C87.542 42.8713 90.1595 42.9199 92.6378 43.5163C88.4953 58.7672 113.048 58.083 109.214 42.0399C111.765 43.3097 112.319 41.2684 110.98 41.0122Z" fill="#333333"/>
</svg>
