<svg width="50" height="145" viewBox="0 0 50 145" fill="none" xmlns="http://www.w3.org/2000/svg">
<path fill-rule="evenodd" clip-rule="evenodd" d="M49.2363 142.102C49.5762 140.522 48.0214 139.988 47.0411 139.637C46.339 139.182 43.7376 137.608 41.7247 135.666C40.0775 134.076 38.9563 132.038 38.4895 131.844C38.4895 131.844 38.009 131.565 37.9592 131.359C37.6669 130.148 37.9108 129.02 37.9592 128.286C38.8963 128.04 39.6471 127.734 40.2087 127.306C40.3724 127.36 40.6179 127.43 40.6912 127.191C41.1987 123.812 41.4177 120.472 41.8307 117.09C43.3936 104.21 43.57 89.1618 40.881 77.3971C40.8527 76.8139 40.9037 76.2873 40.9558 75.7863C41.3195 75.7471 41.5394 75.3958 41.8362 75.1859C42.2971 74.8204 42.8426 74.5396 42.82 73.9007C42.9297 73.818 42.9169 73.7716 42.8629 73.6662C43.2144 72.1577 41.6466 70.5681 41.2031 69.3245C42.0093 61.4569 40.9125 54.0224 41.5243 46.1529C42.2971 45.8301 41.7776 43.8132 41.7247 42.9812C41.2967 37.6216 38.5049 32.3225 33.4775 30.5715C33.1901 30.5136 32.7583 30.1857 32.5205 30.4058C32.0608 30.2241 31.4494 30.5823 31.0936 30.1698L31.0973 30.1672C30.7978 29.7528 30.6636 29.2258 30.5652 28.7277C30.5816 28.868 30.6091 29.0073 30.6429 29.1434C29.7761 26.7058 29.5579 26.0539 26.7677 25.9392C25.5109 25.9223 23.8543 25.9599 23.1215 27.1563C22.8212 27.7125 22.913 28.351 22.7264 28.9364C22.3843 30.0103 20.9076 29.4913 20.1324 30.0492C13.9275 32.0353 8.83784 36.0894 7.16492 42.5964C6.82291 43.3805 6.43501 44.1612 6.14908 44.9705C6.10482 45.0908 5.9831 45.4972 6.27546 45.6843L6.41685 45.7748C4.55441 54.4621 4.43084 61.7826 10.6879 67.5742C11.1575 70.0627 9.94955 73.4612 10.4139 75.8775C10.1493 76.2521 10.4848 76.554 10.823 76.578C10.8556 76.5961 10.9874 76.6537 11.0234 76.6701C10.4851 84.254 12.7451 94.4746 13.7413 98.5086C13.8768 100.931 13.0485 102.92 11.3446 104.24C9.46188 105.398 5.73983 110.624 6.42985 116.107C5.62346 116.264 4.82291 116.351 4.04927 116.654C0.664208 116.057 0.69777 122.57 0.482077 124.86C0.116778 128.694 -0.110265 134.251 3.53949 136.705C4.501 137.401 6.45057 138.216 7.44961 137.102C7.77697 136.71 7.85897 136.33 7.73017 135.93C9.37986 133.604 8.9353 130.561 9.08683 127.833C9.56521 127.804 10.0657 128.028 10.5285 127.946C11.0035 127.529 9.27073 127.643 9.09102 127.618C9.10943 127.197 9.14334 126.754 9.18711 126.33C9.45889 126.384 9.80704 126.515 10.0684 126.525C10.2231 126.562 10.3324 126.35 10.239 126.239C10.035 126.045 9.51503 126.076 9.22238 126.048C9.27179 125.693 9.33222 125.32 9.39937 124.976C9.75739 124.963 10.1271 125.191 10.466 125.144C10.2095 124.973 9.72791 125.026 9.41517 124.913C9.61854 123.807 10.0329 122.757 10.4182 121.722C11.3635 122.112 12.179 122.127 13.1016 122.01C13.4791 122.068 13.6632 121.991 13.7243 121.52L13.7003 121.49C14.4317 117.122 16.7918 112.958 21.1759 108.236C22.0418 107.269 23.0204 106.13 23.6723 104.857C24.9824 102.207 25.2062 99.2833 26.2157 96.5316C27.1583 93.7657 28.4469 91.12 29.6569 88.4981C29.8343 89.8418 30.0727 91.2203 30.3205 92.5379C31.4109 97.2072 31.3051 102.189 30.5027 106.884C29.3152 113.46 29.8876 120.067 29.6236 126.69C29.627 127.072 29.6746 127.419 29.6185 127.816C29.611 127.847 29.6254 127.883 29.6618 127.882L29.7304 127.884C30.3011 128.301 31.0893 128.376 31.7598 128.603C32.0415 128.825 31.9622 129.177 31.988 129.452C32.0616 130.637 32.1558 131.826 32.0388 133.047C31.5214 134.036 30.8788 133.832 30.7474 135.227C30.6323 136.819 30.4287 138.513 31.2059 139.931L30.9118 139.981C30.4754 140.895 30.7419 141.488 31.7673 141.875C36.8299 143.856 43.9534 145.654 49.2363 144.159C49.3323 144.254 49.4719 144.155 49.5811 144.006C49.686 143.863 49.7627 143.672 49.7456 143.562C49.6553 143.077 49.7796 142.191 49.2363 142.102Z" fill="white"/>
<path fill-rule="evenodd" clip-rule="evenodd" d="M49.4776 143.688C44.9284 145.726 36.668 143.154 32.1981 141.666C30.9929 141.232 30.5914 141.147 30.9291 139.76C31.5608 140.977 32.9198 141.271 34.2216 141.515C38.6317 142.518 43.1276 144.371 47.8438 143.467C48.536 143.358 49.2211 142.984 49.4224 142.294C49.5465 142.586 49.4698 142.982 49.5195 143.304C49.5288 143.432 49.5317 143.571 49.4776 143.688ZM31.0788 136.105C31.1609 135.288 31.2923 134.424 31.7586 133.702C31.7079 134.87 32.4107 136.855 33.9507 136.194C34.387 135.963 34.6315 135.499 34.912 135.126C35.8448 133.898 37.0408 132.832 38.3921 132.058C39.1437 132.187 39.4669 133.559 39.9514 134.133C39.4113 134.373 38.4325 134.92 38.3337 135.486C39.008 135.26 39.6288 134.838 40.336 134.69C40.5624 135.002 40.8026 135.305 41.0549 135.597C40.7254 135.742 39.3969 136.412 39.4056 136.747C40.1239 136.63 40.8199 136.279 41.5422 136.135C41.8634 136.453 42.1557 136.795 42.4755 137.114C41.9924 137.313 41.4822 137.534 41.2184 137.997C41.206 138.018 41.2369 138.042 41.2538 138.021C41.6157 137.586 42.2383 137.506 42.7779 137.408C43.6058 138.186 44.5329 138.873 45.5705 139.386C46.6085 139.953 48.1863 140.082 48.5992 141.311C48.9298 142.54 47.8993 142.671 46.9486 142.758C45.9869 142.894 45.0183 142.915 44.0629 142.835C41.076 142.711 38.2525 141.833 35.4299 141.067C31.9788 140.433 30.8591 139.919 31.0788 136.105ZM32.0907 128.92C32.0824 128.974 32.0753 129.028 32.0675 129.083C32.0578 129.025 32.0511 128.968 32.037 128.911C32.0549 128.914 32.0728 128.917 32.0907 128.92ZM37.6663 131.664C36.344 132.64 35.0533 133.727 34.135 135.089C33.5272 136.196 32.7186 135.522 32.5177 134.635C32.3547 132.654 32.4949 130.944 32.3041 128.951C34.1325 129.2 36.0108 129.047 37.7967 128.606C37.5817 129.496 37.483 129.834 37.4763 130.746C37.4879 131.047 37.4837 131.414 37.6663 131.664ZM40.6259 58.7605C40.6651 61.6757 40.6835 64.592 40.582 67.5062C38.0105 60.8735 38.7975 53.6763 38.4323 46.7048C39.1923 46.4521 40.0085 46.3417 40.7917 46.2337C40.4772 50.561 40.5584 54.4265 40.6259 58.7605ZM26.0937 73.4886C19.7799 70.476 18.9065 62.7518 13.9073 58.4963C13.7458 58.3431 13.6122 58.1855 13.5343 57.9998C13.8927 54.3854 13.8666 51.2167 14.2903 47.6063C14.7637 46.7491 14.9508 45.7536 15.3033 44.8416C15.4878 44.2861 15.712 43.736 15.765 43.1531C15.8096 42.9613 15.5092 42.8779 15.453 43.0591C14.7861 44.3532 14.4541 45.7921 13.9561 47.1565C13.886 47.1844 13.7928 47.1622 13.7652 47.089C13.7609 47.1069 13.756 47.1246 13.7517 47.1425C11.6082 46.3065 9.39826 45.5281 7.0631 45.5338C7.06459 45.5264 7.06652 45.5189 7.06799 45.5116C6.92397 45.5159 6.62206 45.5043 6.71239 45.2962C8.76495 37.826 12.4503 32.7057 20.2679 30.2735C19.2683 36.0698 33.8156 36.4052 33.6146 31.0101C39.0946 33.3598 41.4554 39.9594 40.8342 45.5159C40.3133 45.3757 38.9573 45.9275 38.4285 46.2483C38.3207 43.9919 38.5884 41.2691 38.4309 39.2515C37.597 49.5384 36.0411 61.8474 41.1834 71.1812C41.5172 71.807 42.0615 72.4057 42.0481 73.1404C42.0882 73.1811 42.092 73.2519 42.0432 73.3039C42.0432 73.3072 42.0432 73.3106 42.0428 73.3141C42.0404 73.3145 42.0373 73.3145 42.0345 73.3145C41.8854 73.4919 41.5713 73.5271 41.3553 73.5661C40.8452 73.6688 40.3086 73.7469 39.8413 73.9831C34.8644 76.5908 30.9606 73.2293 26.0937 73.4886ZM27.6668 78.2286C27.9072 78.6869 28.3112 79.0559 28.7898 79.2863C28.7308 79.4019 28.7107 79.5321 28.7044 79.6541C27.8421 79.83 28.0846 80.2383 27.5021 80.4331C27.1209 80.5383 26.7541 80.583 26.4248 80.8135C25.3034 81.8558 25.0254 81.7791 23.822 80.8621C23.8385 80.7793 22.2009 79.183 21.6936 78.2907C21.2709 77.5464 20.8283 76.7966 20.1806 76.221C17.0083 72.9795 13.6287 69.92 10.5578 66.5888C4.40351 60.4685 5.57782 53.5289 6.99132 45.8842C9.27282 46.1562 11.5669 46.7023 13.6215 47.7051C12.8968 51.0792 12.8504 54.1377 12.5384 57.5616C12.4442 57.9849 12.5504 58.8 13.1515 58.612C18.6754 62.9889 19.3174 71.9834 26.5662 74.5844C29.5207 75.7828 28.274 76.7557 29.2501 79.0187C28.7129 78.9204 28.2339 78.4711 28.0028 78.0411C27.8885 77.8275 27.5551 78.0154 27.6668 78.2286ZM10.9697 75.5731C10.8446 74.7156 10.9422 73.8617 10.948 73.0027C10.8809 71.4383 10.9331 69.9133 10.9935 68.3436C12.7257 70.1346 14.5265 71.8648 16.2955 73.6227C14.4116 73.8598 12.2388 74.0551 10.9697 75.5731ZM10.9379 76.8349C10.9675 76.8251 10.9964 76.8121 11.0228 76.7962C11.0161 77.4693 11.0267 78.1422 11.0515 78.8142C11.0041 78.1548 10.9665 77.4947 10.9379 76.8349ZM8.81871 124.673C8.31056 124.634 6.13717 124.559 5.87637 124.9C6.17009 125.024 6.57387 124.955 6.8898 124.969C7.50336 124.994 8.11541 125.048 8.72262 125.134C8.67716 125.37 8.63611 125.606 8.60233 125.843C7.98981 125.901 6.79705 125.928 6.40824 126.355C7.10187 126.466 7.82407 126.366 8.52017 126.504C8.48634 126.828 8.46171 127.153 8.44341 127.477C8.16608 127.506 6.53528 127.776 6.53673 128.032C7.14727 128.113 7.79411 128.006 8.41635 128.067C8.28153 130.011 8.73857 135.882 6.07583 136.242C3.74791 136.119 2.72671 132.354 2.41035 130.547C1.70888 126.339 1.82921 121.851 3.21948 117.795C3.71604 116.666 5.06772 116.471 6.21067 116.412C6.25409 116.603 6.29707 116.791 6.34538 116.98C5.84976 118.101 5.69183 119.364 5.67827 120.577C5.78308 122.321 7.93953 123.618 9.50564 122.466C9.2129 123.18 8.98687 123.922 8.81871 124.673ZM5.73823 137.221C1.12728 136.231 0.370783 130.902 0.687712 126.984C0.94612 124.256 0.635558 118.505 3.15858 116.903C-0.102139 119.873 0.180984 140.097 7.40719 136.567C7.22699 137.137 6.30047 137.302 5.73823 137.221ZM6.64193 118.207C6.65013 118.136 6.65926 118.067 6.66892 117.996C7.18049 119.383 8.05679 120.701 9.36161 121.504C8.86206 122.126 7.88916 122.311 7.23266 121.802C6.08779 120.946 6.56512 119.396 6.64193 118.207ZM22.3589 29.6005C22.3497 29.6163 22.34 29.6324 22.3304 29.6476C22.2666 29.6521 22.2025 29.6578 22.1372 29.6651C22.2112 29.643 22.2851 29.6222 22.3589 29.6005ZM31.1211 30.1096C31.1186 30.1023 31.1162 30.0951 31.1142 30.0884C31.1201 30.0917 31.1258 30.0955 31.1321 30.0994C31.1274 30.1023 31.1243 30.1057 31.1211 30.1096ZM49.9253 142.844C49.9127 142.499 49.9078 142.053 49.503 141.931C49.6867 140.444 48.4499 139.598 47.1516 139.186C46.0442 138.51 44.7888 138.037 43.7714 137.223C44.2439 137.134 44.7164 137.027 45.136 136.822C45.4529 136.667 45.3004 136.152 44.9568 136.2C44.3486 136.28 43.8023 136.588 43.2309 136.803C42.9063 136.537 42.5918 136.259 42.2946 135.965C42.6646 135.893 43.1353 135.92 43.3507 135.553C43.4179 135.438 43.388 135.32 43.3068 135.231C42.9319 134.852 42.1889 135.23 41.7233 135.341C41.4995 135.084 41.2837 134.821 41.0716 134.556C41.4232 134.523 42.3382 134.587 42.159 134.008C41.8156 133.555 41.0768 133.827 40.5803 133.92C39.9504 133.147 39.7474 131.961 38.7629 131.536C38.7277 131.348 38.4824 131.363 38.3186 131.418C38.0776 130.27 38.0959 129.686 38.1665 128.509C38.8973 128.307 39.6223 128.041 40.2301 127.607C40.5093 127.689 40.8478 127.594 40.906 127.267C41.0797 126.113 41.1767 124.782 41.2986 123.604H41.3431C41.5744 121.455 41.7609 119.299 42.0227 117.156C43.5216 104.766 43.8483 89.6422 41.0734 77.4011C41.0518 76.9374 41.0846 76.4732 41.1314 76.0129C41.4623 75.9246 41.6594 75.602 41.9334 75.4155C42.4425 75.0014 42.9604 74.7695 43.0072 74.0468C43.1101 73.9489 43.1221 73.8008 43.0658 73.6727C43.1976 72.9307 43.0033 72.1941 42.6077 71.553C42.174 70.8226 41.7644 70.0854 41.4025 69.319C42.1937 61.5928 41.1204 54.1049 41.7072 46.3403C42.4598 45.9426 41.9875 43.7326 41.9175 42.996C41.4778 38.1582 39.2146 32.8165 34.4028 30.8042C34.065 30.5199 33.5937 30.4234 33.181 30.2668C32.9023 30.1299 32.4487 30.0113 32.2579 30.3299C32.0555 30.2359 31.4038 30.1641 31.1807 30.0012C31.1392 29.9707 31.1125 29.9375 31.1062 29.9003C31.09 29.9009 31.0706 29.8974 31.0497 29.8932C30.844 29.6029 30.6477 27.5814 30.3943 27.7256C30.1175 28.4199 30.3093 29.2042 30.5739 29.9052C30.7566 30.5251 31.0068 32.1199 31.9768 31.712C32.144 31.6292 32.0405 31.4136 31.8908 31.3963C31.4309 31.2651 31.3286 30.5906 31.1508 30.1954C31.3613 30.3699 32.3208 30.6317 32.4255 30.6871C34.5066 35.4541 21.924 35.2039 20.9348 31.9175C20.2294 30.782 20.8382 30.1669 22.0957 29.9847C21.1714 31.0097 22.3414 31.2373 22.7863 30.232C23.212 29.5122 23.4056 28.6377 23.2602 27.8095C23.3351 27.5188 23.3985 27.1303 22.9626 27.2084C22.9478 27.1697 22.924 27.2 22.9333 27.2277C22.7743 27.4803 22.8849 27.8432 22.8284 28.1349C22.7806 28.6123 22.6449 29.0799 22.4144 29.5022C21.9869 29.5836 21.5613 29.6708 21.1376 29.7664C20.8836 29.251 19.2354 30.2788 18.7928 30.3998C12.9143 32.1329 8.444 36.7486 6.88372 42.5703C6.53543 43.3455 6.15955 44.1245 5.87453 44.9239C5.747 45.2701 5.747 45.6995 6.09723 45.9237C4.39054 53.7372 3.97414 61.8777 10.4217 67.7381C10.5681 68.3725 10.4705 69.0456 10.4662 69.6916C10.5202 71.1629 9.26037 76.2057 10.7236 76.8579C10.2961 83.3903 11.8995 92.2788 13.4535 98.5807C13.5685 100.747 12.9139 102.717 11.1522 104.084C7.80247 106.583 6.39141 110.754 5.99965 114.73C5.9441 115.137 5.9987 115.552 6.09051 115.952C5.36441 116.087 4.68479 116.175 3.97994 116.44C0.092664 115.697 0.36999 124.032 0.0724255 126.505C-0.160455 130.161 -0.0150602 134.544 3.35145 136.938C4.48329 137.742 6.48128 138.515 7.58417 137.297C7.89618 136.924 8.06627 136.488 7.94353 136.012C9.52462 133.701 9.1512 130.748 9.26956 128.119C9.68354 128.133 10.1347 128.317 10.5425 128.216C10.8565 128.133 10.8966 127.731 10.6309 127.571C10.2473 127.354 9.72605 127.436 9.29709 127.422C9.31018 127.17 9.32902 126.919 9.35319 126.667C9.76037 126.766 10.3439 127.005 10.4652 126.437C10.514 125.92 9.85938 125.88 9.45172 125.858C9.48023 125.663 9.51211 125.469 9.54833 125.275C9.8604 125.306 10.1898 125.505 10.4966 125.41C10.6705 125.341 10.7308 125.166 10.6038 125.024C10.3676 124.793 9.96373 124.839 9.65124 124.767C9.84104 123.839 10.1841 122.952 10.5145 122.064C11.1125 122.271 11.7604 122.408 12.3985 122.356C12.7294 122.287 13.0907 122.267 13.4251 122.312C13.7969 122.213 13.8829 121.817 13.9317 121.493C13.9244 121.481 13.9171 121.47 13.909 121.46C14.7684 116.466 17.8514 112.151 21.3081 108.433C22.2602 107.37 23.1941 106.264 23.8409 105.001C25.1549 102.361 25.3907 99.3905 26.3959 96.6479C27.2427 94.1574 28.3745 91.769 29.4841 89.3774C29.9291 92.5275 30.7598 95.6258 30.8552 98.8203C31 102.862 30.1077 106.844 29.7271 110.853C29.1771 115.093 29.47 119.354 29.4352 123.604H29.4588C29.4499 124.629 29.422 125.698 29.3581 126.72C29.3606 127.093 29.4088 127.445 29.3557 127.819C29.3262 128.026 29.4749 128.155 29.6315 128.16C30.2064 128.536 30.9286 128.67 31.5893 128.831C31.7724 128.971 31.6933 129.315 31.7256 129.525C31.7966 130.709 31.8904 131.602 31.7748 132.795C31.1286 133.749 30.6628 133.597 30.4832 135.047C30.3841 136.56 30.1663 138.197 30.829 139.571C30.5324 139.638 30.4199 140.541 30.4643 140.78C30.5397 141.454 31.1353 141.668 31.7112 141.9C35.919 143.474 44.8602 146.064 49.1842 144.283C49.4938 144.458 49.8392 144.115 49.9393 143.839C50.0717 143.503 49.9499 143.178 49.9253 142.844Z" fill="#333333"/>
<path fill-rule="evenodd" clip-rule="evenodd" d="M35.7722 19.04C35.4405 15.0062 34.4309 11.4334 29.6869 11.281C27.546 11.3001 25.3606 11.754 23.392 12.5938C18.6069 14.9882 17.0886 23.7373 21.3045 27.2593C21.2794 27.2735 21.2733 27.3146 21.3028 27.3343C22.1738 27.9191 23.142 28.4004 24.1117 28.8046C26.6943 29.8944 29.7349 30.3677 32.369 29.1855C36.3887 27.4785 36.4489 22.7288 35.7722 19.04Z" fill="white"/>
<path fill-rule="evenodd" clip-rule="evenodd" d="M43.6844 17.1599C43.8496 17.0114 43.9728 16.8166 44.0351 16.5982C44.0922 16.3991 44.0961 16.1817 44.0357 15.9831C43.971 15.77 43.8313 15.6003 43.8628 15.3785C43.8661 15.3568 43.8705 15.3342 43.8772 15.3115C43.9981 14.894 44.295 14.5927 44.1889 14.1299C44.1588 13.9992 44.1024 13.8816 44.0235 13.789C44.0322 13.6888 44.04 13.5875 44.0463 13.4863C44.2206 13.0789 44.2145 12.5949 44.0284 12.1938C44.0058 11.9884 43.9714 11.785 43.923 11.5849C43.9454 11.408 43.9145 11.2132 43.8575 11.0585C43.7572 10.7862 43.6336 10.5178 43.4993 10.2539C43.515 10.1818 43.5079 10.1055 43.468 10.0377C43.3954 9.9144 43.2996 9.80603 43.2015 9.70012C43.1322 9.57655 43.0624 9.45399 42.9932 9.33305C42.9611 9.27746 42.9257 9.2158 42.8866 9.15047C42.993 8.95349 43.0498 8.76151 42.9373 8.52987C42.895 8.44286 42.7788 8.37868 42.6832 8.38438C42.5785 8.3906 42.4731 8.39528 42.3669 8.39927C42.1686 8.16024 41.9439 7.94567 41.7028 7.82216C41.4589 7.61582 41.2116 7.41333 40.9712 7.20653C40.903 7.1477 40.8343 7.0889 40.7663 7.03007C40.7657 7.02863 40.7653 7.02669 40.7647 7.02525C40.7145 6.84253 40.6581 6.66223 40.6016 6.48097C40.5662 6.36863 40.5556 6.251 40.446 6.18977C40.2169 6.06201 39.8648 6.04177 39.602 6.02007C39.576 5.99694 39.55 5.97428 39.5237 5.95114C39.6431 5.63392 39.6218 5.29694 39.4716 4.97924C39.4204 4.87125 39.2426 4.82255 39.145 4.89391C38.92 5.05879 38.6527 5.11711 38.3885 5.093C38.0002 4.79507 36.4336 3.4478 36.1915 3.3056C36.1884 3.30048 36.186 3.29537 36.183 3.29031C36.0469 3.07347 35.8815 2.89934 35.6958 2.75972C35.6694 2.7321 35.6427 2.70441 35.6163 2.67675C35.6397 2.51144 35.7009 2.35183 35.7997 2.21827C35.8105 2.20285 35.8225 2.1879 35.8345 2.17344C36.0074 1.96808 35.7965 1.70387 35.5548 1.81139C35.5375 1.8191 35.5201 1.82681 35.5028 1.83501C35.3171 1.91763 35.1116 2.00746 34.8976 2.08325C34.8193 2.05398 34.7396 2.02745 34.6668 1.99824L33.8873 1.6855C33.759 1.63402 33.6233 1.59039 33.4992 1.5299C33.4559 1.24261 33.1674 1.05421 32.8678 1.06403C32.8851 1.00889 32.9109 0.955334 32.9474 0.904563C32.9579 0.889613 32.9695 0.87515 32.9815 0.861176C33.1357 0.68232 32.9299 0.350644 32.7096 0.509729C32.6941 0.520815 32.6782 0.5319 32.6628 0.542986C32.6016 0.585844 32.5389 0.626058 32.4755 0.66501C32.3742 0.620851 32.26 0.610782 32.1404 0.657484C31.8758 0.760896 31.6319 0.866037 31.3988 1.02813C31.3895 1.03472 31.3797 1.04028 31.3699 1.0465C31.2544 0.907065 31.0707 0.813843 30.9054 0.81484C30.9021 0.81484 30.8995 0.814799 30.8964 0.814758C30.7727 0.62679 30.5461 0.51754 30.3275 0.544105C30.3421 0.274367 30.0716 0.0336545 29.8253 0.00440457C29.5374 -0.0297272 29.2781 0.137026 29.1916 0.41722C29.1676 0.495226 29.1436 0.573274 29.1196 0.651321C28.8961 0.538755 28.6603 0.452511 28.4138 0.409449C27.8528 0.311387 27.3044 0.415816 26.7638 0.57124C26.7097 0.58676 26.6558 0.602727 26.6019 0.618633C26.5248 0.5295 26.4524 0.438231 26.3832 0.353045C26.264 0.206001 25.9776 0.323632 25.9969 0.512617C26.0104 0.643022 25.9573 0.736854 25.8716 0.80351C25.7779 0.817199 25.6871 0.821349 25.5503 0.818603C25.3694 0.814942 25.2872 0.809307 25.0983 0.735735C25.01 0.701501 24.9004 0.611494 24.8491 0.5307C24.6522 0.22085 24.1522 0.137412 23.914 0.432841C23.6634 0.323347 23.3469 0.474336 23.2078 0.687243C23.135 0.798547 22.9832 0.86079 22.792 0.914306C22.6484 0.954418 22.5016 0.984787 22.3543 1.01135C22.2886 0.922402 22.1501 0.862763 22.0488 0.937352C21.98 0.988021 21.9131 1.04003 21.8474 1.09335C21.3397 1.16315 20.8347 1.16568 20.3505 0.968107C19.9407 0.800825 19.5644 1.2577 19.6319 1.64126C19.5133 1.70292 19.3846 1.74394 19.2672 1.80855C19.0115 1.94961 18.8014 2.17256 18.6735 2.43455C18.6505 2.48146 18.6297 2.52907 18.61 2.57696C18.5144 2.65462 18.4198 2.73435 18.3277 2.81848C18.1739 2.73991 18.0209 2.66133 17.8672 2.58273C17.7522 2.52393 17.5586 2.56489 17.5358 2.71725C17.4986 2.96793 17.4083 3.17573 17.2793 3.34976C16.8601 3.56958 16.4567 3.81642 16.0707 4.09073C15.6268 4.22958 15.1547 4.31058 14.7668 4.40168C14.634 4.43303 14.5616 4.60609 14.6364 4.72132C14.7158 4.84328 14.7949 4.96526 14.8736 5.08723C14.6529 5.30225 14.4456 5.52689 14.25 5.75926C13.7056 6.40528 13.25 7.11347 12.8424 7.86361C12.6811 7.9287 12.5196 7.99331 12.3583 8.05838C12.2027 8.12105 12.1327 8.30136 12.2588 8.43393C12.3186 8.49708 12.3723 8.56362 12.4183 8.63353C12.1896 9.01099 11.9205 9.35522 11.5442 9.58084C11.4299 9.6493 11.3439 9.75681 11.2979 9.87877C11.2589 9.9048 11.2202 9.93277 11.182 9.96121C11.0758 10.0413 11.0115 10.2158 11.1362 10.3194C11.2237 10.3927 11.3056 10.4795 11.3752 10.5754C11.3903 10.6299 11.4057 10.6848 11.4212 10.7393C11.0713 11.0604 10.7806 11.4335 10.5622 11.852C10.5106 11.8438 10.4574 11.8491 10.4144 11.8809C10.0241 12.1687 10.0125 12.6272 10.1695 13.037C10.0748 13.6546 10.1357 14.2875 10.3183 14.8858C10.0782 15.1249 9.93376 15.4701 9.87483 15.8028C9.77097 16.3871 9.76373 17.2857 9.73668 17.882C9.47485 18.1342 9.28839 18.4605 9.18453 18.8116C9.09708 18.8549 9.00966 18.8982 8.92222 18.9417C8.84445 18.9802 8.78744 19.0819 8.79228 19.1677C8.81449 19.5829 8.98598 19.9108 9.21351 20.2077C9.29419 20.4366 9.41351 20.6479 9.57001 20.8503C9.67822 20.9892 9.78401 21.1223 9.87725 21.2722C9.88691 21.287 9.89271 21.3011 9.89706 21.3106C9.86035 21.3503 9.8299 21.4158 9.80333 21.4626C9.58016 21.8549 9.57678 22.3148 9.89367 22.6568C9.77435 22.7542 9.77048 22.9509 9.87581 23.0713C10.5613 23.8528 11.1327 24.8029 12.0839 25.2181C12.0884 25.2254 12.0922 25.2325 12.0955 25.2398C11.9028 25.7026 11.8766 25.9432 12.0342 26.4214C12.0351 26.4257 12.0365 26.4296 12.0381 26.4338C12.1221 26.6846 12.2767 27.0862 12.5554 27.1643C12.6432 27.1889 12.7297 27.2001 12.8153 27.1995C13.0364 27.412 13.2573 27.6252 13.478 27.8384C13.4974 27.9439 13.5096 28.0503 13.5134 28.1579C13.5195 28.3377 13.6892 28.4834 13.8718 28.4303C13.9361 28.4116 14.2915 28.0668 14.3567 28.0688C14.3897 28.1016 14.4214 28.1343 14.4534 28.1675C14.5707 28.2905 14.7335 28.4844 14.7471 28.6129C14.7731 28.8554 14.9326 29.1333 15.1901 29.1823C15.2867 29.2803 15.4413 29.3096 15.5597 29.1819C15.5674 29.1737 15.5752 29.1654 15.5833 29.1583C15.5959 29.1569 15.6079 29.1554 15.6205 29.154C15.6775 29.3236 15.7344 29.4933 15.792 29.6625C15.9045 29.9961 16.3345 30.2107 16.6398 30.0158C16.689 30.0453 16.7374 30.0767 16.7856 30.108C16.8591 30.1548 16.9335 30.2026 17.0098 30.2473C17.0141 30.2599 17.0185 30.2723 17.0224 30.2843C17.0716 30.4345 17.2765 30.5148 17.4026 30.4286C17.4416 30.4412 17.4817 30.4513 17.5224 30.4595C17.7353 30.5014 17.9499 30.4898 18.1556 30.419C18.3031 30.3688 18.4436 30.2729 18.6021 30.2599C18.6118 30.2591 18.622 30.2597 18.6322 30.2593C18.7613 30.5237 19.0569 30.7514 19.2896 30.8289C19.5945 30.9302 19.9065 30.8939 20.1842 30.7699C20.2592 30.9194 20.3532 31.0609 20.4657 31.1917C20.5279 31.2641 20.6406 31.2487 20.7049 31.1917C20.8267 31.0837 20.9482 30.9753 21.0692 30.8667C21.1569 30.8329 21.2451 30.7927 21.3375 30.755C21.6261 30.6372 21.9424 30.5886 22.2093 30.4186C22.336 30.3378 22.4552 30.2349 22.5535 30.1155C22.7383 30.0091 22.9082 29.8763 23.0612 29.7242C23.1376 29.7248 23.2172 29.7069 23.2945 29.6678C23.6177 29.5039 23.7877 29.1703 23.8028 28.829C24.0646 28.2143 24.2192 27.5587 24.2617 26.8876C24.2751 26.6673 24.2775 26.445 24.2606 26.2247C24.2491 26.0695 24.21 25.9658 24.151 25.8254C24.1313 25.7797 24.1134 25.7378 24.0993 25.6916C24.1028 25.5431 24.1046 25.3946 24.1067 25.2465C24.1467 25.1217 24.2181 25.0055 24.3176 24.9077C24.4718 24.7563 24.5424 24.4419 24.4022 24.2549C24.3109 24.1339 24.2202 24.0129 24.1288 23.8919C24.1545 23.3726 24.279 22.5463 24.0027 22.4595C24.0139 22.3824 24.0375 22.3063 24.0509 22.2296C24.1158 21.8612 24.0772 21.5319 23.8809 21.2099C23.84 21.143 23.8052 21.0836 23.7767 21.0258C23.7588 20.9197 23.7409 20.8137 23.723 20.7075C23.6956 20.5442 23.6685 20.3792 23.6453 20.2134C23.6331 20.0023 23.6222 19.7912 23.6099 19.5794C23.599 19.3848 23.5864 19.1899 23.5733 18.9946C23.5786 18.9074 23.5864 18.8201 23.5973 18.7328C23.6636 18.2127 23.8766 18.0203 24.2458 17.6588C24.3038 17.6497 24.3611 17.6395 24.4177 17.6279C24.6809 17.5734 24.9563 17.4892 25.2272 17.5195C25.5216 17.5523 25.7848 17.679 26.0708 17.5171C26.1548 17.4689 26.3399 17.3358 26.3557 17.2303C26.3568 17.2235 26.3582 17.2177 26.36 17.2134C26.3799 17.2105 26.4056 17.2081 26.4214 17.2076C26.6484 17.1999 26.8655 17.2891 27.0943 17.2645C27.3655 17.2356 27.6079 17.1155 27.7674 16.9376C27.9716 16.9877 28.1803 17.0104 28.3925 16.9825C28.5702 16.9593 28.7295 16.9015 28.8871 16.8156C29.0015 16.7539 28.9653 16.7361 29.0899 16.7862C29.3735 16.901 29.63 17.0524 29.9493 16.9738C30.1151 16.9333 30.2579 16.8441 30.3783 16.7241C30.4068 16.6961 30.455 16.6541 30.4876 16.6146C30.6391 16.6913 31.0207 16.8643 31.0835 16.8798C31.2613 16.9231 31.4497 16.9164 31.6228 16.8585C31.7497 16.8161 31.9053 16.7004 32.0168 16.6768C32.1614 16.6459 32.482 16.8465 32.6545 16.9154C32.9569 17.0364 33.2773 17.0663 33.5834 16.9415C33.6888 16.8986 33.8936 16.7274 33.9723 16.7289C34.1003 16.8865 34.4579 17.749 34.5651 18.0638C34.9993 19.3366 35.1118 23.3105 34.9115 24.3243C34.9037 24.3542 34.8954 24.3835 34.8873 24.4134C34.6409 25.2952 34.3844 26.192 33.9723 27.0133C33.5834 27.7877 33.0458 28.4848 32.2743 28.9075C31.4743 29.3462 30.5354 29.4616 29.6359 29.4022C29.0566 29.3645 28.487 29.2484 27.9267 29.1027C27.634 29.0271 27.3437 28.9427 27.0549 28.855C26.9287 28.817 26.8006 28.7814 26.6769 28.7368C26.4587 28.6583 26.3441 28.652 26.135 28.7529C25.9447 28.8444 25.8958 29.1149 25.9949 29.285C26.1562 29.5626 26.452 29.582 26.7373 29.6629C27.0282 29.7455 27.3199 29.8244 27.6136 29.8954C28.1764 30.0303 28.7484 30.134 29.3253 30.1818C30.358 30.2681 31.4222 30.135 32.3624 29.6851C32.4685 29.634 32.5709 29.5795 32.6699 29.5207C32.6333 29.5718 32.5961 29.6231 32.5584 29.6737C32.4541 29.8139 32.5314 30.0525 32.6776 30.1291C32.724 30.1533 32.7704 30.1765 32.8174 30.1991C32.8237 30.214 32.8304 30.229 32.8381 30.2439C32.972 30.5119 33.2521 30.6702 33.5376 30.7385C33.8767 30.8195 34.2563 30.7621 34.6013 30.752C34.921 30.7424 35.241 30.7328 35.5601 30.7231C35.6356 30.7213 35.7108 30.7188 35.7863 30.7164C36.1659 30.7048 36.5452 30.6938 36.9244 30.6822C37.2624 30.672 37.2466 30.6981 37.5639 30.563C37.7055 30.5024 37.8214 30.4166 37.919 30.3022C37.9799 30.2752 38.0388 30.2445 38.0954 30.2093C38.277 30.0964 38.4383 29.9451 38.587 29.7783C38.8397 29.8578 39.1938 29.784 39.2432 29.4673C39.3223 28.9606 39.9822 28.7441 40.2904 28.3778C40.5391 28.0823 40.7169 27.6952 40.7077 27.3233C41.3349 27.0207 41.6758 26.2227 41.7555 25.546C41.7927 25.2321 41.787 24.8961 41.8405 24.5769C41.8643 24.5513 41.8855 24.5245 41.9034 24.4954C42.0608 24.2413 42.1981 23.9795 42.3187 23.7116C42.4831 23.5935 42.6806 23.5206 42.8875 23.5086C43.3956 23.4791 43.4912 22.7951 43.0067 22.6301C43.0042 22.6293 43.0024 22.6287 42.9999 22.6279C43.1313 22.3 43.1202 21.9119 42.9609 21.6015C42.9676 21.5677 42.9739 21.5344 42.9802 21.5006C43.2522 21.2089 43.4082 20.8035 43.3907 20.4087C43.515 20.3215 43.6541 20.2539 43.8063 20.212C44.0414 20.1473 44.0428 19.8611 43.8691 19.7328C43.7989 19.6811 43.741 19.6209 43.6928 19.5544C43.813 19.1938 43.7656 18.7768 43.5196 18.4808C43.6759 18.2813 43.8319 18.0815 43.9879 17.882C44.0912 17.75 44.1457 17.5258 43.9879 17.4004C43.8868 17.3199 43.7859 17.2399 43.6844 17.1599Z" fill="#333333"/>
<path fill-rule="evenodd" clip-rule="evenodd" d="M30.7999 26.3671C30.4752 26.2349 30.1854 26.0144 29.9736 25.7326C29.9 25.6346 29.8809 25.5313 29.8963 25.4367C29.9136 25.3303 29.9767 25.2339 30.0627 25.1692C30.149 25.1043 30.257 25.0724 30.3611 25.0887C30.4518 25.1029 30.5419 25.1523 30.6135 25.255L30.6284 25.2756C30.7543 25.4456 30.9184 25.5852 31.1054 25.6751C31.2856 25.7617 31.4872 25.8022 31.6959 25.7786C32.0931 25.7339 32.3669 25.5195 32.658 25.2284C32.694 25.1916 32.73 25.1535 32.7664 25.1151C32.7892 25.0801 32.8211 25.0577 32.8563 25.0459C32.8956 25.0329 32.9399 25.0335 32.9804 25.0478C33.0196 25.0614 33.0546 25.0872 33.078 25.1216C33.1004 25.1544 33.113 25.1948 33.1089 25.2412C33.0823 25.5429 32.9242 25.8122 32.6997 26.0237C32.4503 26.2585 32.1198 26.421 31.8086 26.4779C31.4656 26.5408 31.1164 26.4958 30.7999 26.3671ZM31.9703 21.7119C32.335 21.9332 32.8909 22.4492 32.4985 22.9978C32.0366 23.4815 31.3714 22.9268 31.0437 22.676C30.7399 22.4816 30.3983 22.9816 30.6805 23.2086C33.0485 24.9585 34.0096 21.7699 32.1548 21.4517C31.9505 21.4167 31.8747 21.6435 31.9703 21.7119ZM27.7264 19.6764C27.7669 19.1772 28.5286 19.0637 28.6045 19.5578C28.6724 20.0004 28.5925 20.407 28.3927 20.8055C28.2019 21.1861 27.7221 21.0085 27.6859 20.6619C27.6373 20.1973 27.7014 19.987 27.7264 19.6764ZM33.5263 19.4555C33.6327 19.3166 33.7861 19.2218 33.9698 19.2753C34.544 19.4427 34.3747 20.2563 34.173 20.6521C34.0635 20.8671 33.7094 20.9217 33.5493 20.7323C33.2883 20.4237 33.1635 19.8072 33.4952 19.5029C33.5042 19.4872 33.5141 19.4714 33.5263 19.4555ZM28.3846 17.4918L28.4753 17.4759C28.7558 17.4275 29.1047 17.381 29.3032 17.6061C29.4084 17.7255 29.4448 17.9472 29.3032 18.0615C29.0542 18.2625 28.7792 18.1846 28.4808 18.2017C28.2351 18.2157 27.9989 18.2564 27.7622 18.3239C27.2427 18.472 26.8196 18.7426 26.376 19.0395C26.3178 19.0784 26.2584 19.0041 26.2861 18.9498C26.5421 18.4492 27.0385 18.0382 27.5356 17.7874C27.8008 17.6537 28.0911 17.5427 28.3846 17.4918ZM33.003 17.2675L33.0725 17.2817C33.8278 17.4393 34.8092 17.754 35.167 18.4946C35.1806 18.5994 35.1662 18.6217 35.1544 18.6364L35.1505 18.6413C35.141 18.6537 35.1332 18.671 35.0877 18.6852C35.0751 18.6823 35.0625 18.6791 35.0494 18.6756C34.8855 18.6329 34.7557 18.5737 34.6302 18.5125L34.4939 18.4456C34.3361 18.3683 34.1766 18.2936 34.0078 18.2387C33.6474 18.1213 33.2765 18.0388 32.9 17.9946C32.8183 17.9851 32.7398 17.9576 32.6777 17.9104C32.6189 17.8657 32.574 17.8038 32.5534 17.7214C32.527 17.6151 32.5345 17.5343 32.5919 17.4383C32.6348 17.3661 32.6964 17.3161 32.7672 17.2874C32.8392 17.2581 32.9214 17.2512 33.003 17.2675Z" fill="#333333"/>
<path fill-rule="evenodd" clip-rule="evenodd" d="M34.4737 23.944C34.1551 23.8842 33.8258 23.901 33.5095 23.8315C33.2007 23.7635 32.9556 23.5618 32.6574 23.4678C32.395 23.385 32.0873 23.4411 31.8829 23.6014C31.6931 23.5138 31.4773 23.4948 31.2613 23.5239C30.9336 23.5677 30.6278 23.706 30.3362 23.8557C30.3022 23.873 30.2684 23.8897 30.2347 23.9063C29.6954 23.8929 29.1426 23.8939 28.6135 24.0093C28.1451 24.1114 27.702 24.3491 27.4225 24.7464C27.1099 25.1908 27.0536 25.7569 27.0054 26.2823C26.9746 26.6157 27.4386 26.6832 27.5959 26.4418C27.759 26.1916 27.9286 25.9406 28.1459 25.7333C28.3926 25.4976 28.6928 25.4048 29.0291 25.3835C29.7715 25.3359 30.5188 25.3757 31.2619 25.343C31.6927 25.3239 32.1723 25.1585 32.3458 24.7848C32.5311 25.0747 32.951 25.247 33.2963 25.273C33.6615 25.3007 34.0319 25.2346 34.3933 25.3105C34.7385 25.3829 35.1488 25.6396 35.0721 26.0498C35.0269 26.2909 35.3322 26.4331 35.4728 26.2185C36.0466 25.342 35.4811 24.1329 34.4737 23.944Z" fill="#333333"/>
</svg>
