<svg width="50" height="134" viewBox="0 0 50 134" fill="none" xmlns="http://www.w3.org/2000/svg">
<path fill-rule="evenodd" clip-rule="evenodd" d="M48.9002 65.3657C50.1257 65.3931 49.6002 53.9592 48.7818 51.8522C48.6672 51.4253 48.5726 50.8418 48.5916 50.3177C49.6037 50.419 49.4948 49.7262 49.4425 48.8909C49.4597 48.2275 49.5058 46.859 48.4907 47.3919C45.4473 41.299 48.7379 25.5486 40.7247 24.065C39.7592 23.8305 38.7613 23.5879 37.9482 22.9185C37.0881 21.3283 36.65 21.1251 35.2246 21.0223C34.9605 19.59 34.4672 18.0599 32.997 17.5026C31.6509 16.975 30.0843 16.9331 28.6807 17.2144C27.519 17.5934 27.4126 19.7529 27.1546 20.8175C25.5899 20.4026 23.6616 19.5299 22.8193 21.5082C22.4112 21.3863 22.0333 21.4655 21.6187 21.601C18.1437 22.161 14.7724 23.7329 13.4836 27.0129C12.6874 28.9812 13.2524 31.1239 13.551 33.1625C13.8295 35.3822 13.0952 37.4386 12.7548 39.5738C12.248 42.5139 12.1564 44.8721 12.4871 47.0575C11.6129 47.2563 11.5485 48.0514 11.9022 48.8833C12.006 49.1649 12.1106 49.4617 12.3403 49.621C12.8074 49.9151 13.4112 49.5761 13.9189 49.5242C14.0245 50.6984 14.229 51.8502 14.5673 53.1596C14.4693 53.5515 14.357 53.9892 14.256 54.3828L14.222 54.3458C13.0629 59.2008 9.61564 63.9168 10.6871 69.0767C10.75 69.2486 10.8696 69.2129 10.9614 69.2098C11.4933 69.4122 11.9818 69.2838 12.5181 69.3044C13.7903 69.3052 15.0194 69.4682 16.1596 69.61C16.368 70.9715 17.0456 73.2006 18.254 73.7198C18.2744 73.7267 18.6326 73.652 18.6625 73.6499C15.4456 86.6939 9.6574 98.7556 7.35821 112.063C7.34459 112.225 7.60882 112.139 7.6955 112.159C7.68365 112.528 7.92223 112.617 8.2563 112.748C7.82579 113.648 7.43799 114.547 7.00944 115.449C6.81071 115.896 6.48685 116.337 6.42783 116.815C5.95339 117.118 5.63384 117.71 5.6423 118.264C4.3629 118.804 4.71063 121.475 4.41874 122.798C4.12359 124.769 2.7197 126.145 1.75711 127.761C1.56094 128.086 1.35205 128.511 1.34278 128.918C0.746044 129.198 0.523529 129.809 0.563009 130.837C0.560893 132.041 0.900356 132.499 1.81571 132.528C4.30198 132.777 7.20323 132.676 9.70393 132.393C11.5746 132.155 13.2323 132.353 12.8141 130.105C12.728 129.561 12.8933 128.828 12.5713 128.387C12.3727 127.076 12.4882 125.755 12.9164 124.46C13.1767 123.369 13.6165 121.117 13.4343 119.653C13.35 118.976 11.9682 118.604 11.725 118.571C11.8024 118.061 11.7683 117.171 11.4942 116.817C11.9976 116.747 12.1241 116.614 12.229 116.054C12.4795 115.149 12.5129 114.166 13.1334 113.403C14.2493 113.417 15.3616 113.134 16.477 113.099L16.5324 112.971C17.1921 112.963 17.8481 112.846 18.4743 112.618C18.6132 112.683 18.7907 112.74 18.8688 112.53L19.2413 111.365C23.5772 97.5665 28.3833 83.7346 33.0696 70.0374C33.3432 69.3714 33.6721 68.6635 34.0998 68.07C34.2448 76.451 36.0005 84.823 36.1512 93.1997C36.3549 98.9625 36.3024 104.665 36.8446 110.448C36.9841 111.672 37.1324 111.631 37.3152 111.556C37.3883 111.567 37.5607 111.604 37.6353 111.62C37.5131 112.836 37.3726 114.81 36.851 116.054C35.698 116.232 35.9045 117.117 36.1602 117.85C35.8851 118.085 35.9243 118.633 36.006 118.936C34.9212 118.937 34.6847 119.819 34.7593 120.376C34.8626 121.307 34.8048 122.756 35.4261 123.552C35.7921 124.566 36.3877 125.523 36.6202 126.615C36.7664 127.419 36.71 128.59 36.851 129.387C36.4962 129.551 36.6465 129.808 36.5867 130.305C36.2797 132.58 37.3605 132.194 39.2717 132.35C40.4173 132.603 49.1382 133.107 48.7613 131.593C48.8255 130.977 48.5389 130.706 48.416 130.099C48.361 129.938 47.2746 128.074 46.6264 127.368C44.4528 125.326 44.5478 122.584 44.6166 119.426C44.4889 118.57 43.8304 117.75 42.9902 117.842C43.2314 116.928 42.7843 116.133 41.8499 115.869C41.9432 114.834 42.0415 113.427 42.3832 112.532L42.0613 112.204L42.4922 112.256L42.6352 111.896L42.7912 112.29C43.5306 112.29 44.365 112.126 45.0735 112.049C45.1868 112.055 45.1362 111.902 45.1548 111.842C45.8237 111.704 45.897 111.348 45.7789 110.501C45.9346 96.7483 45.867 83.1243 45.654 69.3457C46.6995 69.3924 47.7191 69.0109 48.7466 68.7568C49.1116 68.986 49.215 68.1702 49.1723 67.994C49.1145 67.0824 49.0017 66.1933 48.9002 65.3657Z" fill="white"/>
<path fill-rule="evenodd" clip-rule="evenodd" d="M27.4281 18.8996C27.5837 19.0224 27.5674 19.3624 27.5827 19.5528L27.5837 19.5654C27.6327 20.1404 27.5665 20.7182 27.4264 21.2766L27.4046 21.3616C27.3376 21.6285 27.271 21.9484 27.0614 22.1314C26.8233 22.3393 26.445 22.2047 26.4365 21.8695C26.432 21.7137 26.4841 21.5636 26.55 21.4177C26.0886 21.5956 25.6274 21.7717 25.1642 21.9433C24.8681 24.3903 28.2865 27.386 30.2657 28.4348C33.1478 30.03 35.5728 27.5864 35.9417 24.7139C36.0039 24.3325 36.0454 23.9402 36.0534 23.5535L36.054 23.5162C36.0556 23.1965 36.0025 22.7688 36.2109 22.5029C36.0575 22.4992 35.9212 22.5207 35.7711 22.5442L35.7783 22.5568C35.8634 22.709 35.9837 23.0875 35.7143 23.1163C35.1324 23.0552 34.8618 22.0354 34.7201 21.5464L34.7145 21.525C34.623 21.1584 34.5064 19.8281 34.7821 19.6686C34.8669 19.9968 34.8336 20.3532 34.9366 20.6825C35.1714 20.777 35.6183 20.8026 35.7219 20.8199C36.9308 20.834 37.6161 21.7017 38.1062 22.7174C39.5427 23.8963 41.6074 23.6937 43.1585 24.6646C47.9049 28.105 46.3547 41.498 48.7189 47.1958C49.1921 47 49.6747 47.3921 49.7378 47.8706C49.8032 48.2387 49.7836 48.6327 49.7889 49.0056L49.791 49.0522C49.8298 49.8147 49.9617 50.6719 48.9315 50.6886C48.9333 51.1143 49.0134 51.5264 49.1163 51.9372C49.6866 54.4249 49.9354 56.987 49.9917 59.5372L49.9944 59.7245C50.013 61.0649 50.0295 65.2115 49.2589 65.7021L49.2948 65.9942C49.3839 66.7246 49.468 67.457 49.515 68.1911C49.5889 68.5722 49.3373 69.4852 48.8238 69.2437C47.8821 69.4764 46.9534 69.8201 45.9748 69.8218C46.2119 77.7091 46.0941 85.6043 46.1292 93.4947C46.0535 99.311 46.368 105.175 46.0931 110.969L46.1031 111.051C46.1807 111.702 46.204 112.267 45.452 112.49C45.4411 112.649 45.3186 112.734 45.1734 112.753C44.7612 112.808 44.349 112.861 43.9364 112.912C43.5519 112.94 43.1407 113.036 42.7575 112.99C42.7945 113.028 42.694 113.034 42.683 113.006C42.3339 113.883 42.2324 114.838 42.146 115.773C42.9938 116.096 43.4565 116.823 43.318 117.734C44.1734 117.769 44.7982 118.719 44.9181 119.52C44.9949 120.073 44.9334 120.622 44.9085 121.176C44.7902 123.068 45.0684 125.107 46.2902 126.616C47.0831 127.564 48.1157 128.421 48.4617 129.655C48.5557 129.699 48.6329 129.783 48.6668 129.916L48.8865 130.777L48.9956 131.208C49.0755 131.522 49.1464 131.844 49.1037 132.169L49.0992 132.2C48.8853 134.259 40.4428 133.267 38.795 133.119C38.1328 133.015 37.4059 133.072 36.8095 132.721C36.0779 132.238 35.9866 131.259 36.112 130.457L36.1226 130.382C36.1733 130.023 36.2478 129.647 36.5881 129.446C36.4737 128.703 36.518 127.943 36.3816 127.202C36.1759 126.155 35.5532 125.246 35.2352 124.24C34.7715 123.725 34.756 122.921 34.659 122.262C34.5855 121.622 34.5254 120.978 34.5007 120.335C34.4333 119.484 34.8026 118.783 35.697 118.671C35.6555 118.51 35.7691 118.371 35.8822 118.268C35.6155 117.321 35.5419 116.02 36.6988 115.697C37.1371 114.611 37.2645 113.433 37.3812 112.275C37.3673 112.272 37.3534 112.269 37.3395 112.267C36.8095 112.488 36.6655 111.543 36.6159 111.044L36.605 110.925C36.0593 105.158 36.1097 99.3567 35.9047 93.5719L35.8847 93.1536C35.7051 89.342 35.5981 85.497 34.939 81.7364C34.2754 77.5449 34.102 73.285 33.8753 69.0497C33.6081 69.4647 33.4644 69.9412 33.2483 70.3834C30.4434 78.6235 27.5655 86.8387 24.7925 95.0898C22.7827 101.064 20.8624 107.07 18.9366 113.071C18.8383 113.379 18.5287 113.442 18.302 113.344C17.7252 113.544 17.12 113.658 16.5107 113.677C16.474 113.762 16.3986 113.823 16.2885 113.811C15.9627 113.776 15.5877 113.877 15.2618 113.915C14.5163 113.989 13.7925 114.104 13.0401 114.114C12.574 114.703 12.5448 115.502 12.3298 116.204C12.2061 116.561 12.2256 117.363 11.7984 117.464C11.9515 117.7 11.9715 117.983 11.9467 118.274C12.0796 118.305 12.2143 118.362 12.3393 118.42C12.4611 118.482 12.6219 118.476 12.7058 118.601C15.0919 119.033 13.3481 123.564 12.9334 125.062C12.5263 126.287 12.3988 127.567 12.5846 128.846C12.8685 129.238 12.7735 129.821 12.8169 130.286C12.8398 130.701 12.8818 131.122 12.878 131.537C12.8316 133.262 10.7016 132.982 9.4999 133.206C8.74953 133.293 7.99572 133.354 7.24197 133.401C5.33031 133.52 3.40791 133.529 1.50015 133.344C0.268378 133.305 0.00352338 132.501 0.00548265 131.403L0.00360181 131.357C-0.0241611 130.611 0.0961185 129.71 0.804552 129.323C0.839858 128.929 1.03978 128.531 1.24392 128.186C2.19317 126.59 3.61838 125.192 3.89871 123.277C4.17368 122.023 3.86215 119.263 5.13671 118.61C5.1663 118.045 5.51307 117.47 5.94247 117.165C6.02532 116.694 6.33751 116.262 6.53068 115.83C6.92463 115.005 7.28905 114.167 7.68091 113.341C7.47573 113.254 7.25772 113.094 7.2291 112.868C7.03211 112.87 6.83748 112.743 6.86132 112.503C6.9309 111.807 7.08315 111.123 7.22696 110.439L7.24489 110.353C9.80354 97.9858 15.0872 86.4208 18.1786 74.2118C17.7626 74.287 17.3737 73.8115 17.1437 73.5017C16.401 72.5017 15.9623 71.2917 15.7695 70.064L15.4203 70.0207C14.2559 69.8779 13.0858 69.7527 11.9117 69.7864L11.6287 69.7958C11.3144 69.8054 10.9995 69.8028 10.7007 69.6898C10.4922 69.709 10.2751 69.5971 10.2236 69.3632C9.35401 65.0297 11.4915 60.9169 13.0225 57.0009C13.3832 56.0382 13.6399 55.0615 13.8846 54.0644C13.8926 54.0321 13.9432 54.0389 13.9418 54.0722C13.8941 55.1806 13.6193 56.2982 13.3402 57.3667C12.4237 60.9894 10.5143 64.542 10.9812 68.3773C12.4322 67.2344 14.1556 66.4407 15.966 66.1049C16.0704 65.6509 16.1858 65.2005 16.2726 64.7438C16.1872 64.0414 16.129 63.3357 16.0548 62.6301C15.8324 60.5192 15.4927 58.4138 15.04 56.3401C14.3377 54.2537 13.7245 52.1388 13.5053 49.939L13.4654 49.9468C12.9784 50.0455 12.4419 50.2601 11.9902 49.9501C11.7035 49.7513 11.5794 49.4219 11.4636 49.1055C11.1326 48.3382 11.0714 47.33 12.0078 47.0091C11.6587 44.57 11.8855 42.0237 12.3074 39.6075C12.6452 37.4895 13.3863 35.4029 13.1089 33.2346C12.8009 31.1511 12.2267 28.9689 13.0568 26.9295C14.4212 23.5256 17.8763 21.9108 21.2743 21.391L21.3293 21.3749C21.7496 21.2503 22.1324 21.1193 22.5703 21.2135C23.6034 19.2965 25.2788 20.0763 26.915 20.5035C27.0253 20.1784 27.1174 19.8459 27.204 19.5136C27.2579 19.3443 27.24 18.9539 27.4281 18.8996ZM36.8977 130.376L36.8934 130.46C36.8503 131.357 36.8988 132.126 38.0117 132.12C38.7774 132.202 39.5433 132.282 40.3101 132.351L40.5978 132.376C42.874 132.579 45.1776 132.679 47.4495 132.374L47.5442 132.361C47.734 132.334 48.0857 132.339 48.236 132.199C48.4172 131.955 48.2074 131.49 48.1635 131.207C44.6186 131.166 41.069 131.035 37.5217 131.08C37.1487 131.082 36.9802 130.764 37.0146 130.473C36.9725 130.445 36.9329 130.412 36.8977 130.376ZM0.906355 129.926C0.732039 130.539 0.774967 131.118 0.87344 131.732C0.922657 132.375 1.22842 132.416 1.7817 132.431C3.94168 132.63 6.11725 132.588 8.2778 132.421C9.43581 132.297 10.6258 132.301 11.7622 132.045C12.3044 131.805 11.9914 131.049 12.0099 130.586C9.45761 132.231 5.59769 132.022 2.81453 131.07L2.76994 131.051C2.11158 130.775 1.27 130.601 0.906355 129.926ZM5.13391 118.859C4.84049 119.191 4.83438 120.133 4.82208 120.454L4.82053 120.49C4.78757 121.164 4.7928 121.839 4.76361 122.513C4.78512 125.351 3.14649 126.766 1.92957 129.047C1.5967 129.601 2.08092 129.68 2.47479 129.859C5.02519 131.046 8.04196 131.227 10.7064 130.319C12.0457 129.93 11.7533 129.028 11.6396 127.926C11.5276 125.673 12.713 123.643 13.0636 121.464L13.0731 121.408C13.1776 120.768 13.3582 119.128 12.3389 119.479C12.1171 119.615 11.9086 119.444 11.8824 119.235C11.856 119.239 11.8289 119.242 11.8027 119.242C11.6849 119.97 11.5628 120.698 11.4454 121.426C11.5441 121.489 11.6367 121.56 11.7187 121.641C11.8185 121.74 11.7488 121.947 11.5985 121.935C11.5213 121.928 11.445 121.916 11.3691 121.902C11.3089 122.535 10.3034 122.18 10.5938 121.672C9.14807 121.173 7.55526 121.212 6.08708 121.595L6.08101 121.598C5.96735 121.643 5.15006 121.807 5.41299 121.935C5.52257 121.948 5.27306 122.091 5.22933 121.869C5.2152 121.591 5.85046 121.454 6.04509 121.339C5.5542 120.636 5.21877 119.726 5.13391 118.859ZM42.1726 116.635C40.8107 115.897 39.1369 116.171 37.6598 116.302L37.5977 116.309C37.2217 116.349 36.6978 116.374 36.5252 116.761C36.2754 117.382 36.6896 118.77 36.8197 119.46L36.864 119.641C36.9717 120.082 37.0742 120.52 37.1112 120.977C37.112 120.992 37.0983 121.002 37.0854 121.002C36.5679 120.449 36.3354 119.705 36.0936 118.996C35.9905 119.055 35.8898 119.118 35.795 119.188C35.4241 120.463 35.2999 121.82 35.5936 123.12L35.6042 123.166C35.9668 124.773 37.0963 126.087 37.2037 127.766C37.2754 128.444 37.2594 129.14 37.4545 129.799C37.5656 129.824 37.6626 129.906 37.7061 130.009L38.3426 130.009C41.4201 130.015 44.4985 130.043 47.5739 130.169C47.4748 129.304 46.7115 128.537 46.1738 127.944C44.5241 126.255 43.8106 123.828 44.0823 121.488C44.2253 120.318 44.8784 118.48 43.281 118.047C43.1642 119.001 43.0065 119.952 42.9193 120.909C43.2208 121.054 43.2022 121.438 42.8339 121.43C42.6685 121.987 42.1142 121.762 42.1742 121.237C40.1467 120.488 38.9835 120.237 37.0086 121.365C36.9531 121.357 37.1602 121.136 37.1865 121.096C37.8107 120.423 38.7692 120.107 39.6687 120.095C40.5601 120.095 41.3985 120.431 42.2396 120.691C42.366 119.788 42.451 118.878 42.5513 117.972L42.5729 117.778C42.6254 117.302 42.6064 116.908 42.1726 116.635ZM9.59149 128.303C9.88822 128.237 10.1611 128.136 10.4626 128.204C11.5236 129.001 7.18841 129.226 6.8193 129.169C5.87963 129.142 4.93957 129.022 4.03525 128.757L3.9722 128.738C3.88315 128.713 2.98175 128.462 3.15268 128.35C4.37581 128.459 5.57326 128.683 6.8193 128.625C7.4409 128.612 8.06491 128.568 8.67982 128.474C8.98563 128.428 9.28998 128.371 9.59149 128.303ZM38.2533 127.315C38.0589 127.024 39.0058 127.411 39.1291 127.414C39.9132 127.607 40.7112 127.754 41.5169 127.815C42.0568 127.856 42.6025 127.865 43.1434 127.838C43.5441 127.824 43.9405 127.765 44.3386 127.724L44.3529 127.724C44.5894 127.715 45.0633 127.862 44.7712 128.143C44.317 128.496 43.645 128.388 43.1005 128.44C41.4473 128.435 39.6967 128.169 38.2533 127.315ZM7.17242 125.199C7.64899 125.113 10.2724 125.085 10.0109 125.89C9.94741 126.043 9.80239 126.093 9.64974 126.069C8.02617 125.674 6.27478 125.468 4.65636 126.012C4.63013 126.022 4.612 125.978 4.63777 125.967C5.43349 125.568 6.28495 125.289 7.17242 125.199ZM41.2237 124.412C41.6522 124.379 42.0831 124.391 42.5116 124.423L42.6869 124.437C42.8678 124.451 43.0525 124.47 43.2251 124.523L43.2594 124.534C43.4947 124.609 44.0251 125.014 43.6225 125.208C43.1903 125.348 42.8249 125.182 42.4079 125.075C41.2457 124.799 40.0239 124.892 38.8724 125.174L39.0346 125.226C39.0446 125.219 39.0576 125.236 39.048 125.244C38.9316 125.346 38.7717 125.31 38.6892 125.183C38.6749 125.161 38.6839 125.127 38.7069 125.115C39.4874 124.705 40.3479 124.478 41.2237 124.412ZM5.02521 124.309C6.33779 123.728 7.85855 123.664 9.26621 123.832L9.36649 123.845C9.80566 123.896 10.3785 123.92 10.6297 124.329C10.7165 124.471 10.6268 124.633 10.4866 124.684C10.0735 124.835 9.58779 124.533 9.19094 124.421C8.01728 124.099 6.76389 124.065 5.57048 124.287C5.57882 124.332 5.38119 124.312 5.33815 124.328C5.28421 124.325 4.92621 124.443 5.02521 124.309ZM38.1252 123.402C39.2704 122.845 40.5942 122.712 41.8305 123L41.8819 123.014C42.4297 123.168 43.3115 123.35 43.5079 123.93C43.5504 124.06 43.4583 124.237 43.3204 124.263C42.8533 124.353 42.4293 124.012 42.0067 123.848C40.7631 123.38 39.3554 123.268 38.0693 123.612C38.0609 123.663 38.0523 123.713 38.0431 123.764C38.0652 123.749 38.0879 123.782 38.0703 123.799C37.8652 123.943 37.6516 123.58 38.1252 123.402ZM7.97564 122.423C8.90216 122.361 9.83648 122.479 10.7309 122.723L10.8991 122.77C11.1436 122.838 11.4603 122.946 11.4959 123.21C11.5097 123.316 11.4835 123.388 11.3981 123.453C11.0867 123.686 10.4094 123.198 10.0223 123.14C8.61671 122.718 7.10798 122.724 5.68417 123.047L5.63568 123.058L5.67003 123.303C5.70375 123.42 5.39085 123.144 5.50974 123.019C6.26134 122.636 7.13837 122.492 7.97564 122.423ZM38.9988 121.986C39.7423 121.851 40.5096 121.826 41.2614 121.893L41.3501 121.902C41.7992 121.941 43.2537 121.999 42.9097 122.758C42.8521 122.885 42.6846 122.902 42.5762 122.847C42.2128 122.662 41.8153 122.596 41.4142 122.535C39.9976 122.338 38.5503 122.419 37.1673 122.8C37.1974 122.848 37.1353 122.904 37.0768 122.915C36.9308 122.942 36.9308 122.767 36.9933 122.675C37.0677 122.565 37.2161 122.525 37.3305 122.477C37.863 122.245 38.4279 122.088 38.9988 121.986ZM10.8348 117.762L10.7501 117.742C9.33108 117.408 6.18493 116.809 5.85912 118.764C5.74348 119.625 6.12493 120.465 6.09674 121.318C7.56823 120.719 9.19542 120.726 10.7242 121.121C10.8596 120.236 10.9889 119.35 11.1273 118.465L11.1496 118.36C11.2112 118.061 11.2321 117.828 10.8348 117.762ZM7.67415 118.118C7.98338 117.852 8.49908 117.856 8.80239 118.146C9.07979 118.204 9.27544 118.499 9.27993 118.751C9.70168 119.492 9.19309 120.517 8.38787 120.702C6.56961 121.085 5.75679 118.587 7.67415 118.118ZM39.1763 116.934C40.6977 116.663 41.2504 118.593 40.0017 119.376C38.2378 120.261 37.0626 117.479 39.1763 116.934ZM8.4269 112.646C8.44931 112.794 8.3767 112.899 8.28999 112.998C7.97807 114.277 7.50865 115.468 7.04581 116.694C8.55155 116.444 9.97417 116.662 11.3065 117.071C11.3224 116.697 11.4928 116.309 11.6113 115.956C11.8418 115.287 12.1205 114.634 12.442 114.004L12.4824 113.925C12.5979 113.701 12.709 113.466 12.8454 113.252C11.3717 113.05 9.89804 112.869 8.4269 112.646ZM38.1067 112.374L38.0674 112.552C37.8983 113.324 37.7378 114.103 37.486 114.853L37.4825 114.869C37.4439 115.058 37.3573 115.934 37.3028 115.316C37.2607 115.409 37.2161 115.501 37.1682 115.592L37.5333 115.548C38.8942 115.388 40.3141 115.261 41.6487 115.603C41.5104 114.529 41.7141 113.504 42.0118 112.489C40.7073 112.459 39.4142 112.468 38.1067 112.374ZM13.4003 113.708C13.3526 113.753 13.3059 113.799 13.2615 113.847C13.3216 113.831 13.3818 113.816 13.4375 113.803C13.4352 113.768 13.4103 113.741 13.4003 113.708ZM42.8006 112.724L42.758 112.824C42.78 112.81 42.8043 112.798 42.8305 112.787C42.8186 112.767 42.8086 112.747 42.8006 112.724ZM7.62093 112.505C7.60552 112.562 7.59374 112.625 7.56602 112.677C7.58796 112.681 7.61039 112.685 7.63287 112.69C7.66 112.635 7.68867 112.581 7.71964 112.529C7.68673 112.521 7.65381 112.513 7.62093 112.505ZM18.9684 49.2025C18.8348 49.2671 18.6955 49.2834 18.5115 49.2912C17.0152 49.3533 15.5239 49.5265 14.0547 49.8222C14.1358 51.0113 14.4974 52.1631 14.8415 53.2966L14.9129 53.545C16.0755 57.6066 17.0904 61.8505 16.8861 66.0986C16.8974 66.1029 16.9084 66.1088 16.919 66.1141C16.9004 66.1662 16.8871 66.2195 16.8684 66.271L16.8565 66.3018L16.7867 66.4752C16.7481 66.5714 16.7107 66.6682 16.678 66.7671C16.621 66.7877 16.5508 66.8028 16.4838 66.8126C16.1445 69.0616 16.4672 71.5832 17.9968 73.3421C17.4515 72.2441 17.2613 70.9968 17.2852 69.777L17.2895 69.5904C17.2958 69.36 17.3097 69.1304 17.3798 68.9118C17.3827 68.9002 17.398 68.9022 17.4018 68.9118C17.7256 69.9122 17.7468 70.9992 18.065 72.007L18.0893 72.0842C18.3408 72.874 18.7611 73.8908 19.4907 74.2992C19.6251 74.3391 19.8318 74.2917 19.9016 74.4467L19.9063 74.4579L19.9106 74.4563C19.5848 73.3887 19.3751 72.2848 19.3032 71.1704L19.2985 71.0944C19.2756 70.7057 19.225 70.2887 19.322 69.9092C19.5066 70.2564 19.4608 70.8234 19.5466 71.2435L19.5501 71.2674C19.6179 71.7213 20.2711 75.191 20.7002 74.7275C20.7887 74.5995 20.7658 74.3525 20.7686 74.2002L20.7688 74.1853C20.7756 73.9653 20.7731 73.7453 20.7656 73.5254C20.7192 72.2296 20.518 70.8998 20.9124 69.6377C20.9784 69.4249 21.3362 69.3849 21.3795 69.6377C21.5533 70.6486 21.7192 71.6606 21.8852 72.6726C22.0062 73.2907 22.0011 73.9878 22.3689 74.521C22.3732 73.3571 22.3087 72.1967 22.2529 71.034L22.238 70.9856C22.1939 70.8389 22.1504 70.6484 22.2515 70.5236C22.2921 70.2584 22.6794 70.2887 22.7124 70.5667C22.7196 70.6245 22.7247 70.6833 22.7306 70.7417C22.8589 70.9028 22.9782 71.0673 23.1299 71.2059C24.1428 69.1365 20.8285 65.5626 20.371 63.2258C19.0234 58.675 19.7981 53.9035 20.1902 49.2695C19.7848 49.2215 19.3763 49.2085 18.9684 49.2025ZM38.2541 23.0113C38.9626 24.4341 39.4825 25.94 39.8428 27.4898C39.9537 27.9683 39.3125 28.262 39.0533 27.8429L39.0456 27.83C38.727 27.298 38.2521 26.8294 37.6512 26.6462C37.2417 28.3642 37.4412 30.1797 37.654 31.9144C38.0313 34.3314 38.3315 36.7584 38.3763 39.2076L38.3785 39.3387C38.51 47.7026 39.7382 56.0288 41.0837 64.2175C43.2343 64.5633 45.2032 65.5385 47.1856 66.3959C47.53 66.5305 47.8821 66.6476 48.2428 66.7285C47.2467 57.4447 43.4587 48.7379 42.2882 39.4878C41.9788 37.082 41.9643 34.6392 42.3917 32.2473C42.3989 32.2015 42.4638 32.217 42.4665 32.2575C42.5135 33.2399 42.6814 34.2095 42.781 35.1868C42.8488 34.6286 43.0051 34.0634 43.1317 33.5285C43.2863 33.0052 43.3433 32.165 43.7963 31.8237L43.8249 31.725C43.8366 31.6825 43.8997 31.7003 43.8897 31.7428C43.885 31.763 43.8801 31.7828 43.8758 31.803C44.1668 31.8806 43.895 32.2258 43.8229 32.3911C43.356 33.6449 43.2171 35.0019 42.8983 36.2942C43.3595 40.3283 44.1901 44.3113 45.213 48.2324C46.1529 47.9842 47.0959 47.7454 48.0381 47.5026C45.9364 40.6452 47.1654 32.992 44.0165 26.4442C42.8368 24.2468 39.9314 24.5452 38.2541 23.0113ZM22.2858 21.7576C21.8452 21.7339 21.3848 21.9737 20.9616 22.0562C20.4006 22.1651 19.8424 22.2515 19.2938 22.419C16.4856 23.1904 13.7763 25.2972 13.2676 28.3325C12.9179 30.4168 13.7837 32.4474 13.7533 34.526C13.6619 36.585 12.9844 38.5642 12.7204 40.6026C12.4028 42.6869 12.2935 44.8688 12.5659 46.9632C15.085 46.2471 17.7158 46.2022 20.2989 46.5721C20.0836 43.3973 20.3663 40.2071 20.5227 37.0346C20.6353 34.9972 20.8279 32.9505 20.7597 30.9091C20.7584 30.8639 20.8318 30.8527 20.8389 30.8982C21.6136 35.0673 21.1592 39.2997 21.0809 43.5043C21.0311 44.5666 21.1624 45.6391 21.1095 46.6956C22.2839 46.9489 22.2413 48.3214 21.8822 49.226C21.8185 49.4437 21.6026 49.4058 21.4277 49.3794C21.2382 49.579 20.786 49.3186 20.5284 49.3186C20.3267 54.5378 19.1014 60.1123 21.6122 64.9903C22.662 64.9961 23.6726 64.6331 24.6928 64.4272L24.7484 64.4162L24.7498 64.4156C24.8999 64.2201 24.9732 63.9054 24.9931 63.6752C25.1358 59.656 24.6897 55.6275 24.9506 51.6079C25.2704 47.1462 26.2635 42.7116 25.8043 38.2198C25.4865 34.205 24.6146 30.2632 24.1943 26.2606L24.1732 26.0535C24.1469 25.8066 24.1369 25.5339 24.0153 25.3458C23.3062 25.9931 22.7114 26.7631 22.2854 27.6291C22.0495 28.0476 21.4179 27.8615 21.4081 27.3891C21.3174 26.5457 21.3038 25.6991 21.3959 24.8554L21.4043 24.7809C21.5184 23.7249 21.8368 22.717 22.2858 21.7576ZM48.6431 50.7233C47.7299 50.7716 46.8157 50.8731 45.9009 50.8612L45.993 51.2074C47.1004 55.3626 48.2795 59.5106 48.9746 63.7622L48.9999 63.3635C49.025 62.9648 49.0491 62.5657 49.0647 62.166C49.262 58.345 48.9607 54.5291 48.6431 50.7233ZM24.8726 24.2041C24.8764 24.3767 24.885 24.549 24.8985 24.7208C25.3205 25.3552 25.2829 26.1985 25.3774 26.9285C25.9069 30.8702 26.6869 34.7956 26.9497 38.7784C27.1942 41.9643 26.7949 45.1391 26.387 48.2932C25.8836 51.9053 25.9363 55.5548 26.0533 59.1914C27.9871 57.4371 30.7356 57.1293 33.1753 56.5842L33.2914 56.5607C35.1674 56.1755 37.0395 55.6173 38.6334 54.5207C37.4872 46.3025 37.757 37.9786 36.585 29.7675C36.5487 29.1209 36.5413 28.4706 36.595 27.8247C36.5434 27.1252 36.5282 26.4218 36.5268 25.7206C36.0131 27.7923 34.2922 29.7939 32.0375 29.7285C29.6386 29.5874 27.6023 27.618 26.038 25.9299C25.614 25.4263 25.1924 24.8383 24.8726 24.2041ZM45.9715 50.7272L45.8631 50.7219L45.8698 50.7454C45.8921 50.7409 45.9148 50.7368 45.9374 50.7329L45.9715 50.7272ZM48.9472 47.9207C48.9301 47.9154 48.901 47.9154 48.8684 47.917C48.8218 48.0249 48.7274 48.1143 48.6176 48.1437L47.7023 48.3915C46.9393 48.598 46.176 48.8038 45.4119 49.0036C45.54 49.4995 45.6703 49.9954 45.802 50.4907C46.8443 50.1533 47.9985 50.2299 49.0612 50.0128C49.0483 49.4403 49.0171 48.8651 49.0073 48.2918C49.005 48.1981 49.024 48.0477 48.9764 47.9636C48.9464 47.9101 48.9764 47.9299 48.9472 47.9207ZM13.9323 49.8473L13.9036 49.8535C13.9131 49.8796 13.9218 49.9056 13.9299 49.9321C13.9303 49.9037 13.9308 49.8757 13.9323 49.8473ZM20.7184 47.0931C18.7546 46.8059 16.7573 46.636 14.7766 46.8316C13.8807 46.9534 12.9712 47.0835 12.0932 47.2499C11.7878 47.7211 12.1256 48.8676 12.5058 49.2303C12.6198 49.2738 12.8159 49.1893 12.9251 49.1648C13.7449 48.9787 14.5726 48.8288 15.4045 48.7119C15.4292 48.7432 15.4655 48.7634 15.5103 48.7591L15.7015 48.7415C16.8488 48.6362 18.0062 48.5592 19.1561 48.6251L19.1645 48.6317C19.9404 48.6887 20.7133 48.8116 21.4859 48.9005C21.7909 48.0988 21.7384 47.1789 20.7184 47.0931ZM35.0078 20.9482C35.0838 21.2066 35.1749 21.4576 35.2883 21.7017C35.4067 21.6686 35.5701 21.6951 35.6571 21.7701L35.6941 21.7635C35.796 21.7441 35.9182 21.7143 35.95 21.7108C37.3532 21.5156 37.2462 23.4032 37.2513 24.3517C37.2599 24.8274 37.2695 25.3033 37.2838 25.779C37.6855 25.6414 38.2223 25.8887 38.5732 26.1074C38.2986 25.1877 37.9755 24.2827 37.6154 23.3938L37.5472 23.2206C37.2635 22.5033 36.9492 21.7772 36.3463 21.2778C35.8881 21.1571 35.4441 21.1353 35.0078 20.9482ZM24.8339 20.4747C23.5298 20.007 23.0131 21.0699 22.6514 22.13C22.2249 23.304 22.1085 24.5968 22.1794 25.8599L22.2235 25.8015C22.7033 25.1583 23.3952 24.0966 24.27 24.2672C24.2614 23.7792 24.279 23.2431 24.3721 22.7362C24.3178 22.4092 24.3039 22.0789 24.3417 21.7484C24.3615 21.3342 24.8103 21.3971 25.1058 21.3385C25.3615 21.1673 25.6711 21.0983 25.9822 21.2188C26.2169 21.1874 26.4516 21.1575 26.6863 21.1277C26.7224 21.0481 26.7514 20.968 26.7818 20.8865C26.1321 20.7515 25.4828 20.6124 24.8339 20.4747Z" fill="#333333"/>
<path fill-rule="evenodd" clip-rule="evenodd" d="M33.8 21.2434C32.7672 21.2494 31.8895 20.9569 31.2196 20.4732C30.384 20.1757 29.3757 19.7171 28.7635 19.2355C28.5246 19.2962 28.2388 19.0431 28.056 18.9093C26.9196 18.0625 26.0275 16.8226 25.763 15.5809C25.3551 16.095 24.7744 16.1163 24.2181 15.8608C23.052 15.2008 23.0957 13.8112 23.5154 12.773C22.6329 10.7967 22.0212 5.5798 23.3684 3.47433C23.6439 3.1593 24.0483 2.97086 24.3394 2.64779C24.5986 2.36564 24.8449 2.07704 25.1465 1.85378C26.0661 1.15518 27.6502 0.783214 28.6422 0.60829C32.7825 -0.285059 35.9636 1.32064 39.7142 2.67505C39.4983 3.21373 39.1997 3.70498 38.8574 4.16302C39.7887 4.50987 39.361 5.28967 38.6386 5.685L38.2085 5.47639C38.879 7.87001 40.4217 13.8224 39.756 15.7339C39.2252 18.7161 36.8956 21.2651 33.8 21.2434Z" fill="white"/>
<path fill-rule="evenodd" clip-rule="evenodd" d="M34.3984 21.5002C33.0573 21.6375 31.4642 21.3211 30.5702 20.2339C30.5436 20.2014 30.5318 20.1646 30.5312 20.1291C30.5304 20.0895 30.5438 20.0513 30.5667 20.0215C30.5908 19.9902 30.6253 19.9684 30.6647 19.9614C30.698 19.9555 30.7358 19.9592 30.7748 19.9812L30.8571 20.0268C31.4676 20.3634 32.1016 20.6503 32.7936 20.7731C33.506 20.8997 34.2313 20.8854 34.9374 20.7249C36.2235 20.4324 37.2645 19.6865 38.0305 18.7027C38.8856 17.605 39.3989 16.2115 39.5298 14.8179C39.6885 13.1292 39.3205 11.4505 38.94 9.81529C38.5401 8.09713 38.103 6.38768 37.5952 4.69809C37.5799 4.64722 37.5758 4.59961 37.5801 4.55577C37.4304 4.49722 37.2709 4.51346 37.1124 4.56693C36.8225 4.6646 36.5337 4.88484 36.2929 5.06664C36.2057 5.1325 36.1246 5.1937 36.0517 5.24351C35.7531 5.44743 35.4265 5.59416 35.0615 5.61724C34.6819 5.64118 34.3097 5.52343 33.9649 5.37607C33.7897 5.30121 33.6173 5.22354 33.4456 5.14619C32.9568 4.92593 32.4738 4.70784 31.946 4.56611C31.2387 4.37616 30.5085 4.28258 29.7759 4.28928C28.4687 4.30122 27.1574 4.63704 26.356 5.74046C26.0316 6.18745 25.82 6.70119 25.9849 7.25284C26.0747 7.55292 26.2441 7.82534 26.4291 8.07591L26.4926 8.16123C26.5939 8.29878 26.682 8.43575 26.7087 8.5816C26.7308 8.70378 26.7136 8.83311 26.626 8.97476C26.5712 9.06391 26.501 9.14385 26.4307 9.22359C26.3799 9.281 26.329 9.3384 26.2851 9.40012C26.1967 9.52473 26.1186 9.65894 26.0572 9.79883C25.9371 10.0727 25.8862 10.3674 25.8756 10.6646C25.8627 11.0232 25.9132 11.3739 25.9632 11.7252C25.9989 11.9742 26.0343 12.2234 26.0486 12.4758C26.0512 12.5199 26.0376 12.5526 26.0186 12.5769C25.9955 12.6067 25.9618 12.6255 25.9234 12.6306C25.9119 12.6321 25.8997 12.6323 25.8876 12.6314C25.8934 12.6556 25.8987 12.6799 25.9034 12.7044C25.8791 12.6733 25.8533 12.6431 25.826 12.6139C25.8243 12.6129 25.8225 12.6121 25.8208 12.6112C25.7927 12.5957 25.769 12.5724 25.7539 12.542C25.7153 12.5063 25.6744 12.4723 25.6317 12.4403C25.4085 12.2744 25.1481 12.1758 24.8868 12.1727C24.6348 12.1696 24.3825 12.255 24.1883 12.4358C23.8023 12.7951 23.6893 13.3816 23.6851 13.8853C23.6812 14.3994 23.8004 15.0162 24.2494 15.3353C24.4297 15.4635 24.6497 15.5403 24.8713 15.5426C25.0551 15.5444 25.2308 15.4795 25.404 15.4178C25.4573 15.3986 25.5106 15.3798 25.5635 15.3626C25.6236 15.343 25.6785 15.3442 25.7265 15.3585C25.7804 15.3745 25.826 15.4078 25.8603 15.4523C25.8944 15.4964 25.9168 15.5518 25.9236 15.6098C25.9303 15.6659 25.9226 15.7243 25.8987 15.7768C25.8929 15.7899 25.8864 15.8028 25.8799 15.8154L25.9787 15.9774C26.357 16.5965 26.7418 17.2043 27.2465 17.7364C27.5361 18.0419 27.8431 18.3301 28.1799 18.5822L28.2285 18.6183C28.2575 18.6397 28.2898 18.6659 28.3241 18.6939C28.4225 18.7741 28.5402 18.8816 28.6501 18.8859C28.6827 18.8871 28.7113 18.8832 28.7371 18.8797C28.7996 18.8714 28.8521 18.8691 28.9039 18.89C28.9452 18.9071 28.9883 18.9386 29.0326 19.0037C29.0626 19.0478 29.0778 19.1032 29.0778 19.1593C29.0778 19.2157 29.0624 19.2721 29.0347 19.3166C28.9775 19.4089 28.9082 19.4661 28.8331 19.4986C28.7495 19.5346 28.6568 19.5403 28.5606 19.5223C28.3237 19.4782 28.0614 19.2823 27.8944 19.1545L27.8621 19.1299C27.4924 18.8483 27.1419 18.5368 26.8337 18.1884C26.3088 17.5952 25.8376 16.8959 25.5954 16.132C25.4248 16.2439 25.2142 16.2969 24.9937 16.3054C24.6726 16.3175 24.3327 16.235 24.0823 16.1165C23.5304 15.8553 23.1951 15.3612 23.038 14.7932C22.8556 14.1333 22.9148 13.3749 23.1458 12.7822C23.1524 12.765 23.1595 12.7477 23.1667 12.7303C22.4555 10.9325 22.2369 8.93597 22.2978 7.0173C22.3264 6.1192 22.3875 5.17693 22.5999 4.30102C22.6951 3.90844 22.8605 3.53457 23.1244 3.2255C23.2749 3.04926 23.4596 2.91205 23.6452 2.77522C23.8058 2.6567 23.9671 2.53846 24.1029 2.39048L24.1669 2.32022C24.1808 2.30493 24.1948 2.28967 24.2087 2.27443C24.443 2.01663 24.6712 1.76647 24.9555 1.55504C25.2855 1.30992 25.6495 1.11803 26.0277 0.95868C26.8425 0.615514 27.7195 0.409752 28.5869 0.250561C30.4638 -0.0937812 32.3904 -0.110769 34.2442 0.37325C35.1061 0.598253 35.9427 0.90625 36.7778 1.21388C36.8554 1.24242 36.9328 1.27099 37.0103 1.29948C37.6593 1.53794 38.3086 1.77538 38.9579 2.01283C39.2596 2.12317 39.5613 2.23352 39.8632 2.34398C39.9287 2.36796 39.9927 2.41961 40.0292 2.48376C40.0648 2.54638 40.0754 2.61938 40.0466 2.69207C39.8615 3.1602 39.6279 3.59941 39.3436 4.00954C39.4424 4.07662 39.5264 4.16583 39.5901 4.27022C39.6706 4.40228 39.7183 4.55861 39.7214 4.72446C39.7324 5.27989 39.2259 5.6564 38.8056 5.92872C38.7664 5.95414 38.7276 5.96914 38.6902 5.97602C39.0974 7.52966 39.4871 9.0886 39.8184 10.6597L39.8411 10.7687C40.1822 12.4131 40.4024 14.0912 40.0797 15.7576C39.8019 17.1923 39.1565 18.5772 38.1479 19.6461C37.1596 20.6936 35.8334 21.353 34.3984 21.5002ZM25.5682 12.0404C25.3927 11.4844 25.2996 10.8794 25.3668 10.3155C25.4091 9.96126 25.5159 9.62015 25.6897 9.30784C25.7892 9.12896 25.9105 8.9634 26.0429 8.80734L26.0886 8.75497C26.1117 8.72821 26.1348 8.70362 26.1419 8.6728C26.146 8.65489 26.1419 8.6353 26.1309 8.61189C26.1068 8.56005 26.0617 8.51008 26.0198 8.46132C25.993 8.43032 25.9669 8.39989 25.945 8.37031C25.5602 7.85042 25.2731 7.23146 25.3664 6.57219C25.4575 5.92896 25.8799 5.32938 26.3296 4.87754C27.3198 3.88258 28.8549 3.65393 30.1997 3.70881C30.9826 3.74073 31.7642 3.87843 32.5097 4.11897C32.8775 4.2376 33.2368 4.38208 33.5861 4.54767L33.6635 4.58472C33.7053 4.6049 33.747 4.62532 33.7887 4.64573C34.0616 4.77936 34.3357 4.91429 34.6322 4.98694C35.211 5.12879 35.6038 4.83002 36.0164 4.52873C36.1579 4.42547 36.3015 4.32079 36.4541 4.22892L36.4855 4.21038C36.7609 4.05108 37.0903 3.94388 37.4065 3.94868C37.6814 3.95286 37.9465 4.04044 38.1624 4.24738C38.2067 4.28991 38.2323 4.33629 38.2443 4.38247C38.2682 4.41587 38.2874 4.45572 38.2999 4.50281C38.3773 4.79237 38.4543 5.08214 38.5309 5.37202L38.5938 5.33168C38.7796 5.2112 38.9816 5.07354 39.0729 4.87201C39.1079 4.79442 39.103 4.66521 39.0588 4.57019C39.0433 4.537 39.0229 4.50747 38.9945 4.48905C38.9739 4.47565 38.9492 4.46936 38.9204 4.47167C38.8503 4.48067 38.786 4.47044 38.7316 4.44746C38.6687 4.42093 38.6185 4.37728 38.586 4.32469C38.5527 4.27083 38.5374 4.20752 38.5456 4.14185C38.5527 4.08538 38.577 4.02643 38.6252 3.97102C38.9422 3.60632 39.2092 3.20402 39.412 2.76736L38.0697 2.27176C37.5913 2.09516 37.1126 1.91876 36.6338 1.74304L36.3714 1.64689C35.5007 1.32816 34.6249 1.01665 33.7194 0.811441C31.9196 0.403638 30.043 0.499466 28.2483 0.883346L28.1397 0.90672C27.3866 1.07061 26.6235 1.26889 25.9322 1.61357C25.5929 1.78273 25.2704 1.98845 24.9934 2.24835C24.8711 2.36312 24.7604 2.48879 24.6499 2.61428C24.4949 2.79017 24.3395 2.96556 24.1554 3.1137L23.9841 3.25044C23.7296 3.45512 23.5 3.65456 23.3564 3.972C23.2063 4.30386 23.1346 4.6705 23.076 5.02771C22.9287 5.92759 22.8703 6.84186 22.876 7.75335C22.8854 9.28374 23.1183 10.7832 23.4126 12.2771C23.6487 11.9399 23.9806 11.6784 24.4064 11.6225C24.684 11.5863 24.9591 11.638 25.1977 11.7605C25.3356 11.8312 25.4614 11.9256 25.5682 12.0404ZM25.1223 13.8579C24.8113 13.7376 24.4849 13.6982 24.156 13.7558C24.1215 13.7617 24.0886 13.7546 24.0609 13.7385C24.0329 13.7223 24.0108 13.6966 23.9988 13.6682C23.9851 13.6355 23.9843 13.6 23.9965 13.5685C24.0071 13.541 24.0274 13.5146 24.0645 13.4968C24.4207 13.3271 24.8166 13.2522 25.2097 13.3055L25.2484 13.311C25.4493 13.3408 25.7318 13.4033 25.9436 13.5265C26.1101 13.6233 26.232 13.7568 26.2622 13.9309C26.278 14.0218 26.2555 14.1167 26.203 14.1854C26.1523 14.2519 26.0747 14.2961 25.9744 14.2932C25.7974 14.2883 25.6926 14.2137 25.5664 14.1169C25.5512 14.1051 25.5355 14.0932 25.5192 14.081C25.3974 13.9899 25.2643 13.9127 25.1223 13.8579Z" fill="#333333"/>
<path fill-rule="evenodd" clip-rule="evenodd" d="M34.6461 17.4104C34.3334 17.2831 34.0542 17.0707 33.8502 16.7993C33.7793 16.7049 33.7609 16.6054 33.7758 16.5143C33.7924 16.4118 33.8531 16.3189 33.936 16.2566C34.0191 16.1941 34.1231 16.1633 34.2234 16.179C34.3108 16.1927 34.3976 16.2403 34.4666 16.3393L34.4809 16.3591C34.6022 16.5229 34.7603 16.6573 34.9403 16.7439C35.1139 16.8273 35.3081 16.8663 35.5091 16.8436C35.8918 16.8005 36.1555 16.594 36.4359 16.3136C36.4705 16.2782 36.5052 16.2415 36.5403 16.2045C36.5622 16.1708 36.593 16.1492 36.6269 16.1379C36.6647 16.1253 36.7074 16.1259 36.7464 16.1396C36.7842 16.1528 36.8179 16.1776 36.8404 16.2108C36.862 16.2423 36.8741 16.2813 36.8702 16.326C36.8446 16.6165 36.6923 16.8759 36.476 17.0797C36.2358 17.3058 35.9174 17.4623 35.6177 17.5172C35.2873 17.5777 34.9509 17.5344 34.6461 17.4104ZM35.7734 12.9264C36.1247 13.1396 36.6602 13.6367 36.2822 14.1651C35.8373 14.631 35.1966 14.0967 34.881 13.8551C34.5883 13.6678 34.2593 14.1494 34.5311 14.3681C36.812 16.0536 37.7378 12.9823 35.9511 12.6758C35.7544 12.6421 35.6813 12.8606 35.7734 12.9264ZM31.6856 10.9658C31.7246 10.485 32.4583 10.3757 32.5314 10.8516C32.5969 11.2779 32.5199 11.6696 32.3275 12.0534C32.1437 12.42 31.6815 12.2489 31.6466 11.9151C31.5998 11.4676 31.6615 11.265 31.6856 10.9658ZM37.2723 10.753C37.3747 10.6192 37.5225 10.5279 37.6994 10.5794C38.2525 10.7407 38.0895 11.5244 37.8951 11.9057C37.7897 12.1127 37.4486 12.1653 37.2944 11.9828C37.043 11.6856 36.9227 11.0918 37.2423 10.7987C37.2509 10.7836 37.2605 10.7683 37.2723 10.753ZM32.3196 8.86153L32.407 8.84625C32.6772 8.7996 33.0132 8.75477 33.2044 8.97165C33.3057 9.08665 33.3408 9.30021 33.2044 9.41033C32.9646 9.6039 32.6997 9.52886 32.4123 9.54532C32.1756 9.55884 31.9481 9.59802 31.7201 9.66307C31.2197 9.80571 30.8122 10.0663 30.3848 10.3523C30.3288 10.3898 30.2716 10.3183 30.2982 10.2659C30.5449 9.78376 31.023 9.38779 31.5018 9.14622C31.7573 9.01749 32.0369 8.91052 32.3196 8.86153ZM36.7681 8.64553L36.8352 8.65918C37.5626 8.81097 38.508 9.11408 38.8526 9.82745C38.8657 9.92836 38.8518 9.94991 38.8405 9.96402L38.8367 9.96872C38.8275 9.98067 38.8201 9.99732 38.7762 10.011C38.7641 10.0083 38.7519 10.0052 38.7394 10.0018C38.5815 9.96069 38.4565 9.90367 38.3356 9.8447L38.2043 9.78024C38.0523 9.70578 37.8986 9.63388 37.736 9.58098C37.3888 9.46793 37.0317 9.38838 36.669 9.34587C36.5902 9.33666 36.5146 9.31021 36.4549 9.26475C36.3982 9.22165 36.3549 9.16209 36.3351 9.08274C36.3097 8.98027 36.3169 8.90248 36.3722 8.80999C36.4135 8.74049 36.4729 8.69233 36.5411 8.66467C36.6104 8.63645 36.6896 8.62981 36.7681 8.64553Z" fill="#333333"/>
<path fill-rule="evenodd" clip-rule="evenodd" d="M41.1766 9.39091C41.1382 9.38464 41.0998 9.37857 41.0616 9.37308C41.0317 9.35604 40.9966 9.34291 40.9556 9.33507C40.8624 9.31156 40.7697 9.2955 40.6772 9.28707C39.3496 8.98887 36.2783 9.41227 36.1515 10.5428C35.7287 10.6836 35.3629 10.5575 34.8729 10.57C34.4998 9.01414 28.0515 9.23378 27.7415 10.1719C27.7404 10.1715 27.7392 10.1713 27.738 10.1709C27.44 10.0788 27.0005 10.101 26.6596 10.0865C25.9314 10.0712 25.2023 10.136 24.4897 10.2892C23.1555 10.5008 21.3345 10.7487 22.2624 12.4115C22.2626 12.4117 22.2628 12.4121 22.263 12.4123L22.2632 12.4121C22.4231 12.5757 22.6945 12.444 22.7046 12.2226C22.3925 11.4348 23.0973 11.3402 23.6394 11.1139C24.9886 10.6302 26.362 10.5631 27.7572 10.7128C27.8622 10.8361 28.0215 10.9436 28.1898 10.9999C29.1226 11.1545 28.631 11.8451 29.2208 11.9454C29.1124 14.3528 32.0412 15.6668 33.7381 14.0843C34.4156 13.4233 34.577 12.444 34.7342 11.5614C34.8172 11.5428 34.87 11.4973 34.9009 11.4374C35.1006 11.2383 35.2261 11.0545 35.6211 10.9999C36.0161 10.9452 36.3202 11.0549 36.3613 11.0884C36.3717 11.1094 36.3829 11.1302 36.3958 11.1511C36.4139 11.1823 36.4383 11.2072 36.4664 11.2267C36.0763 13.6239 37.9411 15.14 39.8236 13.8966C40.6416 13.1288 40.8146 11.9531 40.8487 10.9037C40.9596 10.8369 41.0297 10.7075 40.9913 10.5447C40.9384 10.3206 41.0624 10.1262 41.2601 10.0289C41.5168 9.90209 41.4713 9.4397 41.1766 9.39091ZM33.0874 10.5283C32.8537 10.4769 32.7539 10.8365 32.9883 10.888C33.1542 10.9244 33.2949 11.0079 33.3901 11.1494L33.4001 11.1648C33.5277 11.3674 33.8501 11.1803 33.7216 10.9766C33.5772 10.7471 33.3527 10.5865 33.0874 10.5283ZM39.9313 10.3053C39.849 10.2473 39.7242 10.2904 39.6764 10.3723C39.6239 10.4624 39.6584 10.5628 39.7354 10.6215L39.7434 10.6274C39.8142 10.6772 39.8831 10.7663 39.8918 10.8578L39.8925 10.8692C39.9018 11.1084 40.2744 11.1098 40.265 10.8692C40.256 10.6341 40.1194 10.4376 39.9313 10.3053Z" fill="#333333"/>
</svg>
