<svg width="50" height="138" viewBox="0 0 50 138" fill="none" xmlns="http://www.w3.org/2000/svg">
<path fill-rule="evenodd" clip-rule="evenodd" d="M49.2602 134.847C49.6002 133.267 48.0446 132.732 47.0641 132.381C46.3616 131.926 43.759 130.351 41.7451 128.408C40.0971 126.817 38.9752 124.778 38.5083 124.584C38.5083 124.584 38.0277 124.306 37.9778 124.099C37.6852 122.887 37.9292 121.759 37.9778 121.024C38.9151 120.779 39.6665 120.472 40.2284 120.044C40.3922 120.098 40.6378 120.168 40.7111 119.929C41.2188 116.548 41.438 113.207 41.8511 109.823C43.4149 96.9365 43.5913 81.8813 40.9009 70.1109C40.8727 69.5275 40.9237 69.0006 40.9758 68.4994C41.3395 68.4601 41.5595 68.1086 41.8566 67.8986C42.3176 67.5329 42.8636 67.2519 42.841 66.6129C42.9505 66.5301 42.9376 66.4837 42.8837 66.3782C43.2354 64.869 41.6667 63.2786 41.2233 62.0344C42.0296 54.163 40.9325 46.7249 41.5444 38.8516C42.3176 38.5287 41.7978 36.5107 41.7451 35.6784C41.3167 30.3162 38.5236 25.0145 33.494 23.2627C33.2064 23.2047 32.7742 22.8766 32.5363 23.0968C32.0765 22.9151 31.4648 23.2735 31.1089 22.8608L31.1123 22.8581C30.8128 22.4434 30.6785 21.9163 30.58 21.4179C30.5964 21.5583 30.6239 21.6977 30.6579 21.8339C29.7908 19.3951 29.5722 18.7428 26.7809 18.6281C25.5234 18.6112 23.8659 18.6488 23.1327 19.8458C22.8323 20.4022 22.9241 21.041 22.7377 21.6265C22.3954 22.7012 20.9179 22.1819 20.1421 22.7401C13.9342 24.7271 8.84223 28.7832 7.16849 35.2933C6.82632 36.0779 6.43823 36.8589 6.15217 37.6687C6.10788 37.7887 5.9861 38.1955 6.27858 38.3828L6.42006 38.4733C4.55672 47.1649 4.43309 54.4888 10.6932 60.2832C11.1631 62.7729 9.95447 66.1731 10.419 68.5905C10.1543 68.9654 10.49 69.2672 10.8284 69.2914C10.861 69.3095 10.9929 69.3671 11.0288 69.3834C10.4903 76.9711 12.7514 87.1967 13.748 91.2326C13.8837 93.6559 13.0551 95.6464 11.3501 96.9672C9.46656 98.1249 5.74271 103.354 6.43306 108.839C5.62629 108.997 4.82535 109.084 4.05133 109.386C0.664633 108.79 0.698212 115.305 0.482414 117.596C0.116938 121.432 -0.110214 126.992 3.54131 129.448C4.50326 130.144 6.45378 130.96 7.45332 129.845C7.78084 129.452 7.86288 129.073 7.73402 128.672C9.38451 126.345 8.93972 123.301 9.09134 120.571C9.56994 120.542 10.0707 120.766 10.5336 120.685C11.0088 120.267 9.27533 120.381 9.09553 120.356C9.11395 119.935 9.14787 119.492 9.19167 119.068C9.46357 119.122 9.81189 119.252 10.0734 119.262C10.2281 119.3 10.3375 119.087 10.2441 118.977C10.04 118.783 9.51974 118.813 9.22695 118.785C9.27639 118.43 9.33685 118.056 9.40402 117.713C9.76219 117.7 10.1321 117.928 10.4712 117.881C10.2145 117.71 9.73273 117.762 9.41984 117.649C9.6233 116.543 10.0379 115.493 10.4233 114.458C11.369 114.847 12.1849 114.862 13.1082 114.746C13.4859 114.804 13.6701 114.727 13.7311 114.255L13.7069 114.225C14.4387 109.855 16.8002 105.689 21.1861 100.965C22.0527 99.9972 23.0315 98.8577 23.684 97.584C24.9947 94.9329 25.2186 92.0078 26.2286 89.2547C27.1714 86.4874 28.4608 83.8404 29.6713 81.2173C29.8488 82.5616 30.0873 83.9408 30.3351 85.2591C31.4261 89.9306 31.3205 94.9148 30.5175 99.6121C29.3296 106.191 29.9023 112.802 29.6379 119.427C29.6416 119.809 29.689 120.157 29.6328 120.555C29.6255 120.585 29.64 120.621 29.6762 120.62L29.7448 120.622C30.3158 121.039 31.1044 121.115 31.7753 121.341C32.057 121.564 31.9776 121.916 32.0035 122.191C32.0771 123.377 32.1716 124.566 32.0546 125.788C31.5368 126.778 30.894 126.573 30.7623 127.969C30.6473 129.562 30.4436 131.256 31.221 132.675L30.9269 132.725C30.4904 133.64 30.7568 134.233 31.7829 134.62C36.8477 136.602 43.9749 138.401 49.2602 136.905C49.3562 137 49.496 136.902 49.6051 136.752C49.7101 136.608 49.787 136.418 49.7699 136.307C49.6796 135.822 49.8037 134.936 49.2602 134.847Z" fill="white"/>
<path fill-rule="evenodd" clip-rule="evenodd" d="M49.4773 136.434C44.9261 138.473 36.6615 135.9 32.1895 134.411C30.9837 133.977 30.582 133.891 30.9198 132.504C31.5519 133.722 32.9115 134.016 34.214 134.26C38.6262 135.263 43.1243 137.117 47.8427 136.212C48.5353 136.104 49.2207 135.73 49.4222 135.039C49.5465 135.331 49.4696 135.728 49.5194 136.05C49.5286 136.178 49.5314 136.317 49.4773 136.434ZM31.0698 128.847C31.1518 128.029 31.2833 127.166 31.7497 126.443C31.699 127.612 32.4022 129.598 33.9429 128.936C34.3794 128.705 34.624 128.241 34.9047 127.867C35.8379 126.639 37.0348 125.573 38.3864 124.798C39.1386 124.927 39.462 126.299 39.9465 126.874C39.4062 127.114 38.4271 127.662 38.328 128.228C39.0027 128.002 39.6238 127.58 40.3313 127.432C40.5581 127.744 40.7982 128.047 41.0505 128.339C40.7209 128.484 39.3918 129.154 39.4005 129.489C40.1191 129.373 40.8155 129.021 41.5381 128.877C41.8595 129.195 42.1519 129.538 42.4718 129.857C41.9885 130.055 41.4781 130.277 41.2144 130.74C41.2017 130.761 41.2327 130.785 41.2496 130.764C41.6116 130.329 42.2345 130.249 42.7744 130.151C43.6027 130.929 44.5303 131.616 45.5684 132.13C46.6071 132.696 48.1855 132.826 48.5988 134.055C48.9293 135.285 47.8983 135.416 46.9473 135.503C45.9849 135.639 45.016 135.66 44.06 135.58C41.0717 135.456 38.2468 134.578 35.4228 133.811C31.9701 133.177 30.8498 132.663 31.0698 128.847ZM37.6603 124.404C36.3375 125.38 35.0461 126.468 34.1273 127.83C33.5194 128.938 32.7103 128.264 32.5092 127.376C32.3464 125.394 32.4864 123.683 32.2957 121.69C34.125 121.939 36.004 121.785 37.7908 121.345C37.5757 122.235 37.4772 122.573 37.4703 123.486C37.4821 123.786 37.4776 124.154 37.6603 124.404ZM31.0576 66.4108C30.8818 66.4749 30.8067 66.1951 30.9805 66.1318C31.0999 66.0882 31.2208 66.0494 31.3421 66.0127C31.3572 65.9804 31.3842 65.9525 31.4259 65.9372C32.8499 65.4195 34.4405 65.47 35.9277 65.5937C36.7271 65.6603 37.5248 65.7496 38.3146 65.89C39.0708 66.0243 39.8212 66.1894 40.5776 66.3212C40.7321 66.3408 40.8865 66.3593 41.0408 66.3766C41.2245 66.3972 41.226 66.6869 41.0408 66.666C41.0068 66.6621 40.9728 66.6576 40.9388 66.6538C40.9162 66.6617 40.8912 66.6654 40.8631 66.6609C40.7453 66.6424 40.6279 66.6226 40.5104 66.6021C39.9941 66.5362 39.4791 66.4602 38.964 66.3849C37.6093 66.1867 36.25 65.9887 34.88 65.9374C33.5925 65.889 32.2776 65.9665 31.0576 66.4108ZM40.8114 38.9322C40.4968 43.2618 40.578 47.129 40.6456 51.4651C40.6848 54.3818 40.7032 57.2994 40.6016 60.2151C38.0289 53.5791 38.8162 46.3785 38.451 39.4035C39.2113 39.1508 40.0279 39.0403 40.8114 38.9322ZM27.6802 70.9427C27.9208 71.4014 28.3249 71.7703 28.8038 72.0009C28.7447 72.1165 28.7246 72.2467 28.7183 72.3688C27.8556 72.5449 28.0982 72.9535 27.5154 73.1483C27.134 73.2535 26.7671 73.2982 26.4376 73.5288C25.3157 74.5716 25.0375 74.4949 23.8335 73.5774C23.85 73.4946 22.2116 71.8975 21.7041 71.0047C21.2812 70.2601 20.8383 69.51 20.1904 68.9341C17.0165 65.691 13.6353 62.6301 10.5629 59.2973C4.40565 53.174 5.58053 46.231 6.99471 38.5826C9.27731 38.8547 11.5725 39.4011 13.6281 40.4044C12.903 43.7801 12.8566 46.8401 12.5445 50.2657C12.4502 50.6892 12.5565 51.5048 13.1578 51.3166C18.6844 55.6956 19.3267 64.6944 26.579 67.2966C29.535 68.4957 28.2877 69.4691 29.2643 71.7331C28.7268 71.6348 28.2476 71.1852 28.0164 70.755C27.902 70.5414 27.5685 70.7294 27.6802 70.9427ZM14.0376 68.2218C13.8597 68.2425 13.6815 68.2578 13.503 68.2725C13.4822 68.2892 13.4566 68.3014 13.425 68.3052C13.1471 68.3398 12.8636 68.3852 12.5825 68.4467C12.1655 68.594 11.7443 68.7287 11.3249 68.8689C11.2882 68.8871 11.2516 68.9054 11.2156 68.9245C11.181 68.9428 11.1474 68.9457 11.1173 68.9389C11.1051 68.943 11.0927 68.9471 11.0805 68.9512C11.0772 68.9522 11.0741 68.9534 11.0711 68.9544C11.0599 68.954 11.0487 68.9538 11.0373 68.9532C11.0208 68.9526 10.9925 68.9512 10.9589 68.9491C10.9582 68.9363 10.9585 68.9237 10.9581 68.9111C10.8397 68.9145 10.7336 68.7668 10.845 68.6693C11.2534 68.3119 11.8019 68.1813 12.3263 68.1023C12.8939 68.0169 13.468 67.9989 14.0376 67.9324C14.2228 67.9108 14.2207 68.2004 14.0376 68.2218ZM8.82298 117.41C8.31458 117.371 6.14015 117.296 5.87921 117.636C6.17307 117.76 6.57705 117.692 6.89314 117.706C7.50699 117.731 8.11934 117.785 8.72685 117.871C8.68136 118.107 8.6403 118.343 8.60649 118.58C7.99368 118.638 6.80034 118.665 6.41134 119.093C7.10531 119.203 7.82786 119.104 8.5243 119.241C8.49045 119.566 8.46581 119.89 8.44749 120.215C8.17003 120.244 6.53845 120.514 6.53989 120.77C7.15073 120.851 7.79788 120.744 8.42043 120.805C8.28554 122.75 8.7428 128.624 6.07877 128.984C3.74973 128.861 2.72803 125.094 2.41151 123.287C1.70971 119.076 1.8301 114.587 3.22104 110.528C3.71784 109.399 5.07017 109.203 6.21367 109.145C6.25712 109.336 6.30012 109.523 6.34846 109.713C5.85259 110.834 5.69459 112.098 5.68102 113.312C5.78588 115.057 7.94337 116.354 9.51024 115.201C9.21736 115.915 8.99122 116.658 8.82298 117.41ZM5.74101 129.963C1.12782 128.974 0.370963 123.642 0.688045 119.721C0.946579 116.992 0.635866 111.239 3.16011 109.635C-0.102188 112.608 0.181072 132.841 7.41078 129.31C7.23049 129.88 6.30352 130.044 5.74101 129.963ZM6.64515 110.94C6.65335 110.87 6.66248 110.8 6.67215 110.729C7.18397 112.117 8.06069 113.436 9.36614 114.239C8.86635 114.862 7.89298 115.047 7.23617 114.537C6.09073 113.68 6.5683 112.13 6.64515 110.94ZM22.3697 22.291C22.3606 22.307 22.3508 22.3229 22.3412 22.3384C22.2773 22.3426 22.2132 22.3483 22.1479 22.3557C22.222 22.3335 22.2959 22.3127 22.3697 22.291ZM49.9254 135.589C49.9128 135.244 49.9079 134.798 49.5029 134.676C49.6865 133.188 48.4492 132.341 47.1502 131.929C46.0425 131.253 44.7863 130.78 43.7686 129.965C44.2411 129.877 44.7138 129.77 45.1339 129.564C45.4509 129.41 45.2981 128.894 44.9546 128.942C44.3461 129.022 43.7995 129.331 43.2276 129.545C42.9028 129.279 42.5882 129.001 42.2911 128.707C42.6613 128.635 43.132 128.662 43.3475 128.295C43.4147 128.18 43.3847 128.061 43.3035 127.973C42.9285 127.594 42.1851 127.972 41.7193 128.083C41.4956 127.825 41.2795 127.563 41.0672 127.297C41.4191 127.264 42.3345 127.329 42.1552 126.749C41.8116 126.296 41.0727 126.568 40.5758 126.661C39.9455 125.888 39.7426 124.701 38.7576 124.276C38.7222 124.088 38.4768 124.102 38.313 124.158C38.0718 123.009 38.0901 122.425 38.1608 121.247C38.892 121.045 39.6175 120.78 40.2253 120.345C40.5047 120.427 40.8436 120.332 40.9016 120.005C41.4071 116.65 41.6317 113.255 42.043 109.889C43.5427 97.4924 43.8695 82.3618 41.0933 70.1148C41.0717 69.6508 41.1045 69.1864 41.1513 68.7259C41.4824 68.6376 41.6796 68.3148 41.9537 68.1282C42.4631 67.7138 42.9812 67.4818 43.028 66.7588C43.131 66.6609 43.143 66.513 43.0866 66.3845C43.2185 65.6422 43.0241 64.9053 42.6283 64.2638C42.1944 63.533 41.7846 62.7955 41.4225 62.0287C42.2142 54.2987 41.1403 46.8073 41.7274 39.0389C42.4804 38.641 42.0078 36.4299 41.9378 35.693C41.4978 30.8528 39.2336 25.5086 34.4195 23.4953C34.0817 23.2108 33.61 23.1143 33.197 22.9576C32.9182 22.8207 32.4644 22.702 32.2735 23.0207C32.071 22.9267 31.419 22.8549 31.1958 22.6919C31.1543 22.6613 31.1276 22.6282 31.1213 22.5909C31.105 22.5915 31.0857 22.5881 31.0647 22.5838C30.859 22.2934 30.6628 20.271 30.409 20.4152C30.132 21.1098 30.324 21.8945 30.5887 22.5958C30.7715 23.2161 31.0218 24.8116 31.9923 24.4035C32.1596 24.3207 32.056 24.105 31.9062 24.0877C31.4461 23.9564 31.3437 23.2816 31.1659 22.8862C31.3765 23.0608 32.3364 23.3227 32.4412 23.3781C34.5233 28.1474 21.9346 27.8971 20.945 24.6091C20.2392 23.4731 20.8483 22.8577 22.1064 22.6754C21.1817 23.7008 22.3522 23.9286 22.7973 22.9228C23.2232 22.2026 23.417 21.3278 23.2715 20.4991C23.3464 20.2083 23.4098 19.8196 22.9737 19.8977C22.9589 19.8591 22.9351 19.8894 22.9444 19.9171C22.7853 20.1698 22.896 20.5329 22.8394 20.8247C22.7916 21.3023 22.6559 21.7702 22.4253 22.1927C21.9975 22.2741 21.5718 22.3614 21.1479 22.457C20.8937 21.9413 19.2447 22.9696 18.8019 23.0907C12.9206 24.8246 8.44808 29.4426 6.88705 35.2671C6.53859 36.0427 6.16253 36.8221 5.87738 37.6219C5.74978 37.9682 5.74978 38.3978 6.10018 38.6221C4.39266 46.4393 3.97607 54.5839 10.4268 60.4471C10.5732 61.0818 10.4756 61.7552 10.4712 62.4015C10.5135 63.5507 9.75484 66.8776 10.1167 68.592C10.0775 68.6669 10.0497 68.7472 10.0388 68.8329C9.98813 69.2314 10.3129 69.488 10.6713 69.5533C10.6822 69.5554 10.6934 69.5572 10.7045 69.5592C10.7126 69.5631 10.7205 69.5676 10.7288 69.5712C10.3011 76.1068 11.9053 84.9996 13.46 91.3046C13.575 93.4718 12.9201 95.4429 11.1576 96.8103C7.80625 99.3107 6.39451 103.484 6.00256 107.462C5.94698 107.869 6.0016 108.284 6.09346 108.684C5.36701 108.819 4.68705 108.907 3.98187 109.173C0.0927088 108.429 0.370169 116.768 0.0724606 119.243C-0.160533 122.901 -0.0150675 127.285 3.35307 129.681C4.48546 130.485 6.48442 131.258 7.58785 130.039C7.9 129.667 8.07017 129.231 7.94738 128.754C9.52923 126.442 9.15563 123.487 9.27405 120.857C9.68825 120.871 10.1396 121.056 10.5476 120.954C10.8617 120.871 10.9019 120.469 10.6361 120.309C10.2523 120.092 9.73076 120.174 9.30159 120.16C9.31469 119.908 9.33354 119.656 9.35771 119.405C9.76509 119.504 10.3489 119.743 10.4702 119.175C10.5191 118.657 9.86416 118.617 9.45629 118.595C9.48482 118.4 9.51671 118.205 9.55296 118.012C9.86518 118.043 10.1947 118.242 10.5017 118.147C10.6756 118.078 10.736 117.903 10.6089 117.76C10.3726 117.529 9.96856 117.576 9.65591 117.504C9.8458 116.575 10.189 115.687 10.5196 114.799C11.1179 115.007 11.7661 115.144 12.4045 115.092C12.7356 115.022 13.097 115.002 13.4316 115.047C13.8036 114.949 13.8896 114.552 13.9385 114.228C13.9312 114.216 13.9238 114.205 13.9157 114.195C14.7755 109.198 17.86 104.881 21.3184 101.162C22.271 100.098 23.2053 98.9914 23.8525 97.7277C25.1671 95.0866 25.403 92.1148 26.4087 89.3709C27.2559 86.8792 28.3882 84.4898 29.4983 82.0968C29.9436 85.2485 30.7747 88.3483 30.8702 91.5444C31.0151 95.5876 30.1223 99.5723 29.7415 103.583C29.0567 108.862 29.6786 114.174 29.3481 119.457C29.3506 119.831 29.3988 120.183 29.3457 120.557C29.3162 120.764 29.4652 120.894 29.6217 120.898C30.1968 121.275 30.9194 121.408 31.5804 121.569C31.7638 121.709 31.6844 122.054 31.7167 122.264C31.7878 123.448 31.8816 124.342 31.766 125.536C31.1195 126.49 30.6536 126.338 30.4737 127.788C30.3746 129.302 30.1567 130.94 30.8197 132.314C30.523 132.382 30.4104 133.285 30.4548 133.525C30.5303 134.199 31.1262 134.412 31.7023 134.645C35.9124 136.22 44.8579 138.811 49.1838 137.029C49.4938 137.204 49.8393 136.861 49.9393 136.585C50.0717 136.249 49.9498 135.923 49.9254 135.589Z" fill="#333333"/>
<path fill-rule="evenodd" clip-rule="evenodd" d="M36.9198 11.4895C36.7366 8.48937 35.761 5.08793 32.89 3.61489C26.5607 1.07986 18.239 7.46378 17.7984 13.9855C17.6447 16.2178 18.8867 18.6572 21.1564 19.2779C21.6611 19.9452 22.4243 20.3526 23.1775 20.7063C32.149 25.3513 37.944 21.5755 36.9198 11.4895Z" fill="white"/>
<path fill-rule="evenodd" clip-rule="evenodd" d="M38.9634 9.62327C38.6464 8.74448 38.3114 7.87243 37.9591 7.00713C37.616 6.16498 37.3059 5.30464 36.8799 4.5024C34.3347 -0.289062 29.7066 -0.289061 27.3144 0.337004C26.0736 -0.196446 23.7499 -0.0459743 22.4581 0.435398C20.3667 1.2147 17.8173 4.28029 16.9457 5.65762C15.0212 8.69867 13.8201 12.7462 15.0985 16.2603C15.2656 16.7196 15.4787 17.1449 15.7186 17.5548C15.5674 17.7593 15.3936 17.9529 15.2009 18.1431C14.6282 18.7085 14.0555 19.2553 13.561 19.8929C13.0694 20.5266 12.6619 21.2006 12.3585 21.9436C11.7865 23.345 11.7588 24.9315 12.5152 26.2685C13.1731 27.432 14.3386 28.2983 15.6518 28.3809C15.7194 28.3903 15.7868 28.3988 15.8547 28.4057C16.0287 28.6917 16.2408 28.955 16.483 29.1846C17.2247 29.8889 18.9932 30.2501 20.002 30.2733C20.0537 30.3146 20.1058 30.3561 20.1581 30.3972C20.7751 30.882 21.4229 31.371 22.1313 31.716C22.6113 31.9498 23.2406 32.1452 23.7412 31.9762C23.9683 32.1279 24.3409 32.0959 24.5662 31.972C24.9364 31.7685 25.2376 31.4019 25.4207 31.0267C25.8648 30.1156 25.7581 29.1186 25.644 28.1452C25.5184 27.0701 25.3975 25.9944 25.2748 24.9195C25.1786 24.0786 25.078 23.2241 24.8218 22.4141C24.6895 21.9945 24.5159 21.5913 24.2917 21.2122C24.2976 21.1805 24.2966 21.1485 24.2874 21.1186C24.2139 20.8803 24.0621 20.7553 23.8824 20.5934C23.8592 20.5726 23.836 20.5514 23.8132 20.5297C23.7233 20.4275 23.6272 20.3325 23.5243 20.2519C23.4846 20.2118 23.4455 20.1713 23.4062 20.1308C23.081 19.7907 22.7737 19.4334 22.5006 19.0504C22.2357 18.679 21.9965 18.2913 21.7688 17.8963C21.5374 17.4944 21.3842 17.0511 21.1532 16.6523C21.1333 16.6181 21.083 16.6114 21.0549 16.6396C20.9835 16.7135 20.9375 16.7955 20.9462 16.8818L20.9104 16.8871C20.897 16.7569 20.7765 16.6508 20.6133 16.6793C20.3687 16.7217 20.1676 16.7377 19.956 16.6565C19.9932 16.4101 20.0274 16.1632 20.0614 15.9158C20.1233 15.4603 20.1807 15.0037 20.2299 14.547C20.3494 14.5753 20.4678 14.6164 20.5838 14.6685C20.7491 14.7422 20.9051 14.8417 21.0386 14.9636C21.1701 15.0843 21.2609 15.2469 21.4214 15.3307C21.606 15.4268 21.8289 15.268 21.7747 15.0596C21.665 14.6386 21.0439 14.3974 20.6597 14.3178C20.5276 14.2904 20.3929 14.2788 20.258 14.2816C20.2885 13.9884 20.3156 13.6951 20.3378 13.4015C20.3483 13.2625 20.3581 13.1235 20.3673 12.9841C20.666 12.8939 20.9859 12.8669 21.2967 12.9094C21.399 12.991 21.5016 13.0714 21.6007 13.153C21.9153 13.4125 22.2285 13.6733 22.5379 13.9391C22.5657 13.9627 22.5934 13.9863 22.6213 14.0106C22.8051 14.1683 23.0342 14.012 23.0033 13.7887C22.7509 11.9588 23.8741 10.5031 25.1891 9.37536C26.6448 8.12661 29.2914 7.98121 31.0226 5.81819C31.82 5.98014 33.6002 6.46114 34.3347 7.62933C35.3632 9.26637 35.2289 10.7331 35.3072 12.5901C35.3854 14.4485 35.5846 16.3869 35.1617 18.2193C34.7716 19.909 33.7156 21.3526 32.0772 22.0163C32.0367 22.0325 31.9956 22.0486 31.9545 22.0641C31.1073 22.3828 30.1828 22.4729 29.2914 22.3052C28.305 22.119 27.4814 21.6685 26.6609 21.1143C26.6135 21.083 26.5443 21.1475 26.5801 21.1949C27.6617 22.6254 29.7863 23.1034 31.4716 22.7257C31.5505 22.708 31.6287 22.6886 31.7066 22.6675C31.3295 23.7493 31.4054 24.9368 31.8965 25.9901C32.1918 26.6238 32.6421 27.1723 33.1908 27.6049C33.7954 28.0816 34.5455 28.4664 34.9649 29.1355C35.3492 29.7485 35.2352 30.4371 34.5775 30.7912C34.4116 30.881 34.3479 31.1708 34.5121 31.2982C34.575 31.3464 34.6377 31.3956 34.702 31.4439C35.0704 31.7213 36.082 32.242 36.2458 32.2614C37.7005 32.4335 38.6787 31.3676 39.3055 30.1103C40.0416 28.6343 39.8503 26.8357 39.0393 25.4301C38.3887 24.3025 37.1075 23.1911 37.6168 21.7639C37.7986 21.2541 38.1704 20.8197 38.5314 20.4269C38.9431 19.9798 39.3857 19.5612 39.7807 19.0982C40.1731 18.6385 40.5211 18.1383 40.7154 17.5615C40.9991 16.7184 40.8579 15.8067 40.6448 14.965C40.1881 13.1583 39.5951 11.3756 38.9634 9.62327Z" fill="#333333"/>
<path fill-rule="evenodd" clip-rule="evenodd" d="M28.3836 17.9921C28.3887 17.4608 28.8501 17.369 29.2884 17.4398C30.0306 17.5597 30.7754 17.6439 31.5276 17.6592L31.6572 17.6614C31.6782 17.6311 31.713 17.6081 31.7604 17.603C32.1774 17.5581 32.6033 17.5654 33.0225 17.553C33.3882 17.5422 33.7641 17.5058 34.1296 17.5345L34.1587 17.5369C34.6058 17.58 35.0773 17.8078 35.0234 18.3312C34.9737 18.8159 34.5096 19.2449 34.1388 19.5144C34.0639 19.5683 33.9872 19.619 33.9082 19.665C33.8836 19.6965 33.8473 19.7185 33.8056 19.723C33.4405 19.9197 33.0378 20.0362 32.6208 20.0748C31.7368 20.157 30.7089 20.0681 29.8599 19.6857C29.5837 19.5616 29.3263 19.4063 29.0987 19.2156C28.7477 18.9216 28.3798 18.4757 28.3836 17.9921ZM31.8668 19.0459C31.5125 19.0351 31.1586 19.0848 30.821 19.1938C30.5923 19.2675 30.3839 19.4092 30.1647 19.5076C30.9032 19.7887 31.7614 19.8499 32.5193 19.7989C32.8518 19.7763 33.1741 19.6998 33.4743 19.5683C33.4277 19.5345 33.3803 19.5003 33.3306 19.4704C33.1809 19.3798 33.0242 19.3029 32.8607 19.2415C32.5425 19.1224 32.2067 19.0565 31.8668 19.0459ZM31.9855 14.3986C31.89 14.3301 31.9657 14.1034 32.17 14.1384C34.0258 14.4564 33.0643 17.6466 30.695 15.896C30.413 15.6689 30.7545 15.1687 31.0585 15.3633L31.1666 15.4463C31.5174 15.7147 32.098 16.1207 32.514 15.6852C32.9065 15.1363 32.3506 14.6201 31.9855 14.3986ZM33.2419 11.9842C33.6363 11.6483 34.1312 11.8959 34.4216 12.236L34.4727 12.2968C34.5309 12.3662 34.5952 12.4472 34.6339 12.5335C34.9556 12.26 35.3922 12.0677 35.8097 12.1926C36.2147 12.3141 36.4457 12.7 36.3761 13.1143C36.2973 13.5854 35.9402 13.9021 35.5564 14.1469L35.4475 14.2159C34.9864 14.5093 34.5547 14.8048 34.1752 15.2082C34.1133 15.2737 33.9794 15.265 33.9389 15.1777L33.9062 15.1074L33.8732 15.0374C33.604 14.4644 33.3154 13.8952 33.0785 13.3087C32.9031 12.8742 32.8461 12.3208 33.2419 11.9842ZM28.745 12.2885L28.8053 12.2191C29.0943 11.8835 29.5839 11.6586 29.9699 11.9842C30.3812 12.331 30.3006 12.9045 30.1173 13.3467C29.8969 13.8803 29.6393 14.4019 29.3916 14.9251L29.3389 15.0374C29.3165 15.0842 29.2947 15.1309 29.2731 15.1777C29.2324 15.265 29.0981 15.2737 29.0367 15.2082C28.6689 14.8175 28.253 14.5283 27.8085 14.2442L27.6744 14.1591C27.2843 13.9121 26.9155 13.5934 26.8353 13.1143C26.7666 12.701 26.9961 12.3127 27.4017 12.1926C27.8203 12.0687 28.2556 12.2596 28.578 12.5335C28.6164 12.445 28.6826 12.3615 28.745 12.2885ZM29.274 9.8801C29.4152 10.063 29.2644 10.3619 29.0582 10.4091C28.803 10.4677 28.545 10.4321 28.2945 10.5048C28.0647 10.5715 27.8447 10.7048 27.6479 10.8379C27.4235 10.9895 27.2167 11.1588 27.0266 11.3517C26.9137 11.4665 26.7712 11.7384 26.597 11.7433C26.4237 11.7484 26.6563 11.2077 26.6756 11.1609C26.8121 10.8279 27.0041 10.5214 27.2442 10.253C27.7178 9.7232 28.721 9.16423 29.274 9.8801ZM34.5639 9.7337L34.6821 9.76648C34.9748 9.84766 35.2871 9.9474 35.5381 10.1225L35.5578 10.1364L35.5881 10.1586C35.9034 10.393 36.349 10.8609 36.1258 11.2691C36.1105 11.2972 36.0778 11.2999 36.0515 11.2885C35.7546 11.1586 35.5344 10.8996 35.2186 10.7911L35.1604 10.7711C34.8545 10.6684 34.476 10.5603 34.1467 10.5701C33.9153 10.6452 33.6025 10.5831 33.5423 10.3019L33.5396 10.288L33.5344 10.2589C33.4998 10.0667 33.5512 9.82175 33.7505 9.72916C34.0232 9.60229 34.2892 9.65874 34.5639 9.7337Z" fill="#333333"/>
</svg>
