<svg width="186" height="215" viewBox="0 0 186 215" fill="none" xmlns="http://www.w3.org/2000/svg">
<path fill-rule="evenodd" clip-rule="evenodd" d="M94.1405 0C106.504 0 119.293 10.1505 123.825 16.6277C127.635 22.0736 129.687 46.699 129.687 63.3415C129.687 66.8214 131.5 73.3828 130.971 76.7121C129.032 88.9119 120.583 99.1443 103.861 99.1443C87.1382 99.1443 75.1475 92.1234 62.7185 73.2737C56.6877 73.2737 53.7648 68.3753 53.7225 60.6451C53.68 52.9149 59.5437 50.102 59.5437 50.102C59.5437 50.102 57.4529 19.5945 62.7185 11.6519C67.9844 3.70915 81.7777 0 94.1405 0Z" fill="white"/>
<path fill-rule="evenodd" clip-rule="evenodd" d="M56.7639 96.3572C67.6722 94.3738 74.1419 94.3738 77.8026 91.3014C81.4639 88.2286 82.1278 82.954 83.6468 78.8818C84.4838 76.6379 92.6817 74.5998 100.634 74.9186C107.115 75.1786 113.646 77.4379 114.15 78.8818C115.275 82.0971 117.081 95.862 123.023 97.977C128.964 100.092 141.649 98.1638 145.276 103.214C148.903 108.264 160.813 128.852 160.813 133.648C160.813 138.445 44.3689 136.979 44.3689 136.979C44.3689 136.979 45.8555 98.3411 56.7639 96.3572Z" fill="white"/>
<mask id="path-6-outside-1" maskUnits="userSpaceOnUse" x="0" y="77.8548" width="186" height="138" fill="black">
<rect fill="white" y="77.8548" width="186" height="138"/>
<path fill-rule="evenodd" clip-rule="evenodd" d="M9.21158 208.097C9.3781 208.195 9.24664 208.197 9.21158 208.097V208.097ZM8.56527 207.699C8.57622 207.706 8.58937 207.714 8.60252 207.721C8.47105 207.712 8.38998 207.602 8.56527 207.699ZM180.894 194.981C180.162 192.4 179.432 189.817 178.7 187.236C177.173 181.838 175.644 176.439 174.117 171.039C171.126 160.479 168.137 149.919 165.146 139.359C163.628 133.992 161.893 128.667 160.326 123.309C158.954 118.613 157.822 113.805 155.466 109.361C153.063 104.824 148.84 101.033 143.249 99.1098C138.54 97.4927 133.244 96.5973 128.117 96.3929C128.761 95.7417 128.912 94.7776 127.972 93.9907C126.807 93.0158 126.57 91.5669 126.259 90.2771C125.871 88.6655 125.269 86.938 124.107 85.5813C123.617 85.0079 122.902 84.7402 122.061 84.894C121.544 84.988 121.036 85.0984 120.534 85.2232C120.372 85.0893 120.212 84.9464 120.071 84.7728C119.754 84.3712 119.548 83.7833 119.092 83.4758C118.783 83.266 118.432 83.2154 118.071 83.3673C117.1 83.7743 117.019 85.0061 117.227 85.7622C117.269 85.9087 117.319 86.0553 117.381 86.1982C117.315 86.2235 117.247 86.2488 117.179 86.2741H117.177C115.911 86.0752 114.294 86.4948 113.058 86.5961C111.623 86.7137 110.181 86.7915 108.739 86.8295C105.788 86.9072 102.832 86.8349 99.8938 86.5907C97.03 86.3555 94.186 85.9775 91.3573 85.5506C89.5957 85.2847 87.4484 85.064 85.9015 84.1903C85.8774 83.7544 85.8642 83.3167 85.8533 82.8807C85.8314 82.1228 85.8796 81.5277 85.391 80.862C85.3844 80.8548 85.3734 80.853 85.3625 80.8566C84.7578 81.1171 84.3239 81.5621 84.0062 82.0902C83.4256 81.9618 82.8011 81.9799 82.2599 82.1662C81.4952 82.4285 80.9255 82.7306 80.3318 83.2154C79.4488 83.9335 79.1902 84.7728 78.9317 85.7369C78.7454 86.4279 78.6293 86.9217 78.2962 87.3848C78.2239 87.4843 78.1473 87.5892 78.064 87.6851C78.0333 87.7104 77.9764 87.7592 77.8799 87.8424C77.7835 87.922 77.6871 87.9998 77.5885 88.0776C77.5316 88.1246 77.2511 88.3127 77.2949 88.2874C76.0811 89.0327 74.9833 89.313 73.4846 89.6694C70.2594 90.4363 66.9552 90.9374 63.7409 91.7514C60.2286 92.6413 56.793 93.723 53.434 94.9512C40.3686 99.7284 28.6748 107.291 20.7016 117.141C11.4158 128.612 7.99772 142.546 6.30402 156.054C4.45036 170.86 4.57963 185.834 4.17428 200.701C4.12389 202.56 4.07349 204.42 4.0231 206.279C3.9727 208.097 3.83686 210.054 5.7913 211.279C7.53321 212.368 9.65418 212.026 11.5823 211.536C13.6463 211.013 15.7476 210.597 17.8751 210.299C21.8892 209.74 26.0302 209.673 30.0793 209.998C32.255 210.174 34.9172 210.839 36.7051 209.432C37.3471 208.926 37.7174 208.283 38.0198 207.609C38.3966 206.777 38.837 205.961 39.2753 205.143C39.6368 204.47 39.9961 203.794 40.3555 203.119C40.9383 205.227 41.5211 207.334 42.104 209.443C42.334 210.273 43.3835 210.337 44.0168 209.933C45.051 210.391 46.4094 210.382 47.5838 210.494C49.4726 210.673 51.3766 210.734 53.2741 210.789C56.9924 210.894 60.7106 210.952 64.4311 210.991C72.0166 211.071 79.6021 211.042 87.1855 211.015C102.21 210.961 117.232 210.707 132.249 210.385C136.478 210.295 140.707 210.214 144.936 210.129C147.048 210.087 149.162 210.045 151.277 209.996C151.91 209.982 152.55 209.933 153.15 209.817H153.152C153.42 210.011 153.748 210.159 154.141 210.248C155.545 210.566 156.941 209.857 157.361 208.738C157.556 208.224 157.692 207.754 157.644 207.254C157.716 206.878 157.789 206.502 157.861 206.126C160.205 207.35 163.019 207.683 165.795 207.531C168.935 207.359 172.075 206.885 175.19 206.533C178.115 206.201 182.857 206.308 182.997 202.973C183.048 201.752 182.423 200.382 182.09 199.207C181.691 197.798 181.292 196.39 180.894 194.981Z"/>
</mask>
<path fill-rule="evenodd" clip-rule="evenodd" d="M9.21158 208.097C9.3781 208.195 9.24664 208.197 9.21158 208.097V208.097ZM8.56527 207.699C8.57622 207.706 8.58937 207.714 8.60252 207.721C8.47105 207.712 8.38998 207.602 8.56527 207.699ZM180.894 194.981C180.162 192.4 179.432 189.817 178.7 187.236C177.173 181.838 175.644 176.439 174.117 171.039C171.126 160.479 168.137 149.919 165.146 139.359C163.628 133.992 161.893 128.667 160.326 123.309C158.954 118.613 157.822 113.805 155.466 109.361C153.063 104.824 148.84 101.033 143.249 99.1098C138.54 97.4927 133.244 96.5973 128.117 96.3929C128.761 95.7417 128.912 94.7776 127.972 93.9907C126.807 93.0158 126.57 91.5669 126.259 90.2771C125.871 88.6655 125.269 86.938 124.107 85.5813C123.617 85.0079 122.902 84.7402 122.061 84.894C121.544 84.988 121.036 85.0984 120.534 85.2232C120.372 85.0893 120.212 84.9464 120.071 84.7728C119.754 84.3712 119.548 83.7833 119.092 83.4758C118.783 83.266 118.432 83.2154 118.071 83.3673C117.1 83.7743 117.019 85.0061 117.227 85.7622C117.269 85.9087 117.319 86.0553 117.381 86.1982C117.315 86.2235 117.247 86.2488 117.179 86.2741H117.177C115.911 86.0752 114.294 86.4948 113.058 86.5961C111.623 86.7137 110.181 86.7915 108.739 86.8295C105.788 86.9072 102.832 86.8349 99.8938 86.5907C97.03 86.3555 94.186 85.9775 91.3573 85.5506C89.5957 85.2847 87.4484 85.064 85.9015 84.1903C85.8774 83.7544 85.8642 83.3167 85.8533 82.8807C85.8314 82.1228 85.8796 81.5277 85.391 80.862C85.3844 80.8548 85.3734 80.853 85.3625 80.8566C84.7578 81.1171 84.3239 81.5621 84.0062 82.0902C83.4256 81.9618 82.8011 81.9799 82.2599 82.1662C81.4952 82.4285 80.9255 82.7306 80.3318 83.2154C79.4488 83.9335 79.1902 84.7728 78.9317 85.7369C78.7454 86.4279 78.6293 86.9217 78.2962 87.3848C78.2239 87.4843 78.1473 87.5892 78.064 87.6851C78.0333 87.7104 77.9764 87.7592 77.8799 87.8424C77.7835 87.922 77.6871 87.9998 77.5885 88.0776C77.5316 88.1246 77.2511 88.3127 77.2949 88.2874C76.0811 89.0327 74.9833 89.313 73.4846 89.6694C70.2594 90.4363 66.9552 90.9374 63.7409 91.7514C60.2286 92.6413 56.793 93.723 53.434 94.9512C40.3686 99.7284 28.6748 107.291 20.7016 117.141C11.4158 128.612 7.99772 142.546 6.30402 156.054C4.45036 170.86 4.57963 185.834 4.17428 200.701C4.12389 202.56 4.07349 204.42 4.0231 206.279C3.9727 208.097 3.83686 210.054 5.7913 211.279C7.53321 212.368 9.65418 212.026 11.5823 211.536C13.6463 211.013 15.7476 210.597 17.8751 210.299C21.8892 209.74 26.0302 209.673 30.0793 209.998C32.255 210.174 34.9172 210.839 36.7051 209.432C37.3471 208.926 37.7174 208.283 38.0198 207.609C38.3966 206.777 38.837 205.961 39.2753 205.143C39.6368 204.47 39.9961 203.794 40.3555 203.119C40.9383 205.227 41.5211 207.334 42.104 209.443C42.334 210.273 43.3835 210.337 44.0168 209.933C45.051 210.391 46.4094 210.382 47.5838 210.494C49.4726 210.673 51.3766 210.734 53.2741 210.789C56.9924 210.894 60.7106 210.952 64.4311 210.991C72.0166 211.071 79.6021 211.042 87.1855 211.015C102.21 210.961 117.232 210.707 132.249 210.385C136.478 210.295 140.707 210.214 144.936 210.129C147.048 210.087 149.162 210.045 151.277 209.996C151.91 209.982 152.55 209.933 153.15 209.817H153.152C153.42 210.011 153.748 210.159 154.141 210.248C155.545 210.566 156.941 209.857 157.361 208.738C157.556 208.224 157.692 207.754 157.644 207.254C157.716 206.878 157.789 206.502 157.861 206.126C160.205 207.35 163.019 207.683 165.795 207.531C168.935 207.359 172.075 206.885 175.19 206.533C178.115 206.201 182.857 206.308 182.997 202.973C183.048 201.752 182.423 200.382 182.09 199.207C181.691 197.798 181.292 196.39 180.894 194.981Z" fill="#81A177"/>
<path d="M8.56527 207.699L10.2186 205.196L10.1243 205.134L10.0256 205.079L8.56527 207.699ZM8.60252 207.721L8.39661 210.714L10.049 205.093L8.60252 207.721ZM180.894 194.981L183.78 194.164L183.78 194.163L180.894 194.981ZM178.7 187.236L175.814 188.052L175.814 188.054L178.7 187.236ZM174.117 171.039L177.003 170.223L177.003 170.222L174.117 171.039ZM165.146 139.359L162.26 140.175L162.26 140.176L165.146 139.359ZM160.326 123.309L157.446 124.15L157.447 124.151L160.326 123.309ZM155.466 109.361L152.815 110.765L152.815 110.765L155.466 109.361ZM143.249 99.1098L144.224 96.2729L144.223 96.2725L143.249 99.1098ZM128.117 96.3929L125.984 94.2831L121.2 99.1195L127.998 99.3905L128.117 96.3929ZM127.972 93.9907L129.898 91.6903L129.897 91.6896L127.972 93.9907ZM126.259 90.2771L123.342 90.979L123.343 90.9807L126.259 90.2771ZM124.107 85.5813L121.828 87.5321L121.828 87.5322L124.107 85.5813ZM122.061 84.894L122.598 87.8456L122.6 87.8451L122.061 84.894ZM120.534 85.2232L118.624 87.5367L119.79 88.4996L121.258 88.1345L120.534 85.2232ZM120.071 84.7728L117.719 86.6342L117.728 86.6459L117.737 86.6576L120.071 84.7728ZM119.092 83.4758L117.406 85.9576L117.414 85.9627L119.092 83.4758ZM118.071 83.3673L119.231 86.1339L119.233 86.133L118.071 83.3673ZM117.227 85.7622L114.335 86.5585L114.338 86.5703L114.342 86.5822L117.227 85.7622ZM117.381 86.1982L118.459 88.9976L121.367 87.8775L120.137 85.0147L117.381 86.1982ZM117.179 86.2741V89.2741H117.72L118.227 89.0851L117.179 86.2741ZM117.177 86.2741L116.711 89.2378L116.943 89.2741H117.177V86.2741ZM113.058 86.5961L113.303 89.5861L113.303 89.5861L113.058 86.5961ZM108.739 86.8295L108.66 83.8305L108.66 83.8305L108.739 86.8295ZM99.8938 86.5907L100.142 83.601L100.139 83.6007L99.8938 86.5907ZM91.3573 85.5506L90.9095 88.517L90.9096 88.517L91.3573 85.5506ZM85.9015 84.1903L82.9061 84.3559L82.9967 85.9952L84.4262 86.8025L85.9015 84.1903ZM85.8533 82.8807L88.8524 82.8054L88.852 82.794L85.8533 82.8807ZM85.391 80.862L87.8094 79.0869L87.7167 78.9606L87.6115 78.8448L85.391 80.862ZM85.3625 80.8566L84.4218 78.0079L84.2967 78.0492L84.1757 78.1013L85.3625 80.8566ZM84.0062 82.0902L83.3583 85.0194L85.4649 85.4854L86.577 83.6366L84.0062 82.0902ZM82.2599 82.1662L83.2332 85.0039L83.2365 85.0028L82.2599 82.1662ZM80.3318 83.2154L82.2246 85.5428L82.229 85.5392L80.3318 83.2154ZM78.9317 85.7369L81.8283 86.5176L81.8293 86.514L78.9317 85.7369ZM78.2962 87.3848L80.723 89.1485L80.7274 89.1425L80.7318 89.1364L78.2962 87.3848ZM78.064 87.6851L79.9739 89.9985L80.1658 89.8401L80.329 89.6522L78.064 87.6851ZM77.8799 87.8424L79.7899 90.1559L79.8152 90.135L79.8401 90.1135L77.8799 87.8424ZM77.5885 88.0776L75.7305 85.7222L75.7043 85.7429L75.6786 85.7641L77.5885 88.0776ZM77.2949 88.2874L78.8646 90.844L75.7939 85.6899L77.2949 88.2874ZM73.4846 89.6694L72.7907 86.7507L72.7906 86.7508L73.4846 89.6694ZM63.7409 91.7514L63.0044 88.8432L63.004 88.8433L63.7409 91.7514ZM53.434 94.9512L54.4642 97.7688L54.4643 97.7688L53.434 94.9512ZM20.7016 117.141L18.3699 115.253L18.3698 115.253L20.7016 117.141ZM6.30402 156.054L3.32732 155.681L3.32726 155.682L6.30402 156.054ZM4.17428 200.701L1.1754 200.619L1.17538 200.619L4.17428 200.701ZM4.0231 206.279L7.02195 206.362L7.022 206.361L4.0231 206.279ZM5.7913 211.279L4.19844 213.821L4.20106 213.823L5.7913 211.279ZM11.5823 211.536L10.8458 208.628L10.8431 208.628L11.5823 211.536ZM17.8751 210.299L17.4614 207.327L17.4583 207.328L17.8751 210.299ZM30.0793 209.998L30.3204 207.008L30.3197 207.008L30.0793 209.998ZM36.7051 209.432L38.5606 211.789L38.5633 211.787L36.7051 209.432ZM38.0198 207.609L35.287 206.371L35.2821 206.382L38.0198 207.609ZM39.2753 205.143L36.6325 203.723L36.6311 203.726L39.2753 205.143ZM40.3555 203.119L43.2469 202.319L41.2424 195.072L37.7076 201.709L40.3555 203.119ZM42.104 209.443L39.2123 210.242L39.2129 210.244L42.104 209.443ZM44.0168 209.933L45.2307 207.19L43.7607 206.539L42.405 207.403L44.0168 209.933ZM47.5838 210.494L47.2987 213.48L47.3007 213.481L47.5838 210.494ZM53.2741 210.789L53.1883 213.788L53.1895 213.788L53.2741 210.789ZM64.4311 210.991L64.399 213.991L64.3996 213.991L64.4311 210.991ZM87.1855 211.015L87.1962 214.015L87.1963 214.015L87.1855 211.015ZM132.249 210.385L132.185 207.386L132.185 207.386L132.249 210.385ZM144.936 210.129L144.877 207.129L144.876 207.129L144.936 210.129ZM151.277 209.996L151.208 206.997L151.208 206.997L151.277 209.996ZM153.15 209.817V206.817H152.864L152.582 206.872L153.15 209.817ZM153.152 209.817L154.912 207.387L154.124 206.817H153.152V209.817ZM154.141 210.248L154.804 207.322L154.802 207.322L154.141 210.248ZM157.361 208.738L154.557 207.673L154.553 207.682L157.361 208.738ZM157.644 207.254L154.698 206.688L154.616 207.112L154.658 207.543L157.644 207.254ZM157.861 206.126L159.25 203.466L155.676 201.6L154.915 205.559L157.861 206.126ZM165.795 207.531L165.631 204.535L165.631 204.535L165.795 207.531ZM175.19 206.533L174.853 203.552L174.853 203.552L175.19 206.533ZM182.997 202.973L185.994 203.099L185.995 203.096L182.997 202.973ZM182.09 199.207L179.203 200.024L179.204 200.024L182.09 199.207ZM7.69371 210.685C7.66559 210.668 7.33094 210.482 7.00516 210.1C6.90949 209.988 6.75462 209.79 6.61436 209.512C6.49098 209.268 6.25518 208.721 6.29943 207.986C6.35272 207.101 6.80352 206.235 7.60336 205.69C8.27089 205.236 8.92806 205.176 9.2459 205.171C9.8857 205.163 10.3554 205.362 10.542 205.449C10.7931 205.567 11.0043 205.709 11.1781 205.855C11.5287 206.149 11.8523 206.564 12.0411 207.1L6.38211 209.094C6.58841 209.68 6.94158 210.132 7.32148 210.451C7.50994 210.609 7.73571 210.761 7.99976 210.884C8.19936 210.977 8.68043 211.18 9.32845 211.171C9.65039 211.166 10.3109 211.106 10.9808 210.649C11.7829 210.103 12.2351 209.235 12.2886 208.347C12.333 207.609 12.0962 207.058 11.9705 206.808C11.8279 206.526 11.6693 206.323 11.5684 206.204C11.2215 205.798 10.8408 205.575 10.7295 205.509L7.69371 210.685ZM6.91197 210.203C6.9888 210.253 7.05318 210.291 7.08783 210.311C7.12221 210.331 7.15292 210.347 7.15601 210.349L10.049 205.093C10.039 205.087 10.0565 205.097 10.0783 205.109C10.1004 205.122 10.1527 205.152 10.2186 205.196L6.91197 210.203ZM8.80842 204.728C9.16077 204.752 9.46323 204.841 9.7068 204.946C9.85608 205.011 10.2927 205.21 10.7034 205.668C10.8088 205.786 11.08 206.103 11.2677 206.594C11.4533 207.08 11.7541 208.363 10.7998 209.545C9.994 210.543 8.9169 210.638 8.65138 210.654C8.26746 210.677 7.9696 210.619 7.84341 210.592C7.56606 210.532 7.36612 210.446 7.29971 210.416C7.20744 210.376 7.14022 210.339 7.10495 210.32L10.0256 205.079C9.95277 205.038 9.59431 204.832 9.11389 204.728C8.9802 204.699 8.67644 204.641 8.28813 204.665C8.01821 204.681 6.93821 204.776 6.13089 205.777C5.1751 206.961 5.47587 208.246 5.66266 208.735C5.85156 209.23 6.1252 209.55 6.23435 209.672C6.65978 210.147 7.13039 210.369 7.32637 210.454C7.61663 210.579 7.97853 210.685 8.39661 210.714L8.80842 204.728ZM183.78 194.163C183.414 192.873 183.049 191.583 182.684 190.291C182.318 189.001 181.953 187.709 181.587 186.417L175.814 188.054C176.18 189.344 176.545 190.634 176.91 191.925C177.276 193.216 177.641 194.508 178.007 195.799L183.78 194.163ZM181.587 186.419C180.059 181.019 178.531 175.623 177.003 170.223L171.23 171.856C172.757 177.255 174.287 182.656 175.814 188.052L181.587 186.419ZM177.003 170.222C175.508 164.942 174.013 159.662 172.518 154.382C171.023 149.102 169.528 143.821 168.033 138.541L162.26 140.176C163.755 145.456 165.25 150.736 166.745 156.016C168.24 161.296 169.735 166.576 171.23 171.857L177.003 170.222ZM168.033 138.542C166.531 133.234 164.716 127.632 163.205 122.467L157.447 124.151C159.07 129.702 160.725 134.75 162.26 140.175L168.033 138.542ZM163.206 122.468C161.896 117.982 160.657 112.749 158.117 107.956L152.815 110.765C154.986 114.861 156.013 119.243 157.446 124.15L163.206 122.468ZM158.117 107.956C155.356 102.745 150.534 98.4426 144.224 96.2729L142.273 101.947C147.147 103.623 150.769 106.903 152.815 110.765L158.117 107.956ZM144.223 96.2725C139.201 94.5476 133.612 93.6096 128.237 93.3953L127.998 99.3905C132.877 99.585 137.879 100.438 142.274 101.947L144.223 96.2725ZM130.25 98.5027C130.988 97.7567 131.636 96.6342 131.639 95.2485C131.642 93.7827 130.922 92.5475 129.898 91.6903L126.047 96.2911C125.963 96.2208 125.638 95.8611 125.639 95.2368C125.64 94.6927 125.89 94.3779 125.984 94.2831L130.25 98.5027ZM129.897 91.6896C129.828 91.6316 129.727 91.5221 129.602 91.1919C129.445 90.7759 129.369 90.3775 129.175 89.5736L123.343 90.9807C123.558 91.8713 123.949 94.5367 126.048 96.2919L129.897 91.6896ZM129.176 89.5753C128.75 87.8077 128.01 85.5273 126.386 83.6305L121.828 87.5322C122.527 88.3487 122.992 89.5232 123.342 90.979L129.176 89.5753ZM126.387 83.6306C125.177 82.218 123.377 81.6038 121.522 81.9429L122.6 87.8451C122.562 87.8521 122.423 87.8652 122.235 87.8001C122.045 87.7346 121.908 87.6248 121.828 87.5321L126.387 83.6306ZM121.524 81.9424C120.941 82.0485 120.37 82.1725 119.81 82.3119L121.258 88.1345C121.701 88.0243 122.147 87.9276 122.598 87.8456L121.524 81.9424ZM122.444 82.9097C122.418 82.8886 122.4 82.8732 122.387 82.8615C122.373 82.85 122.367 82.8437 122.365 82.8417C122.36 82.8378 122.378 82.854 122.405 82.888L117.737 86.6576C118.067 87.0662 118.41 87.3601 118.624 87.5367L122.444 82.9097ZM122.424 82.9114C122.459 82.9551 122.461 82.966 122.408 82.8799C122.402 82.8689 122.247 82.6103 122.173 82.4919C121.974 82.1762 121.537 81.5065 120.77 80.989L117.414 85.9627C117.246 85.8496 117.145 85.7394 117.101 85.6874C117.061 85.6403 117.055 85.6239 117.094 85.6861C117.113 85.7156 117.134 85.7517 117.168 85.8079C117.197 85.8556 117.244 85.9345 117.288 86.008C117.378 86.1547 117.525 86.3897 117.719 86.6342L122.424 82.9114ZM120.778 80.9941C119.69 80.2556 118.273 80.0282 116.909 80.6016L119.233 86.133C118.971 86.2434 118.631 86.3095 118.255 86.2659C117.888 86.2232 117.6 86.0887 117.406 85.9576L120.778 80.9941ZM116.911 80.6007C115.326 81.265 114.578 82.6017 114.3 83.6927C114.037 84.7245 114.114 85.7564 114.335 86.5585L120.12 84.966C120.133 85.0152 120.134 85.0354 120.134 85.0408C120.134 85.0463 120.135 85.0915 120.114 85.175C120.093 85.259 120.035 85.4307 119.885 85.6271C119.723 85.8395 119.495 86.0232 119.231 86.1339L116.911 80.6007ZM114.342 86.5822C114.413 86.8339 114.505 87.104 114.624 87.3817L120.137 85.0147C120.134 85.0066 120.125 84.9836 120.113 84.9423L114.342 86.5822ZM116.302 83.3987C116.254 83.4172 116.202 83.4368 116.131 83.4632L118.227 89.0851C118.292 89.0608 118.376 89.0298 118.459 88.9976L116.302 83.3987ZM117.179 83.2741H117.177V89.2741H117.179V83.2741ZM117.643 83.3105C116.561 83.1406 115.482 83.249 114.721 83.3473C113.756 83.4721 113.361 83.5612 112.813 83.6062L113.303 89.5861C113.99 89.5297 115.022 89.3584 115.491 89.2978C116.164 89.2107 116.526 89.2087 116.711 89.2378L117.643 83.3105ZM112.813 83.6061C111.433 83.7192 110.047 83.794 108.66 83.8305L108.818 89.8284C110.315 89.789 111.812 89.7082 113.303 89.5861L112.813 83.6061ZM108.66 83.8305C105.81 83.9056 102.964 83.8355 100.142 83.601L99.6453 89.5804C102.7 89.8343 105.765 89.9089 108.818 89.8284L108.66 83.8305ZM100.139 83.6007C97.3717 83.3735 94.6025 83.0064 91.805 82.5842L90.9096 88.517C93.7695 88.9486 96.6884 89.3376 99.6482 89.5806L100.139 83.6007ZM91.805 82.5842C90.82 82.4355 90.0019 82.3364 89.1596 82.1612C88.3336 81.9895 87.7577 81.7933 87.3768 81.5782L84.4262 86.8025C85.5922 87.4611 86.8634 87.8121 87.9381 88.0356C88.9966 88.2557 90.1329 88.3998 90.9095 88.517L91.805 82.5842ZM88.8969 84.0247C88.8754 83.6357 88.8631 83.235 88.8523 82.8054L82.8542 82.9561C82.8654 83.3984 82.8794 83.8731 82.9061 84.3559L88.8969 84.0247ZM88.852 82.794C88.8393 82.3549 88.9673 80.6644 87.8094 79.0869L82.9726 82.6372C82.9507 82.6074 82.9139 82.5485 82.8811 82.4664C82.8489 82.386 82.837 82.3247 82.8341 82.3062C82.8328 82.298 82.8382 82.3282 82.8425 82.4467C82.8446 82.5054 82.846 82.571 82.8477 82.6614C82.8493 82.7451 82.8513 82.8547 82.8545 82.9674L88.852 82.794ZM87.6115 78.8448C86.5791 77.7084 85.195 77.7526 84.4218 78.0079L86.3032 83.7053C85.5518 83.9534 84.1897 84.0012 83.1705 82.8793L87.6115 78.8448ZM84.1757 78.1013C82.8659 78.6655 81.9961 79.6118 81.4354 80.5439L86.577 83.6366C86.6175 83.5692 86.6383 83.5525 86.6288 83.5614C86.6238 83.5661 86.6132 83.5752 86.5973 83.5857C86.5812 83.5964 86.5645 83.6053 86.5493 83.6119L84.1757 78.1013ZM84.6541 79.161C83.6061 78.9292 82.413 78.9407 81.2834 79.3296L83.2365 85.0028C83.2031 85.0143 83.2025 85.0092 83.2372 85.0078C83.2711 85.0065 83.3147 85.0098 83.3583 85.0194L84.6541 79.161ZM81.2866 79.3285C80.2323 79.6901 79.339 80.1531 78.4345 80.8915L82.229 85.5392C82.5121 85.3081 82.7582 85.1669 83.2332 85.0039L81.2866 79.3285ZM78.4389 80.8879C76.7553 82.2571 76.3066 83.9435 76.034 84.9599L81.8293 86.514C81.96 86.0266 82.0257 85.8372 82.0878 85.7116C82.1209 85.6443 82.1457 85.607 82.2246 85.5428L78.4389 80.8879ZM76.035 84.9562C75.9817 85.154 75.949 85.2793 75.9122 85.4104C75.8781 85.5317 75.8553 85.6044 75.8382 85.653C75.8106 85.7317 75.8161 85.6951 75.8607 85.6331L80.7318 89.1364C81.4536 88.1328 81.6925 87.0216 81.8283 86.5176L76.035 84.9562ZM75.8695 85.621C75.8326 85.6718 75.8138 85.6973 75.7986 85.7173C75.7845 85.7358 75.786 85.7329 75.799 85.7179L80.329 89.6522C80.51 89.4438 80.659 89.2366 80.723 89.1485L75.8695 85.621ZM76.1541 85.3716C76.0923 85.4226 76.0067 85.4963 75.9198 85.5713L79.8401 90.1135C79.8875 90.0726 79.9219 90.043 79.9469 90.0216C79.9749 89.9977 79.9801 89.9935 79.9739 89.9985L76.1541 85.3716ZM75.97 85.5289C75.8911 85.5941 75.812 85.6579 75.7305 85.7222L79.4466 90.4329C79.5623 90.3416 79.676 90.2499 79.7899 90.1559L75.97 85.5289ZM75.6786 85.7641C75.7753 85.6843 75.8374 85.6453 75.6948 85.7441C75.6685 85.7623 75.6198 85.796 75.5864 85.8195C75.5766 85.8264 75.5616 85.837 75.5448 85.8492C75.5368 85.8549 75.4931 85.8863 75.4413 85.9269C75.4342 85.9325 75.3351 86.0089 75.2223 86.1163C75.1882 86.1487 75.1292 86.2063 75.0605 86.2827C75.0103 86.3384 74.8615 86.5057 74.7152 86.7506C74.6425 86.8723 74.5094 87.1127 74.4123 87.4427C74.3225 87.7479 74.1814 88.4063 74.4292 89.1919C75.0787 91.2519 77.0987 91.2907 77.3054 91.2897C77.7519 91.2875 78.0894 91.1824 78.1633 91.16C78.2933 91.1204 78.3934 91.0802 78.4445 91.0589C78.5493 91.0152 78.6287 90.975 78.6586 90.9597C78.7273 90.9245 78.78 90.8941 78.796 90.8849L75.7939 85.6899C75.8071 85.6823 75.8577 85.653 75.9249 85.6186C75.9541 85.6037 76.0328 85.5638 76.1372 85.5203C76.188 85.4991 76.288 85.4589 76.4178 85.4194C76.4916 85.397 76.8289 85.292 77.2753 85.2898C77.482 85.2887 79.5019 85.3275 80.1514 87.3875C80.3991 88.1731 80.2581 88.8315 80.1683 89.1366C80.0712 89.4665 79.9382 89.707 79.8655 89.8286C79.7192 90.0734 79.5705 90.2406 79.5205 90.2962C79.4519 90.3724 79.393 90.4299 79.3591 90.4621C79.247 90.5688 79.1492 90.6441 79.1439 90.6483C79.0957 90.686 79.0576 90.7133 79.057 90.7138C79.0517 90.7176 79.0478 90.7204 79.0458 90.7218C79.0436 90.7233 79.0424 90.7242 79.0422 90.7243C79.042 90.7245 79.0437 90.7233 79.0479 90.7203C79.052 90.7175 79.0572 90.7139 79.0638 90.7093C79.079 90.6988 79.092 90.6898 79.1131 90.6751C79.114 90.6745 79.3448 90.5179 79.4984 90.3911L75.6786 85.7641ZM75.7253 85.7308C74.9619 86.1995 74.2907 86.3941 72.7907 86.7507L74.1786 92.588C75.676 92.232 77.2003 91.8658 78.8646 90.844L75.7253 85.7308ZM72.7906 86.7508C71.2459 87.1181 69.6775 87.4229 68.0261 87.7498C66.3977 88.0722 64.6971 88.4145 63.0044 88.8432L64.4774 94.6596C65.999 94.2742 67.5576 93.959 69.1912 93.6356C70.8017 93.3168 72.4981 92.9876 74.1787 92.588L72.7906 86.7508ZM63.004 88.8433C59.3824 89.7609 55.8486 90.8741 52.4038 92.1337L54.4643 97.7688C57.7373 96.572 61.0748 95.5217 64.4778 94.6595L63.004 88.8433ZM52.4038 92.1337C38.953 97.0518 26.7595 104.889 18.3699 115.253L23.0334 119.028C30.5901 109.693 41.7842 102.405 54.4642 97.7688L52.4038 92.1337ZM18.3698 115.253C8.55708 127.376 5.04514 141.98 3.32732 155.681L9.28071 156.428C10.9503 143.111 14.2745 129.849 23.0334 119.028L18.3698 115.253ZM3.32726 155.682C1.44961 170.679 1.57677 185.898 1.1754 200.619L7.17317 200.783C7.5825 185.769 7.45111 171.041 9.28078 156.427L3.32726 155.682ZM1.17538 200.619C1.15019 201.549 1.12499 202.479 1.09979 203.409C1.07459 204.338 1.0494 205.268 1.0242 206.198L7.022 206.361C7.04719 205.431 7.07239 204.501 7.09759 203.571C7.12279 202.642 7.14798 201.712 7.17318 200.782L1.17538 200.619ZM1.02425 206.196C0.984953 207.614 0.56671 211.546 4.19844 213.821L7.38417 208.737C7.22542 208.637 7.17746 208.569 7.16378 208.549C7.14612 208.523 7.11033 208.462 7.07606 208.316C7.03868 208.157 7.01049 207.929 7.00246 207.585C6.99403 207.225 7.008 206.866 7.02195 206.362L1.02425 206.196ZM4.20106 213.823C7.12725 215.652 10.4298 214.924 12.3215 214.443L10.8431 208.628C8.87856 209.128 7.93918 209.084 7.38155 208.735L4.20106 213.823ZM12.3189 214.444C14.2805 213.947 16.275 213.552 18.2919 213.269L17.4583 207.328C15.2202 207.642 13.0122 208.079 10.8458 208.628L12.3189 214.444ZM18.2889 213.27C22.0607 212.745 25.9806 212.678 29.8388 212.989L30.3197 207.008C26.0798 206.667 21.7177 206.735 17.4614 207.327L18.2889 213.27ZM29.8381 212.989C30.3214 213.028 30.7897 213.09 31.4484 213.163C32.0542 213.231 32.7689 213.301 33.5055 213.309C34.9479 213.324 36.8807 213.112 38.5606 211.789L34.8496 207.075C34.7416 207.16 34.4493 207.318 33.5698 207.309C33.1454 207.304 32.6748 207.263 32.1136 207.2C31.6054 207.144 30.925 207.057 30.3204 207.008L29.8381 212.989ZM38.5633 211.787C39.7616 210.842 40.3759 209.687 40.7574 208.836L35.2821 206.382C35.0589 206.88 34.9327 207.009 34.847 207.077L38.5633 211.787ZM40.7525 208.847C41.0799 208.124 41.4684 207.402 41.9194 206.561L36.6311 203.726C36.2057 204.52 35.7134 205.43 35.287 206.371L40.7525 208.847ZM41.918 206.563C42.2829 205.884 42.6462 205.2 43.0033 204.529L37.7076 201.709C37.3461 202.388 36.9907 203.057 36.6325 203.723L41.918 206.563ZM37.464 203.919C38.0469 206.026 38.6296 208.133 39.2123 210.242L44.9956 208.644C44.4126 206.534 43.8297 204.427 43.2469 202.319L37.464 203.919ZM39.2129 210.244C39.6957 211.987 41.109 212.866 42.3582 213.1C43.494 213.312 44.6855 213.064 45.6286 212.463L42.405 207.403C42.7148 207.206 43.0649 207.128 43.4602 207.202C43.6873 207.244 44.0079 207.354 44.3235 207.615C44.6598 207.894 44.89 208.263 44.995 208.642L39.2129 210.244ZM42.8028 212.677C43.7377 213.09 44.6943 213.244 45.4138 213.324C45.7868 213.366 46.1516 213.393 46.4625 213.416C46.7924 213.439 47.0504 213.457 47.2987 213.48L47.869 207.508C47.5301 207.475 47.1779 207.452 46.8905 207.431C46.584 207.409 46.3244 207.389 46.0817 207.362C45.5698 207.304 45.33 207.234 45.2307 207.19L42.8028 212.677ZM47.3007 213.481C49.3005 213.67 51.2967 213.733 53.1883 213.788L53.3599 207.79C51.4565 207.736 49.6446 207.676 47.867 207.507L47.3007 213.481ZM53.1895 213.788C56.9322 213.893 60.6697 213.951 64.399 213.991L64.4632 207.992C60.7516 207.952 57.0526 207.894 53.3587 207.79L53.1895 213.788ZM64.3996 213.991C72.01 214.071 79.6171 214.042 87.1962 214.015L87.1747 208.015C79.5872 208.042 72.0232 208.071 64.4626 207.992L64.3996 213.991ZM87.1963 214.015C102.246 213.96 117.288 213.707 132.314 213.385L132.185 207.386C117.176 207.708 102.173 207.961 87.1746 208.015L87.1963 214.015ZM132.314 213.385C136.54 213.294 140.764 213.213 144.996 213.128L144.876 207.129C140.65 207.214 136.417 207.296 132.185 207.386L132.314 213.385ZM144.995 213.128C147.106 213.086 149.226 213.045 151.346 212.996L151.208 206.997C149.099 207.046 146.99 207.087 144.877 207.129L144.995 213.128ZM151.345 212.996C152.075 212.979 152.895 212.922 153.718 212.763L152.582 206.872C152.204 206.945 151.745 206.985 151.208 206.997L151.345 212.996ZM153.15 212.817H153.152V206.817H153.15V212.817ZM151.393 212.247C152.022 212.703 152.733 213.006 153.479 213.174L154.802 207.322C154.781 207.317 154.785 207.316 154.807 207.326C154.829 207.335 154.866 207.355 154.912 207.387L151.393 212.247ZM153.477 213.174C156.099 213.768 159.138 212.539 160.17 209.793L154.553 207.682C154.656 207.409 154.814 207.331 154.82 207.328C154.839 207.319 154.829 207.328 154.804 207.322L153.477 213.174ZM160.166 209.802C160.393 209.205 160.748 208.189 160.63 206.966L154.658 207.543C154.653 207.487 154.653 207.439 154.656 207.404C154.658 207.37 154.662 207.355 154.661 207.362C154.659 207.37 154.652 207.398 154.635 207.452C154.618 207.506 154.593 207.576 154.557 207.673L160.166 209.802ZM160.59 207.82C160.626 207.632 160.663 207.444 160.699 207.256C160.735 207.068 160.771 206.88 160.807 206.692L154.915 205.559C154.879 205.747 154.843 205.936 154.806 206.124C154.77 206.312 154.734 206.5 154.698 206.688L160.59 207.82ZM156.472 208.785C159.47 210.351 162.885 210.695 165.959 210.527L165.631 204.535C163.153 204.671 160.941 204.349 159.25 203.466L156.472 208.785ZM165.959 210.527C169.213 210.348 172.562 209.849 175.528 209.513L174.853 203.552C171.587 203.921 168.656 204.37 165.631 204.535L165.959 210.527ZM175.528 209.513C176.6 209.392 179.067 209.286 180.934 208.772C181.939 208.495 183.146 208.021 184.149 207.108C185.246 206.11 185.925 204.74 185.994 203.099L180 202.847C179.999 202.873 180.033 202.741 180.11 202.671C180.111 202.67 180.065 202.712 179.931 202.776C179.797 202.841 179.605 202.914 179.342 202.987C178.8 203.136 178.125 203.238 177.316 203.322C176.918 203.363 176.521 203.396 176.103 203.432C175.697 203.467 175.264 203.505 174.853 203.552L175.528 209.513ZM185.995 203.096C186.041 201.977 185.779 200.943 185.562 200.215C185.449 199.837 185.324 199.466 185.224 199.168C185.118 198.848 185.038 198.606 184.976 198.389L179.204 200.024C179.309 200.395 179.432 200.765 179.534 201.071C179.644 201.398 179.734 201.666 179.812 201.93C179.978 202.486 180.004 202.747 180 202.849L185.995 203.096ZM184.977 198.39C184.777 197.685 184.578 196.981 184.378 196.276C184.179 195.572 183.98 194.868 183.78 194.164L178.007 195.798C178.207 196.503 178.406 197.207 178.605 197.911C178.805 198.615 179.004 199.319 179.203 200.024L184.977 198.39Z" fill="black" mask="url(#path-6-outside-1)"/>
<path fill-rule="evenodd" clip-rule="evenodd" d="M105.907 74.459C104.284 73.9459 102.803 73.0218 101.691 71.797C101.304 71.3709 101.183 70.905 101.23 70.47C101.283 69.9813 101.56 69.5248 101.966 69.2065C102.371 68.8874 102.888 68.7119 103.399 68.7572C103.846 68.7975 104.302 68.9983 104.681 69.4462L104.761 69.5356C105.426 70.2749 106.267 70.8648 107.205 71.2236C108.114 71.5685 109.102 71.6971 110.119 71.5322C112.051 71.2192 113.326 70.1673 114.664 68.7614C114.828 68.5833 114.993 68.401 115.166 68.2155C115.267 68.0505 115.418 67.9387 115.58 67.8761C115.77 67.806 115.991 67.7961 116.189 67.8496C116.386 67.9013 116.569 68.0091 116.689 68.1599C116.809 68.3021 116.885 68.4821 116.87 68.6957C116.826 70.0769 116.128 71.3477 115.091 72.3724C113.94 73.5103 112.373 74.3409 110.868 74.6867C109.209 75.067 107.491 74.9579 105.907 74.459ZM110.319 52.9348C112.16 53.8421 115.024 56.0395 113.261 58.6457C111.14 60.9759 107.73 58.6336 106.056 57.5817C104.517 56.7797 102.99 59.1505 104.436 60.1067C116.495 67.4241 120.297 52.6369 111.139 51.6993C110.134 51.5957 109.829 52.6498 110.319 52.9348ZM88.9999 44.8336C89.062 42.548 92.7534 41.8215 93.2612 44.0509C93.7176 46.0481 93.4359 47.9225 92.5804 49.7912C91.7475 51.5777 89.3567 50.9012 89.0839 49.332C88.7134 47.2301 88.9675 46.2547 88.9999 44.8336ZM117.286 42.2295C117.763 41.5679 118.483 41.0942 119.401 41.287C122.25 41.8921 121.65 45.6436 120.785 47.5017C120.301 48.5116 118.593 48.8567 117.757 48.0392C116.398 46.7043 115.607 43.9311 117.143 42.4546C117.185 42.3807 117.226 42.3061 117.286 42.2295ZM91.6009 34.7024L92.0389 34.6054C93.3985 34.3075 95.0903 33.9994 96.1213 34.9696C96.6711 35.4846 96.9087 36.4848 96.2496 37.0439C95.0897 38.0281 93.7223 37.7495 92.2709 37.9088C91.0768 38.0407 89.9362 38.2901 88.7941 38.6636C86.3014 39.481 84.3039 40.8293 82.2218 42.3039C81.9471 42.4976 81.6404 42.1756 81.7541 41.9212C82.8665 39.5703 85.1745 37.5612 87.537 36.2827C88.7988 35.6001 90.1868 35.0147 91.6009 34.7024ZM114.108 32.4093L114.453 32.4545C118.193 32.9637 123.074 34.1277 125.034 37.4009C125.128 37.8744 125.06 37.9807 125.009 38.0507L124.992 38.0741C124.949 38.1333 124.918 38.2143 124.7 38.292C124.635 38.2819 124.57 38.271 124.504 38.2592C123.69 38.1087 123.047 37.8754 122.412 37.6304L121.73 37.3631C120.934 37.0549 120.13 36.76 119.294 36.5557C117.5 36.1202 115.662 35.8458 113.815 35.7483C113.407 35.7274 113.021 35.6234 112.704 35.426C112.406 35.2387 112.167 34.9697 112.043 34.6003C111.884 34.1227 111.898 33.7533 112.147 33.3001C112.339 32.9595 112.629 32.7149 112.962 32.5644C113.304 32.4116 113.707 32.357 114.108 32.4093Z" fill="#333333"/>
<path fill-rule="evenodd" clip-rule="evenodd" d="M128.684 44.8092C128.684 44.8092 128.602 45.7911 127.858 48.229C123.277 51.6292 119.812 51.2351 113.033 49.2017C112.916 42.2603 112.973 41.572 116.522 40.6684C120.158 39.7425 122.814 40.2029 124.192 40.3392C125.57 40.4754 125.57 40.4754 126.948 40.6117C128.533 40.1169 129.438 42.669 128.684 44.8092ZM85.1072 42.4808C98.3788 41.493 101.807 38.1187 101.234 49.0565C101.268 57.1151 77.8733 60.5643 85.1072 42.4808ZM128.619 39.0834C127.796 38.7817 125.728 38.5773 126.417 38.6454C121.852 38.194 118.819 38.1144 112.639 39.1969C112.058 40.0054 111.567 40.9702 111.173 42.0032C108.52 41.0259 105.342 40.8502 102.697 42.0604C102.054 39.2065 95.1492 38.6909 88.7978 39.8758C85.3294 40.5229 82.4431 40.6322 79.2094 42.8359C72.0476 42.862 64.6098 39.8419 57.423 41.6885C51.7853 42.7729 56.0563 47.1925 57.1935 44.6374C64.0075 42.522 71.604 45.6298 78.4827 45.6815C79.0537 47.4619 80.301 48.9961 81.662 49.0699C85.4563 63.3359 100.581 56.9115 102.815 50.1399C103.69 48.5453 104.748 47.0397 106.151 46.1301C106.673 46.032 107.175 45.8868 107.647 45.6306C108.42 45.5527 110.13 45.9886 110.76 46.9619C111.002 56.9205 128.109 51.7135 128.879 49.2079C128.907 49.1164 129.085 48.7737 129.253 48.3669C131.204 43.6436 132.351 46.4696 132.246 43.7466C132.172 41.0256 129.786 40.8224 128.619 39.0834Z" fill="black"/>
<path fill-rule="evenodd" clip-rule="evenodd" d="M118.842 78.5656C118.116 78.2899 117.399 77.9688 116.681 77.659C112.994 75.5218 108.556 75.1346 104.698 76.9346C102.797 77.8177 101.035 79.4052 99.1348 80.445C98.6862 80.6395 98.2293 80.8171 97.7644 80.9653C97.487 80.852 97.2016 80.7311 96.9243 80.6103C94.9094 79.731 93.0088 78.6478 91.1734 77.456C90.9777 77.1358 90.7737 76.8251 90.5535 76.5267C91.8831 76.3085 93.1883 75.9449 94.3711 75.57C97.9928 74.4216 101.402 72.5517 105.016 71.3533C108.377 70.2351 112.023 69.6231 115.4 71.0123C117.007 71.6725 118.418 72.8275 119.976 73.6056C120.784 74.0061 121.746 74.3999 122.693 74.4584C122.081 76.1423 121.314 77.7157 120.262 79.0246C119.781 78.9066 119.307 78.7394 118.842 78.5656ZM126.681 65.3752C126.355 65.685 125.026 66.6851 124.593 67.2819C124.487 67.2328 124.373 67.1828 124.267 67.1308C124.071 66.8607 123.794 66.7427 123.508 66.7502C121.518 65.6793 119.748 64.1654 118.165 62.2681C117.04 60.9223 115.89 59.5142 114.389 58.7332C112.619 57.8105 110.873 58.2355 109.013 58.3753C107.039 58.5283 105.081 57.8776 103.107 58.1892C101.664 58.4197 100.309 59.127 99.1348 60.1253C96.7448 62.1623 95.1052 65.0229 93.0822 67.4897C90.79 70.288 87.9758 72.0757 84.8435 72.9889C84.8109 72.9606 84.7701 72.9313 84.7293 72.9049C82.4208 70.4882 80.3326 67.7607 78.4891 64.8539C76.6863 62.015 71.9389 49.2354 70.7888 48.1144C70.3157 47.6479 69.7936 47.4467 69.2961 47.4637C68.3906 47.4883 67.5504 48.2154 67.1751 49.361C66.547 51.3084 66.857 53.8261 66.9141 55.8632C66.9712 58.3564 67.1181 60.8477 67.3383 63.3287C67.5667 65.7813 67.8604 68.2263 68.2274 70.6553C68.415 71.8821 68.6271 73.1079 68.8555 74.3281C68.9208 74.7115 69.0105 75.0553 69.1247 75.3735C69.2307 75.9761 69.3531 76.5748 69.4755 77.1689C70.3075 81.0617 71.6208 84.9592 74.125 87.8321C76.7353 90.8258 80.2756 92.8147 83.571 94.5931C86.7034 96.2864 89.9907 97.7917 93.3596 98.9713C96.288 100.505 99.4203 101.719 102.569 102.356C106.028 103.06 109.674 103.103 113.018 101.711C114.666 101.027 116.216 100.072 117.627 98.8844C119.626 97.6831 121.428 96.0333 122.897 93.8489C125.539 89.9343 126.796 85.183 127.35 80.2844C127.489 79.0312 128.019 74.2261 128.06 73.4782C128.199 71.0614 128.329 68.6457 128.468 66.2299C128.525 65.089 127.318 64.7642 126.681 65.3752Z" fill="black"/>
<path fill-rule="evenodd" clip-rule="evenodd" d="M87.5991 0.338292C95.3887 -0.450715 103.022 0.212208 110.698 1.58392C111.285 1.69026 111.618 2.0752 111.741 2.53788C115.357 2.70315 118.976 2.96849 122.587 3.16636C123.898 3.23804 124.641 4.53324 124.044 5.70286C123.924 5.93519 123.8 6.16123 123.674 6.38738L123.833 6.33514C124.919 5.9865 126.092 5.81465 127.151 6.36794C128.498 7.07221 129.026 8.62616 128.728 10.0563C128.652 10.4215 128.524 10.7715 128.379 11.1129C128.674 11.0933 128.972 11.0998 129.267 11.139C130.84 11.3477 132.009 12.554 132.091 14.1603C132.214 16.5858 130.652 19.0465 128.811 20.783C129.078 21.3331 129.18 21.9808 129.069 22.6372C128.848 23.9349 127.892 24.7119 126.785 25.2188C127.246 26.6861 127.464 28.2203 127.336 29.7881C127.293 30.3115 126.835 30.7438 126.353 30.8499C128.152 35.8086 129.064 41.1326 129.719 46.3203C130.187 50.0113 130.417 53.7236 130.445 57.4424C130.458 59.1218 130.43 60.8022 130.36 62.4817L130.332 63.1111C130.245 64.9262 130.24 66.8319 129.914 68.6275C131.027 70.5209 131.474 72.8708 131.664 74.9924C131.898 77.618 131.527 80.3259 130.699 82.8239C127.574 92.2607 118.144 98.2163 108.673 99.7641C99.9057 101.197 89.761 99.2684 84.6382 91.3022C84.5569 91.1768 84.7287 91.0719 84.8285 91.1552C88.4949 94.1366 92.7466 95.4674 97.3664 96.1153C105.353 97.2321 114.331 95.3367 120.741 90.3119C123.817 87.8992 126.036 84.3861 127.012 80.6066C127.51 78.6742 127.681 76.6595 127.485 74.6706C127.285 72.6538 126.393 70.9322 125.83 69.0255C125.641 68.3817 125.84 67.7842 126.234 67.3585C126.344 65.8107 126.606 64.2506 126.705 62.7069C126.816 60.9524 126.883 59.1989 126.908 57.4424C126.953 53.7997 126.801 50.1501 126.494 46.5227C125.934 39.88 124.446 33.3986 123.573 26.8124C123.249 27.1026 122.785 27.2217 122.299 26.9682L122.249 26.9406L121.984 26.7888C121.968 26.7888 121.952 26.7909 121.936 26.7929C120.122 26.9691 118.24 26.7171 116.502 26.1756C114.683 25.6107 112.995 24.7413 111.487 23.5827C111.2 25.0366 111.081 26.5059 111.079 27.9883C111.077 28.9143 110.097 29.3949 109.318 28.9992C105.871 27.2471 102.577 25.2281 99.4501 22.9589C99.085 24.8303 98.7199 26.7016 98.3527 28.5752C98.2108 29.2971 97.2924 29.5883 96.7031 29.2449C94.3613 27.8819 92.3383 26.0975 90.6907 23.9759C90.3626 24.605 90.0325 25.2339 89.7003 25.8614L89.2004 26.8016C88.7078 27.7253 88.0465 28.7472 86.9666 29.0425C85.824 29.3555 84.8696 28.6145 84.486 27.5797C84.3687 27.2582 84.2597 26.9277 84.16 26.5951C83.186 28.8189 82.0866 30.9924 80.8442 33.066C78.9796 36.1762 76.7417 38.9475 74.5099 41.7906C73.8322 42.6537 72.6721 41.8297 72.5785 40.9909C72.524 40.4975 72.4787 40.002 72.4396 39.5083C71.1396 42.1332 69.7821 44.7334 68.3042 47.2582L68.516 48.0878C69.1259 50.5392 69.6319 53.0078 70.1832 55.4719C70.3611 56.2679 69.9384 57.4043 69.0097 57.5401C67.9 57.7015 66.851 58.2682 65.7145 57.8784C64.4752 57.4527 64.2304 56.381 63.6453 55.366C63.528 55.1634 63.3923 54.9773 63.2462 54.8014L63.2092 54.8497C63.1187 54.969 62.9007 54.8384 62.9552 54.7016L63.0189 54.5433C62.516 54.0095 61.915 53.5652 61.362 53.086C60.0479 52.8649 58.5697 53.1076 57.6643 53.6413C55.6024 54.8579 54.6552 57.3663 54.6356 59.673C54.6118 62.3727 55.4481 65.4065 56.8604 67.7153C57.482 68.7304 58.3338 69.6467 59.4591 70.0972C60.5761 70.5445 61.7863 70.4057 62.9222 70.8273C63.674 71.1081 64.1369 71.9432 63.6833 72.6991C63.6525 72.7515 63.6185 72.7988 63.5856 72.8492L63.9229 73.2976C64.1554 73.6082 64.3981 73.9414 64.6243 74.288C65.2023 74.9534 65.8102 75.5941 66.3995 76.2482C67.4876 77.4545 68.5438 78.6937 69.6144 79.9176C70.6254 81.0715 71.694 82.1564 72.7955 83.2229C73.8363 84.2339 75.1362 85.0844 76.0917 86.1622C77.0214 87.2142 77.2744 89.051 75.7441 89.6598C74.0522 90.3345 72.5538 88.7528 71.4142 87.6976L71.3659 87.6534C69.2781 85.7302 67.3919 83.5335 65.8945 81.1147C64.4104 82.1246 62.2651 82.2212 60.7873 81.2113C60.0099 80.6796 59.4134 79.787 59.1236 78.8151C58.8503 78.8768 58.5771 78.9118 58.3107 78.9077C58.1736 78.9879 58.0361 79.065 57.897 79.137C56.7952 79.7109 55.4417 79.4548 54.9377 78.2351C54.4787 77.1275 54.9517 75.8707 55.3651 74.8032L55.4505 74.5831C55.6851 73.9753 55.9437 73.312 56.2652 72.6877C55.37 72.0141 54.605 71.177 53.9578 70.2257C51.7828 67.0191 50.6963 62.3305 51.1765 58.5058C51.4655 56.197 52.5495 53.8059 54.3247 52.2499L54.2597 52.0802C53.7622 50.8177 53.31 49.5503 53.0169 48.2159C52.6736 46.6552 52.5061 45.0381 52.3542 43.4492C52.0326 40.0933 52.1195 36.6611 52.5475 33.3182C53.3515 27.0257 55.3896 20.8484 59.0073 15.6122C57.9815 14.3839 57.1691 12.9385 57.5927 11.2759C57.7862 10.5128 58.2271 9.7892 58.8922 9.35212C59.2592 9.11106 59.6961 9.07414 60.0633 8.87411L60.1737 8.81333C60.335 8.71913 60.2116 8.7291 60.1155 8.29161C59.7353 6.5438 60.0503 4.85513 61.9732 4.27479C63.7831 3.72931 65.4955 4.88773 66.5661 6.26798C69.3697 4.27901 73.0629 3.23804 76.3118 2.35339C80.005 1.35119 83.7949 0.725391 87.5991 0.338292ZM57.3232 58.9593C57.3099 57.536 58.6592 56.6577 59.987 56.8911C60.8786 57.0464 61.6224 57.5781 62.3206 58.1283L62.661 58.3978C63.5116 59.0663 64.4886 59.7862 64.9946 60.7313C65.7382 62.1269 64.1677 64.0048 62.7011 63.0267C61.6948 62.3521 61.0499 61.2712 60.39 60.2675L60.3216 60.1636C60.0218 59.7142 59.7589 59.236 59.348 58.875L59.2593 58.7968C59.1242 58.6816 58.9792 58.5767 58.8048 58.5274C58.4684 58.4307 57.8453 58.5664 57.6968 58.9665L57.6836 59.0076C57.6293 59.2102 57.3254 59.166 57.3232 58.9593Z" fill="black"/>
</svg>
