<svg width="136" height="208" viewBox="0 0 136 208" fill="none" xmlns="http://www.w3.org/2000/svg">
<path fill-rule="evenodd" clip-rule="evenodd" d="M134.986 192.534C134.705 187.315 134.36 182.1 133.947 176.889C133.123 166.51 132.046 156.123 130.253 145.863C128.483 135.74 126.008 125.896 122.44 116.251C120.785 111.775 118.993 107.957 116.393 103.934C113.935 100.131 110.798 97.553 106.889 95.2564C103.368 93.188 99.2767 89.5989 95.8992 87.2814C94.4892 86.3147 91.5884 86.3789 90.6209 84.9489C89.355 83.0747 90.1759 80.2072 88.8992 78.3405C87.4409 76.2055 85.3967 74.5464 83.0917 73.3422C80.5759 71.638 77.6125 70.8664 74.6417 70.9722C70.2609 70.7064 65.8484 72.1022 63.0359 75.6689C61.6325 77.4497 60.8125 79.503 60.6992 81.778C60.67 82.3689 60.86 82.8355 61.1725 83.1722C60.9875 83.4205 60.8025 83.6689 60.6192 83.918C60.0442 83.0655 58.6992 82.613 57.8034 83.2564C54.8717 85.3614 51.7034 87.0355 48.3588 88.2622C47.5764 87.8922 46.6292 88.063 45.959 88.668C45.687 88.913 45.3985 89.123 45.0969 89.3014C43.8569 89.6372 42.5977 89.918 41.3199 90.1355C40.9199 90.203 40.581 90.4305 40.324 90.7364C39.9431 90.3805 39.4197 90.2097 38.8352 90.4322C32.0861 93.0064 25.7125 97.0047 20.868 102.421C15.5007 108.422 12.6817 115.887 10.5355 123.536C8.21229 131.815 6.72763 140.3 5.48063 148.8C4.21704 157.411 2.97254 166.057 2.10321 174.719C1.61387 179.593 1.42729 184.512 1.64879 189.408C1.75912 191.855 1.98254 194.294 2.33837 196.717C2.42129 197.284 2.50813 197.937 2.64788 198.589C2.22304 198.506 1.71704 198.866 1.80321 199.441C2.40279 203.446 7.24329 204.612 10.5817 205.074C16.0425 205.828 21.5315 206.246 27.0447 206.279C32.4625 206.31 37.8794 205.962 43.286 205.651C48.8289 205.331 54.3717 205.011 59.9142 204.686C82.1217 203.383 104.331 202.095 126.538 200.791C128.568 200.672 130.884 200.511 132.622 199.334C135.004 197.72 135.127 195.156 134.986 192.534Z" fill="white"/>
<path fill-rule="evenodd" clip-rule="evenodd" d="M26.7245 147.736C26.6474 147.591 26.8264 147.461 26.945 147.566C29.6409 149.932 31.0524 153.733 31.3484 157.246C31.6619 160.972 31.2174 164.83 31.0474 168.553C30.8584 172.701 30.6884 176.851 30.4577 180.997C30.2234 185.204 29.9709 189.409 29.7545 193.616L29.2677 203.081C29.2159 204.09 29.3281 205.331 28.9411 206.271C28.3414 207.731 26.5603 207.506 26.1859 206.286L26.1742 206.246L26.14 206.271C25.8098 205.172 26.0569 203.867 26.1129 202.731L26.6229 192.39C26.9833 185.081 27.3047 177.771 27.6918 170.463L27.8234 168.027C28.0043 164.748 28.143 161.477 28.2544 158.2L28.2906 157.106C28.3964 153.815 28.3124 150.707 26.7245 147.736ZM92.0783 87.0581C93.5808 86.9156 94.7149 87.4139 96.0783 87.9381C96.6724 88.1672 97.2349 88.4306 97.8049 88.7039C98.5183 89.0464 98.9766 89.6514 99.4158 90.2914L99.6508 90.6364C101.481 93.3172 102.711 96.4106 104.1 99.3297C105.724 102.745 107.364 106.152 108.954 109.584L109.738 111.274C110.131 112.119 110.522 112.965 110.907 113.813L111.572 115.29C112.241 116.788 112.841 118.372 111.887 119.917C111.002 121.354 109.431 122.466 108.187 123.576C107.149 124.503 106.111 125.43 105.072 126.356C107.219 128.506 108.659 131.212 109.507 134.116C110.709 133.614 112.178 133.518 113.422 133.301C115.163 132.997 115.377 135.635 113.733 135.602C112.519 135.578 111.096 135.702 109.851 135.446C110.067 136.401 110.224 137.369 110.324 138.34C110.847 143.429 109.703 148.548 108.512 153.471L108.413 153.876C107.118 159.206 105.891 164.549 104.792 169.923C103.691 175.308 102.701 180.716 101.822 186.142C100.927 191.665 100.294 197.218 99.6133 202.77C99.5108 203.61 98.9816 204.331 98.0541 204.331C97.2808 204.331 96.3966 203.608 96.4941 202.77C97.1958 196.724 98.1916 190.71 99.1808 184.705C100.885 174.364 103.03 164.113 105.497 153.93L105.927 152.156C107.037 147.556 108.045 142.817 107.488 138.073C107.034 134.21 105.42 130.091 102.228 127.691L102.132 127.619C101.386 127.072 101.099 126.026 101.833 125.306C102.301 124.848 102.768 124.391 103.237 123.933L106.046 121.189L106.612 120.635C107.084 120.174 107.558 119.716 108.047 119.271C108.343 119.002 109.145 118.49 109.203 118.047C109.242 117.759 108.9 117.252 108.762 116.986L108.127 115.706C107.767 114.976 107.419 114.241 107.067 113.506C106.338 111.986 105.6 110.469 104.887 108.941L100.605 99.7622C99.3974 97.1731 98.3208 94.4389 96.7416 92.0456L96.4308 91.5789C96.1708 91.1856 95.9408 90.8081 95.7766 90.3272C95.6191 89.8647 95.4208 89.3572 95.1283 88.9622C94.4449 88.0364 93.1374 87.5114 92.0433 87.3172C91.8849 87.2897 91.9424 87.0714 92.0783 87.0581ZM59.1466 84.6472C59.2416 84.6472 59.2558 84.7831 59.1683 84.8097C57.8483 85.2064 56.5874 85.8472 55.5591 86.7714C55.0666 87.2139 54.5708 87.7164 54.2666 88.3122C54.1508 88.5397 54.0866 88.7806 54.0391 89.0306L54.0241 89.1139C53.9458 89.5647 53.8333 89.8156 53.6041 90.1772L53.5649 90.2381C52.2574 92.2581 51.3411 94.5022 50.5033 96.7481L48.6786 101.646L46.8552 106.546C46.2677 108.124 45.6799 109.702 45.0922 111.281C44.7675 112.152 44.4337 113.021 44.1001 113.888C43.9557 114.264 43.8004 114.637 43.6684 115.018C43.6503 115.07 43.5925 115.383 43.5492 115.46L43.564 115.486C43.9318 116.104 44.9126 116.621 45.4686 117.071L47.383 118.619C48.7479 119.723 50.148 120.796 51.4716 121.95C52.3033 122.674 51.7858 123.971 50.8587 124.274C49.3045 124.78 47.7818 125.386 46.2508 125.96C45.6324 126.191 44.9884 126.392 44.3772 126.647L44.0051 126.808C43.8598 126.874 43.9297 126.873 43.9354 127.141C43.9413 127.423 44.021 127.716 44.0669 127.992C44.5825 131.112 45.1291 134.226 45.7061 137.334C47.7469 148.326 50.1851 159.238 52.9658 170.066C54.3708 175.534 55.8766 180.976 57.3124 186.436C58.7441 191.881 60.6283 197.248 62.4274 202.581C62.9349 204.086 60.5508 204.733 60.0558 203.236C57.9824 196.963 56.0858 190.636 54.1274 184.328C50.6471 173.119 47.9049 161.667 45.4795 150.187C44.2774 144.498 43.1779 138.786 42.1821 133.057C41.9936 131.972 41.8087 130.887 41.6276 129.801L41.3637 128.204C41.1828 127.066 41.0798 125.88 41.9644 124.978C42.8281 124.099 44.311 123.787 45.4477 123.375L45.5302 123.345C46.2534 123.075 46.9819 122.815 47.7077 122.546C46.6387 121.704 45.5829 120.844 44.5164 120.002C43.6563 119.324 42.7825 118.659 41.9346 117.964C41.2354 117.391 40.6654 116.656 40.5925 115.725C40.5182 114.773 40.9259 113.89 41.2548 113.016L41.2864 112.932C41.6093 112.061 41.933 111.19 42.265 110.321L44.3196 104.946C45.6253 101.531 46.8758 98.0872 48.249 94.6981C48.7924 93.3572 49.3844 92.0372 50.0841 90.7689C50.4214 90.1581 50.7832 89.5597 51.1764 88.9822C51.6166 88.3356 52.0166 88.0197 52.6991 87.6631C53.7908 87.0922 54.6474 86.1347 55.7433 85.5464C56.8191 84.9689 57.9258 84.6606 59.1466 84.6472ZM62.6899 78.5539C62.7316 78.4822 62.8416 78.5139 62.8433 78.5956C62.8716 80.2931 62.4683 82.0272 62.2208 83.7064C61.9716 85.3906 61.8916 87.1689 61.5308 88.8347C61.5233 88.9131 61.5083 88.9889 61.4874 89.0639L61.4699 89.1214C61.3183 89.5881 60.9224 89.9839 60.4374 90.1081C60.5899 90.9539 60.7333 91.8014 60.8541 92.6531C61.0624 94.1181 61.2516 95.5847 61.4383 97.0522L61.6616 98.8131C61.8724 100.472 62.0774 102.132 62.2799 103.793C62.7949 104.008 63.3208 104.186 63.8599 104.341C65.0999 104.696 66.3699 104.84 67.6499 104.966C70.2566 105.221 72.8833 105.34 75.4991 105.485L76.0599 105.516C79.0008 105.685 81.9574 105.715 84.8908 105.413C86.3449 105.264 87.7883 105.012 89.2066 104.656C89.9274 104.476 90.6283 104.206 91.3474 104.029C91.5866 103.97 91.7991 103.835 92.0383 103.691C92.1449 103.556 92.2933 103.455 92.4874 103.415L92.5399 103.406L92.5924 103.398L92.6099 103.391L92.6091 103.396C92.7558 103.376 92.8958 103.376 93.0274 103.394C93.0799 102.1 93.1366 100.805 93.2083 99.5106C93.3999 96.0347 93.9283 92.4089 93.2224 88.9631C93.1991 88.8472 93.3566 88.8064 93.3974 88.9147C94.7816 92.5622 94.6258 96.5514 94.6958 100.391C94.7641 104.145 94.7224 107.902 94.7041 111.657C94.9733 111.772 95.2124 111.927 95.4024 112.145C95.7824 112.58 95.8916 113.336 95.4024 113.756C95.1866 113.942 94.9466 114.071 94.6924 114.161C94.6791 117.423 94.6558 120.686 94.6233 123.949C95.2433 124.428 95.3008 125.566 94.5999 126.039C94.4824 136.604 94.2908 147.17 94.1316 157.734L93.7983 179.897C93.7541 182.85 93.6808 185.802 93.6541 188.755L93.6749 188.763L93.7491 188.797C93.8733 188.856 94.0583 188.951 94.0966 189.047C94.1066 189.072 94.1091 189.09 94.1074 189.102C94.3116 189.131 94.5124 189.227 94.6874 189.393C95.1183 189.802 95.0308 190.419 94.6874 190.836L94.5958 190.947C94.3816 191.207 93.9758 191.307 93.6441 191.255C93.6474 193.097 93.6591 194.941 93.6533 196.783C93.6516 197.346 93.6424 197.909 93.6333 198.472L93.6099 199.821C93.5941 200.591 93.5258 201.571 92.7374 201.916C91.8483 202.307 91.0499 201.987 90.6899 201.083C90.5924 200.838 90.6133 200.611 90.6491 200.368C90.6383 200.005 90.5808 199.583 90.5883 199.246L90.6174 197.839C90.6224 197.621 90.6308 197.405 90.6374 197.188L90.6116 197.191C87.4508 197.344 84.2674 197.269 81.1008 197.267L79.6933 197.269C78.5183 197.271 77.3408 197.264 76.1674 197.219L75.7274 197.201C74.8491 197.159 73.9258 197.146 73.0149 197.067C73.1308 198.002 73.2391 198.938 73.3358 199.875C73.4274 200.763 72.5116 201.518 71.6941 201.518C70.7233 201.518 70.1674 200.755 70.0516 199.875C69.5033 195.726 69.2783 191.538 68.7541 187.387C68.2849 183.669 67.8774 179.941 67.4641 176.216L67.3258 174.975C65.8116 161.417 64.3416 147.855 62.9358 134.286L62.2808 127.942C61.6199 121.549 60.9541 115.156 60.3933 108.752C60.0724 105.092 59.7774 101.431 59.4991 97.7664C59.2949 95.0747 59.1666 92.3981 59.0833 89.7114C58.7541 89.3722 58.5891 88.8781 58.7349 88.3672C58.8199 88.0689 58.9191 87.7731 59.0241 87.4764C59.0174 87.1864 59.0108 86.8956 59.0049 86.6039C58.9999 86.3289 59.2791 86.1872 59.5033 86.2322C59.9099 85.2472 60.3574 84.2706 60.7316 83.2956C61.3366 81.7164 61.8349 80.0147 62.6899 78.5539ZM28.9051 95.6206C35.2289 91.6556 42.7564 88.8031 50.2956 89.1097C50.4671 89.1172 50.5154 89.3789 50.3374 89.4181C46.3159 90.3164 42.2502 91.4106 38.443 93.0031C34.6247 94.5997 30.994 96.7506 27.7604 99.3347C21.7942 104.103 17.1569 110.305 14.1034 117.296C12.3148 121.391 11.0611 125.715 9.96636 130.04C8.80794 134.617 7.85319 139.244 7.05936 143.898C5.49136 153.092 4.57852 162.387 4.09277 171.698C3.5986 181.17 3.80227 190.648 3.44985 200.121C3.38894 201.763 1.04386 201.731 0.92469 200.121C0.126107 189.351 0.568521 178.409 1.30702 167.646C1.9711 157.971 3.13086 148.316 4.99827 138.796L5.16094 137.971C6.90669 129.164 9.01236 120.143 13.2328 112.167C16.8359 105.357 22.3986 99.6997 28.9051 95.6206ZM116.72 137.714C116.753 137.62 116.877 137.621 116.911 137.714C117.632 139.733 117.657 142.011 117.849 144.139L117.864 144.302C118.048 146.243 118.187 148.186 118.315 150.131L118.363 150.861C118.879 158.796 119.525 166.721 120.497 174.614C121.467 182.476 122.777 190.285 124.194 198.077C124.352 198.945 123.968 199.829 123.058 200.079C122.257 200.299 121.227 199.805 121.058 198.942C120.178 194.47 119.467 189.991 118.832 185.479C117.715 177.535 116.881 169.553 116.345 161.549C116.076 157.528 115.91 153.51 115.844 149.481C115.814 147.611 115.862 145.737 115.962 143.87L115.986 143.439C116.096 141.531 116.085 139.534 116.72 137.714ZM48.3878 188.251C48.4723 188.206 48.5769 188.3 48.5234 188.387C47.2989 190.378 45.6424 192.095 44.0414 193.786C42.3675 195.555 40.7352 197.376 39.0276 199.111C37.7938 200.363 35.8091 198.342 37.1112 197.193C38.942 195.578 40.8556 194.043 42.7189 192.463L43.5339 191.772C45.0617 190.481 46.6349 189.201 48.3878 188.251ZM106.547 187.255C106.455 187.081 106.664 186.939 106.806 187.055C107.793 187.858 108.679 188.816 109.632 189.665C110.577 190.505 111.557 191.288 112.563 192.051C113.574 192.819 114.607 193.556 115.667 194.252C116.547 194.831 117.454 195.294 118.375 195.774C118.802 195.828 119.197 196.038 119.513 196.435C120.013 197.063 120.066 198.247 119.372 198.792L119.248 198.891C118.439 199.526 117.478 199.604 116.682 198.891C115.792 198.094 114.951 197.216 114.097 196.375L113.84 196.123C112.922 195.231 112.027 194.309 111.182 193.346L110.417 192.476C109 190.858 107.523 189.115 106.547 187.255ZM101.997 93.9906C101.832 93.8814 101.934 93.5889 102.137 93.6581L102.509 93.7872C104.063 94.3272 105.662 94.9264 107.073 95.7581C108.59 96.6522 109.99 97.7172 111.328 98.8597C114.097 101.224 116.452 104.131 118.454 107.162C122.472 113.244 124.956 120.208 126.961 127.177C129.1 134.607 130.746 142.198 132.091 149.81C133.457 157.545 134.51 165.351 135.203 173.176C135.544 177.03 135.773 180.887 135.888 184.756C135.947 186.745 135.946 188.734 135.929 190.724C135.925 191.236 135.928 191.747 135.934 192.259L135.953 193.795C135.964 194.765 136.08 195.785 135.85 196.733C135.478 198.26 132.956 197.975 133.038 196.415C132.962 195.896 132.959 195.359 132.979 194.821C132.967 194.752 132.954 194.682 132.94 194.61C132.898 194.404 132.933 194.213 133.015 194.049C133.027 193.791 133.039 193.535 133.043 193.282C133.06 192.258 133.059 191.237 133.031 190.212C132.971 188.052 132.885 185.891 132.798 183.732C132.625 179.417 132.384 175.101 132.034 170.796C130.817 155.813 128.248 140.745 123.934 126.33C121.93 119.636 119.167 113.065 115.205 107.281C113.446 104.713 111.462 102.341 109.262 100.14C107.048 97.9247 104.608 95.7206 101.997 93.9906ZM72.1399 190.577L72.4391 192.741C72.5883 193.823 72.7366 194.906 72.8766 195.989C73.8316 195.858 74.8074 195.803 75.7274 195.721C77.3374 195.579 78.9583 195.51 80.5733 195.443C83.9124 195.306 87.2683 195.066 90.6116 195.083C90.6458 195.083 90.6783 195.086 90.7099 195.088L90.8758 190.819L88.5274 190.816C86.5374 190.812 84.5483 190.796 82.5583 190.778C80.7666 190.763 78.9741 190.761 77.1816 190.723L76.4141 190.705C75.0558 190.668 73.5549 190.744 72.1399 190.577ZM91.0733 184.381C90.9774 184.392 90.8799 184.401 90.7758 184.406C90.3108 184.426 89.8424 184.412 89.3766 184.416C88.3858 184.425 87.3941 184.431 86.4033 184.431C84.4208 184.431 82.4383 184.443 80.4566 184.466C78.4158 184.491 76.3766 184.527 74.3358 184.531C73.3474 184.533 72.3616 184.506 71.3733 184.479C71.5333 185.884 71.7008 187.288 71.8849 188.689C73.4199 188.481 75.0708 188.586 76.5708 188.571L76.7658 188.569C78.8124 188.534 80.8616 188.56 82.9099 188.562C85.0166 188.565 87.1233 188.571 89.2299 188.589L90.9608 188.603L90.9641 188.516C91.0149 187.139 91.0474 185.761 91.0733 184.381ZM70.6124 177.659C70.8041 179.317 70.9841 180.979 71.1674 182.64C71.2899 182.621 71.4133 182.605 71.5391 182.591C72.5291 182.488 73.5174 182.399 74.5108 182.337C76.4916 182.215 78.4724 182.15 80.4566 182.096C82.4966 182.042 84.5374 182 86.5783 181.971C87.5699 181.957 88.5599 181.959 89.5516 181.966C90.0166 181.969 90.4866 181.954 90.9508 181.986C91.0066 181.989 91.0591 181.995 91.1116 182.001L91.1466 179.507C91.1524 179.091 91.1591 178.676 91.1658 178.261C89.6333 178.356 88.0749 178.319 86.5441 178.32L86.1908 178.321C84.2666 178.329 82.3424 178.303 80.4183 178.263C78.4333 178.221 76.4533 178.156 74.4716 178.03C73.6691 177.978 72.8724 177.91 72.0741 177.821L71.6749 177.776C71.3274 177.735 70.9699 177.701 70.6124 177.659ZM91.3241 170.622C87.6333 170.915 83.9624 171.037 80.2616 171.074L79.7066 171.079C76.4366 171.103 73.1391 171.238 69.8616 171.151C70.0574 172.851 70.2533 174.551 70.4499 176.251C70.9191 176.229 71.3908 176.229 71.8499 176.212C72.7833 176.178 73.7133 176.17 74.6466 176.168C76.5708 176.163 78.4949 176.181 80.4183 176.176C82.4016 176.172 84.3833 176.139 86.3658 176.101C87.9733 176.071 89.5974 175.951 91.2091 175.955L91.3241 170.622ZM91.4799 163.37C91.0524 163.512 90.5474 163.521 89.9941 163.546L88.5649 163.618C87.9033 163.651 87.2408 163.681 86.5783 163.705C84.3699 163.786 82.1624 163.861 79.9541 163.931C77.6908 164.004 75.4174 164.046 73.1541 163.974C72.0458 163.939 70.9466 163.881 69.8408 163.788C69.5674 163.766 69.2891 163.751 69.0099 163.731C69.2674 165.983 69.5258 168.235 69.7849 170.486C73.0466 170.086 76.3341 169.836 79.5924 169.422L82.5383 169.046C85.4833 168.67 88.4249 168.301 91.3808 167.991L91.4799 163.37ZM91.6374 156.038C91.0099 156.193 90.2949 156.186 89.6916 156.224L89.5808 156.231C88.4383 156.318 87.2941 156.361 86.1499 156.39C83.9066 156.445 81.6624 156.472 79.4183 156.486L78.0691 156.495C76.2708 156.505 74.4733 156.51 72.6741 156.468C71.5199 156.441 70.3683 156.385 69.2158 156.326C68.8699 156.309 68.5166 156.298 68.1624 156.28C68.4033 158.412 68.6474 160.544 68.8899 162.676C69.2691 162.616 69.6499 162.57 70.0124 162.508C70.9416 162.351 71.8691 162.226 72.8058 162.114C74.8333 161.871 76.8708 161.696 78.9083 161.548C80.9991 161.396 83.0924 161.268 85.1841 161.121L86.6649 161.017C87.1591 160.983 87.6524 160.95 88.1466 160.919C88.9899 160.867 89.9708 160.926 90.8074 160.742C91.0341 160.648 91.2858 160.626 91.5374 160.68L91.6374 156.038ZM91.8274 147.456C91.6099 147.732 91.2858 147.876 90.8991 147.926C88.8849 148.188 86.8191 148.23 84.7883 148.353L84.4308 148.376C82.3333 148.514 80.2349 148.622 78.1366 148.734C75.9808 148.848 73.8249 148.941 71.6674 149.017C70.7516 149.049 69.8316 149.052 68.9141 149.041L68.5208 149.035C68.1441 149.029 67.7499 149.03 67.3541 149.016C67.5733 151.011 67.7941 153.004 68.0183 154.997C68.4216 154.953 68.8241 154.92 69.2149 154.878C70.3674 154.756 71.5191 154.636 72.6741 154.545C74.8624 154.372 77.0533 154.269 79.2458 154.16C81.4891 154.049 83.7341 153.975 85.9774 153.87C87.0658 153.819 88.1533 153.756 89.2374 153.656C89.9983 153.586 90.9008 153.327 91.6941 153.422C91.7374 151.433 91.7824 149.445 91.8274 147.456ZM92.0041 139.768C91.9699 139.821 91.9299 139.873 91.8808 139.921C90.9941 140.797 89.9016 140.73 88.7266 140.821L88.6541 140.827C87.5033 140.924 86.3508 141.016 85.1983 141.1C82.8933 141.266 80.5849 141.382 78.2766 141.486C75.9149 141.592 73.5383 141.666 71.1741 141.617C69.6599 141.586 68.0749 141.591 66.5308 141.444C66.7674 143.64 67.0058 145.836 67.2466 148.031C67.6808 147.949 68.1174 147.886 68.5316 147.821C69.5749 147.657 70.6191 147.491 71.6683 147.371C73.7641 147.13 75.8616 146.904 77.9616 146.7C79.7583 146.526 81.5541 146.349 83.3516 146.19L84.4308 146.096C86.5758 145.916 88.7474 145.618 90.8991 145.574C91.2541 145.567 91.6549 145.76 91.8583 146.065C91.9058 143.966 91.9549 141.867 92.0041 139.768ZM92.1533 133.545C91.6058 133.611 91.0149 133.573 90.5099 133.59C89.2316 133.631 87.9533 133.671 86.6758 133.708L79.0066 133.935C76.3949 134.011 73.7749 134.069 71.1624 134.032C70.0141 134.016 68.8599 134.014 67.7108 133.951L67.3283 133.929C66.8558 133.897 66.2758 133.892 65.7091 133.835L66.3774 140.032C67.9141 139.811 69.4983 139.727 71.0216 139.597L71.3474 139.568C73.5941 139.363 75.8524 139.228 78.1033 139.076C80.4133 138.919 82.7191 138.729 85.0249 138.535C86.1774 138.438 87.3299 138.341 88.4816 138.236L88.6241 138.221C89.7124 138.107 90.7349 137.866 91.6991 138.507C91.8399 138.601 91.9499 138.726 92.0258 138.867C92.0683 137.093 92.1091 135.319 92.1533 133.545ZM92.3316 126.312C87.6608 126.5 82.9899 126.643 78.3158 126.706C75.6849 126.741 73.0574 126.716 70.4266 126.661C69.2858 126.637 68.1358 126.582 66.9958 126.495L66.5691 126.461C66.0266 126.415 65.4574 126.382 64.8908 126.327C65.1249 128.458 65.3574 130.589 65.5883 132.721C66.1458 132.617 66.7283 132.569 67.2174 132.506L67.3283 132.492C68.5424 132.325 69.7683 132.227 70.9883 132.12C73.3641 131.911 75.7524 131.776 78.1349 131.661C80.5741 131.543 83.0149 131.444 85.4549 131.336L87.8958 131.226C88.3024 131.208 88.7091 131.191 89.1158 131.173C89.6966 131.149 90.2774 131.126 90.8583 131.101C91.1449 131.09 91.4433 131.051 91.7299 131.066L91.8116 131.054C91.8491 131.05 91.8824 131.046 91.9133 131.042C91.9908 130.983 92.0749 130.934 92.1641 130.896L92.2183 130.876L92.3316 126.312ZM64.1249 119.458C64.3416 121.376 64.5566 123.295 64.7683 125.214C65.4341 125.137 66.1083 125.096 66.7441 125.038C68.0266 124.923 69.3158 124.822 70.6016 124.763L73.1733 124.644C74.8866 124.565 76.6008 124.488 78.3158 124.426C83.0099 124.254 87.7041 124.057 92.3949 123.818C92.4283 122.516 92.4624 121.215 92.4974 119.914C92.2716 120.155 91.9466 120.314 91.5191 120.313C86.5941 120.3 81.6649 120.328 76.7408 120.247C74.2758 120.206 71.8133 120.146 69.3516 120.02C68.1466 119.958 66.9349 119.832 65.7399 119.666C65.2299 119.596 64.6716 119.546 64.1249 119.458ZM63.3366 112.622C63.5683 114.587 63.7958 116.553 64.0191 118.519C64.6308 118.41 65.2624 118.351 65.8333 118.274C67.0591 118.107 68.2924 117.975 69.5274 117.905C71.9299 117.769 74.3341 117.701 76.7408 117.649C81.6649 117.545 86.5941 117.546 91.5191 117.506C91.9816 117.502 92.3249 117.686 92.5508 117.959C92.5849 116.732 92.6208 115.505 92.6583 114.278C92.1824 114.227 91.7108 114.156 91.2741 114.126C89.9333 114.032 88.5908 113.946 87.2483 113.87C84.4474 113.709 81.6433 113.571 78.8399 113.45C76.0358 113.327 73.2308 113.208 70.4258 113.105L69.1991 113.06C67.2483 112.987 65.2649 112.896 63.3366 112.622ZM62.4549 105.222C62.6958 107.212 62.9333 109.203 63.1699 111.194L63.2416 111.81C65.5874 111.354 68.0599 111.22 70.4258 111.119C73.2316 111 76.0316 110.938 78.8399 110.947C81.6449 110.956 84.4458 111.022 87.2483 111.138C88.6491 111.196 90.0491 111.262 91.4491 111.339C91.8341 111.36 92.2849 111.348 92.7491 111.355C92.7599 111.042 92.7683 110.73 92.7791 110.416C92.8216 109.15 92.8633 107.882 92.9066 106.616C91.9599 107.102 90.7291 107.298 89.7774 107.506L89.6691 107.53C88.0983 107.882 86.4941 108.111 84.8908 108.251C81.7416 108.526 78.5599 108.423 75.4141 108.157L74.8633 108.11C72.1008 107.871 69.2366 107.566 66.5583 106.883C65.2824 106.557 63.9641 106.101 62.8208 105.441C62.7016 105.372 62.5791 105.299 62.4549 105.222ZM89.0541 81.5731C89.0816 81.4656 89.2424 81.4406 89.2958 81.5414C89.6674 82.2481 89.8066 83.0972 90.0641 83.8547C90.3424 84.6689 90.6016 85.4897 90.9083 86.2939C91.5491 87.9747 92.3049 89.5897 93.2058 91.1472C94.0983 92.6889 91.5999 93.7897 90.9433 92.1014C90.2649 90.3597 89.7074 88.5589 89.3708 86.7181C89.2058 85.8197 89.0591 84.9097 89.0116 83.9972C88.9708 83.2131 88.8608 82.3372 89.0541 81.5731Z" fill="#333333"/>
<path fill-rule="evenodd" clip-rule="evenodd" d="M107.292 47.3736C107.222 43.428 107.145 39.4036 106.559 35.4964C105.986 31.6766 104.409 28.2238 101.699 25.4501C95.9432 19.5582 87.5998 18.119 79.8332 16.8002L66.5557 14.5453C62.5048 13.8575 58.1832 12.7581 54.0898 13.7335C52.0732 14.2142 50.3607 15.3308 48.7954 16.6519C47.2866 17.9253 45.6644 19.2928 44.6421 21.0059C43.6179 22.7215 43.2657 24.7271 42.9327 26.6674C42.5572 28.8551 42.2655 31.0598 42.0582 33.2698C41.6429 37.6977 41.5862 42.1587 41.8875 46.5957C42.0334 48.7478 42.2657 50.8938 42.5621 53.0297C42.7092 54.0897 42.8753 55.1463 43.063 56.1988C43.1182 56.5097 43.1603 56.8538 43.2171 57.2005C42.7982 58.3922 42.5602 59.6263 42.5793 60.8555C42.6359 64.4755 45.6899 66.7538 48.7688 67.978C50.554 68.6872 52.4207 69.1688 54.1748 69.9613C56.0198 70.7955 57.2757 72.1463 58.5373 73.688C60.9432 76.6288 63.659 79.2713 66.759 81.4755C73.3332 86.1505 81.659 88.3613 89.6348 86.683C91.549 86.2805 93.479 85.6555 95.1998 84.713C97.0157 83.7188 98.3815 82.2772 99.5282 80.573C101.657 77.4097 103.185 73.848 104.34 70.223C105.518 66.5255 106.355 62.8213 106.811 58.9655C107.266 55.1222 107.362 51.2405 107.292 47.3736Z" fill="white"/>
<path fill-rule="evenodd" clip-rule="evenodd" d="M64.9216 0.801137C70.4157 0.0449699 77.9999 2.50247 80.7366 7.45755C93.8007 4.37647 110.278 4.27555 121.047 14.5326C132.282 26.6996 118.169 42.742 108.812 46.3589C109.492 49.6713 108.431 70.8921 100.914 80.3571C94.9482 88.3771 81.0557 92.0788 74.6274 82.4996L74.5774 82.4205C73.8891 81.3138 74.4824 81.3496 75.1891 82.1721C81.4841 87.7105 90.0424 87.8046 96.6374 81.9605C108.998 71.2788 107.724 45.0869 101.842 29.9347C85.0941 28.0946 67.1616 33.1727 55.5941 45.7849L56.3766 50.4963C56.5091 51.2988 56.6607 52.1005 56.7766 52.9055C56.8507 53.4221 56.8582 53.9355 56.5016 54.353C55.3207 55.7321 53.3324 53.6596 51.6957 52.8355C51.2126 52.7671 50.7287 52.7413 50.254 52.7746C42.3917 53.788 43.9408 69.0455 52.5824 66.3713C53.3082 65.9188 53.9316 66.0563 54.2132 66.713C56.2732 68.6005 57.6316 71.9663 61.0532 75.2088C62.2607 76.4246 63.3591 77.4421 64.7174 78.418C65.5149 79.2246 67.9224 80.048 67.1591 81.4288C65.7166 84.5713 57.2074 74.7005 55.7032 71.9705C50.9894 73.8321 45.7658 73.1996 40.8811 72.7446C15.1117 71.4046 18.5519 44.2302 39.6744 27.0737C43.6505 24.1455 48.0373 21.7566 52.5974 19.9185C53.2199 19.6675 52.9482 18.6449 52.3166 18.8994C49.2992 20.1159 46.3579 21.5638 43.554 23.2396L43.5497 22.2377C43.5456 20.5502 43.5721 18.7934 43.8651 17.2516C44.0116 16.1832 44.2579 15.0421 44.6371 14.1836C45.106 11.5518 52.4499 2.51797 64.9216 0.801137ZM49.9099 56.2771C50.3078 55.8996 51.0506 56.3505 51.4048 56.3388C52.3107 56.463 53.1716 56.8455 53.8424 57.318C54.2857 57.5663 54.5957 57.7996 54.8557 58.0138L54.8624 58.0121C54.8607 58.0121 54.8582 58.0138 54.8557 58.0146L54.8807 58.0313C55.2582 58.2996 56.6416 59.8121 55.7674 59.4055C55.7024 59.3213 55.6357 59.2396 55.5682 59.1596C55.5616 59.1705 55.5516 59.1813 55.5391 59.1921L55.5882 59.2646C56.3316 60.3821 55.0491 59.2046 54.8516 58.8921C54.8424 58.8996 54.8316 58.9046 54.8216 58.9105L55.0782 59.223C55.1141 59.2671 55.1424 59.303 55.1657 59.333L55.2199 59.3855C56.0791 60.2296 56.1057 60.9896 55.1074 59.7413C55.1474 59.7996 55.1782 59.8621 55.1832 59.918L55.2424 59.993C56.0257 61.003 55.3882 60.6446 54.9991 60.213L54.9666 60.1763L54.9732 60.1863C55.3349 60.7438 54.6166 60.3521 54.4899 60.0538L54.4841 60.0405C54.3457 59.9271 54.2607 59.8005 54.2316 59.7688L54.2266 59.763C53.5524 59.073 52.5766 58.4888 51.7466 58.223C51.6266 58.2005 51.5049 58.1821 51.3821 58.1688C50.8833 58.058 50.3791 57.9813 49.8696 57.9405C49.8072 57.933 49.7441 57.8871 49.6969 57.828C48.9264 57.8021 49.1642 57.4863 49.4839 57.4271L49.4895 57.4263L49.4261 57.4213C48.9316 57.373 48.594 57.1955 49.0939 57.0863L49.1572 57.0738C49.1495 57.0613 49.1426 57.0496 49.136 57.0371C48.7078 56.9905 48.9872 56.5738 49.2249 56.6746C49.1249 56.348 49.5819 56.5105 49.639 56.4621C49.6824 56.4138 49.7365 56.3713 49.7676 56.3688C49.9053 56.2721 49.8386 56.2805 49.9099 56.2771ZM52.5299 50.9821L52.4299 51.0405C52.3482 51.088 52.2649 51.1196 52.1816 51.138C52.2999 51.1888 52.4166 51.243 52.5324 51.3013C52.5307 51.2305 52.5291 51.1588 52.5291 51.088L52.5299 50.9821Z" fill="#333333"/>
<path fill-rule="evenodd" clip-rule="evenodd" d="M91.7049 72.5539C90.4074 72.9297 89.0157 72.963 87.6932 72.5747C86.494 72.223 85.2632 71.448 84.3807 70.423C83.5965 69.5122 83.089 68.4055 83.109 67.2247C83.1115 67.0897 83.1599 66.9772 83.234 66.8897C83.3132 66.7955 83.4249 66.7305 83.5449 66.703C83.6674 66.6739 83.7974 66.6839 83.9082 66.7347C84.0082 66.7797 84.094 66.8572 84.1474 66.9705C84.2832 67.1489 84.4182 67.3239 84.554 67.4947C85.644 68.8422 86.7007 69.8489 88.3399 70.2097C89.2299 70.4055 90.1182 70.3189 90.934 70.0197C91.8065 69.6997 92.5957 69.1372 93.214 68.4172C93.4932 68.0914 93.8232 67.9589 94.1457 67.9564C94.5107 67.9539 94.8724 68.1239 95.144 68.3955C95.4115 68.6622 95.5907 69.0255 95.6074 69.4047C95.6215 69.7372 95.5132 70.0855 95.224 70.3955C94.2724 71.418 93.039 72.1672 91.7049 72.5539ZM91.6649 55.6822C92.994 56.4905 95.0199 58.3755 93.5899 60.3797C91.9065 62.1472 89.4824 60.1214 88.2882 59.2047C87.1807 58.4947 85.9365 60.3214 86.964 61.1505C95.5949 67.543 99.0974 55.8939 92.3374 54.7322C91.5932 54.6039 91.3165 55.4322 91.6649 55.6822ZM79.2282 52.1255C78.8015 51.8514 78.2982 51.758 77.7415 52.0114C77.3065 52.2097 76.5424 52.8697 76.0115 53.738C75.6474 54.3314 75.3899 55.028 75.444 55.7539C75.4565 55.9222 75.394 56.0464 75.2957 56.138C75.2182 56.2105 75.1065 56.2639 74.9749 56.2805C74.8632 56.2947 74.7382 56.2822 74.6365 56.2505C74.4432 56.1897 74.3407 56.0647 74.3024 55.9622C73.9299 54.9739 74.0907 53.8705 74.5074 52.8755C75.0699 51.5322 76.0924 50.4072 76.7615 50.0447C77.9074 49.4239 79.259 49.3955 80.4065 50.028C81.3832 50.5664 81.9932 51.4355 82.6007 52.3214C82.7299 52.5097 82.8582 52.6964 82.9907 52.8805C83.2557 53.248 83.2824 53.613 83.1799 53.9264C83.0657 54.273 82.7757 54.5655 82.4124 54.7189C82.0765 54.8597 81.6874 54.8797 81.3424 54.7347C81.0515 54.6114 80.784 54.3722 80.6149 53.9664C80.3307 53.2814 79.8557 52.5264 79.2282 52.1255ZM100.93 53.648C100.637 53.8005 100.408 53.8464 100.083 53.7489C99.904 53.6947 99.7265 53.5914 99.5874 53.453C99.4499 53.3147 99.3507 53.1439 99.3124 52.9539C99.2174 52.4847 98.9607 52.0455 98.5949 51.7597C98.2832 51.5155 97.8882 51.3855 97.4515 51.4589C96.979 51.5372 96.5299 51.8405 96.2199 52.1972C96.1165 52.3164 96.0357 52.4522 95.954 52.5872C95.8015 52.8389 95.6532 53.073 95.4424 53.258C95.3632 53.3289 95.2424 53.3772 95.1265 53.3772C95.079 53.3772 95.0307 53.3697 94.9849 53.3555C94.5157 52.8839 94.4249 52.5264 94.4399 52.1714C94.4557 51.7989 94.6024 51.4222 94.8399 51.0705C95.3957 50.2464 96.4515 49.5697 97.1632 49.4172C98.139 49.2072 99.1074 49.4589 99.884 50.0039C100.683 50.5647 101.276 51.4355 101.46 52.4164C101.505 52.653 101.486 52.908 101.396 53.1289C101.308 53.3455 101.155 53.5305 100.93 53.648ZM81.3799 43.3334C80.794 43.9039 80.1015 43.9924 79.4007 44.0709C79.0107 44.115 78.6999 44.1506 78.394 44.2197C77.5532 44.4095 76.7224 44.6955 75.964 45.1074C75.1707 45.538 74.3074 46.0573 73.6857 46.7225C73.5374 46.8809 73.3982 47.0469 73.259 47.2134C73.1315 47.3653 73.009 47.5114 72.8799 47.6523C72.7315 47.8141 72.5907 47.9838 72.4507 48.1529C72.364 48.2957 72.3474 48.3309 72.3299 48.3674C72.3032 48.4223 72.2724 48.4838 72.2382 48.5497C72.1899 48.64 72.134 48.7389 72.0757 48.8285C71.9782 48.9924 71.9257 49.0374 71.8807 49.0576C71.8057 49.091 71.7349 49.1075 71.6657 49.0986C71.6007 49.0903 71.5399 49.0591 71.4799 49.0083C71.179 48.7542 71.0907 48.3374 71.0999 47.8949C71.1132 47.2233 71.3607 46.4798 71.589 46.0228C72.1199 44.9608 72.8557 43.8568 73.7407 43.0642C74.7507 42.1594 75.8557 41.4744 77.1249 41.0025C77.9132 40.7091 78.8265 40.4398 79.6857 40.4738C80.304 40.4983 80.894 40.6822 81.3815 41.1414C81.6807 41.4234 81.8249 41.8244 81.8249 42.2251C81.8249 42.6338 81.6757 43.0449 81.3799 43.3334ZM102.121 48.5582C102.083 48.6192 102.032 48.6613 101.974 48.6865C101.914 48.713 101.847 48.7207 101.783 48.7098C101.719 48.699 101.657 48.6699 101.609 48.6255C101.563 48.5829 101.528 48.5264 101.512 48.4573C101.123 46.7496 100.369 45.4791 98.7582 44.6599C97.9657 44.2568 97.0549 44.0007 96.1924 43.7965C95.9415 43.7372 95.6765 43.6988 95.4099 43.6599C94.574 43.5377 93.7324 43.3979 93.1874 42.7219C92.859 42.3148 92.7207 41.7941 92.799 41.3179C92.8724 40.8695 93.134 40.4584 93.6099 40.212C94.7957 39.5989 96.2682 40.2005 97.4657 40.713C97.554 40.751 97.6415 40.7884 97.7265 40.8244C98.8974 41.3186 99.9649 41.9711 100.842 42.9041C101.539 43.6444 102.184 44.7387 102.444 45.8644C102.66 46.8009 102.609 47.7571 102.121 48.5582Z" fill="#333333"/>
<path fill-rule="evenodd" clip-rule="evenodd" d="M91.8583 62.5447C89.8999 61.6622 86.3841 62.4322 85.1083 62.738C82.1408 63.4497 79.1549 64.9888 78.2324 67.3988C77.1932 70.1155 79.2674 70.9705 79.5724 70.8305C81.6266 70.9755 84.0733 69.6838 86.2258 69.3497C87.9733 69.0772 89.8166 68.8388 91.4541 67.9097C92.6491 68.568 95.3491 68.923 97.5283 69.4988C99.3841 69.988 100.188 71.0497 101.909 70.8238C103.971 70.5538 103.127 66.2155 100.829 64.458C98.3133 62.5338 94.0599 61.7538 91.8583 62.5447ZM95.7349 81.0947C94.0216 81.513 93.9066 77.7572 93.7149 76.4297C93.5649 75.393 92.7199 72.7197 90.5758 72.8355C88.4324 72.9505 87.6266 75.1905 87.7349 76.583C87.8057 77.4872 88.6383 82.063 85.9816 82.6422C84.2883 82.6355 82.3291 82.5213 80.5483 82.193C78.4524 81.718 75.7274 80.0555 75.0074 83.3297C74.7483 84.508 83.9808 88.0088 88.0774 88.3255C92.2316 89.168 97.0924 87.873 100.051 84.693C100.724 83.9697 102.619 80.9672 102.754 80.2322C103.037 78.6863 102.381 77.6922 100.469 78.2363C99.1191 78.958 96.8366 80.8263 95.7349 81.0947Z" fill="#333333"/>
<path fill-rule="evenodd" clip-rule="evenodd" d="M104.018 58.6813C101.377 59.9547 97.6899 58.0763 95.9132 56.1097C95.2666 55.3938 94.7674 53.3447 95.0166 52.0455C95.6899 48.5263 98.2216 46.4142 100.895 45.6929C104.6 44.6929 108.328 47.2263 107.893 50.2155C107.482 53.0488 106.857 57.1588 104.018 58.6813ZM86.0341 51.9213C85.8224 55.7563 82.7441 59.113 79.0641 60.108C73.1357 61.763 70.2057 57.5938 68.8782 53.1022C68.7466 52.6563 68.4366 51.2938 69.2682 50.1255C72.5399 45.5295 80.4999 46.3129 84.4757 47.5747C85.6399 48.6879 86.1158 50.2947 86.0341 51.9213ZM106.889 45.3067C106.887 45.309 106.886 45.3109 106.884 45.3133C106.87 45.3049 106.857 45.2965 106.843 45.2884C106.858 45.2948 106.874 45.3002 106.889 45.3067ZM111.85 45.75C111.505 41.8453 99.2582 43.3404 97.8266 43.6604C93.9182 44.8102 90.5433 47.9382 86.1741 46.5632C81.6474 41.5149 66.4032 42.9626 63.2074 45.5342C62.6024 45.2968 61.8666 45.4242 61.0874 45.6482C57.0849 45.5036 38.813 46.8839 42.5503 51.9939C43.1176 52.388 43.6843 51.9872 43.7 51.1763C63.1832 44.1407 61.2941 50.7305 63.6049 49.9613C63.9574 50.063 64.3257 50.1272 64.6482 50.1947C66.4366 50.7705 67.0433 50.5922 67.2791 52.6005C68.8974 68.1088 89.5407 62.7563 87.8482 50.0355C89.5241 49.9438 90.9907 49.218 92.7632 49.9263C93.9941 61.9097 103.633 62.393 106.534 58.2388C108.722 55.3563 107.854 51.0047 110.862 48.7369C112.048 49.7305 112.125 46.3768 111.85 45.75Z" fill="#333333"/>
</svg>
