<svg width="142" height="200" viewBox="0 0 142 200" fill="none" xmlns="http://www.w3.org/2000/svg">
<path fill-rule="evenodd" clip-rule="evenodd" d="M17.8261 198.224C19.9337 198.355 22.0411 198.457 24.1484 198.536C51.7066 199.563 79.2429 196.42 106.784 195.733C116.375 195.48 125.916 195.606 135.483 196.376C136.42 196.452 137.492 195.443 137.377 194.482C135.61 179.22 133.399 163.999 132.253 148.674C132.252 147.863 132.356 147.054 132.635 146.29C132.687 146.23 132.96 145.559 133.201 145.517C133.122 145.576 133.48 145.473 133.253 145.49C134.635 145.264 135.992 143.77 134.989 142.341C124.649 126.487 110.533 112.016 105.992 93.1854C104.919 88.0946 101.044 87.7795 96.9154 85.6795C95.627 84.9129 92.477 82.7904 91.9645 81.3146C90.7404 75.9946 92.8962 70.7837 86.597 68.6312C82.4379 67.4779 75.087 66.5012 70.8795 67.7179C65.7462 69.427 66.1304 75.2137 63.1529 79.1946C61.6137 81.4971 58.9887 84.6496 56.5645 85.0029C55.3895 85.1737 54.5243 82.7962 53.3513 82.9596C35.0671 87.4021 10.1562 117.707 2.29778 134.483C0.526779 139.763 6.2382 138.17 5.88728 143.477C5.45478 153.545 4.5087 166.432 5.06978 176.512C5.59528 182.362 5.20636 188.492 7.0242 194.122C6.53486 194.716 7.23786 195.316 7.81145 195.575C8.5342 196.805 15.6454 198.054 17.8261 198.224Z" fill="white"/>
<path fill-rule="evenodd" clip-rule="evenodd" d="M65.4279 72.8537C65.9029 70.7146 69.3062 71.6321 68.7237 73.7629C67.8204 77.0579 65.947 80.1721 63.3029 82.3579C61.2604 84.0454 58.477 85.5512 55.7162 85.8287C55.9754 86.0812 56.2237 86.3504 56.4845 86.6079C57.072 87.1921 57.697 87.7346 58.3412 88.2562C59.6654 89.3271 61.042 90.2904 62.5462 91.0971C68.5512 94.3204 75.3345 95.0637 82.042 94.3129C85.2254 93.9571 88.4562 93.3537 91.4487 92.1887C92.8362 91.6504 94.1845 90.9421 95.3754 90.0471L95.687 89.8137C96.3129 89.3404 97.1479 88.6737 97.5387 87.9446C96.3487 88.2121 94.8437 86.9437 94.0179 86.2062C93.1145 85.3962 92.3537 84.3512 91.792 83.2804C90.692 81.1796 90.1095 78.4687 91.032 76.2162C91.0937 76.0662 91.2904 76.0912 91.3079 76.2537C91.5812 78.8796 92.2887 81.3412 94.1729 83.2862C95.0087 84.1471 96.0104 84.8696 97.1037 85.3712L97.2579 85.4421C97.7237 85.6571 98.2137 85.9104 98.4104 86.3712C98.4862 86.3629 98.562 86.3696 98.6337 86.3896C98.6987 86.4071 98.7587 86.4262 98.817 86.4471C98.687 86.1921 98.6179 85.8912 98.6304 85.5346C98.6762 84.1562 100.569 84.1137 100.831 85.3412C100.784 85.1796 100.72 85.3362 100.84 85.3854C100.838 85.3712 100.835 85.3554 100.831 85.3412L100.835 85.3546L100.842 85.3854H100.84C100.845 85.4079 100.849 85.4304 100.851 85.4537L100.854 85.4846L100.852 85.4587C100.85 85.4404 100.848 85.4229 100.845 85.4079L100.841 85.3854C100.86 85.3937 100.884 85.3996 100.912 85.3996L100.924 85.4037C100.968 85.4229 101.124 85.4954 101.17 85.5137C101.485 85.6304 101.836 85.6671 102.159 85.7671C102.858 85.9829 103.474 86.3379 103.9 86.9437C104.206 87.3796 104.377 87.8779 104.447 88.3954C107.54 89.8837 110.469 91.8171 112.921 94.2112C118.395 99.5512 122.211 106.235 125.344 113.154C126.938 116.675 128.358 120.272 129.748 123.879L129.967 124.448C131.456 128.325 132.773 132.244 133.097 136.41C133.127 136.784 133.004 137.135 132.79 137.425C132.866 137.739 132.905 138.052 132.895 138.359C132.893 138.406 132.89 138.454 132.885 138.501C133.385 138.492 133.875 138.702 134.34 139.29C134.528 139.23 134.733 139.223 134.933 139.289C136.157 139.68 136.354 141.024 136.585 142.149C136.822 143.311 136.926 144.502 136.928 145.687C136.928 146.112 136.685 146.647 136.273 146.829C135.499 147.17 134.664 147.394 133.863 147.704C133.26 147.936 132.657 148.156 132.048 148.363C132.385 148.952 132.495 149.773 132.678 150.395C132.965 151.365 133.195 152.34 133.39 153.333C134.703 160.087 135.613 166.914 136.842 173.682C137.456 177.073 138.171 180.44 138.9 183.808C139.259 185.463 139.641 187.115 140.051 188.76C140.27 189.637 140.496 190.515 140.73 191.386C140.799 191.641 140.868 191.895 140.937 192.149L141.06 192.593C141.328 192.74 141.556 192.965 141.715 193.27C142.295 194.391 141.961 195.654 140.85 196.285C139.643 196.971 138.201 196.323 137.535 195.208C137.067 194.421 136.914 193.379 136.683 192.503C136.423 191.52 136.175 190.532 135.935 189.544C134.309 182.831 133.219 176.001 132.398 169.145L132.34 168.655C131.923 165.126 131.52 161.588 131.259 158.042C131.13 156.3 131.028 154.559 130.965 152.813C130.933 151.915 130.985 151.011 131.035 150.115C131.058 149.722 131.092 149.328 131.104 148.935L131.108 148.879C131.111 148.84 131.115 148.787 131.12 148.732L131.124 148.665C129.909 149.046 128.676 149.363 127.431 149.63C124.784 150.203 122.074 150.522 119.371 150.36C119.749 154.837 120.24 159.303 120.926 163.74C121.588 168.013 122.352 172.276 123.215 176.515C123.646 178.644 124.113 180.768 124.604 182.885C124.868 184.015 125.169 185.139 125.407 186.275C125.548 186.951 125.592 187.517 125.308 188.15C125.62 189 125.898 189.854 126.17 190.659L126.252 190.899C126.735 192.308 127.65 193.748 126.694 195.133C126.2 195.848 125.393 196.256 124.581 196.281C124.567 196.29 124.551 196.3 124.535 196.309C124.099 196.543 123.595 196.589 123.116 196.489C122.39 196.631 121.66 196.769 120.93 196.894C119.125 197.205 117.312 197.463 115.495 197.68C112.035 198.091 108.553 198.317 105.072 198.442C92.3295 198.901 79.572 198.095 66.8245 198.327C60.3295 198.445 53.8345 198.738 47.3504 199.125C44.1144 199.319 40.8768 199.527 37.6391 199.687L36.6369 199.736C33.7415 199.875 30.844 199.981 27.9508 199.77C27.8944 199.766 27.8504 199.744 27.8204 199.712C26.8222 199.599 25.8189 198.68 25.919 197.618C26.3504 193.095 26.7817 188.572 27.2149 184.047C27.9842 175.986 28.7606 167.925 29.5458 159.865L29.6593 158.701C29.9231 155.986 30.175 153.264 30.3029 150.538C29.6585 150.492 29.016 150.434 28.3733 150.363C21.4093 149.6 14.7332 147.493 8.32311 144.725L8.06345 144.613C7.48595 144.36 6.85386 144.109 6.20603 143.84C6.21678 145.07 6.17611 146.304 6.17078 147.522C6.16203 149.546 6.17786 151.57 6.18311 153.591C6.19545 157.759 6.35386 161.928 6.56161 166.088C6.92611 173.435 7.35386 180.773 8.00178 188.103C8.16553 189.947 8.38753 191.788 8.54403 193.632C8.63753 194.719 8.41378 195.624 7.4192 196.195C6.92961 196.476 6.55111 196.359 6.0652 196.131C4.87853 195.575 4.84511 194.259 4.73245 193.115C4.64636 192.251 4.56695 191.388 4.48945 190.524C4.32411 188.68 4.18136 186.835 4.0652 184.988C3.60586 177.647 3.47186 170.313 3.78878 162.963C3.93586 159.525 4.14828 156.08 4.43019 152.649L4.49653 151.857C4.72886 149.115 4.87853 146.237 5.3592 143.477C3.42078 142.617 1.50003 141.524 0.609197 139.705C-0.545553 137.345 0.723613 135.328 2.5317 133.938C2.51411 133.704 2.5317 133.471 2.58103 133.26C3.10036 131.01 3.97011 128.788 4.80986 126.643C5.6567 124.487 6.59161 122.365 7.61978 120.288C11.7465 111.97 17.3839 104.368 24.1039 97.9637C27.4419 94.7837 31.0951 91.8437 34.9948 89.3779C36.9279 88.1579 38.9103 87.0304 40.963 86.0262L41.2665 85.8787C42.6956 85.1846 44.2984 84.4471 45.8875 84.0612C46.0529 83.9379 46.2201 83.8212 46.3891 83.7104C47.0141 83.2946 47.8627 83.5962 48.2324 84.1896C48.4122 84.0504 48.6198 83.9271 48.8574 83.8162L49.0924 83.7087C50.5183 83.0662 52.2304 82.4662 53.7782 82.8879C54.7394 83.1504 55.4962 83.8587 55.8362 84.7604C56.6162 84.3479 57.382 83.9237 58.1304 83.4037C59.3329 82.5729 60.4229 81.5404 61.4012 80.4571C63.3645 78.2787 64.7904 75.7271 65.4279 72.8537ZM133.542 141.543C133.408 141.582 133.267 141.596 133.121 141.578C133.385 141.609 132.856 141.765 132.711 141.84L132.7 141.846C132.436 141.997 132.17 142.144 131.901 142.285C131.273 142.615 130.63 142.913 129.977 143.193C128.69 143.741 127.36 144.162 125.996 144.47C124.662 144.771 123.262 144.947 121.894 144.975C120.979 144.993 119.892 144.951 118.945 144.681C119.055 146.342 119.175 148.001 119.311 149.659L121.182 149.23C123.053 148.8 124.921 148.36 126.767 147.825C128.153 147.424 129.519 146.954 130.87 146.446C131.577 146.18 132.28 145.899 132.974 145.595C133.319 145.445 133.642 145.265 133.962 145.084L134.235 144.928C134.172 144.186 134.056 143.46 133.887 142.726C133.8 142.339 133.65 141.941 133.542 141.543ZM5.4472 133.721C5.20953 134.493 4.84503 135.213 4.01411 135.387C3.72003 135.449 3.47378 135.415 3.26936 135.315L3.22036 135.414C2.53711 136.817 2.33645 138.298 3.90845 139.379C4.61811 139.866 5.39086 140.289 6.19011 140.667C7.61953 141.348 9.1417 141.895 10.5769 142.451L10.8627 142.563C13.4296 143.57 16.0369 144.488 18.6849 145.255C21.3716 146.032 24.1056 146.655 26.8734 147.052C28.0405 147.218 29.2165 147.334 30.3945 147.41C30.4137 145.825 30.4049 144.238 30.3996 142.653C29.9806 142.6 29.5651 142.543 29.1639 142.495C27.9419 142.353 26.7236 142.179 25.5123 141.962C22.9824 141.51 20.4789 140.885 18.0369 140.085C13.5123 138.6 9.30278 136.477 5.4472 133.721ZM55.0548 85.1671C54.0266 84.0787 52.06 84.4712 50.819 84.9996C50.4439 85.1596 50.0653 85.3221 49.7062 85.5171L49.6366 85.5562C49.2183 85.7971 49.2204 85.9404 49.4246 86.4212C49.6903 87.0529 50.06 87.6646 50.4121 88.2504C51.9194 90.7679 53.9034 92.9587 56.1695 94.8096C64.1937 101.361 75.722 103.672 85.757 101.478C90.5737 100.426 95.2195 98.3021 98.7645 94.8187L99.0879 94.4979C100.517 93.0662 102.48 90.9954 102.342 88.8746C102.276 87.8546 101.444 87.7962 100.594 87.5996C100.245 87.5179 99.912 87.4037 99.6237 87.2421C99.8562 88.2437 98.6187 89.7337 97.9787 90.3596C96.6395 91.6712 95.0262 92.6962 93.3204 93.4629C90.0737 94.9229 86.5429 95.6129 83.0262 96.0496C79.037 96.5462 74.9612 96.5021 71.002 95.7679C67.5562 95.1287 64.1604 93.9187 61.1954 92.0337C59.8362 91.1712 58.497 90.1862 57.3629 89.0396L57.122 88.7962C56.3037 87.9671 55.3512 86.9637 54.8611 85.8754C54.6744 85.8771 54.4896 85.8712 54.3048 85.8587C54.1744 85.8521 54.1042 85.6671 54.2344 85.5979C54.3804 85.5212 54.5266 85.4437 54.6727 85.3679C54.6482 85.2862 54.6269 85.2079 54.6094 85.1262C54.5953 85.0579 54.6674 84.9946 54.7308 85.0329C54.8189 85.0854 54.9034 85.1421 54.9861 85.2021C55.0089 85.1912 55.0319 85.1796 55.0548 85.1671Z" fill="#333333"/>
<path fill-rule="evenodd" clip-rule="evenodd" d="M105.894 20.5039C95.3073 13.4936 74.0981 14.255 62.4439 18.55C51.0731 22.1576 47.0919 32.2099 45.2039 43.0703C42.909 55.2762 43.2174 72.872 59.7198 72.6586C62.0398 73.7811 64.6106 74.2678 67.0106 75.1978C70.2964 76.3337 73.5181 77.6528 76.8514 78.6486C83.4181 80.7645 90.7256 80.5803 96.9548 77.4845C100.396 75.8211 101.821 73.2312 104.071 70.472C110.618 62.4428 113.913 50.9528 113.618 40.7441C113.101 33.5555 111.911 25.2339 105.894 20.5039Z" fill="white"/>
<path fill-rule="evenodd" clip-rule="evenodd" d="M119.29 50.0946C118.204 43.3492 117.903 36.4891 116.48 29.7963C115.142 23.4982 112.64 17.5468 108.269 12.7457C104.357 8.44991 99.2988 5.29558 93.8696 3.2965C83.2921 -0.597587 71.1263 0.282997 60.8938 4.829C51.3165 9.08225 43.6774 16.9515 39.2249 26.3953C36.3323 32.5316 34.8781 39.0552 34.232 45.7887C33.5154 53.2687 33.438 60.8262 33.1457 68.3329C33.1105 69.2587 33.0594 70.1854 33.0471 71.1121C33.0331 72.1263 33.4432 73.0154 33.7777 73.9596C33.8006 74.0262 33.8341 74.0904 33.8746 74.1504C33.6228 74.1812 33.3711 74.2187 33.1193 74.2587C32.8376 74.3029 32.8499 74.7613 33.1193 74.8154C35.3992 75.2804 37.7426 75.3462 40.0612 75.4604C42.4644 75.5804 44.8711 75.6454 47.2777 75.7262C49.6246 75.8054 51.9714 75.8846 54.3182 75.9637C55.5505 76.0062 56.783 76.0488 58.0155 76.0888C58.6013 76.1087 59.188 76.1296 59.7763 76.1487C60.068 76.1596 60.3621 76.1679 60.6546 76.1787C60.8921 76.1862 61.2796 76.3371 61.3038 76.1629C61.348 76.1896 61.3955 76.2121 61.4471 76.2279C61.503 76.2579 61.558 76.2937 61.6105 76.3321C61.8971 76.5296 62.3321 76.5046 62.623 76.3321C62.6488 76.3162 62.6771 76.2987 62.7055 76.2812C62.9221 76.1521 63.0738 75.9654 63.158 75.7546C64.3621 77.2096 66.4946 75.5746 65.2621 74.0354C64.5996 73.2079 58.0155 52.9129 60.7405 37.4525L71.6705 36.0047C73.6688 35.8022 77.3871 35.3988 77.3871 35.3988C77.3871 35.3988 78.2971 32.4277 78.558 31.4712C78.5771 31.4008 78.5963 31.3286 78.6171 31.2582C78.878 31.718 79.1405 32.1757 79.4046 32.6337L80.753 35.376C80.753 35.376 100.658 35.0431 105.538 35.0748C105.621 35.0748 106.014 41.0102 105.835 43.6239C105.476 48.8721 105.095 54.1171 104.563 59.3521C104.224 62.7037 103.405 65.9904 102.187 69.0796C100.262 73.9596 94.6738 78.5979 89.2246 78.5979C85.833 78.5979 78.1688 75.8496 77.0521 75.2946C75.9363 74.7396 75.2713 76.2546 76.288 76.8604C78.3488 78.0879 84.0288 80.6912 89.2246 80.6912C96.7713 80.6912 102.468 73.5279 103.167 72.5012C110.038 72.1246 117.066 72.2987 123.929 72.9804C124.505 73.0371 125.001 72.3429 124.816 71.8129C122.351 64.7554 120.476 57.4762 119.29 50.0946Z" fill="#333333"/>
<path fill-rule="evenodd" clip-rule="evenodd" d="M91.1144 67.2195C89.931 66.737 88.8744 65.9312 88.1027 64.902C87.8344 64.5437 87.7644 64.1662 87.821 63.8203C87.8844 63.432 88.1144 63.0795 88.4277 62.8437C88.7419 62.607 89.1352 62.4895 89.5152 62.5495C89.8452 62.6012 90.1744 62.782 90.4344 63.157L90.4886 63.232C90.9477 63.8537 91.5461 64.3628 92.2277 64.692C92.8844 65.0087 93.6186 65.1562 94.3794 65.0703C95.8269 64.907 96.8252 64.1237 97.886 63.0595C98.0169 62.9253 98.1485 62.787 98.281 62.6462C98.3644 62.5187 98.4802 62.4362 98.6086 62.3937C98.7519 62.3453 98.9136 62.3487 99.0611 62.4003C99.2044 62.4495 99.3319 62.5445 99.4169 62.6703C99.4986 62.7895 99.5444 62.937 99.5294 63.107C99.4327 64.2087 98.8561 65.1928 98.0377 65.9653C97.1294 66.8237 95.9244 67.417 94.7902 67.6253C93.5402 67.8545 92.2669 67.6903 91.1144 67.2195ZM95.3794 50.2128C96.7094 51.0212 98.7344 52.9062 97.3044 54.9103C95.6211 56.6778 93.1969 54.652 92.0027 53.7353C90.8952 53.0253 89.651 54.852 90.6785 55.6812C99.3094 62.0737 102.812 50.4245 96.0519 49.2628C95.3077 49.1345 95.0311 49.9628 95.3794 50.2128ZM79.9127 42.7769C80.0594 40.9529 82.8369 40.5387 83.1127 42.3437C83.3602 43.9603 83.0685 45.4453 82.341 46.9012C81.6452 48.292 79.8969 47.6437 79.7644 46.377C79.5877 44.6795 79.8211 43.9112 79.9127 42.7769ZM101.051 41.9693C101.438 41.4622 101.997 41.1158 102.667 41.3116C104.759 41.9232 104.143 44.8953 103.408 46.3412C103.009 47.127 101.718 47.3262 101.134 46.6345C100.184 45.507 99.7285 43.2542 100.937 42.1432C100.969 42.0858 101.006 42.0278 101.051 41.9693ZM82.3119 34.7957L82.6419 34.7377C83.6644 34.5608 84.9361 34.3908 85.6594 35.2132C86.0427 35.6493 86.1752 36.4598 85.6594 36.8772C84.7519 37.6117 83.7494 37.3271 82.6627 37.3892C81.7669 37.4407 80.906 37.589 80.0427 37.8357C78.1502 38.377 76.6077 39.365 74.9911 40.45C74.7786 40.5922 74.5619 40.3208 74.6636 40.1223C75.5969 38.2937 77.4052 36.7915 79.2169 35.8758C80.1835 35.3871 81.2419 34.9816 82.3119 34.7957ZM99.1436 33.9764L99.396 34.0282C102.149 34.6039 105.726 35.7539 107.03 38.4591C107.079 38.8416 107.027 38.9236 106.984 38.9772L106.97 38.995C106.935 39.0407 106.907 39.1037 106.741 39.1558C106.695 39.1448 106.649 39.1332 106.602 39.1209C106.004 38.9642 105.532 38.7484 105.074 38.5245L104.578 38.2799C104.002 37.9975 103.421 37.7253 102.805 37.5244C101.491 37.0957 100.14 36.7937 98.7677 36.6325C98.4702 36.5976 98.1844 36.4972 97.9577 36.325C97.7435 36.1617 97.5802 35.9355 97.5052 35.6348C97.4085 35.2458 97.4361 34.9512 97.6444 34.6002C97.8019 34.3367 98.026 34.1539 98.2844 34.049C98.5469 33.9421 98.8461 33.9168 99.1436 33.9764Z" fill="#333333"/>
<path fill-rule="evenodd" clip-rule="evenodd" d="M115.825 36.8036C115.68 36.7794 115.535 36.7568 115.39 36.7354C115.276 36.6712 115.143 36.6217 114.989 36.5919C114.635 36.5023 114.285 36.4419 113.935 36.4093C108.912 35.2784 97.2913 36.8841 96.8113 41.1724C95.2121 41.7066 93.828 41.2282 91.9738 41.2758C90.5621 35.3747 66.1638 36.2076 64.9905 39.7654C64.9863 39.7641 64.9813 39.763 64.9771 39.7616C63.8496 39.4125 62.1871 39.4967 60.8971 39.4414C58.1413 39.3837 55.383 39.6294 52.687 40.2108C47.6386 41.0134 40.7486 41.9529 44.2596 48.2595C44.2604 48.2604 44.2609 48.262 44.2618 48.2629H44.2623C44.8674 48.8829 45.8943 48.3837 45.9326 47.5437C44.7521 44.5554 47.4183 44.197 49.4697 43.3382C54.5741 41.5037 59.7713 41.2494 65.0505 41.8169C65.4471 42.2846 66.0496 42.6925 66.6871 42.906C70.2163 43.4921 68.3563 46.1112 70.588 46.492C70.178 55.6229 81.2588 60.607 87.6796 54.6045C90.243 52.0979 90.8546 48.3837 91.4488 45.0354C91.763 44.9645 91.963 44.7929 92.0796 44.5654C92.8355 43.8104 93.3096 43.1133 94.8046 42.906C96.2988 42.6989 97.4496 43.1147 97.6055 43.242C97.6446 43.3211 97.6863 43.4004 97.7355 43.4796C97.8038 43.5978 97.8971 43.692 98.0021 43.7662C96.5263 52.8587 103.582 58.6087 110.705 53.8929C113.8 50.9804 114.455 46.5212 114.584 42.541C115.003 42.2878 115.269 41.7969 115.124 41.1798C114.924 40.3291 115.393 39.5925 116.14 39.2227C117.112 38.7424 116.94 36.9884 115.825 36.8036ZM85.2171 41.1172C84.333 40.9226 83.9555 42.2864 84.8421 42.4814C85.4705 42.6195 86.003 42.9364 86.3621 43.4732L86.4005 43.5315C86.883 44.2995 88.103 43.5906 87.6171 42.8174C87.0705 41.9473 86.2213 41.3379 85.2171 41.1172ZM111.113 40.2715C110.801 40.0519 110.33 40.2149 110.149 40.5254C109.95 40.8671 110.08 41.2476 110.372 41.4712L110.401 41.493C110.67 41.6819 110.93 42.0203 110.963 42.367L110.965 42.4104C111 43.3179 112.41 43.3224 112.375 42.4104C112.341 41.5182 111.825 40.7728 111.113 40.2715Z" fill="#333333"/>
</svg>
