<svg width="146" height="217" viewBox="0 0 146 217" fill="none" xmlns="http://www.w3.org/2000/svg">
<path fill-rule="evenodd" clip-rule="evenodd" d="M93.2555 215.33C78.968 215.37 70.4113 215.202 54.2503 214.969C35.546 214.474 30.5051 215.364 20.0266 213.306C18.4245 212.965 17.2057 212.449 15.9693 211.731C15.5262 212.231 14.775 212.976 14.0617 212.483C12.7475 211.614 13.35 208.579 13.0242 206.866C12.4847 191.775 11.6218 176.233 14.5715 161.325C12.7832 160.743 2.30508 156.431 1.73291 154.986C11.2084 130.2 31.9947 101.195 59.3432 102.287C59.893 102.966 60.3822 103.97 60.993 104.661C64.7113 103.268 69.8722 101.871 70.1272 96.509C70.7713 92.9298 71.2347 89.5882 71.5447 86.299C71.6013 85.9232 72.0522 85.7932 72.3297 85.6332C72.4472 84.7823 72.718 83.9132 73.3047 83.3298C78.0972 82.899 89.0388 84.8765 91.9097 85.6915C95.8263 86.3623 95.4188 90.5673 96.1488 93.7548C97.3055 97.6956 98.1105 101.786 99.8297 105.636C100.219 105.69 101.308 105.879 101.71 105.95C101.73 105.513 101.525 104.218 101.925 103.954C102.666 103.209 102.838 104.626 103.002 105.088C119.187 102.031 129.771 115.771 133.318 131.118C135.886 138.836 139.29 146.647 143.734 155.025C146.52 160.226 138.515 161.192 135.159 163.268C138.622 176.746 139.039 190.472 139.607 204.057C139.757 206.146 139.961 208.988 139.221 210.028C138.87 210.301 138.625 210.293 138.27 210.313C137.583 211.055 136.405 211.006 135.413 211.217C132.278 211.787 129.065 212.169 126.046 212.226C117.574 217.472 104.512 214.539 93.2555 215.33Z" fill="white"/>
<path fill-rule="evenodd" clip-rule="evenodd" d="M70.3663 86.2889C70.8113 84.0598 74.4888 84.5764 74.3213 86.8239C72.4646 95.1898 73.5955 105.374 61.8613 104.551C69.3096 117.657 92.3104 125.629 99.7455 108.421C96.0821 107.984 95.3571 99.3206 94.9146 96.2889L94.8963 96.0181C94.798 94.4589 94.8313 93.0139 95.768 91.6806C96.703 92.3814 97.0788 93.6489 97.3955 94.8056L97.6271 95.7315C98.4021 98.8173 99.213 101.89 100.442 104.835L100.486 104.841C100.425 102.844 102.988 101.931 103.624 104.071C120.968 101.681 130.456 116 134.2 130.976C136.93 139.173 140.49 147.059 144.533 154.682C147.585 160.639 140.175 162.002 136.255 163.984C139.27 176.066 139.861 188.584 140.42 200.976C140.235 203.621 141.43 209.046 139.834 210.942C137.47 212.793 136.196 209.621 136.56 207.587C136.9 193.208 135.402 178.892 134.973 164.536C132.013 165.786 129.018 166.939 125.989 168.01C126.143 181.481 127.745 194.953 128.315 208.356C129.065 208.947 129.479 209.971 128.839 210.863C125.412 215.644 119.217 216.358 113.766 216.426C100.794 216.59 87.808 216.54 74.8346 216.501C62.0913 216.212 49.2369 217.028 36.5608 215.567C34.0766 217.434 33.5685 213.41 33.9013 211.694L34.0276 208.256C34.1126 205.964 34.2027 203.672 34.3185 201.382L34.6074 195.797C35.091 186.491 35.6035 177.188 36.4166 167.9C29.0532 166.892 21.7956 165.105 14.7694 162.692C15.3478 178.818 14.1613 195.116 16.1396 211.159C17.4451 212.931 14.827 214.595 13.2986 213.485C11.4032 212.039 12.216 209.211 11.8375 207.129L11.789 205.783C11.2585 191.271 10.5336 176.455 13.2375 162.142L12.0745 161.691C8.52912 160.306 -0.588379 156.603 0.607288 154.776C10.1257 129.826 31.4182 99.9831 59.6184 101.401C60.333 101.897 60.698 102.863 61.2271 103.556L62.0663 103.251C65.3155 102.061 68.8438 100.553 68.9405 96.5523C69.5555 93.1431 70.043 89.7331 70.3663 86.2889ZM116.84 148.479C120.879 142.827 92.8613 151.76 90.8696 152.35L90.1196 152.623C77.848 157.086 64.6196 161.401 54.8345 170.296C54.6289 170.522 54.8848 170.833 55.1509 170.707L55.185 170.687C55.5743 170.471 57.2597 169.868 56.0656 170.096C70.2038 161.177 86.6296 156.277 102.68 151.992C105.011 151.428 107.355 150.909 109.708 150.437C112.081 149.86 114.759 149.866 116.84 148.479ZM72.5671 146.64C72.9121 145.231 75.2346 132.282 71.378 135.835C70.3496 137.697 69.9555 139.856 69.7705 141.955C69.273 144.401 70.528 147.036 69.3071 149.291C68.2146 152.236 64.198 155.677 63.9296 150.206C70.5013 149.981 68.528 141.651 64.0546 144.226C61.6046 146.324 61.1813 150.274 62.4071 153.167C60.4271 151.011 57.2157 151.004 54.9235 149.376C50.7838 144.9 57.7368 140.241 61.523 138.629C61.7363 138.395 64.8396 137.312 64.1821 137.181C61.2096 137.209 58.2315 137.841 55.6665 139.406C50.3577 141.996 48.5509 150.018 54.6238 152.83C55.937 153.463 57.3741 153.803 58.6743 154.456C61.9505 156.156 60.8921 158.291 57.5097 158.353C56.1185 158.657 51.5275 157.383 52.0415 159.822C52.872 161.347 54.6805 161.575 56.2648 161.617C60.4996 161.908 65.7646 159.515 63.3713 154.531C66.2605 156.994 69.868 153.552 71.1055 150.877C72.6146 153.836 76.4063 152.946 78.5463 151.194C81.8171 153.771 85.9196 150.906 87.3763 147.709C87.4063 148.374 87.4363 149.04 87.4679 149.705C87.5338 151.068 89.6471 151.506 89.9588 150.042C90.4338 147.816 91.0888 145.615 91.9896 143.522C94.0621 138.021 95.3296 140.501 95.4021 144.812C95.6571 146.431 96.4671 147.881 98.2555 147.99C98.7538 148.02 99.4046 147.576 99.4821 147.056L99.5846 146.366C99.803 144.922 100.055 143.435 100.6 142.077C101.125 146.57 107.006 146.548 108.646 142.823C112.048 144.866 115.617 142.012 117.204 139.061L117.251 138.972C117.805 137.963 116.397 136.742 115.592 137.691L115.312 137.983C113.794 139.555 111.378 141.834 109.382 139.893C109.448 139.017 109.421 138.123 109.367 137.261C109.303 136.235 107.885 135.321 107.08 136.239C105.944 135.274 104.533 135.413 103.345 136.086C100.268 136.956 98.3288 139.953 97.6613 142.932C97.5905 140.552 96.8121 137.97 94.1988 137.746C91.5213 137.723 90.4963 140.718 89.583 142.733C89.5296 141.831 89.4788 140.928 89.433 140.026C89.3538 138.472 87.2005 138.488 87.0238 139.979L87.0188 140.026C86.6796 143.248 84.8955 150.967 80.393 149.457C82.2913 147.365 85.7263 140.99 82.4613 139.004C77.4363 137.738 74.8588 145.668 77.0013 149.358L76.8905 149.436C75.6663 150.281 73.643 151.221 72.9596 149.327L72.8821 149.153C72.5313 148.352 72.2213 147.485 72.5671 146.64ZM65.3788 145.746C66.3305 145.191 66.6688 147.031 66.4263 147.648C66.0371 148.638 64.9755 149.19 63.918 149.567L63.9213 149.456C63.968 148.325 64.3455 146.351 65.3788 145.746ZM81.3938 141.153C81.4155 141.286 81.3805 141.448 81.3755 141.571C81.213 143.74 80.2488 145.822 78.9071 147.515C78.1346 145.215 79.1305 142.176 81.3938 141.153ZM104.268 138.441C104.885 138.279 105.538 138.325 106.173 138.496C106.127 139.219 106.284 139.942 106.599 140.606C104.958 145.535 101.101 141.741 104.268 138.441Z" fill="#333333"/>
<path fill-rule="evenodd" clip-rule="evenodd" d="M102.509 33.9047C90.9298 24.4898 72.374 21.4328 59.979 30.9314C50.3478 39.8457 46.3622 65.1773 48.0667 77.9057C48.5406 86.0698 54.7757 95.324 63.9282 92.7415C65.4823 92.589 66.9915 91.9932 68.5598 91.8682C70.4365 91.6515 72.3265 91.6482 74.1998 91.9132C78.2798 92.4898 81.8965 94.6573 85.8573 95.6707C93.2057 97.5507 101.405 96.2857 107.73 92.0515C128.632 78.3032 119.164 47.211 102.509 33.9047Z" fill="white"/>
<path fill-rule="evenodd" clip-rule="evenodd" d="M100.966 95.8965C101.182 95.8223 101.396 95.7457 101.61 95.6665C101.624 95.7157 101.646 95.7632 101.673 95.809C101.703 95.8832 101.733 95.9548 101.766 96.0273C101.499 96.029 101.231 95.9815 100.966 95.8965ZM100.537 4.66035C100.442 4.44743 100.333 4.2431 100.21 4.04568C100.509 4.14268 100.808 4.2766 101.08 4.44918C100.896 4.51085 100.716 4.58126 100.537 4.66035ZM54.7995 32.5164C54.7872 32.5143 54.7751 32.5125 54.7629 32.5104C54.9199 32.0921 55.1997 31.6973 55.5087 31.4121C55.5642 31.3608 55.6242 31.3135 55.6822 31.2645C55.3542 31.6553 55.0567 32.0723 54.7995 32.5164ZM138.488 76.2573C138.333 74.7882 138.136 73.3248 137.881 71.8698C137.636 70.4765 137.43 68.9865 136.721 67.7507C136.016 66.519 135.31 65.3232 134.472 64.2398C134.591 63.6873 134.751 63.1673 134.887 62.7482C135.68 60.3357 136.46 57.2708 134.814 55.0288C134.431 54.5093 133.965 54.1112 133.431 53.7518C133.205 53.5987 132.828 53.4595 132.653 53.2482C132.53 53.0984 132.572 53.1795 132.567 53.1055C132.537 52.7074 133.471 51.8673 133.689 51.5521C134.097 50.9689 134.401 50.3122 134.634 49.6411C135.553 46.9852 134.928 44.0597 134.376 41.3983C134.083 39.9877 133.761 38.5734 133.655 37.1327C133.556 35.7801 133.741 34.4591 133.851 33.1135C133.956 31.7853 133.928 30.4153 133.359 29.1858C133.081 28.5869 132.661 28.0586 132.148 27.6464C131.648 27.2433 131.025 27.009 130.537 26.6074C130.051 26.2075 130.191 25.6669 130.317 25.1139C130.491 24.3636 130.711 23.6186 130.732 22.8437C130.771 21.4928 130.221 20.1769 129.36 19.1556C128.472 18.1006 127.205 17.3871 125.835 17.2268C125.208 17.1528 124.591 17.2781 123.968 17.2341C123.352 17.1918 123.219 16.8836 123.102 16.32C122.835 15.029 122.944 13.7538 122.308 12.5492C121.745 11.4783 120.743 10.7525 119.636 10.3247C117.606 9.53918 115.245 9.70118 113.104 10.1643C111.84 6.44468 107.895 4.00535 104.013 3.97535C103.407 2.94676 102.381 2.17893 101.21 1.72785C99.2732 0.979263 97.2223 1.41626 95.2048 1.41626H95.1957C94.9932 1.40376 94.7907 1.39868 94.5882 1.40043C94.3982 1.38968 94.2082 1.37385 94.0182 1.35285C91.7223 1.08143 89.4507 0.140929 87.1765 1.06226C86.1623 1.4726 85.3557 2.10493 84.8457 2.9116C84.0765 3.12101 83.3173 3.36068 82.5723 3.63893C79.3457 3.72335 76.1482 5.45468 74.5165 8.26051C72.219 7.99985 69.7257 8.44193 68.2065 10.3194C67.8107 10.8079 67.504 11.3819 67.3007 11.9913C65.7515 12.4926 64.3182 13.3858 63.3798 14.731C62.5232 15.9586 62.359 17.5458 62.9382 18.8636C61.5548 19.8659 60.474 21.3008 59.954 22.9951C59.6372 24.0246 59.5902 25.0882 59.7937 26.1014C58.3777 26.4157 57.0233 26.9981 55.8233 27.8722C54.5657 28.7879 52.9952 30.2453 52.9124 31.9228C52.9062 32.0458 52.911 32.1689 52.9208 32.2918C50.1524 32.0971 47.3295 32.5663 45.4582 34.7867C44.0531 36.4527 43.4423 38.5981 43.8173 40.5513C40.5233 41.2206 37.4087 42.9431 35.2362 45.4898C33.6572 47.3409 32.254 49.6939 32.3383 52.2141C32.3647 52.9734 32.5427 53.7378 32.8508 54.444V54.4457C32.7187 54.6942 32.583 54.9707 32.4527 55.2648C30.4122 56.693 28.9298 58.9318 28.0953 61.399C27.4212 63.3982 26.9969 65.994 27.7168 68.0282C27.8262 68.3382 27.9652 68.6307 28.1272 68.9024C27.9915 69.0465 27.8631 69.1907 27.7381 69.3373C26.3629 70.9448 24.9703 72.9707 25.0656 75.184C25.1043 76.0757 25.4352 76.9723 25.9758 77.7082C24.0742 79.6373 22.5427 82.0707 22.6939 84.789C22.8242 87.154 24.1219 89.5565 26.1552 90.6924C25.8156 92.5157 26.2698 94.4382 27.6887 95.8615C28.3966 96.5732 29.2309 97.0415 30.1149 97.2915C30.3121 99.439 32.2168 101.167 34.2397 101.663C34.6167 101.757 34.9934 101.813 35.3682 101.839C37.1887 102.732 39.3594 102.63 41.2168 101.811C41.7643 102.507 42.4774 103.074 43.3083 103.481C43.6447 103.647 44.0004 103.784 44.3717 103.895C46.995 104.672 49.6853 103.618 51.9792 102.389C52.0531 102.35 52.1887 102.301 52.3083 102.247C52.6252 102.6 53.2027 102.951 53.5037 103.123C54.5251 103.71 55.7733 103.982 56.9458 103.906C58.3208 103.814 59.5337 103.359 60.6573 102.713C60.8207 102.742 60.9865 102.757 61.1515 102.766C62.2082 102.822 63.1498 102.487 63.9973 101.959C64.5565 102.033 65.1307 102.026 65.7115 101.924C66.9915 102.25 68.2382 101.732 69.2398 100.909C69.6832 100.545 70.0582 100.117 70.4598 99.7082C70.8773 99.2832 71.194 99.1849 71.6815 98.8998C72.8348 98.2257 72.974 96.5148 72.474 95.2782C72.569 95.0623 72.624 94.8207 72.624 94.5532C72.6198 92.2173 71.5448 90.0757 70.224 88.2073C69.634 87.374 68.9932 86.5582 68.2907 85.819C67.7257 85.2257 66.9315 84.2623 66.0957 84.0207C66.0448 83.984 65.9915 83.9465 65.939 83.9115C66.1007 83.344 66.1957 82.7665 66.1557 82.1765C66.1132 81.5707 65.9173 80.9965 65.604 80.5073C66.6548 78.469 67.099 76.234 66.8882 73.9024C67.7432 72.689 68.3915 71.3482 68.7257 69.8798C68.9315 68.9707 69.0498 68.0148 69.034 67.0823C69.0265 66.6357 68.8632 66.0698 68.8598 65.6065C68.884 65.7532 69.074 65.2074 69.1482 65.0715C69.9965 63.4949 71.0865 62.2657 71.2682 60.4073C71.3732 59.3208 71.1165 58.1198 70.4648 57.2286C70.8823 55.5836 70.8773 53.8168 70.2207 52.2478C70.044 51.8286 69.8423 51.4182 69.6098 51.029C69.7165 50.7014 69.8157 50.3703 69.9423 50.0724C69.9915 49.9544 70.0407 49.8348 70.0898 49.7151C70.5673 49.294 71.0107 48.8344 71.384 48.3834C72.2115 47.3849 72.844 46.2402 72.9232 44.9208C72.9615 44.2603 72.8065 43.628 72.6148 43.0012C72.5298 42.7176 72.479 42.4023 72.379 42.1258C72.3223 41.9724 72.1865 41.8158 72.1398 41.6714C72.129 41.6398 72.1198 41.6133 72.1132 41.5922C72.1198 41.5711 72.1257 41.527 72.1257 41.4441C72.1273 40.8118 72.2098 40.1936 72.2132 39.5843C72.7923 40.1691 73.4898 40.6057 74.2823 40.8613C75.879 41.3738 77.5448 41.1413 78.9582 40.3505C80.479 41.3932 82.189 42.337 83.9807 42.7158C85.0457 42.9412 86.1132 42.8479 87.1815 42.9871C88.2432 43.1263 89.2698 43.5894 90.2698 43.9505C92.4948 44.7554 94.7148 45.5813 96.9473 46.3652C98.7507 46.9975 100.701 47.4994 102.588 47.1437C103.118 47.9607 103.806 48.6513 104.689 49.1585C105.321 49.5196 106.014 49.7643 106.731 49.8859C107.365 49.9933 108.108 49.9511 108.621 50.3861C109.123 50.8088 109.436 51.4392 109.887 51.9149C110.39 52.4468 111.009 52.9083 111.659 53.2393C112.18 53.5053 112.711 53.6971 113.252 53.8223C113.205 55.0253 113.159 56.2264 113.145 57.4311C113.118 60.0482 113.129 62.6657 113.094 65.2832C113.058 67.8907 112.976 70.4998 112.838 73.1049C112.708 75.549 112.525 78.0023 111.942 80.3873C110.009 88.3007 102.768 93.9665 94.6623 94.2557C92.2557 94.3415 89.8732 94.0032 87.5723 93.2957C85.189 92.5607 83.0598 91.0498 80.6165 90.5848C79.9773 90.4648 79.3757 91.1082 79.7415 91.7257C80.3715 92.7882 81.1373 93.4365 82.1848 94.0757C83.2823 94.7432 84.504 95.2382 85.7098 95.6715C87.9282 96.4673 90.2748 96.929 92.629 97.0574C94.4248 97.1557 96.2273 97.0332 97.9865 96.6948C98.1098 97.0732 98.3282 97.4415 98.4932 97.7923C98.5182 97.8432 98.6007 97.8082 98.5848 97.7548C98.5582 97.6673 98.5407 97.5898 98.534 97.5257C99.1257 98.2973 100.039 98.8307 100.977 99.0898C101.639 99.2732 102.342 99.329 103.023 99.2523C103.243 99.2273 103.452 99.1907 103.661 99.1448C104.354 99.7523 105.241 100.157 106.132 100.36C105.979 101.29 106.439 102.304 107.504 102.568C107.951 102.68 108.381 102.682 108.811 102.641C109.157 102.802 109.531 102.93 109.926 103.016C110.442 103.128 111.058 102.984 111.447 102.611C111.661 102.761 111.859 102.864 112.057 103.102C112.868 104.082 114.618 103.302 114.696 102.169C114.952 102.169 115.212 102.172 115.471 102.181C115.532 102.209 115.593 102.237 115.657 102.267C116.789 102.794 117.961 103.254 119.213 102.84C119.444 102.764 119.655 102.667 119.847 102.554C120.729 102.634 121.599 102.636 122.493 102.347C123.021 102.176 123.518 101.905 123.932 101.549C125.312 101.954 126.768 102.137 128.141 101.635C129.169 101.26 129.996 100.668 130.58 99.8873C131.471 99.9198 132.376 99.7048 133.191 99.2798C134.585 98.5582 135.561 97.1857 136.243 95.8107C137.743 92.7757 138.631 89.5157 138.979 86.154C139.322 82.8424 138.833 79.549 138.488 76.2573Z" fill="#333333"/>
<path fill-rule="evenodd" clip-rule="evenodd" d="M95.8497 83.2565C94.6664 82.774 93.6097 81.9682 92.8381 80.939C92.5697 80.5807 92.4997 80.2032 92.5564 79.8573C92.6197 79.469 92.8497 79.1165 93.1631 78.8807C93.4772 78.644 93.8706 78.5265 94.2506 78.5865C94.5806 78.6382 94.9097 78.819 95.1697 79.194L95.2239 79.269C95.6831 79.8907 96.2814 80.3998 96.9631 80.729C97.6197 81.0457 98.3539 81.1932 99.1147 81.1073C100.562 80.944 101.561 80.1607 102.621 79.0965C102.752 78.9623 102.884 78.824 103.016 78.6832C103.1 78.5557 103.216 78.4732 103.344 78.4307C103.487 78.3823 103.649 78.3857 103.796 78.4373C103.94 78.4865 104.067 78.5815 104.152 78.7073C104.234 78.8265 104.28 78.974 104.265 79.144C104.168 80.2457 103.591 81.2298 102.773 82.0023C101.865 82.8607 100.66 83.454 99.5256 83.6623C98.2756 83.8915 97.0022 83.7273 95.8497 83.2565ZM100.115 66.2498C101.445 67.0582 103.47 68.9432 102.04 70.9473C100.356 72.7148 97.9322 70.689 96.7381 69.7723C95.6306 69.0623 94.3864 70.889 95.4139 71.7182C104.045 78.1107 107.547 66.4615 100.787 65.2998C100.043 65.1715 99.7664 65.9998 100.115 66.2498ZM84.6481 58.8139C84.7947 56.9899 87.5722 56.5757 87.8481 58.3807C88.0956 59.9973 87.8039 61.4823 87.0764 62.9382C86.3806 64.329 84.6322 63.6807 84.4997 62.414C84.3231 60.7165 84.5564 59.9482 84.6481 58.8139ZM105.786 58.0063C106.173 57.4992 106.732 57.1528 107.402 57.3486C109.495 57.9603 108.878 60.9323 108.143 62.3782C107.744 63.164 106.453 63.3632 105.87 62.6715C104.919 61.544 104.464 59.2912 105.672 58.1803C105.705 58.1228 105.741 58.0648 105.786 58.0063ZM87.0472 50.8327L87.3772 50.7748C88.3997 50.5978 89.6714 50.4278 90.3947 51.2503C90.7781 51.6863 90.9106 52.4968 90.3947 52.9143C89.4872 53.6487 88.4847 53.3641 87.3981 53.4263C86.5022 53.4777 85.6414 53.626 84.7781 53.8728C82.8856 54.414 81.3431 55.402 79.7264 56.487C79.5139 56.6293 79.2972 56.3578 79.3989 56.1593C80.3322 54.3307 82.1406 52.8285 83.9522 51.9128C84.9189 51.4241 85.9772 51.0186 87.0472 50.8327ZM103.879 50.0134L104.131 50.0653C106.885 50.6409 110.461 51.7909 111.766 54.4961C111.815 54.8786 111.762 54.9606 111.72 55.0142L111.706 55.032C111.671 55.0778 111.642 55.1408 111.476 55.1928C111.431 55.1818 111.384 55.1703 111.337 55.1579C110.74 55.0013 110.267 54.7854 109.809 54.5615L109.313 54.3169C108.737 54.0345 108.156 53.7623 107.541 53.5614C106.226 53.1327 104.876 52.8308 103.503 52.6695C103.206 52.6346 102.92 52.5342 102.693 52.362C102.479 52.1987 102.316 51.9725 102.241 51.6718C102.144 51.2828 102.171 50.9883 102.38 50.6373C102.537 50.3737 102.761 50.1909 103.02 50.086C103.282 49.9791 103.581 49.9538 103.879 50.0134Z" fill="#333333"/>
</svg>
