<svg width="142" height="204" viewBox="0 0 142 204" fill="none" xmlns="http://www.w3.org/2000/svg">
<path fill-rule="evenodd" clip-rule="evenodd" d="M19.5177 201.953C25.3923 201.971 31.1004 202.172 36.9915 202.192C60.9384 202.272 85.1059 202.155 109.14 201.184C115.933 200.909 117.628 200.917 124.392 200.49C128.385 200.476 140.381 200.146 139.781 194.704C139.515 184.569 137.007 174.478 136.217 164.371C134.701 145.37 133.41 125.775 125.796 108.003C124.034 103.759 120.249 100.983 116.503 98.4877C112.745 95.796 111.823 92.806 108.355 89.7652C107.622 89.1218 103.458 88.8602 101.218 87.2285C97.9568 84.8543 96.3393 80.9668 95.1226 80.3052C94.2276 79.8185 94.2443 76.4585 92.4501 75.2702C90.0418 73.6743 82.3693 72.4877 79.5776 72.266C76.8976 72.0527 72.2376 72.5002 69.7234 73.4818C65.5309 75.1185 63.8593 78.241 62.0126 82.2635C37.6208 89.8052 15.326 102.576 8.40201 128.334C2.43109 149.938 2.21226 173.099 4.51892 195.257C4.98034 196.877 4.65692 199.417 6.05659 200.49C1.19251 200.769 18.8578 201.773 19.5177 201.953Z" fill="white"/>
<path fill-rule="evenodd" clip-rule="evenodd" d="M130.463 180.621C130.001 180.39 129.52 180.127 128.993 180.109C128.088 180.077 128.086 178.668 128.993 178.699C129.783 178.727 130.478 179.057 131.173 179.404C131.985 179.809 131.272 181.024 130.463 180.621ZM128.993 140.96C129.61 140.961 130.233 141.039 130.708 141.471C130.989 141.729 130.967 142.208 130.708 142.468C130.429 142.745 129.993 142.724 129.712 142.468C129.803 142.551 129.713 142.469 129.679 142.45C129.671 142.446 129.667 142.443 129.664 142.441C129.658 142.439 129.651 142.438 129.639 142.434C129.566 142.416 129.493 142.398 129.418 142.384C129.417 142.388 129.261 142.374 129.224 142.373C129.147 142.37 129.07 142.369 128.993 142.369C128.611 142.369 128.288 142.048 128.288 141.665C128.288 141.284 128.612 140.96 128.993 140.96ZM122.37 156.765C122.168 157.65 120.811 157.274 121.013 156.391C121.305 155.108 121.252 153.793 121.013 152.504C120.848 151.617 122.205 151.239 122.37 152.13C122.658 153.675 122.722 155.225 122.37 156.765ZM120.592 106.128C119.543 105.879 118.505 105.849 117.433 105.849C116.524 105.848 116.526 104.439 117.433 104.439C118.629 104.439 119.797 104.491 120.966 104.769C121.849 104.979 121.473 106.337 120.592 106.128ZM117.077 140.447C116.468 140.143 115.859 139.839 115.252 139.534C114.439 139.129 115.153 137.914 115.962 138.318L117.788 139.231C118.599 139.637 117.885 140.852 117.077 140.447ZM116.823 168.194C116.052 169.307 114.967 169.999 113.665 170.344C112.787 170.577 112.415 169.218 113.29 168.985C114.222 168.739 115.049 168.289 115.608 167.483C116.121 166.743 117.342 167.448 116.823 168.194ZM111.957 118.586C111.748 118.196 111.433 118.031 111.043 118.022C110.137 118.001 110.137 116.593 111.043 116.614C111.933 116.634 112.748 117.08 113.173 117.875C113.6 118.675 112.384 119.386 111.957 118.586ZM103.023 128.164C102.771 128.439 102.282 128.432 102.028 128.164C101.872 127.999 101.742 127.816 101.638 127.615C101.599 127.539 101.563 127.461 101.52 127.387C101.501 127.354 101.479 127.321 101.458 127.289C101.45 127.283 101.435 127.267 101.419 127.25C101.148 126.964 101.155 126.542 101.419 126.254C101.672 125.979 102.161 125.986 102.415 126.254C102.57 126.419 102.701 126.602 102.803 126.803C102.843 126.879 102.88 126.956 102.923 127.031C102.942 127.064 102.963 127.096 102.985 127.128C102.993 127.134 103.008 127.15 103.023 127.167C103.294 127.454 103.288 127.876 103.023 128.164ZM102.272 148.969C101.355 149.389 100.349 149.389 99.4317 148.969C99.0842 148.81 99.0017 148.308 99.1792 148.005C99.3842 147.654 99.7967 147.594 100.143 147.752C100.558 147.943 101.146 147.943 101.562 147.752C101.908 147.594 102.317 147.649 102.525 148.005C102.703 148.31 102.618 148.81 102.272 148.969ZM99.77 163.695C99.6125 164.069 99.2717 164.267 98.8742 164.282C98.48 164.297 98.1867 163.948 98.17 163.578C98.1592 163.339 98.2883 163.134 98.4742 163.009C98.4742 162.995 98.4742 162.982 98.4742 162.969C98.4742 162.574 98.7967 162.282 99.1783 162.264C99.5583 162.248 99.8833 162.6 99.8825 162.969C99.8825 163.218 99.8675 163.464 99.77 163.695ZM96.1358 187.109C95.0125 187.126 93.9142 187.394 92.79 187.413C91.8817 187.427 91.8842 186.019 92.79 186.004C93.9142 185.985 95.0117 185.718 96.1358 185.699C97.0442 185.684 97.0417 187.094 96.1358 187.109ZM91.4625 96.816C90.805 97.4427 89.9917 97.7519 89.1908 98.1435C88.3783 98.5402 87.665 97.3252 88.48 96.9268C89.1583 96.5952 89.91 96.3502 90.4667 95.8202C91.1233 95.1944 92.1208 96.1894 91.4625 96.816ZM89.6967 113.057C89.235 112.826 88.7533 112.562 88.2267 112.544C87.3217 112.512 87.32 111.104 88.2267 111.135C89.0175 111.163 89.7117 111.493 90.4075 111.84C91.2192 112.245 90.505 113.46 89.6967 113.057ZM81.23 178.238C81.0217 177.847 80.7067 177.682 80.3167 177.674C79.41 177.653 79.41 176.244 80.3167 176.264C81.2058 176.284 82.0217 176.731 82.4458 177.526C82.8733 178.327 81.6575 179.038 81.23 178.238ZM78.2975 147.641C78.0175 147.384 78.0367 146.906 78.2975 146.645C78.6017 146.341 78.9058 146.037 79.21 145.732C79.4883 145.454 79.925 145.474 80.2058 145.732C80.4867 145.989 80.4667 146.468 80.2058 146.729C79.9017 147.033 79.5975 147.337 79.2933 147.641C79.015 147.92 78.5783 147.899 78.2975 147.641ZM74.84 195.325C73.8242 195.302 72.8717 195.01 71.915 194.692C71.0583 194.406 71.4275 193.046 72.29 193.333C73.1208 193.609 73.9567 193.896 74.84 193.916C75.7467 193.938 75.7475 195.346 74.84 195.325ZM70.2767 165.195C69.3592 165.169 68.5975 164.702 67.9542 164.076C67.3025 163.443 68.2992 162.447 68.95 163.079C69.3183 163.438 69.7433 163.772 70.2767 163.786C71.1833 163.812 71.1842 165.22 70.2767 165.195ZM73.1108 126.448C73.1217 126.823 73.2808 127.225 73.5133 127.472C74.1358 128.131 73.1408 129.129 72.5175 128.468C72.0025 127.923 71.7242 127.194 71.7025 126.448C71.6767 125.539 73.085 125.544 73.1108 126.448ZM62.3683 95.7602C62.0733 95.1827 61.6875 94.506 61.1 94.1869C60.3017 93.7544 61.0133 92.5377 61.8108 92.9702C62.6092 93.4043 63.1808 94.2585 63.5842 95.0494C63.9967 95.856 62.7808 96.5685 62.3683 95.7602ZM60.5425 110.414C60.2158 110.404 59.8917 110.349 59.5758 110.263C59.4417 110.226 59.3083 110.184 59.1733 110.148C59.1158 110.132 58.8708 110.101 59.0208 110.109C58.64 110.089 58.3167 109.803 58.3167 109.404C58.3167 109.039 58.6408 108.679 59.0208 108.7C59.5442 108.729 60.0192 108.989 60.5425 109.004C61.4483 109.03 61.4492 110.439 60.5425 110.414ZM55.9787 132.935H54.4576C53.5498 132.935 53.5514 131.526 54.4576 131.526H55.9787C56.8867 131.526 56.885 132.935 55.9787 132.935ZM54.2043 195.229C53.7429 195.46 53.1993 195.679 52.8257 196.032C52.1669 196.655 51.1698 195.66 51.8298 195.036C52.3057 194.586 52.9141 194.303 53.4935 194.013C53.8348 193.842 54.2546 193.919 54.457 194.265C54.6399 194.579 54.5443 195.059 54.2043 195.229ZM50.806 177.426C50.747 177.41 50.6847 177.399 50.625 177.39C50.3856 177.358 50.1351 177.369 49.8946 177.369C48.9868 177.369 48.9883 175.959 49.8946 175.96C50.6088 175.96 51.3521 175.97 51.9138 176.471C52.1988 176.725 52.1712 177.209 51.9138 177.467C51.6338 177.747 51.2016 177.72 50.9178 177.467C50.9478 177.494 50.8451 177.438 50.806 177.426ZM49.8944 153.484C50.099 153.061 50.1022 152.786 50.1025 152.317C50.1033 151.409 51.5117 151.41 51.5109 152.317C51.5106 152.998 51.4093 153.578 51.1106 154.194C50.9438 154.539 50.4558 154.628 50.1473 154.447C49.8011 154.245 49.7288 153.825 49.8944 153.484ZM45.8221 120.432C45.0053 120.709 44.276 121.103 43.5566 121.578C42.7973 122.079 42.0925 120.859 42.8457 120.361C43.6667 119.819 44.5158 119.39 45.4477 119.073C46.3093 118.78 46.6757 120.141 45.8221 120.432ZM41.0717 96.7177C40.4648 96.7352 39.8384 96.9677 39.2976 97.2302C38.4848 97.6252 37.7715 96.4102 38.5868 96.0135C39.3594 95.6385 40.2047 95.3335 41.0717 95.3094C41.98 95.2835 41.9761 96.6927 41.0717 96.7177ZM38.942 160.022C38.7033 160.032 38.4993 159.903 38.3728 159.718C38.3597 159.718 38.3466 159.717 38.3336 159.717C37.9388 159.717 37.6466 159.394 37.6293 159.013C37.6123 158.633 37.9653 158.308 38.3336 158.308C38.5822 158.309 38.8288 158.324 39.0598 158.421C39.4328 158.579 39.6311 158.919 39.6463 159.317C39.6612 159.712 39.3116 160.005 38.942 160.022ZM35.4788 111.301C34.6138 111.584 34.2466 110.224 35.1043 109.943C36.1113 109.614 37.1401 109.359 38.1468 109.029C39.0118 108.747 39.379 110.108 38.5211 110.389C37.5146 110.718 36.4855 110.972 35.4788 111.301ZM32.3203 137.896C32.0519 138.761 30.6929 138.389 30.9619 137.521C31.2218 136.684 31.2405 135.84 31.241 134.969C31.2415 134.061 32.65 134.063 32.6494 134.969C32.6489 135.96 32.6157 136.942 32.3203 137.896ZM22.9033 169.749C22.852 170.1 22.5738 170.353 22.2098 170.369C21.8392 170.386 21.4922 170.034 21.5056 169.664C21.5314 168.955 22.1094 168.378 22.8183 168.352C23.2126 168.337 23.5059 168.686 23.5225 169.056C23.5387 169.416 23.2383 169.697 22.9033 169.749ZM18.1377 129.258C17.3935 129.506 16.5983 129.743 16.0148 130.294C15.3554 130.916 14.3583 129.921 15.0188 129.298C15.7882 128.571 16.7778 128.228 17.7633 127.899C18.6264 127.611 18.9931 128.972 18.1377 129.258ZM14.9081 156.629C14.7035 156.979 14.2893 157.042 13.9448 156.882C13.4828 156.667 12.9727 156.674 12.4747 156.674C11.5671 156.673 11.5685 155.264 12.4747 155.264C13.2429 155.265 13.9518 155.338 14.6557 155.665C15.0019 155.827 15.0863 156.324 14.9081 156.629ZM13.0833 189.847C12.6889 189.862 12.3956 189.513 12.379 189.143C12.3628 188.783 12.663 188.502 12.9984 188.449C13.0495 188.099 13.3278 187.846 13.6918 187.829C14.0625 187.813 14.4095 188.165 14.3959 188.534C14.3701 189.244 13.7924 189.821 13.0833 189.847ZM141.398 195.174C141.158 194.314 140.611 193.618 140.197 192.843C140.058 192.582 140.01 192.419 139.935 192.228C139.833 192.433 139.634 192.586 139.337 192.586C138.764 192.587 138.096 192.549 137.562 192.794C137.215 192.954 136.806 192.897 136.598 192.542C136.42 192.237 136.506 191.736 136.852 191.578C137.637 191.218 138.483 191.178 139.337 191.177C139.547 191.177 139.707 191.255 139.819 191.372C140.145 186.905 140.137 182.435 139.829 177.965C139.5 173.189 138.743 168.508 137.95 163.793C137.567 161.507 137.068 159.198 137.165 156.869C137.262 154.557 138.253 152.401 137.551 150.081C137.269 149.151 136.787 148.299 136.473 147.379C136.137 146.389 136.167 145.412 136.32 144.387C136.635 142.3 137.158 140.238 136.322 138.2C135.952 137.296 135.353 136.489 135.065 135.556C134.706 134.396 134.755 133.112 134.695 131.909C134.573 129.482 134.542 127.039 134.341 124.617C134.252 123.532 134.056 122.504 133.611 121.509C133.183 120.55 132.548 119.679 132.264 118.663C131.983 117.662 131.958 116.607 131.806 115.584C131.648 114.502 131.399 113.437 131.065 112.398C129.773 108.375 127.405 104.761 124.608 101.628C121.633 98.2969 118.079 95.7894 114.306 93.4519C112.322 92.2227 110.338 90.9935 108.356 89.7643C108.313 89.9952 108.167 90.2069 107.884 90.3019C107.14 90.5502 106.345 90.7868 105.761 91.3377C105.102 91.9602 104.105 90.9652 104.765 90.3419C105.454 89.691 106.32 89.3477 107.202 89.0469C106.298 88.4777 105.385 87.8877 104.366 87.5585C103.473 87.2702 102.157 87.5219 101.433 86.8669C100.864 86.3502 100.684 85.3944 100.467 84.6927C100.193 83.8227 99.9575 82.9052 99.6108 82.0602C99.375 81.4827 99.0317 80.9277 98.5983 80.4802C98.4083 79.7477 98.0592 79.0785 97.4433 78.671C95.8308 77.6044 93.85 78.6644 93.1408 80.186C92.5542 80.1844 91.9367 80.3127 91.3658 80.3477C90.1933 80.4219 89.0192 80.4552 87.845 80.4519C85.5475 80.4452 83.2483 80.2952 80.97 79.9902C76.8958 79.4444 72.9433 78.3435 68.9383 77.486C68.915 77.4335 68.8892 77.3802 68.8575 77.3277C67.9942 75.8794 65.845 76.1244 64.4908 76.6727C63.91 76.9069 63.3183 77.2027 62.9858 77.7519C62.6333 77.9894 62.3292 78.2785 62.1267 78.5835C61.7075 79.2119 61.3833 80.4802 60.5333 80.586C59.9733 80.6544 59.405 80.5469 58.8358 80.6277C58.125 80.7269 57.4875 80.9769 56.8308 81.2619C51.8307 83.4335 46.6617 85.8485 41.2354 86.6902C39.9628 86.8877 38.667 87.0919 37.5613 87.8052C36.6634 88.3844 35.9696 89.181 35.2286 89.936C34.5068 90.6727 33.9117 90.9985 32.8818 91.1302C31.6318 91.291 30.549 91.636 29.6353 92.5444C28.8765 93.3002 28.3818 94.2652 27.7867 95.1427C27.1808 96.0377 26.292 96.541 25.3694 97.0602C23.1881 98.2902 21.1564 99.7744 19.387 101.555C15.6599 105.31 13.4029 110.136 11.1283 114.839C8.66876 119.925 6.36942 125.074 4.77434 130.505C3.21101 135.838 2.28142 141.324 1.85184 146.862C1.39934 152.672 1.33601 158.505 0.959258 164.319C0.770841 167.224 0.628258 170.132 0.483842 173.038C0.343008 175.909 0.137007 178.784 0.17034 181.659C0.23384 187.215 1.34459 192.79 3.28667 197.993C3.77084 199.287 4.30767 200.564 4.87984 201.822C5.38176 202.926 7.09834 202.803 7.63701 201.822C7.76026 201.596 7.85709 201.364 7.93809 201.128C9.34651 201.14 10.7691 201.031 12.1688 201.161C14.6406 201.392 17.1175 201.52 19.5963 201.674C24.5015 201.979 29.4152 202.181 34.3219 202.461C34.7979 202.489 35.274 202.515 35.7499 202.544C32.2533 191.717 32.7068 180.012 32.1534 168.752C32.1088 167.844 33.5177 167.849 33.5618 168.752C34.1175 180.06 33.6444 191.795 37.2647 202.639C38.6693 202.734 40.0719 202.851 41.4698 203.021C42.5999 203.157 43.7356 203.317 44.8765 203.261C46.1705 203.199 47.4346 202.903 48.6969 202.646C50.9909 202.179 53.2004 202.39 55.5033 202.678C57.9667 202.986 60.4383 203.157 62.9167 203.264C72.8433 203.699 82.8358 204.095 92.7583 203.432C95.16 203.271 97.5558 203.046 99.9417 202.739C102.399 202.424 104.831 201.894 107.287 201.593C109.708 201.297 111.933 202.109 114.325 202.259C116.765 202.412 119.271 201.903 121.688 201.61C122.477 201.514 123.266 201.422 124.056 201.329C123.039 194.359 122.461 187.337 121.9 180.317C121.828 179.411 123.237 179.419 123.308 180.317C123.865 187.282 124.43 194.252 125.445 201.168C129.631 200.68 133.821 200.187 137.963 199.429C139.143 199.214 140.315 198.863 141.021 197.809C141.543 197.029 141.649 196.073 141.398 195.174Z" fill="#333333"/>
<path fill-rule="evenodd" clip-rule="evenodd" d="M84.195 12.3406C110.694 13.1799 112.292 25.7714 112.292 46.8876C112.292 68.0043 98.5459 81.311 93.4842 83.6343C88.4225 85.9576 75.0942 95.9376 63.0667 91.3385C51.039 86.7401 54.522 67.3093 54.522 58.9601C54.522 50.6118 57.6967 11.5014 84.195 12.3406Z" fill="white"/>
<path fill-rule="evenodd" clip-rule="evenodd" d="M94.945 76.6994C90.0783 79.4169 84.5066 79.5227 79.2725 77.8119C76.1333 76.7894 73.255 75.2077 70.5608 73.316C68.2175 71.6685 66.1258 69.8427 64.0541 67.9035C62.3483 64.1394 60.8291 60.3827 60.1175 56.2877C59.48 52.6119 59.3958 48.7952 60.135 45.1269C65.6033 40.6269 71.0383 36.0899 76.4658 31.5389C79.23 29.221 82.0008 26.9157 84.8058 24.647C86.23 23.4952 87.64 22.3257 89.0591 21.1685C89.2933 20.9784 89.5258 20.7881 89.76 20.5979C92.6891 22.7431 95.83 24.582 98.7391 26.7623C100.262 27.9054 101.742 29.1224 103.152 30.4026C103.892 31.0739 104.614 31.766 105.318 32.4758C105.962 33.1241 106.584 34.0539 107.497 34.2989C107.622 34.3321 107.741 34.3392 107.852 34.3234C109.073 45.0247 109.942 56.5802 104.707 66.2985C102.423 70.5385 99.1858 74.3285 94.945 76.6994ZM63.2883 80.6319C62.6183 80.0177 63.6166 79.0244 64.2841 79.6352C68.475 83.476 73.9541 85.5118 79.4891 86.4544C80.3816 86.6068 80.0008 87.9644 79.1141 87.8127C73.3358 86.8294 67.6566 84.6352 63.2883 80.6319ZM58.2591 86.5244C57.4591 86.0952 58.1716 84.8794 58.97 85.3077C62.235 87.0602 65.8166 87.9702 69.45 88.5852C70.3433 88.736 69.9616 90.0935 69.075 89.9435C65.3191 89.3077 61.6333 88.3352 58.2591 86.5244ZM71.5483 27.1659C74.2583 24.7334 77.17 22.4189 80.2458 20.4659C83.3583 18.4898 86.7583 17.3079 90.4325 17.2798C90.175 17.4859 89.9308 17.7148 89.6825 17.9277C88.9891 18.5214 88.2966 19.1185 87.605 19.7138C86.2208 20.9062 84.8333 22.0966 83.4675 23.3085C80.7775 25.6968 78.0783 28.0727 75.3933 30.4663C70.2333 35.0666 65.1841 39.7673 60.2441 44.6039C60.2708 44.4858 60.2983 44.3678 60.3266 44.2499C61.9625 37.4162 66.4108 31.7784 71.5483 27.1659ZM92.7883 17.5774C92.8058 17.5245 92.8183 17.4733 92.825 17.4241C99.8758 18.3435 105.765 23.5338 107.712 30.3676C107.543 30.6036 107.45 30.8836 107.485 31.1811C107.502 31.331 107.52 31.4824 107.538 31.6322C107.297 31.3928 107.048 31.1689 106.837 30.9559C106.135 30.2443 105.415 29.5519 104.675 28.8774C103.163 27.4985 101.592 26.2093 99.9375 25.0064C97.0591 22.9139 93.9425 20.9907 90.5116 19.9868C90.7366 19.8019 90.9625 19.6169 91.1891 19.4337C91.8675 18.8823 92.4958 18.428 92.7883 17.5774ZM105.429 10.2699C101.1 5.53744 95.105 2.07136 88.7916 0.866606C82.7633 -0.285228 76.5225 0.473856 70.8275 2.71244C58.91 7.39736 49.5065 17.6991 45.1033 29.6367C42.5364 36.5919 41.6949 44.2164 42.4661 51.5785C43.2336 58.9069 45.4395 66.4752 49.4536 72.7102C49.8216 73.281 50.2248 73.8285 50.6473 74.3585C50.459 76.511 49.7406 78.621 48.6104 80.456C48.5496 80.5544 48.4855 80.651 48.4221 80.7477C47.2648 81.6144 46.0642 82.4285 44.8922 83.2677C43.8765 83.996 42.8713 84.7427 41.9161 85.5485C41.0145 86.3094 39.9675 87.1569 39.3572 88.1844C38.857 89.0252 38.6528 90.1694 39.3355 90.9719C40.1582 91.9385 41.5523 91.5977 42.6667 91.5977C42.7621 91.5977 42.8574 91.6002 42.9526 91.601C43.2873 91.811 43.632 92.0019 43.966 92.1785C47.341 93.9685 50.7283 95.7385 54.1191 97.4994C60.8725 101.009 67.5983 104.661 74.4908 107.893C77.6841 109.392 81.1033 110.702 84.6808 110.697C88.0366 110.691 91.07 109.358 93.69 107.331C96.6758 105.022 99.1725 102.089 101.594 99.2152C102.562 98.0644 103.512 96.901 104.443 95.721C106.232 95.1235 108.007 94.9494 109.602 96.101C110.882 97.026 112.568 95.7685 112.598 94.3802C112.608 93.8877 112.587 93.401 112.535 92.9219C112.214 89.9627 110.767 87.286 109.137 84.8027C108.246 83.4444 107.307 82.111 106.364 80.7902C106.142 80.4785 105.924 80.1669 105.712 79.8502C109.503 74.2669 112.51 68.076 114.358 61.6069C116.301 54.7994 116.961 47.741 116.527 40.6868C115.862 29.8762 112.897 18.4351 105.429 10.2699Z" fill="#333333"/>
<path fill-rule="evenodd" clip-rule="evenodd" d="M92.1708 69.0093C90.9874 68.5268 89.9308 67.721 89.1591 66.6918C88.8908 66.3335 88.8208 65.956 88.8774 65.6101C88.9408 65.2218 89.1708 64.8693 89.4841 64.6335C89.7983 64.3968 90.1916 64.2793 90.5716 64.3393C90.9016 64.391 91.2308 64.5718 91.4908 64.9468L91.5449 65.0218C92.0041 65.6435 92.6025 66.1526 93.2841 66.4818C93.9408 66.7985 94.675 66.946 95.4358 66.8601C96.8833 66.6968 97.8816 65.9135 98.9424 64.8493C99.0733 64.7151 99.2049 64.5768 99.3374 64.436C99.4208 64.3085 99.5366 64.226 99.6649 64.1835C99.8083 64.1351 99.9699 64.1385 100.117 64.1901C100.261 64.2393 100.388 64.3343 100.473 64.4601C100.555 64.5793 100.601 64.7268 100.586 64.8968C100.489 65.9985 99.9125 66.9826 99.0941 67.7551C98.1858 68.6135 96.9808 69.2068 95.8466 69.4151C94.5966 69.6443 93.3233 69.4801 92.1708 69.0093ZM96.4358 52.0026C97.7658 52.811 99.7908 54.696 98.3608 56.7001C96.6774 58.4676 94.2533 56.4418 93.0591 55.5251C91.9516 54.8151 90.7074 56.6418 91.7349 57.471C100.366 63.8635 103.868 52.2143 97.1083 51.0526C96.3641 50.9243 96.0875 51.7526 96.4358 52.0026ZM80.9691 44.5667C81.1158 42.7427 83.8933 42.3285 84.1691 44.1335C84.4166 45.7501 84.1249 47.2351 83.3974 48.691C82.7016 50.0818 80.9533 49.4335 80.8208 48.1668C80.6441 46.4693 80.8775 45.701 80.9691 44.5667ZM102.107 43.7591C102.494 43.252 103.053 42.9056 103.723 43.1014C105.816 43.713 105.199 46.6851 104.464 48.131C104.065 48.9168 102.774 49.116 102.191 48.4243C101.24 47.2968 100.785 45.044 101.993 43.933C102.026 43.8756 102.062 43.8176 102.107 43.7591ZM83.3683 36.5855L83.6983 36.5275C84.7208 36.3506 85.9924 36.1806 86.7158 37.003C87.0991 37.4391 87.2316 38.2496 86.7158 38.667C85.8083 39.4015 84.8058 39.1169 83.7191 39.179C82.8233 39.2305 81.9624 39.3788 81.0991 39.6255C79.2066 40.1668 77.6641 41.1548 76.0474 42.2398C75.8349 42.382 75.6183 42.1106 75.7199 41.9121C76.6533 40.0835 78.4616 38.5813 80.2733 37.6656C81.2399 37.1769 82.2983 36.7714 83.3683 36.5855ZM100.2 35.7662L100.452 35.818C103.206 36.3937 106.782 37.5437 108.087 40.2489C108.136 40.6314 108.083 40.7134 108.041 40.767L108.027 40.7848C107.992 40.8305 107.963 40.8935 107.797 40.9456C107.752 40.9346 107.705 40.923 107.658 40.9107C107.061 40.754 106.588 40.5382 106.13 40.3143L105.634 40.0697C105.058 39.7873 104.477 39.5151 103.862 39.3142C102.547 38.8855 101.197 38.5835 99.8241 38.4223C99.5266 38.3874 99.2408 38.287 99.0141 38.1148C98.7999 37.9515 98.6366 37.7253 98.5616 37.4246C98.4649 37.0356 98.4925 36.741 98.7008 36.39C98.8583 36.1265 99.0824 35.9437 99.3408 35.8388C99.6033 35.7319 99.9024 35.7066 100.2 35.7662Z" fill="#333333"/>
<path fill-rule="evenodd" clip-rule="evenodd" d="M112.193 53.0751C110.055 55.2851 106.488 55.9192 103.643 54.7342C96.3409 51.6817 99.915 42.1623 105.547 39.6059C106.25 39.4305 107.19 39.0142 108.047 38.9199C108.124 38.8818 108.293 38.9919 108.498 38.8878C114.707 39.5814 116.121 49.2242 112.193 53.0751ZM88.64 53.6409C86.2434 56.8217 81.7859 57.8034 78.1442 56.3242C70.95 53.4901 73.5017 45.0487 78.4242 41.7392C88.8217 37.8308 93.115 47.7759 88.64 53.6409ZM73.045 46.5926C73.0384 46.5892 73.0317 46.5884 73.025 46.5851C73.0625 46.5684 73.1009 46.5517 73.1384 46.5342C73.1267 46.5667 73.1125 46.5984 73.1009 46.6309C73.0825 46.6176 73.0659 46.6026 73.045 46.5926ZM117.142 43.1542C116.555 43.1554 115.707 43.252 115.221 43.6593C114.023 39.6167 109.6 35.8753 105.753 38.6035C102.724 39.578 100.477 41.7392 99.1992 44.6125C96.8959 43.2419 93.2742 43.8272 91.2767 45.6401C89.9683 41.3157 86.7492 39.8015 82.9175 39.578C78.735 38.8927 74.5667 42.9561 73.2659 46.2159C72.1842 46.0926 70.5684 45.7484 69.5509 46.4159C62.9475 44.6837 51.4024 43.7286 50.06 44.6911C49.1034 45.0583 48.5784 47.3176 49.9146 47.4392C51.079 47.2734 49.7787 45.7842 50.9524 45.6217C57.2067 45.2336 63.2775 46.4934 69.4659 47.0226C70.0184 47.7659 71.8034 48.0142 72.7559 47.7159C71.2559 53.2451 74.4934 57.0076 79.3442 58.1342C86.8567 59.8601 93.3917 53.1384 91.4275 46.1459C93.7034 45.0134 96.3209 45.062 98.7992 45.6584C94.6567 60.9092 119.209 60.2251 115.375 44.1819C117.927 45.4517 118.481 43.4105 117.142 43.1542Z" fill="#333333"/>
</svg>
